<svg width="25" height="24" viewBox="0 0 25 24" fill="none" xmlns="http://www.w3.org/2000/svg">
<mask id="mask0" mask-type="alpha" maskUnits="userSpaceOnUse" x="0" y="0" width="25" height="24">
<rect x="0.5" width="24" height="24" fill="black"/>
</mask>
<g mask="url(#mask0)">
<path d="M10.5183 15.0285C10.9478 14.599 11.3756 14.1713 11.8051 13.7417C12.4694 13.0775 13.1336 12.4132 13.7979 11.7489C13.9805 11.5663 14.1596 11.3646 14.3631 11.2029C14.3161 11.2394 14.2692 11.2759 14.2222 11.3124C14.3457 11.2185 14.4796 11.1385 14.6222 11.0777C14.5665 11.1003 14.5109 11.1246 14.4552 11.1472C14.61 11.0829 14.7717 11.0377 14.9386 11.0151C14.8778 11.0238 14.8152 11.0325 14.7543 11.0394C14.9126 11.0203 15.0708 11.0203 15.229 11.0394C15.1682 11.0307 15.1056 11.022 15.0447 11.0151C15.2117 11.0377 15.3734 11.0812 15.5281 11.1472C15.4725 11.1246 15.4169 11.1003 15.3612 11.0777C15.5038 11.1403 15.6377 11.2185 15.7612 11.3124C15.7142 11.2759 15.6673 11.2394 15.6203 11.2029C15.7403 11.2968 15.8464 11.4029 15.9403 11.5228C15.9038 11.4759 15.8672 11.4289 15.8307 11.382C15.9246 11.5055 16.0046 11.6394 16.0655 11.7819C16.0429 11.7263 16.0185 11.6707 15.9959 11.615C16.0603 11.7698 16.1055 11.9315 16.1281 12.0984C16.1194 12.0376 16.1107 11.975 16.1037 11.9141C16.1229 12.0724 16.1229 12.2306 16.1037 12.3888C16.1124 12.328 16.1211 12.2654 16.1281 12.2045C16.1055 12.3714 16.062 12.5332 15.9959 12.6879C16.0185 12.6323 16.0429 12.5766 16.0655 12.521C16.0029 12.6636 15.9246 12.7975 15.8307 12.921C15.8672 12.874 15.9038 12.8271 15.9403 12.7801C15.7925 12.9679 15.6081 13.1314 15.4395 13.3018C15.1195 13.6217 14.8013 13.94 14.4813 14.2599C13.7753 14.9659 13.071 15.6702 12.365 16.3762C12.1303 16.611 11.9007 16.8544 11.6381 17.0596C11.6851 17.0231 11.732 16.9866 11.779 16.9501C11.5286 17.1361 11.2591 17.2926 10.9739 17.4144C11.0295 17.3918 11.0852 17.3674 11.1408 17.3448C10.8382 17.4718 10.52 17.5587 10.1948 17.6039C10.2557 17.5952 10.3183 17.5865 10.3791 17.5796C10.047 17.623 9.7114 17.623 9.381 17.5796C9.44186 17.5883 9.50446 17.597 9.56533 17.6039C9.24015 17.5587 8.92192 17.4718 8.61935 17.3448C8.67499 17.3674 8.73064 17.3918 8.78628 17.4144C8.49936 17.2926 8.23156 17.1361 7.98289 16.9466C8.02984 16.9831 8.0768 17.0196 8.12375 17.0561C7.86986 16.8596 7.6438 16.6336 7.4473 16.3797C7.48382 16.4267 7.52034 16.4736 7.55685 16.5206C7.36557 16.2736 7.20907 16.0041 7.08734 15.7172C7.10995 15.7728 7.13429 15.8285 7.1569 15.8841C7.02996 15.5815 6.94301 15.2633 6.8978 14.9381C6.90649 14.999 6.91519 15.0616 6.92214 15.1224C6.87867 14.7903 6.87867 14.4547 6.92214 14.1243C6.91345 14.1852 6.90475 14.2478 6.8978 14.3086C6.94301 13.9834 7.02996 13.6652 7.1569 13.3626C7.13429 13.4183 7.10995 13.4739 7.08734 13.5296C7.20907 13.2427 7.36557 12.9749 7.55511 12.7262C7.5186 12.7731 7.48208 12.8201 7.44556 12.867C7.69597 12.5436 8.0055 12.2619 8.29416 11.975C8.80541 11.4637 9.31492 10.9542 9.82617 10.443C10.4557 9.81347 11.0852 9.18398 11.7147 8.55448C12.252 8.01715 12.7893 7.47982 13.3249 6.94422C13.551 6.71816 13.7753 6.4921 14.0031 6.26604C14.1161 6.15301 14.2361 6.04867 14.3631 5.94955C14.3161 5.98607 14.2692 6.02259 14.2222 6.0591C14.4691 5.86956 14.7387 5.71306 15.0256 5.59133C14.9699 5.61394 14.9143 5.63828 14.8587 5.66089C15.1612 5.53395 15.4795 5.447 15.8046 5.40179C15.7438 5.41048 15.6812 5.41918 15.6203 5.42613C15.9524 5.38266 16.2881 5.38266 16.6185 5.42613C16.5576 5.41744 16.495 5.40874 16.4341 5.40179C16.7593 5.447 17.0775 5.53395 17.3801 5.66089C17.3245 5.63828 17.2688 5.61394 17.2132 5.59133C17.5001 5.71306 17.7679 5.86956 18.0166 6.0591C17.9696 6.02259 17.9227 5.98607 17.8757 5.94955C18.1296 6.14605 18.3557 6.37211 18.5522 6.626C18.5156 6.57905 18.4791 6.5321 18.4426 6.48514C18.6322 6.73207 18.7887 7.00161 18.9104 7.28853C18.8878 7.23289 18.8634 7.17724 18.8408 7.1216C18.9678 7.42417 19.0547 7.7424 19.0999 8.06758C19.0912 8.00672 19.0825 7.94411 19.0756 7.88325C19.1191 8.21539 19.1191 8.551 19.0756 8.8814C19.0843 8.82054 19.093 8.75794 19.0999 8.69707C19.0547 9.02225 18.9678 9.34048 18.8408 9.64306C18.8634 9.58741 18.8878 9.53176 18.9104 9.47612C18.7887 9.76304 18.6322 10.0308 18.4426 10.2795C18.4791 10.2326 18.5156 10.1856 18.5522 10.1387C18.4548 10.2656 18.3487 10.3856 18.2357 10.4986C17.9783 10.7577 17.9574 11.2272 18.2357 11.4829C18.5122 11.7367 18.9452 11.7593 19.2199 11.4829C20.1398 10.556 20.6337 9.21006 20.4685 7.90586C20.3833 7.23463 20.1815 6.586 19.8094 6.01389C19.4355 5.4383 18.933 4.94792 18.34 4.60014C17.2306 3.94977 15.8064 3.80892 14.6013 4.27148C14.0066 4.49928 13.471 4.82968 13.0171 5.2818C12.9563 5.34266 12.8971 5.40179 12.8363 5.46265C12.4798 5.81913 12.125 6.17387 11.7686 6.53036C11.226 7.07291 10.6852 7.61372 10.1427 8.15626C9.57924 8.71968 9.01756 9.28136 8.45415 9.84477C8.02811 10.2708 7.60381 10.6951 7.17777 11.1212C6.86302 11.4359 6.55523 11.7402 6.29091 12.1054C5.53273 13.1522 5.31362 14.5695 5.65967 15.8111C5.844 16.4684 6.18309 17.0701 6.63696 17.5761C7.09604 18.0891 7.67858 18.4595 8.31329 18.7151C9.5149 19.195 10.9373 19.0646 12.0555 18.4299C12.5911 18.1256 13.0102 17.6926 13.4397 17.2631C13.9648 16.7379 14.49 16.2128 15.0134 15.6893C15.5021 15.2007 15.989 14.7138 16.4776 14.2252C16.5732 14.1295 16.6689 14.0339 16.7645 13.9382C17.2375 13.4618 17.5123 12.8027 17.5036 12.1297C17.4949 11.4081 17.1697 10.6742 16.5993 10.2221C16.295 9.98215 15.9577 9.79087 15.5734 9.70566C15.1821 9.61871 14.7908 9.61871 14.4013 9.70566C13.9318 9.80999 13.5075 10.0708 13.1701 10.4099C13.0362 10.5438 12.9006 10.6795 12.7667 10.8134C12.2416 11.3385 11.7164 11.8637 11.1912 12.3888C10.7148 12.8653 10.2383 13.3418 9.76183 13.8182C9.68531 13.8948 9.6088 13.9713 9.53055 14.0495C9.27319 14.3069 9.25406 14.7799 9.53055 15.0338C9.81226 15.2824 10.2418 15.3033 10.5183 15.0285Z" fill="white"/>
</g>
</svg>
