<svg width="22" height="17" viewBox="0 0 22 17" fill="none" xmlns="http://www.w3.org/2000/svg">
<path d="M7.77511 12.3907C8.3657 11.9223 8.9539 11.4557 9.54448 10.9873C10.4579 10.2628 11.3712 9.53834 12.2846 8.81388C12.5357 8.61474 12.782 8.39474 13.0617 8.21837C12.9971 8.2582 12.9326 8.29802 12.868 8.33785C13.0378 8.23544 13.2219 8.1482 13.418 8.08182C13.3415 8.10648 13.2649 8.13303 13.1884 8.15768C13.4012 8.08751 13.6236 8.0382 13.8531 8.01355C13.7695 8.02303 13.6834 8.03251 13.5997 8.0401C13.8173 8.01924 14.0349 8.01924 14.2524 8.0401C14.1688 8.03061 14.0827 8.02113 13.999 8.01355C14.2285 8.0382 14.4509 8.08561 14.6637 8.15768C14.5872 8.13303 14.5107 8.10648 14.4342 8.08182C14.6302 8.1501 14.8143 8.23544 14.9841 8.33785C14.9195 8.29802 14.855 8.2582 14.7904 8.21837C14.9554 8.32078 15.1013 8.43647 15.2304 8.56733C15.1802 8.51612 15.13 8.46492 15.0797 8.41371C15.2089 8.54836 15.3188 8.69439 15.4025 8.84991C15.3714 8.78922 15.338 8.72853 15.3069 8.66784C15.3954 8.83663 15.4575 9.01301 15.4886 9.19507C15.4767 9.1287 15.4647 9.06042 15.4551 8.99404C15.4814 9.16663 15.4814 9.33921 15.4551 9.51179C15.4671 9.44541 15.479 9.37714 15.4886 9.31076C15.4575 9.49283 15.3977 9.6692 15.3069 9.83799C15.338 9.7773 15.3714 9.71661 15.4025 9.65593C15.3165 9.81144 15.2089 9.95747 15.0797 10.0921C15.13 10.0409 15.1802 9.98971 15.2304 9.93851C15.0271 10.1433 14.7737 10.3216 14.5418 10.5075C14.1018 10.8564 13.6642 11.2035 13.2243 11.5524C12.2535 12.3224 11.2852 13.0905 10.3144 13.8605C9.99161 14.1165 9.67599 14.382 9.31495 14.6058C9.3795 14.566 9.44406 14.5262 9.50862 14.4863C9.16431 14.6893 8.7937 14.86 8.40157 14.9927C8.47808 14.9681 8.55459 14.9415 8.63111 14.9169C8.21507 15.0553 7.77751 15.1501 7.33038 15.1994C7.41407 15.19 7.50015 15.1805 7.58383 15.1729C7.12714 15.2203 6.66567 15.2203 6.21137 15.1729C6.29506 15.1824 6.38114 15.1918 6.46483 15.1994C6.0177 15.1501 5.58014 15.0553 5.1641 14.9169C5.24061 14.9415 5.31713 14.9681 5.39364 14.9927C4.99912 14.86 4.6309 14.6893 4.28898 14.4826C4.35354 14.5224 4.4181 14.5622 4.48265 14.602C4.13356 14.3877 3.82273 14.1412 3.55254 13.8643C3.60275 13.9155 3.65296 13.9667 3.70317 14.0179C3.44016 13.7486 3.22497 13.4546 3.05759 13.1417C3.08868 13.2024 3.12215 13.2631 3.15324 13.3238C2.97869 12.9938 2.85914 12.6467 2.79697 12.2921C2.80893 12.3585 2.82088 12.4267 2.83044 12.4931C2.77067 12.1309 2.77067 11.7648 2.83044 11.4045C2.81849 11.4709 2.80653 11.5392 2.79697 11.6055C2.85914 11.2509 2.97869 10.9038 3.15324 10.5738C3.12215 10.6345 3.08868 10.6952 3.05759 10.7559C3.22497 10.443 3.44016 10.1509 3.70078 9.87972C3.65057 9.93092 3.60036 9.98213 3.55015 10.0333C3.89446 9.68058 4.32006 9.37335 4.71697 9.06042C5.41994 8.50285 6.12052 7.94717 6.82348 7.38959C7.68904 6.70306 8.55459 6.01652 9.42015 5.32998C10.159 4.74396 10.8978 4.15794 11.6343 3.57381C11.9451 3.32726 12.2535 3.08072 12.5668 2.83417C12.7222 2.7109 12.8872 2.59711 13.0617 2.489C12.9971 2.52883 12.9326 2.56866 12.868 2.60848C13.2076 2.40176 13.5782 2.23108 13.9727 2.09832C13.8962 2.12298 13.8197 2.14953 13.7432 2.17418C14.1592 2.03574 14.5968 1.94091 15.0439 1.8916C14.9602 1.90109 14.8741 1.91057 14.7904 1.91815C15.2471 1.87074 15.7086 1.87074 16.1629 1.91815C16.0792 1.90867 15.9931 1.89919 15.9094 1.8916C16.3566 1.94091 16.7941 2.03574 17.2102 2.17418C17.1336 2.14953 17.0571 2.12298 16.9806 2.09832C17.3751 2.23108 17.7434 2.40176 18.0853 2.60848C18.0207 2.56866 17.9562 2.52883 17.8916 2.489C18.2407 2.70331 18.5515 2.94986 18.8217 3.22675C18.7715 3.17554 18.7213 3.12434 18.6711 3.07313C18.9317 3.34244 19.1469 3.63639 19.3143 3.94932C19.2832 3.88863 19.2497 3.82794 19.2186 3.76725C19.3932 4.09725 19.5127 4.44431 19.5749 4.79896C19.5629 4.73258 19.551 4.6643 19.5414 4.59793C19.6012 4.96016 19.6012 5.32619 19.5414 5.68652C19.5534 5.62015 19.5653 5.55187 19.5749 5.4855C19.5127 5.84014 19.3932 6.1872 19.2186 6.5172C19.2497 6.45651 19.2832 6.39582 19.3143 6.33513C19.1469 6.64806 18.9317 6.94012 18.6711 7.21132C18.7213 7.16012 18.7715 7.10891 18.8217 7.0577C18.6878 7.19615 18.542 7.32701 18.3865 7.45028C18.0327 7.73286 18.004 8.24492 18.3865 8.52371C18.7667 8.8006 19.3621 8.82525 19.7399 8.52371C21.0047 7.51287 21.6838 6.04497 21.4566 4.62258C21.3395 3.89053 21.0621 3.18313 20.5504 2.55918C20.0364 1.93143 19.3454 1.39661 18.53 1.01731C17.0045 0.308014 15.0463 0.154397 13.3893 0.658869C12.5715 0.907313 11.8351 1.26765 11.211 1.76074C11.1274 1.82712 11.0461 1.8916 10.9624 1.95798C10.4722 2.34677 9.98444 2.73365 9.49427 3.12244C8.74827 3.71415 8.00466 4.30397 7.25865 4.89568C6.48395 5.51015 5.71165 6.12272 4.93695 6.73719C4.35115 7.20184 3.76773 7.66459 3.18193 8.12923C2.74915 8.4725 2.32594 8.80439 1.9625 9.20266C0.920004 10.3444 0.618733 11.89 1.09455 13.2441C1.348 13.961 1.81425 14.6172 2.43831 15.1691C3.06955 15.7286 3.87055 16.1325 4.74328 16.4113C6.39548 16.9347 8.35136 16.7925 9.88879 16.1003C10.6252 15.7684 11.2015 15.2962 11.7921 14.8277C12.5142 14.255 13.2362 13.6822 13.956 13.1114C14.6278 12.5785 15.2973 12.0474 15.9692 11.5145C16.1007 11.4102 16.2322 11.3059 16.3637 11.2016C17.0141 10.6819 17.3919 9.96316 17.3799 9.22921C17.368 8.44216 16.9208 7.64183 16.1366 7.14874C15.7182 6.88702 15.2543 6.6784 14.7259 6.58547C14.1879 6.49065 13.6499 6.49065 13.1143 6.58547C12.4687 6.69926 11.8853 6.98374 11.4215 7.35356C11.2373 7.49959 11.0508 7.64752 10.8667 7.79355C10.1446 8.3663 9.42254 8.93904 8.70045 9.51179C8.0453 10.0314 7.39016 10.5511 6.73501 11.0707C6.62981 11.1542 6.5246 11.2376 6.417 11.323C6.06313 11.6036 6.03683 12.1195 6.417 12.3964C6.80435 12.6676 7.39494 12.6903 7.77511 12.3907Z" fill="#5E5E5E"/>
</svg>
