<svg width="460" height="258" viewBox="0 0 460 258" fill="none" xmlns="http://www.w3.org/2000/svg">
<path d="M315.455 132.88L319.03 124.207C321.756 117.801 328.87 114.827 334.888 117.411C349.967 123.96 356.444 142.33 349.471 158.401L344.409 170.117C342.144 175.285 342.923 180.878 345.967 184.877C348.692 188.452 349.153 193.55 347.206 197.903L344.551 204.062C341.648 210.788 335.95 215.708 329.26 217.726C325.366 218.894 321.826 221.867 320.056 226.079L316.234 234.822C312.021 244.485 301.261 249.122 292.199 245.123L287.031 242.857C277.97 238.893 274.005 227.778 278.218 218.186C285.014 206.646 284.447 197.974 282.04 192.098C278.536 183.497 278.536 173.586 282.359 164.772L282.89 163.533C286.961 154.259 294.748 147.286 304.057 144.313C308.128 143.003 312.411 139.817 315.455 132.88Z" fill="#50BFA5"/>
<path d="M250.68 254.361C258.007 244.84 298.536 194.399 324.623 185.975C353.436 176.595 326.252 213.761 326.252 213.761C326.252 213.761 377.4 157.693 396.125 162.719C413.292 167.321 396.125 202.151 396.125 202.151C396.125 202.151 415.487 182.86 438.99 182.86C461.857 182.86 421.823 252.202 419.699 255.777L308.376 255.636L250.68 254.361Z" fill="#96D9C9"/>
<path d="M405.256 146.048C384.337 178.754 369.187 216.7 360.444 255.353H358.32C366.993 217.549 382.744 179.25 403.593 146.614C408.442 139.039 413.645 129.978 422.707 127.004C422.849 126.934 422.955 127.252 422.778 127.323C414.601 130.438 409.787 138.968 405.256 146.048Z" fill="#3C8F7C"/>
<path d="M365.188 255.529C388.549 223.672 417.185 193.939 450.918 168.312C451.237 168.064 451.697 168.63 451.379 168.842C419.38 193.514 391.204 222.539 367.382 255.423H365.188V255.529Z" fill="#3C8F7C"/>
<path d="M407.203 125.836C407.734 126.615 409.787 128.739 410.389 131.393C411.168 133.977 410.531 137.234 410.46 137.092C410.318 137.163 412.867 134.968 413.646 131.535C414.672 128.243 413.964 123.712 412.725 122.155C410.531 118.721 406.637 118.403 405.929 120.031C405.08 121.801 406.106 123.96 407.203 125.836Z" fill="#3C8F7C"/>
<path d="M412.195 154.968C411.416 154.437 409.398 152.313 406.743 151.605C404.16 150.756 400.974 151.287 401.045 151.357C400.974 151.499 403.168 149.021 406.602 148.313C409.894 147.393 414.425 148.172 415.876 149.481C419.239 151.747 419.451 155.64 417.823 156.348C416.194 157.162 413.929 156.136 412.195 154.968Z" fill="#3C8F7C"/>
<path d="M404.62 167.78C403.842 167.249 401.824 165.126 399.169 164.418C396.585 163.568 393.4 164.099 393.47 164.17C393.4 164.311 395.594 161.834 399.028 161.126C402.32 160.205 406.85 160.984 408.302 162.294C411.664 164.559 411.912 168.453 410.248 169.161C408.62 169.939 406.426 168.948 404.62 167.78Z" fill="#3C8F7C"/>
<path d="M431.558 197.514C430.779 196.983 428.762 194.859 426.107 194.151C423.523 193.301 420.337 193.832 420.408 193.903C420.337 194.045 422.532 191.567 425.965 190.859C429.257 189.939 433.788 190.718 435.239 192.027C438.602 194.293 438.814 198.186 437.186 198.894C435.558 199.708 433.292 198.611 431.558 197.514Z" fill="#3C8F7C"/>
<path d="M445.29 185.337C444.512 184.806 442.494 182.682 439.839 181.974C437.255 181.125 434.07 181.656 434.14 181.726C434.07 181.868 436.229 179.39 439.698 178.682C442.99 177.762 447.52 178.541 448.972 179.85C452.334 182.116 452.547 186.009 450.918 186.717C449.219 187.532 447.025 186.505 445.29 185.337Z" fill="#3C8F7C"/>
<path d="M396.655 140.277C397.363 140.985 399.7 142.684 400.726 145.268C401.965 147.675 401.823 150.967 401.753 150.896C401.611 150.967 403.77 148.489 404.018 144.949C404.478 141.516 403.098 137.127 401.611 135.888C398.885 132.844 395.063 133.162 394.602 134.861C393.93 136.631 395.275 138.649 396.655 140.277Z" fill="#3C8F7C"/>
<path d="M385.506 154.825C386.461 155.286 389.718 156.241 391.346 158.648C393.222 160.843 393.47 164.595 393.293 164.489C393.151 164.63 395.629 160.914 395.488 156.843C395.735 152.879 393.364 148.56 391.275 147.782C387.382 145.587 382.462 147.534 382.072 149.658C381.612 151.852 383.63 153.551 385.506 154.825Z" fill="#3C8F7C"/>
<path d="M373.86 176.842C374.887 177.16 378.25 177.549 380.267 179.638C382.462 181.443 383.311 185.089 383.17 185.018C383.028 185.16 384.904 181.125 384.125 177.125C383.665 173.16 380.621 169.302 378.427 168.913C374.214 167.355 369.684 170.152 369.684 172.346C369.507 174.576 371.772 175.886 373.86 176.842Z" fill="#3C8F7C"/>
<path d="M408.444 192.134C409.152 192.594 411.807 193.55 412.975 195.567C414.391 197.444 414.32 200.488 414.214 200.417C414.072 200.488 416.302 197.62 416.479 194.329C416.868 191.037 415.24 187.462 413.506 186.683C410.461 184.665 406.32 185.975 405.86 187.709C405.329 189.55 406.886 191.037 408.444 192.134Z" fill="#3C8F7C"/>
<path d="M426.423 130.932C425.963 130.543 424.866 129.198 423.309 128.738C421.822 128.101 419.875 128.348 419.946 128.348C419.875 128.419 421.291 127.039 423.379 126.791C425.397 126.402 427.981 127.039 428.83 127.888C430.706 129.375 430.707 131.711 429.68 132.03C428.689 132.384 427.415 131.711 426.423 130.932Z" fill="#3C8F7C"/>
<path d="M422.177 121.624C422.177 122.155 422.566 123.89 422.035 125.447C421.646 127.005 420.301 128.421 420.301 128.35C420.23 128.35 422.177 128.031 423.663 126.615C425.221 125.27 426.318 122.792 426.177 121.624C426.177 119.217 424.301 117.802 423.451 118.439C422.425 118.899 422.177 120.385 422.177 121.624Z" fill="#3C8F7C"/>
<path d="M455.133 172.984C454.672 172.595 453.575 171.25 452.018 170.789C450.531 170.152 448.584 170.4 448.655 170.4C448.584 170.471 450 169.055 452.088 168.843C454.106 168.453 456.69 169.09 457.539 169.94C459.415 171.427 459.415 173.763 458.389 174.081C457.398 174.471 456.159 173.692 455.133 172.984Z" fill="#3C8F7C"/>
<path d="M450.07 163.568C450.14 164.099 450.636 165.763 450.211 167.391C449.893 168.948 448.725 170.506 448.725 170.435C448.654 170.435 450.53 169.975 451.946 168.418C453.362 167.002 454.211 164.347 453.963 163.25C453.716 160.843 451.769 159.675 450.99 160.276C450.14 160.913 450.07 162.294 450.07 163.568Z" fill="#3C8F7C"/>
<path d="M426.956 217.726C427.098 218.575 427.983 221.159 427.416 223.672C427.098 226.185 425.293 228.592 425.222 228.522C425.08 228.522 428.018 227.743 430.071 225.159C432.266 222.823 433.434 218.681 432.974 216.947C432.513 213.195 429.399 211.39 428.124 212.487C426.815 213.513 426.708 215.85 426.956 217.726Z" fill="#3C8F7C"/>
<path d="M408.124 224.521C408.266 225.371 409.151 227.955 408.584 230.468C408.266 232.981 406.46 235.388 406.39 235.317C406.248 235.317 409.186 234.539 411.239 231.955C413.434 229.619 414.602 225.477 414.142 223.743C413.681 219.991 410.531 218.185 409.292 219.283C407.983 220.309 407.983 222.575 408.124 224.521Z" fill="#3C8F7C"/>
<path d="M389.081 233.017C389.223 233.866 390.108 236.45 389.541 238.963C389.223 241.476 387.418 243.883 387.347 243.813C387.205 243.813 390.143 243.034 392.196 240.45C394.391 238.114 395.559 233.972 395.099 232.238C394.638 228.486 391.524 226.681 390.249 227.778C388.94 228.804 388.869 231.07 389.081 233.017Z" fill="#3C8F7C"/>
<path d="M432.584 235.389C432.195 234.681 431.416 232.274 429.611 230.717C427.982 229.088 425.328 228.31 425.328 228.38C425.257 228.451 427.841 227.46 430.779 228.133C433.681 228.664 436.796 231.035 437.504 232.593C439.203 235.637 437.964 238.681 436.407 238.61C434.779 238.575 433.504 236.946 432.584 235.389Z" fill="#3C8F7C"/>
<path d="M412.975 242.325C412.585 241.618 411.806 239.211 410.001 237.653C408.373 236.025 405.718 235.246 405.718 235.317C405.647 235.388 408.231 234.397 411.169 235.069C414.072 235.6 417.187 237.972 417.895 239.529C419.629 242.573 418.355 245.617 416.797 245.547C415.24 245.511 413.93 243.883 412.975 242.325Z" fill="#3C8F7C"/>
<path d="M447.415 228.273C447.096 227.884 446.317 226.468 444.901 225.76C443.663 224.981 441.857 224.839 441.928 224.839C441.857 224.91 443.415 223.919 445.291 223.99C447.167 223.919 449.503 225.016 450.069 225.866C451.556 227.6 451.167 229.618 450.14 229.76C449.22 230.007 448.193 229.122 447.415 228.273Z" fill="#3C8F7C"/>
<path d="M445.149 219.07C445.078 219.601 445.149 221.194 444.37 222.503C443.733 223.848 442.246 224.91 442.246 224.839C442.175 224.839 443.945 224.91 445.609 223.813C447.237 222.893 448.653 220.769 448.653 219.671C449.042 217.477 447.626 215.919 446.706 216.309C445.857 216.627 445.467 217.902 445.149 219.07Z" fill="#3C8F7C"/>
<path d="M446.177 224.203C440.159 224.734 434.212 225.831 428.372 227.389C417.682 230.185 407.452 234.327 397.364 238.716C392.373 240.91 387.453 242.999 382.533 245.441C380.268 246.538 377.932 247.636 375.879 249.016C373.082 250.892 368.622 254.786 368.162 255.352L370.498 255.423C372.056 254.078 377.932 249.264 385.967 245.335C405.081 236.132 424.938 226.681 446.247 224.345C446.318 224.38 446.247 224.203 446.177 224.203Z" fill="#3C8F7C"/>
<path d="M117.73 119.216C103.04 97.3409 99.536 70.404 99.1466 51.6791C98.7572 31.3968 101.801 15.9992 101.801 15.8576L100.775 15.5391C100.775 15.6806 97.6599 31.149 98.0493 51.6083C98.4387 70.5102 102.014 97.6595 116.88 119.853L117.73 119.216Z" fill="#3C8F7C"/>
<path d="M105.094 12.0349C104.952 16.6365 103.076 20.5301 100.315 23.0433C97.8023 19.9284 96.2449 15.61 96.4219 11.0084C96.5634 6.40681 98.4395 2.51317 101.2 0C103.749 3.11491 105.236 7.43332 105.094 12.0349Z" fill="#3C8F7C"/>
<path d="M96.103 23.0435C98.6162 26.9371 99.4657 31.3971 98.8993 35.3615C95.3243 34.5828 91.7138 32.1758 89.2006 28.2468C86.6875 24.3531 85.838 19.8931 86.4043 15.9287C90.0148 16.6366 93.6252 19.1144 96.103 23.0435Z" fill="#3C8F7C"/>
<path d="M91.1819 35.6793C94.934 38.0155 97.518 41.6968 98.6153 45.6612C95.1818 46.8293 91.0404 46.3692 87.3591 44.033C83.607 41.6968 81.0231 38.0155 79.9258 34.0511C83.3947 32.883 87.5007 33.3432 91.1819 35.6793Z" fill="#3C8F7C"/>
<path d="M93.4465 53.0243C96.4199 54.8295 98.3667 58.1922 98.8976 61.8381C95.9243 63.254 92.4908 63.254 89.5175 61.3779C86.5442 59.5727 84.5974 56.21 84.0664 52.5641C87.1105 51.1483 90.4732 51.1483 93.4465 53.0243Z" fill="#3C8F7C"/>
<path d="M104.704 31.9276C107.89 29.9808 111.571 29.8038 114.686 31.0073C113.978 34.5116 111.89 37.7327 108.74 39.6087C105.554 41.5555 101.873 41.7325 98.7578 40.529C99.4657 37.0955 101.483 33.8744 104.704 31.9276Z" fill="#3C8F7C"/>
<path d="M104.775 43.9628C107.961 42.016 111.642 41.839 114.757 43.0425C114.049 46.5467 111.961 49.7678 108.74 51.6439C105.554 53.5907 101.873 53.7677 98.7578 52.5642C99.5365 49.0953 101.59 45.9096 104.775 43.9628Z" fill="#3C8F7C"/>
<path d="M102.58 226.574C71.8202 215.424 50.3344 188.7 37.6977 168.241C24.0346 146.082 17.4862 126.331 17.4862 126.083L16.0703 126.614C16.1411 126.862 22.6895 146.755 36.4588 169.09C49.2017 189.691 70.9707 216.699 102.12 228.026L102.58 226.574Z" fill="#96D9C9"/>
<path d="M18.6534 118.969C21.4497 124.278 21.9453 130.225 20.4586 135.428C15.5385 134.26 11.0077 130.827 8.21134 125.517C5.41499 120.208 4.91944 114.261 6.4061 109.058C11.3262 110.155 15.857 113.659 18.6534 118.969Z" fill="#96D9C9"/>
<path d="M15.61 139.109C20.9195 141.233 24.8839 145.445 26.7599 150.365C22.1584 152.772 16.5303 153.161 11.15 151.073C5.84046 148.949 1.87603 144.737 0 139.817C4.67237 137.41 10.3005 137.02 15.61 139.109Z" fill="#96D9C9"/>
<path d="M19.8583 170.116C27.7517 168.983 33.7692 165.267 33.2736 161.833C32.7781 158.364 25.9819 156.488 18.0884 157.621C10.195 158.754 4.17752 162.47 4.67307 165.904C5.16863 169.373 11.9648 171.249 19.8583 170.116Z" fill="#96D9C9"/>
<path d="M29.273 175.108C34.9719 174.329 40.3522 176.135 44.175 179.568C41.0601 183.851 36.14 187.072 30.4411 187.78C24.7422 188.559 19.3619 186.754 15.5391 183.32C18.5832 179.037 23.5741 175.887 29.273 175.108Z" fill="#96D9C9"/>
<path d="M28.4241 147.71C28.7427 142.082 31.0789 137.091 34.4416 133.657C37.4857 137.02 39.2202 141.94 38.9016 147.462C38.583 153.09 36.2468 158.081 32.8841 161.514C29.84 158.187 28.1056 153.267 28.4241 147.71Z" fill="#96D9C9"/>
<path d="M39.7511 165.905C39.9989 160.276 42.2643 155.286 45.5916 151.781C48.6357 155.073 50.5117 159.993 50.2639 165.515C50.0162 171.143 47.7508 176.134 44.4235 179.638C41.3086 176.453 39.5033 171.533 39.7511 165.905Z" fill="#96D9C9"/>
<path d="M47.7146 193.373C49.9092 192.205 52.3162 192.205 54.3338 193.054C53.6967 195.32 52.21 197.337 50.0508 198.505C47.8562 199.673 45.4493 199.673 43.4316 198.824C44.0334 196.594 45.5908 194.541 47.7146 193.373Z" fill="#96D9C9"/>
<path d="M176.346 196.983C176.346 196.983 200.239 144.207 192.275 132.42C181.267 116.173 167.533 166.082 166.825 161.693C160.489 120.243 161.834 67.9975 132.242 60.0333C115.464 55.5025 133.339 99.0759 131.216 110.297C129.092 121.553 101.164 81.4837 83.8901 60.2456C66.6519 39.0076 56.1745 50.7947 66.1564 76.4928C75.8551 101.306 110.827 130.508 103.004 133.021C95.1817 135.535 51.2543 100.846 44.5998 113.659C36.4939 129.269 104.102 156.914 97.3763 160.029C90.6509 163.179 58.4045 148.49 58.4045 160.985C58.4045 173.48 102.969 176.595 101.801 181.904C99.9249 190.647 71.9614 168.312 69.8022 180.418C67.5368 192.842 107.748 193.762 106.402 203.461C105.624 209.089 95.4649 203.142 93.6596 210.894C89.4474 228.38 152.843 252.804 152.843 252.804L176.346 196.983Z" fill="#3C8F7C"/>
<path d="M220.487 208.982C230.079 213.513 227.495 224.663 227.495 224.663C227.495 224.663 253.583 204.274 263.317 216.168C273.086 228.026 267.919 251.387 256.521 255.139C252.45 256.484 237.477 257.086 219.673 257.157C187.179 257.405 145.658 256.237 145.658 256.237C145.658 256.237 211.815 204.947 220.487 208.982Z" fill="#96D9C9"/>
<path d="M151.462 237.335L152.382 236.556C131.463 211.106 122.543 179.178 118.72 156.914C114.578 132.702 115.428 114.367 115.428 114.225L114.189 113.978C114.189 114.119 113.34 132.702 117.481 156.985C121.339 179.426 130.295 211.566 151.462 237.335Z" fill="#50BFA5"/>
<path d="M118.191 110.085C118.828 115.536 117.412 120.314 114.686 123.358C111.182 119.783 108.669 114.686 108.067 109.164C107.43 103.607 108.846 98.9347 111.572 95.8906C115.076 99.5365 117.589 104.634 118.191 110.085Z" fill="#50BFA5"/>
<path d="M110.083 122.898C113.658 127.429 115.534 132.738 115.534 137.481C111.251 136.703 106.649 133.906 103.039 129.375C99.4639 124.845 97.5879 119.535 97.5879 114.792C101.871 115.535 106.472 118.367 110.083 122.898Z" fill="#50BFA5"/>
<path d="M106.722 138.19C111.5 140.845 115.146 145.128 117.093 149.729C113.341 151.216 108.491 150.826 103.748 148.242C98.9696 145.588 95.3238 141.375 93.377 136.703C97.129 135.146 101.978 135.535 106.722 138.19Z" fill="#50BFA5"/>
<path d="M115.146 163.32C117.163 164.241 118.898 165.975 119.818 167.851C118.261 168.63 116.314 168.63 114.19 167.71C112.172 166.789 110.438 165.055 109.518 163.179C111.11 162.4 113.128 162.4 115.146 163.32Z" fill="#50BFA5"/>
<path d="M117.73 172.7C119.747 173.621 121.482 175.355 122.402 177.231C120.845 178.01 118.898 178.01 116.774 177.09C114.756 176.169 113.022 174.435 112.102 172.559C113.659 171.745 115.712 171.745 117.73 172.7Z" fill="#50BFA5"/>
<path d="M121.622 133.197C124.985 130.79 129.127 130.401 133.02 131.64C132.879 135.852 131.003 139.746 127.64 142.117C124.277 144.524 120.136 144.914 116.242 143.675C116.49 139.498 118.295 135.604 121.622 133.197Z" fill="#50BFA5"/>
<path d="M123.818 147.569C127.18 145.162 131.322 144.772 135.216 146.011C135.074 150.223 133.198 154.117 129.835 156.489C126.473 158.825 122.331 159.285 118.438 158.046C118.685 153.798 120.561 149.976 123.818 147.569Z" fill="#50BFA5"/>
<path d="M125.305 168.17C127.5 166.613 130.225 166.365 132.738 167.144C132.597 169.869 131.393 172.382 129.234 174.011C127.039 175.568 124.314 175.816 121.801 175.037C121.942 172.311 123.11 169.728 125.305 168.17Z" fill="#50BFA5"/>
<path d="M167.142 256.484C167.142 256.484 136.63 217.229 123.817 211.283C110.224 204.876 122.011 227.07 122.011 227.07C122.011 227.07 92.8799 198.504 86.0837 205.584C79.2167 212.699 86.5439 219.389 86.5439 219.389C86.5439 219.389 62.1909 214.858 58.5804 223.99C53.1293 238.043 93.1631 244.98 93.1631 244.98C93.1631 244.98 73.9426 240.768 77.7655 249.44C83.7829 262.466 167.142 256.484 167.142 256.484Z" fill="#50BFA5"/>
<path d="M58.6172 223.92C62.1215 214.788 86.5806 219.319 86.5806 219.319C86.5806 219.319 79.3243 212.593 86.1205 205.514C92.9874 198.399 115.712 215.177 115.712 215.177C115.712 215.177 112.208 199.638 129.304 211.885C141.552 220.558 165.126 253.016 165.126 253.016L58.6172 223.92Z" fill="#96D9C9"/>
<path d="M144.738 255.848C144.738 255.848 193.373 259.281 202.895 250.538C212.417 241.795 202.966 226.008 202.966 226.008C202.966 226.008 219.673 212.805 219.425 204.239C219.107 195.567 208.275 200.027 208.275 200.027C208.275 200.027 226.717 176.276 222.328 171.781C214.222 163.356 192.878 188.028 192.878 188.028C192.878 188.028 199.214 176.311 192.559 174.435C182.471 171.639 175.073 200.594 175.073 200.594C175.073 200.594 176.949 189.125 170.012 190.682C157.481 193.373 144.738 255.848 144.738 255.848Z" fill="#50BFA5"/>
<path d="M306.676 195.425V201.584C306.676 202.044 306.535 202.504 306.287 202.929C305.969 203.319 305.65 203.637 305.19 203.779C305.048 203.849 304.871 203.849 304.73 203.92C304.588 203.92 304.411 203.92 304.34 203.92H206.574C205.336 203.92 204.238 202.894 204.238 201.655C204.238 201.655 204.238 201.584 204.238 201.513V195.354C204.238 195.354 204.238 195.283 204.238 195.213C204.309 193.974 205.336 192.947 206.574 192.947H304.305C304.446 192.947 304.623 192.947 304.694 192.947C304.836 192.947 305.013 193.018 305.154 193.089C305.615 193.23 306.004 193.549 306.252 193.938C306.499 194.469 306.676 194.859 306.676 195.425Z" fill="#FFC222"/>
<path d="M258.643 203.92H206.327C205.23 203.92 204.309 202.894 204.203 201.655C204.203 201.655 204.203 201.584 204.203 201.513V195.354C204.203 195.354 204.203 195.283 204.203 195.213C204.274 193.974 205.23 192.947 206.327 192.947H252.236C252.944 196.204 254.679 200.628 258.643 203.92Z" fill="#E5A621"/>
<path d="M294.785 192.982H293.688V203.849H294.785V192.982Z" fill="#FBAA26"/>
<path d="M290.96 192.982H289.898V203.849H290.996V192.982H290.96Z" fill="#FBAA26"/>
<path d="M286.537 192.982H285.439V203.849H286.537V192.982Z" fill="#FBAA26"/>
<path d="M279.564 192.982H278.467V203.849H279.564V192.982Z" fill="#FBAA26"/>
<path d="M272.308 192.982H271.211V203.849H272.308V192.982Z" fill="#FBAA26"/>
<path d="M261.086 192.982H259.988V203.849H261.086V192.982Z" fill="#FBAA26"/>
<path d="M250.609 192.982H249.512V203.849H250.609V192.982Z" fill="#FBAA26"/>
<path d="M241.228 192.982H240.131V203.849H241.228V192.982Z" fill="#FBAA26"/>
<path d="M298.395 192.982H297.227V203.849H298.324V192.982H298.395Z" fill="#FBAA26"/>
<path d="M300.731 192.982H299.562V203.849H300.66V192.982H300.731Z" fill="#FBAA26"/>
<path d="M302.996 192.982H301.898V203.849H302.996V192.982Z" fill="#FBAA26"/>
<path d="M304.73 193.053V203.814C304.589 203.814 304.412 203.814 304.341 203.814H303.633V192.947H304.341C304.412 192.983 304.553 193.053 304.73 193.053Z" fill="#FBAA26"/>
<path d="M306.289 194.08V202.823C305.97 203.212 305.652 203.531 305.191 203.672V193.124C305.581 193.372 305.97 193.69 306.289 194.08Z" fill="#FBAA26"/>
<path d="M296.2 184.488V190.647C296.2 191.107 296.058 191.567 295.81 191.992C295.492 192.381 295.173 192.7 294.713 192.841C294.571 192.912 294.394 192.912 294.253 192.983C294.111 192.983 293.934 192.983 293.863 192.983H196.133C194.894 192.983 193.797 191.956 193.797 190.717C193.797 190.717 193.797 190.647 193.797 190.576V184.417C193.797 184.417 193.797 184.346 193.797 184.275C193.868 183.036 194.894 182.01 196.133 182.01H293.863C293.934 182.01 294.005 182.01 294.005 182.01H294.076H294.147C294.147 182.01 294.147 182.01 294.217 182.01C294.359 182.01 294.536 182.081 294.678 182.151C294.678 182.151 294.678 182.151 294.748 182.151C294.748 182.151 294.748 182.151 294.819 182.151C294.819 182.151 294.89 182.151 294.961 182.222H295.032C295.032 182.222 295.032 182.222 295.102 182.222L295.173 182.293C295.173 182.293 295.244 182.364 295.315 182.364L295.386 182.435C295.386 182.435 295.386 182.435 295.456 182.505C295.527 182.576 295.598 182.647 295.598 182.647C295.598 182.647 295.598 182.647 295.669 182.718C295.669 182.718 295.669 182.718 295.739 182.788C295.739 182.788 295.81 182.859 295.81 182.93C296.058 183.638 296.2 184.027 296.2 184.488Z" fill="#FFC222"/>
<path d="M248.202 192.983H195.815C194.718 192.983 193.798 191.956 193.691 190.717C193.691 190.717 193.691 190.647 193.691 190.576V184.417C193.691 184.417 193.691 184.346 193.691 184.275C193.762 183.036 194.718 182.01 195.815 182.01H241.796C241.796 182.081 241.796 182.151 241.866 182.328C242.645 185.585 244.38 189.868 248.202 192.983Z" fill="#E5A621"/>
<path d="M284.341 182.152H283.244V193.019H284.341V182.152Z" fill="#FBAA26"/>
<path d="M280.589 182.152H279.492V193.019H280.589V182.152Z" fill="#FBAA26"/>
<path d="M276.058 182.152H274.961V193.019H276.058V182.152Z" fill="#FBAA26"/>
<path d="M269.121 182.152H268.023V193.019H269.121V182.152Z" fill="#FBAA26"/>
<path d="M261.865 182.152H260.768V193.019H261.865V182.152Z" fill="#FBAA26"/>
<path d="M250.609 182.152H249.512V193.019H250.609V182.152Z" fill="#FBAA26"/>
<path d="M240.168 182.152H239.07V193.019H240.168V182.152Z" fill="#FBAA26"/>
<path d="M230.787 182.152H229.689V193.019H230.787V182.152Z" fill="#FBAA26"/>
<path d="M287.918 182.152H286.82V193.019H287.918V182.152Z" fill="#FBAA26"/>
<path d="M290.289 182.152H289.191V193.019H290.289V182.152Z" fill="#FBAA26"/>
<path d="M292.519 182.152H291.422V193.019H292.519V182.152Z" fill="#FBAA26"/>
<path d="M294.254 182.222V192.983C294.112 192.983 293.935 192.983 293.864 192.983H293.156V182.116H293.864C294.006 182.152 294.112 182.152 294.254 182.222Z" fill="#FBAA26"/>
<path d="M295.81 183.25V191.993C295.492 192.382 295.173 192.701 294.713 192.842V182.294C295.173 182.542 295.492 182.86 295.81 183.25Z" fill="#FBAA26"/>
<path d="M302.076 248.344V254.361C302.076 254.821 301.934 255.282 301.686 255.6C301.368 255.989 300.979 256.308 300.589 256.45C300.518 256.52 300.271 256.52 300.129 256.52C300.058 256.52 299.81 256.591 299.74 256.591H203.779C203.39 256.591 203.071 256.52 202.753 256.273C202.045 255.954 201.584 255.246 201.514 254.467C201.514 254.397 201.514 254.397 201.514 254.397V254.326V248.308C201.514 248.238 201.514 248.238 201.514 248.238C201.584 246.999 202.611 246.043 203.85 246.043H299.81C299.881 246.043 300.129 246.043 300.2 246.114C300.341 246.185 300.518 246.185 300.66 246.185C301.12 246.326 301.509 246.645 301.757 247.034C301.899 247.423 302.076 247.813 302.076 248.344Z" fill="#FFC222"/>
<path d="M254.998 256.698H203.602C203.283 256.698 202.894 256.627 202.681 256.379C202.044 256.06 201.655 255.353 201.584 254.574C201.584 254.503 201.584 254.503 201.584 254.503V254.432V248.415C201.584 248.344 201.584 248.344 201.584 248.344C201.655 247.105 202.504 246.149 203.708 246.149H248.839C249.547 249.194 251.175 253.406 254.856 256.521C254.75 256.556 254.821 256.556 254.998 256.698Z" fill="#E5A621"/>
<path d="M290.359 246.008H289.262V256.627H290.359V246.008Z" fill="#FBAA26"/>
<path d="M286.75 246.008H285.652V256.627H286.75V246.008Z" fill="#FBAA26"/>
<path d="M282.324 246.008H281.227V256.627H282.324V246.008Z" fill="#FBAA26"/>
<path d="M275.422 246.008H274.324V256.627H275.422V246.008Z" fill="#FBAA26"/>
<path d="M268.343 246.008H267.246V256.627H268.343V246.008Z" fill="#FBAA26"/>
<path d="M257.334 246.008H256.236V256.627H257.334V246.008Z" fill="#FBAA26"/>
<path d="M247.035 246.008H245.938V256.627H247.035V246.008Z" fill="#FBAA26"/>
<path d="M237.795 246.008H236.697V256.627H237.795V246.008Z" fill="#FBAA26"/>
<path d="M293.935 246.008H292.838V256.627H293.935V246.008Z" fill="#FBAA26"/>
<path d="M296.201 246.008H295.104V256.627H296.201V246.008Z" fill="#FBAA26"/>
<path d="M298.464 246.008H297.367V256.627H298.464V246.008Z" fill="#FBAA26"/>
<path d="M300.093 246.078V256.698C300.023 256.698 299.775 256.768 299.704 256.768H298.996V246.078H299.704C299.881 246.008 300.023 246.008 300.093 246.078Z" fill="#FBAA26"/>
<path d="M301.687 247.035V255.636C301.369 256.025 300.979 256.344 300.59 256.485V246.114C301.05 246.327 301.439 246.645 301.687 247.035Z" fill="#FBAA26"/>
<path d="M309.863 237.654V243.672C309.863 244.132 309.721 244.592 309.474 244.911C309.155 245.3 308.766 245.619 308.376 245.76C308.305 245.831 308.058 245.831 307.916 245.831C307.845 245.831 307.598 245.902 307.527 245.902H211.637C210.398 245.902 209.372 244.875 209.301 243.707C209.301 243.636 209.301 243.636 209.301 243.636V237.619C209.301 237.548 209.301 237.548 209.301 237.548C209.372 236.451 210.221 235.53 211.318 235.354C211.389 235.354 211.46 235.354 211.637 235.354H307.598C307.668 235.354 307.916 235.353 307.987 235.424C308.128 235.495 308.305 235.495 308.447 235.495C308.907 235.637 309.297 235.955 309.544 236.345C309.792 236.699 309.863 237.194 309.863 237.654Z" fill="#FFC222"/>
<path d="M262.785 246.007H211.425C210.327 246.007 209.407 244.981 209.301 243.813C209.301 243.742 209.301 243.742 209.301 243.742V237.724C209.301 237.654 209.301 237.654 209.301 237.654C209.372 236.556 210.15 235.636 211.106 235.459C211.177 235.459 211.248 235.459 211.425 235.459H256.555C257.157 238.503 258.892 242.822 262.785 246.007Z" fill="#E5A621"/>
<path d="M298.254 235.389H297.156V246.008H298.254V235.389Z" fill="#FBAA26"/>
<path d="M294.572 235.389H293.475V246.008H294.572V235.389Z" fill="#FBAA26"/>
<path d="M290.111 235.389H289.014V246.008H290.111V235.389Z" fill="#FBAA26"/>
<path d="M283.316 235.389H282.219V246.008H283.316V235.389Z" fill="#FBAA26"/>
<path d="M276.13 235.389H275.033V246.008H276.13V235.389Z" fill="#FBAA26"/>
<path d="M265.121 235.389H264.023V246.008H265.121V235.389Z" fill="#FBAA26"/>
<path d="M254.822 235.389H253.725V246.008H254.822V235.389Z" fill="#FBAA26"/>
<path d="M245.689 235.389H244.592V246.008H245.689V235.389Z" fill="#FBAA26"/>
<path d="M301.757 235.389H300.66V246.008H301.757V235.389Z" fill="#FBAA26"/>
<path d="M304.093 235.389H302.996V246.008H304.093V235.389Z" fill="#FBAA26"/>
<path d="M306.289 235.389H305.191V246.008H306.289V235.389Z" fill="#FBAA26"/>
<path d="M307.986 235.389V246.008C307.915 246.008 307.667 246.078 307.597 246.078H306.889V235.459H307.597C307.774 235.389 307.844 235.389 307.986 235.389Z" fill="#FBAA26"/>
<path d="M309.474 236.309V244.91C309.156 245.3 308.766 245.618 308.377 245.76V235.389C308.837 235.707 309.226 235.92 309.474 236.309Z" fill="#FBAA26"/>
<path d="M297.297 227.034V233.051C297.297 233.511 297.155 233.971 296.907 234.29C296.589 234.679 296.199 234.998 295.81 235.14C295.739 235.21 295.491 235.21 295.35 235.21C295.279 235.21 295.279 235.21 295.279 235.21C295.208 235.21 295.208 235.21 295.208 235.21H295.137C295.067 235.21 295.067 235.21 295.067 235.21H199.071C197.832 235.21 196.805 234.184 196.734 233.016C196.734 232.945 196.734 232.945 196.734 232.945V226.927C196.734 226.857 196.734 226.857 196.734 226.857C196.805 225.618 197.832 224.662 199.071 224.662H295.031C295.102 224.662 295.102 224.662 295.102 224.662C295.173 224.662 295.243 224.662 295.42 224.733C295.562 224.804 295.739 224.804 295.881 224.804C295.951 224.874 295.951 224.874 296.128 224.874C296.199 224.874 296.199 224.945 296.199 224.945C296.27 224.945 296.27 225.016 296.27 225.016C296.341 225.016 296.341 225.087 296.341 225.087C296.412 225.158 296.482 225.158 296.589 225.335L296.659 225.405L296.73 225.476C296.73 225.547 296.801 225.547 296.801 225.547C296.872 225.618 296.872 225.618 296.872 225.618C297.155 226.078 297.297 226.574 297.297 227.034Z" fill="#FFC222"/>
<path d="M250.219 235.388H198.858C197.761 235.388 196.841 234.362 196.734 233.193C196.734 233.123 196.734 233.123 196.734 233.123V227.105C196.734 227.034 196.734 227.034 196.734 227.034C196.805 225.796 197.655 224.84 198.858 224.84H243.989C243.989 224.911 244.06 224.981 244.06 225.158C244.662 228.061 246.396 232.273 250.219 235.388Z" fill="#E5A621"/>
<path d="M285.582 224.698H284.484V235.317H285.582V224.698Z" fill="#FBAA26"/>
<path d="M281.935 224.698H280.838V235.317H281.935V224.698Z" fill="#FBAA26"/>
<path d="M277.547 224.698H276.449V235.317H277.547V224.698Z" fill="#FBAA26"/>
<path d="M270.679 224.698H269.582V235.317H270.679V224.698Z" fill="#FBAA26"/>
<path d="M263.564 224.698H262.467V235.317H263.564V224.698Z" fill="#FBAA26"/>
<path d="M252.556 224.698H251.459V235.317H252.556V224.698Z" fill="#FBAA26"/>
<path d="M242.256 224.698H241.158V235.317H242.256V224.698Z" fill="#FBAA26"/>
<path d="M233.052 224.698H231.955V235.317H233.052V224.698Z" fill="#FBAA26"/>
<path d="M289.191 224.698H288.094V235.317H289.191V224.698Z" fill="#FBAA26"/>
<path d="M291.527 224.698H290.43V235.317H291.527V224.698Z" fill="#FBAA26"/>
<path d="M293.722 224.698H292.625V235.317H293.722V224.698Z" fill="#FBAA26"/>
<path d="M295.422 224.698V235.317C295.351 235.317 295.103 235.388 295.032 235.388H294.324V224.769H295.032C295.103 224.698 295.28 224.698 295.422 224.698Z" fill="#FBAA26"/>
<path d="M296.908 225.689V234.362C296.589 234.751 296.2 235.069 295.811 235.211V224.84C296.271 225.088 296.66 225.3 296.908 225.689Z" fill="#FBAA26"/>
<path d="M304.341 216.557V222.575C304.341 223.035 304.199 223.495 303.952 223.813C303.633 224.203 303.244 224.521 302.854 224.663C302.783 224.734 302.536 224.734 302.394 224.734C302.323 224.734 302.076 224.805 302.005 224.805H206.115C205.726 224.805 205.407 224.734 205.088 224.486C204.381 224.167 203.85 223.46 203.85 222.61C203.85 222.539 203.85 222.539 203.85 222.539V222.468V216.451C203.85 216.38 203.85 216.38 203.85 216.38C203.92 215.283 204.77 214.363 205.867 214.186C205.938 214.186 206.009 214.186 206.186 214.186H302.146C302.217 214.186 302.465 214.186 302.536 214.256C302.677 214.327 302.854 214.327 302.996 214.327C303.456 214.469 303.845 214.787 304.093 215.177C304.235 215.708 304.341 216.097 304.341 216.557Z" fill="#FFC222"/>
<path d="M257.263 224.911H205.867C205.549 224.911 205.159 224.84 204.947 224.592C204.31 224.274 203.92 223.566 203.85 222.716C203.85 222.646 203.85 222.646 203.85 222.646V222.575V216.557C203.85 216.487 203.85 216.487 203.85 216.487C203.92 215.389 204.699 214.469 205.655 214.292C205.726 214.292 205.796 214.292 205.973 214.292H251.104C251.812 217.336 253.44 221.548 257.122 224.663C257.016 224.769 257.157 224.84 257.263 224.911Z" fill="#E5A621"/>
<path d="M292.695 214.221H291.598V224.911H292.695V214.221Z" fill="#FBAA26"/>
<path d="M289.014 214.221H287.846V224.911H288.943V214.221H289.014Z" fill="#FBAA26"/>
<path d="M284.589 214.221H283.492V224.911H284.589V214.221Z" fill="#FBAA26"/>
<path d="M277.793 214.221H276.695V224.911H277.793V214.221Z" fill="#FBAA26"/>
<path d="M270.609 214.221H269.512V224.911H270.609V214.221Z" fill="#FBAA26"/>
<path d="M259.599 214.221H258.502V224.911H259.599V214.221Z" fill="#FBAA26"/>
<path d="M249.298 214.221H248.201V224.911H249.298V214.221Z" fill="#FBAA26"/>
<path d="M240.168 214.221H239.07V224.911H240.168V214.221Z" fill="#FBAA26"/>
<path d="M296.201 214.221H295.104V224.911H296.201V214.221Z" fill="#FBAA26"/>
<path d="M298.537 214.221H297.439V224.911H298.537V214.221Z" fill="#FBAA26"/>
<path d="M300.73 214.221H299.633V224.911H300.73V214.221Z" fill="#FBAA26"/>
<path d="M302.466 214.291V224.91C302.396 224.91 302.148 224.981 302.077 224.981H301.369V214.362H302.077C302.219 214.22 302.289 214.291 302.466 214.291Z" fill="#FBAA26"/>
<path d="M303.951 215.318V223.919C303.632 224.309 303.243 224.627 302.854 224.769V214.397C303.314 214.61 303.703 214.928 303.951 215.318Z" fill="#FBAA26"/>
<path d="M297.297 205.937V211.954C297.297 212.415 297.155 212.875 296.907 213.193C296.589 213.583 296.199 213.901 295.81 214.043C295.739 214.114 295.491 214.114 295.35 214.114C295.279 214.114 295.279 214.114 295.279 214.114H295.208H295.137C295.067 214.114 295.067 214.114 295.067 214.114H199.071C197.832 214.114 196.805 213.087 196.734 211.919C196.734 211.848 196.734 211.848 196.734 211.848V205.831C196.734 205.76 196.734 205.76 196.734 205.76C196.805 204.521 197.832 203.565 199.071 203.565H295.031C295.102 203.565 295.35 203.565 295.42 203.636C295.562 203.707 295.739 203.707 295.881 203.707C296.341 203.849 296.73 204.167 296.978 204.557C297.155 205.017 297.297 205.406 297.297 205.937Z" fill="#FFC222"/>
<path d="M250.219 214.291H198.858C197.761 214.291 196.841 213.265 196.734 212.097C196.734 212.026 196.734 212.026 196.734 212.026V206.009C196.734 205.938 196.734 205.938 196.734 205.938C196.805 204.699 197.655 203.743 198.858 203.743H243.989C244.591 206.716 246.254 211.106 250.219 214.291Z" fill="#E5A621"/>
<path d="M285.582 203.602H284.484V214.221H285.582V203.602Z" fill="#FBAA26"/>
<path d="M281.935 203.602H280.838V214.221H281.935V203.602Z" fill="#FBAA26"/>
<path d="M277.547 203.602H276.449V214.221H277.547V203.602Z" fill="#FBAA26"/>
<path d="M270.679 203.602H269.582V214.221H270.679V203.602Z" fill="#FBAA26"/>
<path d="M263.564 203.602H262.467V214.221H263.564V203.602Z" fill="#FBAA26"/>
<path d="M252.556 203.602H251.459V214.221H252.556V203.602Z" fill="#FBAA26"/>
<path d="M242.256 203.602H241.158V214.221H242.256V203.602Z" fill="#FBAA26"/>
<path d="M233.052 203.602H231.955V214.221H233.052V203.602Z" fill="#FBAA26"/>
<path d="M289.191 203.602H288.094V214.221H289.191V203.602Z" fill="#FBAA26"/>
<path d="M291.527 203.602H290.43V214.221H291.527V203.602Z" fill="#FBAA26"/>
<path d="M293.722 203.602H292.625V214.221H293.722V203.602Z" fill="#FBAA26"/>
<path d="M92.7408 245.052C90.4754 250.043 84.1748 252.698 80.3873 253.335C76.6352 254.008 76.5645 257.123 76.5645 257.123L89.4489 257.194C89.4489 257.194 99.5369 257.194 99.8201 257.158C101.838 257.017 102.51 246.468 102.51 246.468C102.51 246.468 95.1477 239.814 92.7408 245.052Z" fill="#FA7269"/>
<path d="M111.608 128.632C111.608 128.632 101.661 129.411 99.7852 130.083C98.4047 130.614 95.4668 130.083 94.0863 129.765C93.6262 129.659 93.0952 129.765 92.7413 130.048C90.0511 131.959 84.3522 132.95 85.4849 130.685C86.1221 129.446 89.5202 125.623 91.3608 124.668C93.2368 123.712 99.9268 125.022 101.59 125.022C103.289 125.022 109.378 121.553 109.378 121.553L111.608 128.632Z" fill="#FC9290"/>
<path d="M133.447 74.2987C127.111 80.9533 135.287 102.829 130.226 109.908C126.827 114.686 103.005 123.429 103.005 123.429C102.616 128.881 104.244 130.19 104.244 130.19C110.97 129.73 133.73 125.27 138.862 123.288C149.304 119.253 155.605 74.4757 155.605 74.4757C150.402 64.8124 139.747 67.6796 133.447 74.2987Z" fill="#ED6966"/>
<path d="M160.561 144.879C157.659 137.976 129.624 148.595 129.624 148.595C129.624 148.595 124.032 162.471 117.023 179.886C116.138 182.152 115.182 184.452 114.227 186.824C113.802 187.85 113.377 188.842 112.988 189.903C109.873 197.655 106.652 205.655 103.608 213.194C96.139 231.742 90.5463 246.928 90.0508 248.202L102.864 248.733C102.864 248.733 109.838 239.565 117.271 228.557C121.554 222.221 125.872 215.212 128.739 208.947C129.518 207.283 130.155 205.69 130.686 204.168C131.217 202.646 131.642 201.23 131.89 199.885C133.164 193.231 140.562 186.187 147.323 177.621C149.517 174.86 151.641 171.922 153.482 168.807C161.021 156.1 162.968 150.542 160.561 144.879Z" fill="#355389"/>
<path d="M126.154 224.097C129.411 228.486 128.632 235.282 127.358 238.893C126.083 242.503 128.773 244.096 128.773 244.096L135.109 232.911C135.109 232.911 140.03 224.097 140.136 223.849C140.985 221.973 132.101 216.274 132.101 216.274C132.101 216.274 122.756 219.46 126.154 224.097Z" fill="#FA7269"/>
<path d="M80.9884 180.205C84.9174 165.48 119.606 143.888 119.606 143.888L161.268 145.091C161.268 145.091 162.259 148.666 161.02 153.834C160.419 156.277 159.357 159.038 157.516 161.975C152.065 170.435 110.368 179.072 106.616 183.284C106.297 183.638 106.262 183.921 106.474 184.205C111.43 190.364 134.367 217.831 134.367 217.831C133.376 221.442 127.818 226.327 127.818 226.327C127.818 226.327 77.0593 194.93 80.9884 180.205Z" fill="#466EB6"/>
<path d="M123.394 167.038C138.26 161.233 143.286 145.8 143.286 145.8L160.985 148.561V153.835C160.383 156.277 159.321 159.038 157.481 161.976C152.029 170.436 110.332 179.073 106.58 183.285C106.828 182.081 109.447 172.454 123.394 167.038Z" fill="#355389"/>
<path d="M136.314 66.7934C136.137 65.9793 135.96 65.2006 135.853 64.4926C135.075 60.3866 134.898 57.9796 134.898 57.9796L141.34 52.21C143.11 52.5993 144.809 52.9533 145.658 53.1303C145.729 53.555 145.8 53.9798 145.942 54.3692C147.959 62.3688 153.375 66.0147 153.375 66.0147C153.375 66.0147 139.393 73.802 130.969 71.6428C130.969 71.6428 132.88 68.9526 136.314 66.7934Z" fill="#FC9290"/>
<path d="M150.613 62.7938C150.011 62.4044 148.914 63.5017 145.587 65.0592C142.507 66.5105 139.145 66.9352 136.278 66.2981L133.729 68.4927C130.189 71.6784 126.296 76.0322 124.526 82.6868C123.429 86.7928 122.65 93.235 122.013 100.527C121.8 103.323 121.588 106.296 121.411 109.234C121.128 113.942 120.88 118.721 120.774 123.251C120.774 123.358 120.774 123.428 120.774 123.535V123.676C120.738 124.136 120.703 124.632 120.703 125.092C120.561 129.163 120.597 132.95 120.455 136.171C120.314 139.038 119.287 140.313 119.004 141.445C118.933 141.764 118.933 142.047 118.969 142.401C118.969 142.507 119.004 142.578 119.039 142.684C119.853 144.95 127.428 148.029 134.331 150.188C136.809 150.967 139.215 151.604 141.233 152.064C146.613 153.268 160.1 155.462 161.268 151.781C162.648 147.498 161.055 122.827 162.259 106.58C163.71 86.7574 158.224 68.6697 150.613 62.7938Z" fill="#FA7269"/>
<path d="M148.879 87.5361L120.809 123.287C120.809 123.393 120.809 123.464 120.809 123.57V123.712C120.774 124.172 120.738 124.667 120.738 125.127C120.597 129.198 120.632 132.986 120.491 136.207C120.349 139.074 119.322 140.348 119.039 141.481C119.004 141.799 119.004 142.118 119.004 142.436C119.004 142.543 119.039 142.613 119.075 142.72C119.889 144.985 127.464 148.065 134.366 150.224C167.674 126.791 148.808 87.5361 148.879 87.5361Z" fill="#ED6966"/>
<path d="M141.341 52.21C143.11 52.5993 144.81 52.9533 145.659 53.1303C145.73 53.555 145.801 53.9798 145.942 54.3692C144.987 56.7761 142.119 62.4396 135.854 64.4926C135.075 60.3866 134.898 57.9796 134.898 57.9796L141.341 52.21Z" fill="#EA8888"/>
<path d="M126.439 45.0248C126.616 42.0515 127.713 38.5118 136.527 37.3791C145.341 36.2818 144.598 42.2993 146.155 50.7945C147.713 59.2897 134.014 61.5905 134.014 61.5905C130.439 61.9799 126.297 47.9628 126.439 45.0248Z" fill="#FC9290"/>
<path d="M69.8031 102.863L68.5996 103.253L78.8647 134.897L80.0682 134.508L69.8031 102.863Z" fill="#3A49CD"/>
<path d="M113.802 131.994L78.8652 132.737L78.9006 134.826L113.802 134.083V131.994Z" fill="#3A49CD"/>
<path d="M112.173 129.411C112.173 129.411 103.536 133.234 102.793 133.305C102.049 133.376 101.129 131.5 100.102 131.004C99.076 130.473 96.3504 131.216 95.4301 131.287C94.4744 131.323 95.2177 132.42 95.2177 132.42C95.2177 132.42 97.6601 132.384 97.5539 132.915C97.4477 133.446 93.5541 132.845 90.6516 132.526C87.7844 132.172 88.9171 134.048 89.4481 135.075C89.979 136.137 93.4833 138.119 97.6955 138.437C101.908 138.756 113.128 135.783 113.128 135.783L112.173 129.411Z" fill="#FC9290"/>
<path d="M130.757 78.6162C125.199 85.9434 135.712 106.757 131.5 114.367C128.668 119.464 105.908 130.791 105.908 130.791C106.121 136.242 107.89 137.41 107.89 137.41C114.545 136.207 136.668 129.234 141.553 126.72C151.499 121.588 152.809 76.3509 152.809 76.3509C146.579 67.2893 136.279 71.2891 130.757 78.6162Z" fill="#FA7269"/>
<path d="M148.702 41.6975C149.197 38.2286 148.029 34.158 139.534 31.928C131.039 29.698 124.951 37.5207 124.101 38.6888C123.252 39.8569 121.305 41.4143 121.305 41.4143C121.977 42.8656 125.446 44.6708 126.543 44.1753C127.641 43.6797 136.915 40.3878 137.906 43.1134C138.897 45.8389 141.268 47.6441 141.799 48.0335C142.33 48.4229 142.578 45.9451 143.746 46.4406C144.914 46.9008 144.277 49.8387 144.277 49.8387C146.082 51.5024 145.941 54.4049 145.941 54.4049C149.41 53.2014 148.242 45.131 148.702 41.6975Z" fill="#184655"/>
<path d="M295.422 203.672V214.291C295.351 214.291 295.103 214.362 295.032 214.362H294.324V203.743H295.032C295.103 203.601 295.28 203.672 295.422 203.672Z" fill="#FBAA26"/>
<path d="M296.908 204.629V213.301C296.589 213.69 296.2 214.009 295.811 214.151V203.779C296.271 203.921 296.66 204.239 296.908 204.629Z" fill="#FBAA26"/>
<path d="M192.842 256.237C222.823 256.237 247.176 231.884 247.176 201.903C247.176 171.922 222.823 147.569 192.842 147.569C162.861 147.569 138.508 171.922 138.508 201.903C138.508 231.884 162.861 256.237 192.842 256.237Z" fill="#A57213"/>
<path d="M188.17 256.237C218.151 256.237 242.504 231.884 242.504 201.903C242.504 171.922 218.151 147.569 188.17 147.569C158.189 147.569 133.801 171.922 133.801 201.903C133.801 231.884 158.189 256.237 188.17 256.237Z" fill="#FFCF1D"/>
<path d="M188.453 249.76C214.434 249.76 235.53 228.664 235.53 202.683C235.53 176.701 214.434 155.676 188.453 155.676C162.471 155.676 141.375 176.772 141.375 202.683C141.481 228.664 162.471 249.76 188.453 249.76Z" fill="#FDBB24"/>
<path d="M188.169 252.024C181.55 252.024 174.966 250.786 168.878 248.131C163.037 245.618 157.728 242.113 153.091 237.512C148.56 232.981 144.985 227.671 142.472 221.725C139.888 215.637 138.578 209.159 138.578 202.434C138.578 195.814 139.817 189.301 142.472 183.142C144.985 177.302 148.489 171.992 153.091 167.355C157.622 162.825 162.931 159.25 168.878 156.736C174.966 154.152 181.444 152.843 188.169 152.843C194.894 152.843 201.372 154.082 207.46 156.736C213.301 159.25 218.61 162.754 223.247 167.355C227.884 171.957 231.353 177.196 233.866 183.142C236.45 189.231 237.76 195.708 237.76 202.434C237.76 209.053 236.521 215.637 233.866 221.725C231.353 227.565 227.849 232.875 223.247 237.512C218.646 242.113 213.407 245.618 207.46 248.131C201.266 250.679 194.859 252.024 188.169 252.024ZM188.169 156.064C175.745 156.064 164.028 160.913 155.215 169.727C146.401 178.541 141.551 190.257 141.551 202.681C141.551 215.106 146.401 226.822 155.215 235.636C164.028 244.45 175.745 249.299 188.169 249.299C200.593 249.299 212.31 244.45 221.123 235.636C229.937 226.822 234.786 215.106 234.786 202.681C234.786 190.257 229.937 178.541 221.123 169.727C212.274 160.913 200.558 156.064 188.169 156.064Z" fill="#C27A1D"/>
<path d="M206.044 218.61L202.079 217.902L203.708 209.23L207.92 210.009C209.937 210.398 211.99 208.982 212.309 206.965C212.698 204.841 211.389 202.894 209.336 202.505L205.124 201.726L205.584 199C205.725 197.974 205.513 196.983 204.947 196.204C204.416 195.425 203.531 194.788 202.54 194.647C200.522 194.257 198.575 195.567 198.15 197.62L197.69 200.416L181.514 197.443C174.895 196.204 170.364 189.726 171.674 182.86C172.912 176.063 179.39 171.533 186.115 172.771L202.292 175.745L200.664 184.559L184.487 181.585C182.47 181.196 180.417 182.612 180.098 184.629C179.709 186.753 181.018 188.7 183.071 189.089L202.964 192.771C204.982 193.16 206.858 191.85 207.247 189.797L207.318 189.479L210.362 173.161C210.752 171.143 209.442 169.267 207.389 168.878L187.496 165.126C176.735 163.108 166.258 170.364 164.24 181.373C162.116 192.629 169.55 202.929 180.098 204.876L196.274 207.85L194.646 216.451L178.47 213.478C176.452 213.088 174.576 214.398 174.187 216.451L174.116 216.77L171.072 233.087C170.682 235.105 171.992 236.981 174.045 237.37L193.938 241.123C195.956 241.512 197.903 240.202 198.327 238.149C198.646 236.663 199.035 234.645 199.566 231.742L200.734 225.583L204.699 226.291C206.716 226.681 208.769 225.265 209.088 223.247C209.371 220.946 208.061 219 206.044 218.61ZM191.673 232.734L179.249 230.397L180.877 221.584L193.301 223.92L191.673 232.734Z" fill="#C88A1D"/>
<path d="M277.334 111.677C277.334 111.677 281.44 117.765 283.776 130.508C285.829 141.693 287.599 145.799 290.572 148.1C293.546 150.365 310.005 157.162 310.005 157.162L308.766 160.064C308.766 160.064 284.626 156.772 281.9 152.737C279.175 148.702 268.839 124.844 269.653 119.358C270.467 113.836 277.334 111.677 277.334 111.677Z" fill="#FCA09E"/>
<path d="M336.481 244.945C336.269 247.281 339.561 247.883 343.348 248.06C347.136 248.237 346.003 249.015 351.206 249.971C356.41 250.927 358.498 249.511 358.887 248.803C359.241 248.166 356.799 247.21 354.215 246.078C353.897 245.936 353.578 245.794 353.259 245.653C350.357 244.378 348.729 241.759 346.463 239.352C344.304 237.087 342.286 229.724 342.286 229.724L335.207 228.202C335.207 228.202 337.189 234.786 337.897 237.582C338.287 239.246 337.685 241.087 337.189 242.502C336.871 243.317 336.552 244.095 336.481 244.945Z" fill="#FDB3B1"/>
<path d="M343.349 248.061C347.136 248.238 346.003 249.016 351.207 249.972C356.41 250.928 358.498 249.512 358.888 248.804C359.242 248.167 356.799 247.211 354.215 246.079L354.18 246.114C354.18 246.114 350.534 247.353 346.287 246.22C342.818 245.3 339.526 243.211 337.154 242.574C336.871 243.353 336.588 244.132 336.517 244.946C336.269 247.282 339.561 247.848 343.349 248.061Z" fill="#B15252"/>
<path d="M266.042 161.055C266.042 161.055 313.049 157.516 321.898 163.108C330.747 168.701 344.941 233.76 344.941 233.76C344.941 233.76 344.056 234.468 342.109 234.681C340.269 234.893 336.269 233.796 336.269 233.796C336.269 233.796 315.845 204.7 314.429 197.372C313.013 190.045 313.332 183.497 310.075 183.32C306.819 183.178 266.042 188.275 259.847 177.409C253.688 166.542 258.785 155.781 258.785 155.781L266.042 161.055Z" fill="#3C8F7C"/>
<path d="M318.499 252.485C318.287 254.821 321.578 255.423 325.366 255.6C329.153 255.777 328.021 256.555 333.224 257.511C338.427 258.467 340.516 257.051 340.905 256.343C341.259 255.706 338.817 254.75 336.233 253.618C335.914 253.476 335.596 253.334 335.277 253.193C332.374 251.918 330.746 249.299 328.481 246.892C326.322 244.627 324.304 237.264 324.304 237.264L317.225 235.742C317.225 235.742 319.207 242.326 319.915 245.122C320.304 246.786 319.702 248.627 319.207 250.042C318.853 250.857 318.57 251.671 318.499 252.485Z" fill="#FDB3B1"/>
<path d="M325.367 255.599C329.154 255.776 328.022 256.555 333.225 257.51C338.428 258.466 340.517 257.05 340.906 256.342C341.26 255.705 338.818 254.749 336.234 253.617L336.198 253.652C336.198 253.652 332.552 254.891 328.305 253.758C324.836 252.838 321.544 250.749 319.173 250.112C318.889 250.891 318.606 251.67 318.5 252.484C318.288 254.855 321.579 255.386 325.367 255.599Z" fill="#B15252"/>
<path d="M256.838 163.957C256.838 163.957 298.606 165.939 307.243 171.851C315.88 177.762 327.525 243.317 327.525 243.317C327.525 243.317 326.605 243.989 324.658 244.131C322.817 244.272 318.888 243.033 318.888 243.033C318.888 243.033 299.632 213.158 298.464 205.761C297.296 198.363 297.933 191.85 294.641 191.566C291.385 191.283 250.431 194.823 244.697 183.708C238.962 172.629 256.838 163.957 256.838 163.957Z" fill="#50BFA5"/>
<path d="M271.74 72.0676C269.9 70.8641 267.599 70.5809 265.971 70.5455C266.431 70.1562 267.245 70.05 267.245 70.05C266.254 69.8376 263.953 70.6871 263.953 70.6871C250.396 64.3865 246.821 84.7396 246.786 89.5536C246.75 94.3321 246.432 99.8186 239.211 103.641C224.981 111.146 235.53 126.579 235.53 126.579C235.636 126.649 241.158 137.693 241.158 137.693C241.051 133.8 260.201 114.685 269.864 109.234C272.342 106.084 273.546 100.243 273.652 99.7832C272.944 104.42 271.988 106.969 271.174 108.385C279.457 101.659 276.625 75.2887 271.74 72.0676Z" fill="#A83F3F"/>
<path d="M255.105 104.704C255.105 104.704 258.786 104.846 262.68 105.235C265.335 105.483 268.131 105.766 269.618 106.403C273.299 107.925 272.91 114.474 265.193 113.235C257.477 112.031 254.539 106.651 255.105 104.704Z" fill="#FDB3B1"/>
<path d="M269.298 109.446C269.333 109.482 270.395 115.039 265.333 114.827C262.006 114.685 254.856 110.685 255.493 107.818C255.776 106.473 258.289 102.969 258.82 94.9336L259.422 95.0752L269.581 97.8007C269.581 97.8007 269.121 101.022 268.944 104.066C268.731 106.685 268.731 109.128 269.298 109.446Z" fill="#FDB3B1"/>
<path d="M269.546 97.8359C269.546 97.8359 269.085 101.057 268.873 104.101C263.103 103.57 260.413 98.0837 259.387 95.1104L269.546 97.8359Z" fill="#FCA09E"/>
<path d="M258.396 93.9076C258.396 93.9076 255.67 88.952 255.246 84.8106C254.927 81.8373 257.122 71.1829 267.882 73.4483C267.882 73.4483 271.033 73.9792 273.829 76.1738C276.094 77.9082 279.245 81.5895 274.82 90.7573L273.617 93.8722L258.396 93.9076Z" fill="#A83F3F"/>
<path d="M271.317 100.881C271.317 100.881 257.689 100.209 258.22 91.7135C258.787 83.2183 257.371 77.4132 266.114 77.484C274.857 77.5548 276.308 80.9175 276.839 83.7847C277.334 86.6518 274.857 100.846 271.317 100.881Z" fill="#FDB3B1"/>
<path d="M272.342 77.6605C272.342 77.6605 267.953 87.3592 262.112 88.4919C256.272 89.5892 253.9 87.8901 253.9 87.8901C253.9 87.8901 258.537 84.669 259.847 78.6516C259.847 78.6516 269.829 72.7403 272.342 77.6605Z" fill="#A83F3F"/>
<path d="M271.352 78.4039C271.352 78.4039 274.006 80.8109 274.537 83.0409C275.068 85.2355 275.068 89.7309 276.378 89.6601C276.378 89.6601 279.634 83.0763 276.732 79.041C273.652 74.7226 271.352 78.4039 271.352 78.4039Z" fill="#A83F3F"/>
<path d="M284.943 161.763C283.846 163.073 280.377 163.462 276.696 164.1C273.794 164.56 270.749 165.197 268.59 166.436C263.67 169.338 247.6 179.072 242.892 178.648C241.052 178.471 241.405 175.002 242.503 170.365C244.237 163.038 247.883 152.914 247.883 148.525C247.883 146.118 248.662 140.419 249.759 133.906C249.865 133.375 249.936 132.844 250.042 132.313C252.166 119.641 255.104 104.739 255.104 104.739C255.104 104.739 258.396 111.854 264.767 111.854C271.139 111.854 269.652 106.403 269.652 106.403C269.652 106.403 275.457 107.075 276.838 108.562C278.218 110.049 281.687 116.456 282.395 118.19C282.395 118.19 282.537 120.42 277.05 121.447C277.05 121.447 278.395 127.464 278.537 131.499C278.643 134.473 276.519 143.746 275.882 149.516C275.67 151.569 275.634 153.162 275.988 153.905C276.413 154.826 277.793 155.746 279.351 156.666C282.395 158.436 286.253 160.171 284.943 161.763Z" fill="#F7CC7F"/>
<path d="M279.28 156.63C282.784 162.647 269.723 164.453 267.564 165.727C262.644 168.629 247.6 179.107 242.892 178.647C241.052 178.47 241.405 175.001 242.503 170.364C244.237 163.037 247.883 152.913 247.883 148.524C247.883 146.117 248.662 140.418 249.759 133.905L255.423 128.454C255.423 128.454 261.511 144.17 267.28 146.754C270.289 148.099 273.475 148.984 275.811 149.515C275.599 151.568 275.563 153.161 275.917 153.904C276.342 154.825 277.723 155.745 279.28 156.63Z" fill="#EAB765"/>
<path d="M253.334 109.376C253.334 109.376 248.485 106.438 243.813 112.03C239.105 117.623 247.14 157.551 254.078 159.604C261.794 161.869 284.094 159.25 284.094 159.25L283.669 155.781C283.669 155.781 259.953 151.215 258.962 149.94C257.971 148.666 255.812 110.048 253.334 109.376Z" fill="#FDB3B1"/>
<path d="M255.105 104.704C255.105 104.704 245.159 105.624 242.256 108.881C239.353 112.137 238.504 121.022 238.504 121.022C238.504 121.022 247.247 128.101 257.831 125.34L255.105 104.704Z" fill="#F7CC7F"/>
<path d="M299.597 161.091H286.43V162.648H299.597V161.091Z" fill="#9E332E"/>
<path d="M296.766 162.436C296.907 161.905 308.871 143.145 308.871 143.145H335.49L322.145 161.94L296.766 162.436Z" fill="#9E332E"/>
<path d="M297.898 162.648C298.04 162.117 310.004 143.145 310.004 143.145H335.454L322.747 162.648H297.898Z" fill="#A83F3F"/>
<path d="M320.341 152.949C320.058 153.728 319.244 154.329 318.5 154.329C317.722 154.329 317.332 153.728 317.58 152.949C317.863 152.17 318.677 151.568 319.421 151.568C320.199 151.568 320.589 152.205 320.341 152.949Z" fill="#9E332E"/>
<path d="M281.723 155.534C281.723 155.534 289.439 154.047 290.324 154.401C291.209 154.791 296.058 159.144 295.563 159.994C295.067 160.879 293.085 161.481 290.82 160.737C288.59 159.994 283.705 159.604 282.855 158.507C281.97 157.41 281.723 155.534 281.723 155.534Z" fill="#FDB3B1"/>
</svg>
