<svg width="19" height="19" viewBox="0 0 19 19" fill="none" xmlns="http://www.w3.org/2000/svg">
<g opacity="0.7">
<path d="M17.8867 10.8452V1.70703C17.8867 1.39957 17.6375 1.15039 17.3301 1.15039H14.5098V0.556641C14.5098 0.249184 14.2606 0 13.9531 0C13.6457 0 13.3965 0.249184 13.3965 0.556641V1.15039H11.1699V0.556641C11.1699 0.249184 10.9207 0 10.6133 0C10.3058 0 10.0566 0.249184 10.0566 0.556641V1.15039H7.83008V0.556641C7.83008 0.249184 7.58089 0 7.27344 0C6.96598 0 6.7168 0.249184 6.7168 0.556641V1.15039H4.49023V0.556641C4.49023 0.249184 4.24105 0 3.93359 0C3.62614 0 3.37695 0.249184 3.37695 0.556641V1.15039H0.556641C0.249184 1.15039 0 1.39957 0 1.70703V16.2168C0 16.5243 0.249184 16.7734 0.556641 16.7734H9.82674C10.7266 18.115 12.257 19 13.9902 19C16.7526 19 19 16.7526 19 13.9902C19 12.8001 18.5825 11.7057 17.8867 10.8452ZM3.37695 2.26367V2.82031C3.37695 3.12777 3.62614 3.37695 3.93359 3.37695C4.24105 3.37695 4.49023 3.12777 4.49023 2.82031V2.26367H6.7168V2.82031C6.7168 3.12777 6.96598 3.37695 7.27344 3.37695C7.58089 3.37695 7.83008 3.12777 7.83008 2.82031V2.26367H10.0566V2.82031C10.0566 3.12777 10.3058 3.37695 10.6133 3.37695C10.9207 3.37695 11.1699 3.12777 11.1699 2.82031V2.26367H13.3965V2.82031C13.3965 3.12777 13.6457 3.37695 13.9531 3.37695C14.2606 3.37695 14.5098 3.12777 14.5098 2.82031V2.26367H16.7734V4.49023H1.11328V2.26367H3.37695ZM1.11328 15.6602V5.60352H16.7734V9.82674C15.9769 9.29256 15.0193 8.98047 13.9902 8.98047C12.2313 8.98047 10.6814 9.89182 9.78731 11.2669C9.71207 11.2289 9.62727 11.207 9.53711 11.207H8.42383C8.11637 11.207 7.86719 11.4562 7.86719 11.7637C7.86719 12.0711 8.11637 12.3203 8.42383 12.3203H9.26705C9.14137 12.6749 9.0544 13.0477 9.01163 13.4336H8.42383C8.11637 13.4336 7.86719 13.6828 7.86719 13.9902C7.86719 14.2977 8.11637 14.5469 8.42383 14.5469H9.01163C9.0544 14.9328 9.14123 15.3056 9.26705 15.6602H1.11328ZM13.9902 17.8867C11.8417 17.8867 10.0938 16.1388 10.0938 13.9902C10.0938 11.8417 11.8417 10.0938 13.9902 10.0938C16.1388 10.0938 17.8867 11.8417 17.8867 13.9902C17.8867 16.1388 16.1388 17.8867 13.9902 17.8867Z" fill="black"/>
<path d="M16.2168 13.4336H14.5469V11.7637C14.5469 11.4562 14.2977 11.207 13.9902 11.207C13.6828 11.207 13.4336 11.4562 13.4336 11.7637V13.9902C13.4336 14.2977 13.6828 14.5469 13.9902 14.5469H16.2168C16.5243 14.5469 16.7734 14.2977 16.7734 13.9902C16.7734 13.6828 16.5243 13.4336 16.2168 13.4336Z" fill="black"/>
<path d="M5.04688 6.75391H3.93359C3.62614 6.75391 3.37695 7.00309 3.37695 7.31055C3.37695 7.618 3.62614 7.86719 3.93359 7.86719H5.04688C5.35433 7.86719 5.60352 7.618 5.60352 7.31055C5.60352 7.00309 5.35433 6.75391 5.04688 6.75391Z" fill="black"/>
<path d="M5.04688 8.98047H3.93359C3.62614 8.98047 3.37695 9.22965 3.37695 9.53711C3.37695 9.84457 3.62614 10.0938 3.93359 10.0938H5.04688C5.35433 10.0938 5.60352 9.84457 5.60352 9.53711C5.60352 9.22965 5.35433 8.98047 5.04688 8.98047Z" fill="black"/>
<path d="M5.04688 11.207H3.93359C3.62614 11.207 3.37695 11.4562 3.37695 11.7637C3.37695 12.0711 3.62614 12.3203 3.93359 12.3203H5.04688C5.35433 12.3203 5.60352 12.0711 5.60352 11.7637C5.60352 11.4562 5.35433 11.207 5.04688 11.207Z" fill="black"/>
<path d="M8.42383 7.86719H9.53711C9.84457 7.86719 10.0938 7.618 10.0938 7.31055C10.0938 7.00309 9.84457 6.75391 9.53711 6.75391H8.42383C8.11637 6.75391 7.86719 7.00309 7.86719 7.31055C7.86719 7.618 8.11637 7.86719 8.42383 7.86719Z" fill="black"/>
<path d="M8.42383 10.0938H9.53711C9.84457 10.0938 10.0938 9.84457 10.0938 9.53711C10.0938 9.22965 9.84457 8.98047 9.53711 8.98047H8.42383C8.11637 8.98047 7.86719 9.22965 7.86719 9.53711C7.86719 9.84457 8.11637 10.0938 8.42383 10.0938Z" fill="black"/>
<path d="M5.04688 13.4336H3.93359C3.62614 13.4336 3.37695 13.6828 3.37695 13.9902C3.37695 14.2977 3.62614 14.5469 3.93359 14.5469H5.04688C5.35433 14.5469 5.60352 14.2977 5.60352 13.9902C5.60352 13.6828 5.35433 13.4336 5.04688 13.4336Z" fill="black"/>
<path d="M12.877 7.86719H13.9902C14.2977 7.86719 14.5469 7.618 14.5469 7.31055C14.5469 7.00309 14.2977 6.75391 13.9902 6.75391H12.877C12.5695 6.75391 12.3203 7.00309 12.3203 7.31055C12.3203 7.618 12.5695 7.86719 12.877 7.86719Z" fill="black"/>
</g>
</svg>
