<svg width="100" height="100" viewBox="0 0 100 100" fill="none" xmlns="http://www.w3.org/2000/svg">
<path fill-rule="evenodd" clip-rule="evenodd" d="M0 31.25C0 27.9348 1.31696 24.7554 3.66117 22.4112C6.00537 20.067 9.18479 18.75 12.5 18.75H59.375C62.4068 18.7496 65.3355 19.8512 67.6155 21.8495C69.8955 23.8479 71.3716 26.6068 71.7687 29.6125L91.2063 20.975C92.1577 20.5511 93.1999 20.3716 94.2383 20.453C95.2768 20.5344 96.2784 20.874 97.1521 21.441C98.0259 22.008 98.7441 22.7844 99.2414 23.6995C99.7388 24.6147 99.9996 25.6397 100 26.6813V73.3187C99.9991 74.3595 99.7383 75.3836 99.2413 76.298C98.7442 77.2125 98.0267 77.9883 97.1538 78.5551C96.2809 79.1219 95.2803 79.4618 94.2428 79.5438C93.2052 79.6259 92.1636 79.4476 91.2125 79.025L71.7687 70.3875C71.3716 73.3932 69.8955 76.1521 67.6155 78.1505C65.3355 80.1488 62.4068 81.2504 59.375 81.25H12.5C9.18479 81.25 6.00537 79.933 3.66117 77.5888C1.31696 75.2446 0 72.0652 0 68.75V31.25Z" fill="#3C36A0"/>
</svg>
