<svg width="13" height="8" viewBox="0 0 13 8" fill="none" xmlns="http://www.w3.org/2000/svg">
<path d="M12.7427 1.58525L6.98021 7.79724C6.91161 7.87097 6.83729 7.92307 6.75726 7.95355C6.67722 7.98452 6.59147 8 6.5 8C6.40853 8 6.32278 7.98452 6.24274 7.95355C6.16271 7.92307 6.08839 7.87097 6.01979 7.79724L0.240105 1.58525C0.0800351 1.41321 0 1.19816 0 0.940092C0 0.682027 0.085752 0.46083 0.257256 0.276498C0.42876 0.0921659 0.628848 0 0.85752 0C1.08619 0 1.28628 0.0921659 1.45778 0.276498L6.5 5.69585L11.5422 0.276498C11.7023 0.104455 11.8994 0.0184331 12.1336 0.0184331C12.3682 0.0184331 12.5712 0.110599 12.7427 0.294931C12.9142 0.479262 13 0.694316 13 0.940092C13 1.18587 12.9142 1.40092 12.7427 1.58525Z" fill="#F27405"/>
</svg>
