<svg width="126" height="102" viewBox="0 0 126 102" fill="none" xmlns="http://www.w3.org/2000/svg">
<g clip-path="url(#clip0_248_1017)">
<path d="M107.269 81.2501C107.417 79.9295 107.2 78.6809 106.225 77.6799C105.336 76.765 104.359 75.9273 103.421 75.0546C103.431 75.0107 103.423 74.9703 103.401 74.9316C103.229 74.7876 103.095 74.461 102.86 74.5945C102.86 74.5734 102.86 74.5523 102.86 74.5312C102.38 74.2257 102.38 73.9201 102.86 73.6146C102.86 73.5935 102.86 73.5724 102.86 73.5513C103.092 73.6865 103.227 73.3546 103.401 73.2142C103.423 73.1755 103.429 73.1351 103.42 73.0912C104.365 72.2132 105.369 71.3843 106.242 70.4448C108.392 68.1355 107.115 64.4407 103.953 63.7102C103.766 63.6469 103.581 63.5837 103.394 63.5205C103.205 63.517 103.016 63.5135 102.827 63.5117C102.504 63.6153 102.128 63.4397 101.831 63.6786C100.936 63.798 100.232 64.251 99.6094 64.8393C98.6272 65.7683 97.6265 66.6815 96.6758 67.6385C96.2885 68.0302 96.0679 68.0477 95.6639 67.6456C94.6224 66.6095 93.5587 65.5892 92.4412 64.6268C90.6807 63.1113 88.0288 63.1693 86.4221 64.7024C84.6467 66.3952 84.5207 68.7905 86.183 70.5291C87.1967 71.5898 88.2771 72.5943 89.3649 73.5865C89.7671 73.9517 89.8208 74.1607 89.3816 74.5435C88.4958 75.3127 87.6933 76.1697 86.8131 76.9441C85.4806 78.1154 84.8135 79.508 85.0618 81.2466C85.1193 81.3133 85.1786 81.3783 85.236 81.445C85.2508 81.6101 85.2675 81.7751 85.2823 81.9402C85.3231 81.9525 85.3657 81.9648 85.4084 81.9736C86.4739 84.3654 89.2389 85.3207 91.6017 84.0932C92.532 83.6085 93.2307 82.8604 93.9275 82.1193C94.035 82.0596 94.1443 81.9999 94.2518 81.9385C94.5261 81.8138 94.8708 81.7102 94.641 81.4362C94.7188 81.3923 94.7985 81.3467 94.8763 81.3027C94.969 81.3203 95.0931 81.3238 95.1395 81.2624C95.9252 80.2192 96.6887 80.5775 97.4523 81.2852C97.5542 81.3467 97.658 81.4081 97.7599 81.4696C97.7821 81.4696 97.8044 81.4696 97.8247 81.4696C97.6802 81.6944 98.0286 81.8173 98.1769 81.9806L98.2436 81.9964H98.3121C99.4333 83.238 100.582 84.4462 102.454 84.6306C102.556 84.6183 102.658 84.606 102.76 84.5937C102.96 84.7517 103.169 84.7693 103.39 84.6306C103.577 84.5638 103.762 84.4989 103.95 84.4321C105.365 84.1669 106.233 83.2643 106.92 82.1492L106.904 82.0122C107.085 81.877 107.252 81.7365 107.111 81.4889C107.18 81.4239 107.232 81.3449 107.263 81.2501H107.269Z" fill="#FEFEFE"/>
<path d="M123.492 65.2276C121.32 59.4237 117.486 54.8034 112.145 51.3105C109.641 49.6721 106.915 48.4657 103.965 47.7299C103.774 47.6614 103.583 47.5929 103.394 47.5244C103.183 47.556 102.999 47.4963 102.836 47.3716C102.751 47.3488 102.688 47.3628 102.64 47.4032C102.338 46.9361 101.798 46.9589 101.335 46.8869C98.4644 46.4479 95.5846 46.2951 92.6862 46.6622C86.011 47.5086 80.2568 50.1515 75.4775 54.6401C73.0479 56.923 71.1465 59.5747 69.7363 62.5355C67.1622 67.9338 66.3783 73.5498 67.4976 79.3835C67.6329 80.086 67.6978 80.8411 68.2092 81.4399C68.2519 81.447 68.2926 81.4575 68.3334 81.4698C68.3408 81.6366 68.3464 81.8052 68.3538 81.972C68.4131 82.044 68.4724 82.1143 68.5298 82.1863C70.3627 87.8479 73.8188 92.4349 78.8039 95.9734C82.7475 98.7726 87.1711 100.509 92.0691 101.164C95.6884 101.649 99.2613 101.454 102.816 100.71C102.808 100.667 102.816 100.629 102.842 100.594L103.392 100.585C103.464 100.532 103.537 100.478 103.609 100.425C103.941 100.364 104.282 100.332 104.6 100.234C109.849 98.6128 114.357 95.9102 117.958 91.9238C120.551 89.0526 122.532 85.846 123.605 82.1757C123.664 82.1072 123.722 82.0405 123.781 81.972C123.757 81.7701 123.807 81.5927 123.961 81.4452L123.924 81.2696C124.398 79.7822 124.667 78.2561 124.804 76.7108C125.15 72.8017 124.882 68.9453 123.49 65.2259L123.492 65.2276ZM106.355 82.5937C105.653 83.3629 104.917 84.0881 103.811 84.3182C103.618 84.3937 103.431 84.4727 103.305 84.6237C103.149 84.6114 102.994 84.5991 102.836 84.5851C102.727 84.5166 102.627 84.5149 102.534 84.5728C100.938 84.1074 99.695 83.1521 98.6016 81.9843C98.5219 81.8983 98.4033 81.8509 98.2921 81.8087C98.1957 81.7771 98.0957 81.7543 97.9937 81.7455H97.9882C97.9141 81.6542 97.8381 81.5611 97.7639 81.4698C97.7324 81.2362 97.5619 81.18 97.3507 81.1765C96.2091 79.9964 96.1331 79.9947 94.9916 81.1888C94.9675 81.1888 94.9415 81.1888 94.9174 81.187C94.7581 81.2064 94.6469 81.2749 94.6358 81.4434C94.5487 81.5576 94.4634 81.67 94.3763 81.7841C94.2021 81.8263 94.0409 81.8965 93.8926 82.0001C93.2866 82.5392 92.6843 83.0801 92.0302 83.5666C90.4494 84.7449 88.1885 84.6325 86.7115 83.34C86.1945 82.887 85.8868 82.2706 85.3346 81.8614C85.4254 81.6875 85.405 81.5119 85.3031 81.3346C85.2475 81.2678 85.1826 81.2257 85.1103 81.1993C85.292 81.0009 85.2846 80.748 85.2716 80.5109C85.2141 79.4239 85.6478 78.5406 86.3724 77.7135C87.2656 76.6985 88.3071 75.8274 89.2578 74.8704C89.9583 74.1662 89.9602 73.9818 89.2485 73.2706C88.2089 72.2327 87.0636 71.2914 86.137 70.1465C84.799 68.4922 84.964 66.4639 86.5985 64.9256C88.1255 63.4891 90.379 63.3662 92.0561 64.5989C93.2588 65.4823 94.2596 66.5588 95.3474 67.5527C96.2017 68.3324 96.3203 68.3412 97.145 67.572C98.0252 66.7519 98.9129 65.9388 99.758 65.0854C100.371 64.4672 101.072 64.0317 101.95 63.8631C102.23 63.7472 102.58 63.7946 102.799 63.5418C102.975 63.677 103.155 63.6823 103.34 63.5593C103.466 63.6875 103.64 63.7595 103.816 63.8298C107.236 64.8079 108.147 68.71 105.533 70.7945C104.697 71.4618 103.889 72.1923 103.246 73.051C103.209 73.1353 103.183 73.2231 103.17 73.3145C103.168 73.339 103.166 73.3654 103.164 73.39C103.062 73.4655 102.962 73.5392 102.86 73.6148C102.562 73.6112 102.393 73.7781 102.375 74.0309C102.352 74.3277 102.519 74.5209 102.86 74.5314C102.962 74.6069 103.066 74.6825 103.168 74.7597C103.172 74.7984 103.173 74.8388 103.179 74.8774C103.199 74.9705 103.229 75.06 103.273 75.1461C103.965 76.0153 104.821 76.7371 105.649 77.4747C106.591 78.3123 107.024 79.3133 107.048 80.5109C107.054 80.7972 107.026 81.0992 107.182 81.3469L107.093 81.4452C107.117 81.6489 107.063 81.828 106.906 81.972C106.895 81.972 106.885 81.9861 106.878 82.0071C106.674 82.1757 106.531 82.3988 106.355 82.5919V82.5937Z" fill="#FF6F00"/>
<path d="M125.039 44.0631C125.039 43.8787 125.039 43.6961 125.039 43.5117L125.095 43.5328C125.086 40.6721 125.039 37.8114 125.095 34.9525C125.11 34.1535 124.863 34.0235 124.085 34.0253C117.185 34.0481 110.284 34.0288 103.385 34.02C103.37 34.0341 103.357 34.0499 103.344 34.0639L102.827 34.006C102.805 34.0253 102.788 34.0499 102.768 34.0709C99.9285 34.0604 97.0876 34.0463 94.2485 34.0428C83.954 34.0341 73.6614 34.0288 63.3669 34.0235C63.3539 34.0358 63.3428 34.0499 63.3298 34.0622C63.1556 34.0428 62.9814 34.0218 62.8072 34.0024L62.7868 34.0428L62.8239 34.0709C62.4848 34.0621 62.1475 34.0446 61.8083 34.0446C49.3271 34.0446 36.8458 34.0446 24.3627 34.0446C24.0495 34.0446 23.7363 34.0604 23.425 34.0692C23.4046 34.0481 23.3861 34.027 23.3657 34.006C23.1934 34.0253 23.0192 34.0446 22.8468 34.0639C22.8338 34.0499 22.8209 34.0341 22.806 34.02C15.6583 34.027 8.51237 34.0428 1.36461 34.0288C0.738231 34.0288 0.539939 34.1412 0.545499 34.7751C0.577003 37.6938 0.545499 40.6124 0.538086 43.531L0.593682 43.51V44.0614L0.538086 44.0403C0.547352 50.4062 0.57515 56.772 0.556618 63.1379C0.547352 66.2813 1.2145 69.2684 2.54324 72.1414C4.31304 75.9732 7.17066 78.9164 10.751 81.2819C10.9252 81.3416 11.0994 81.4031 11.2736 81.4628C11.4923 81.6226 11.7128 81.7806 11.9315 81.9404C12.0983 82.0001 12.2669 82.0581 12.4337 82.1178C15.6713 83.772 19.1423 84.5623 22.8079 84.6273L22.7857 84.5728C22.9802 84.5728 23.1748 84.5728 23.3676 84.5728L23.3453 84.6255C23.6845 84.6167 24.0217 84.6027 24.3609 84.6027C35.8859 84.6027 47.4109 84.6027 58.9359 84.5974C59.2602 84.5974 59.6012 84.6799 59.9626 84.5061C59.7328 83.7176 59.503 82.9326 59.275 82.1476C59.288 82.0879 59.301 82.0282 59.3158 81.9685C59.2398 81.7912 59.1657 81.612 59.0897 81.4347C59.1045 81.3785 59.1231 81.3223 59.1397 81.2661C59.3454 81.036 59.288 80.7691 59.238 80.5127C58.6653 77.5677 58.5282 74.6192 58.7876 71.6216C59.1675 67.2331 60.1942 63.0325 62.229 59.0655C62.444 58.6458 62.6923 58.2366 62.6497 57.7431C62.709 57.5693 62.7664 57.3954 62.8257 57.2198C63.0092 56.9827 63.1927 56.7439 63.3743 56.5068C63.4262 56.3857 63.4762 56.2663 63.5281 56.1451C66.4932 51.2754 70.4942 47.3277 75.3959 44.1843C75.5201 44.1369 75.6461 44.0877 75.7703 44.0403L76.5264 43.517C76.6543 43.4731 76.7803 43.4274 76.9081 43.3835C77.364 43.3923 77.731 43.1745 78.1072 42.9726C83.8539 39.9012 90.0695 38.556 96.6261 38.5051C98.3533 38.491 100.067 38.693 101.78 38.8932C102.143 38.9353 102.512 39.046 102.849 38.8036L102.825 38.7474C102.957 38.7615 103.09 38.7755 103.222 38.7896C103.24 38.8352 103.264 38.8791 103.292 38.9213C103.564 39.2058 103.948 39.2321 104.304 39.3059C108.318 40.133 112.087 41.5361 115.592 43.5679C115.842 43.6821 116.105 43.747 116.383 43.7558C116.394 43.7558 116.407 43.7558 116.418 43.7558C116.533 43.8489 116.646 43.942 116.761 44.0333L117.121 44.1843C120.047 46.0194 122.634 48.2233 125.099 50.9277V44.035L125.043 44.0561L125.039 44.0631Z" fill="#FF6F00"/>
<path d="M1.60881 25.6418C8.67318 25.6049 15.7394 25.633 22.8056 25.64C22.8205 25.626 22.8334 25.6102 22.8483 25.5961C23.0206 25.6154 23.1929 25.6347 23.3653 25.6541C23.3875 25.6347 23.4024 25.6119 23.4209 25.5908C23.7637 25.6014 24.1066 25.6154 24.4494 25.6172C28.7155 25.6277 32.9815 25.6365 37.2476 25.6453C37.3421 25.6874 37.431 25.6751 37.5089 25.6084C37.5126 25.6014 37.5163 25.5944 37.5218 25.5873C38.4855 25.6066 39.4473 25.626 40.411 25.6453C40.4295 25.6277 40.448 25.6102 40.4666 25.5944C40.7575 25.6119 41.0466 25.6312 41.3376 25.6488C41.3598 25.6295 41.3839 25.6084 41.4061 25.5873C42.4031 25.5873 43.402 25.5873 44.399 25.5873C44.4213 25.6084 44.4454 25.6277 44.4676 25.6488C44.7585 25.6312 45.0495 25.6137 45.3404 25.5944C45.359 25.6119 45.3757 25.6277 45.3942 25.6453C46.7285 25.626 48.0646 25.6066 49.3989 25.5873C49.423 25.6066 49.4471 25.626 49.4712 25.6453C53.9226 25.6418 58.3758 25.64 62.8272 25.6365C62.842 25.6207 62.8568 25.6049 62.8735 25.5891H63.322C63.3368 25.6049 63.3516 25.6207 63.3665 25.6365C63.7056 25.6295 64.0447 25.6172 64.382 25.6172C76.8651 25.6172 89.3482 25.6172 101.831 25.6154C102.145 25.6154 102.458 25.5996 102.771 25.5891C102.789 25.6102 102.808 25.6312 102.828 25.6505C103.001 25.6312 103.173 25.6119 103.345 25.5926C103.358 25.6066 103.373 25.6224 103.386 25.6365C106.655 25.6295 109.924 25.6189 113.193 25.6154C116.926 25.6119 120.658 25.6154 124.39 25.6102C124.683 25.6102 125.091 25.7787 125.08 25.2063C125.03 22.465 125.233 19.7132 124.574 17.0035C123.551 12.7994 121.436 9.17835 118.195 6.14732C118.143 6.1403 118.089 6.13327 118.037 6.12449C117.785 5.8962 117.533 5.66791 117.281 5.44137C113.773 2.5842 109.713 0.940489 105.115 0.483904C105.086 0.471611 105.054 0.462831 105.024 0.45405C104.496 0.276684 103.933 0.41366 103.395 0.308294C103.206 0.306538 103.017 0.303026 102.828 0.30127L102.847 0.366245C102.51 0.355709 102.17 0.338148 101.833 0.338148C90.1247 0.338148 78.4162 0.336391 66.7096 0.338148C65.6014 0.338148 64.4932 0.355709 63.385 0.364489C63.1923 0.364489 62.9995 0.364489 62.8086 0.364489L62.8309 0.313562C62.4918 0.320587 62.1545 0.336391 61.8153 0.336391C51.797 0.336391 41.7805 0.339904 31.7621 0.336391C28.9582 0.336391 26.1525 0.320587 23.3486 0.313562L23.3709 0.366245C23.1763 0.366245 22.9817 0.366245 22.7889 0.366245L22.8112 0.311806C20.7152 0.37327 18.6434 0.594538 16.6308 1.19161C13.5786 2.096 10.7488 3.38849 8.3637 5.45366C8.25992 5.51337 8.15614 5.57308 8.05236 5.63103C7.90596 5.79786 7.75956 5.96469 7.61315 6.13152C7.56312 6.1403 7.51308 6.14381 7.46305 6.14381C4.19401 9.1643 2.09805 12.7959 1.06583 16.9983C0.450565 19.506 0.615499 22.0505 0.543225 24.5881C0.519133 25.3977 0.680361 25.647 1.61066 25.6435L1.60881 25.6418Z" fill="#FF6F00"/>
</g>
<defs>
<clipPath id="clip0_248_1017">
<rect width="124.557" height="101.128" fill="white" transform="translate(0.538086 0.302734)"/>
</clipPath>
</defs>
</svg>
