<svg width="15" height="16" viewBox="0 0 15 16" fill="none" xmlns="http://www.w3.org/2000/svg">
<path d="M1.42857 0V1.3913H0V16H3.92857V12.8696H5.35714V16H9.28571V1.3913H7.85714V0H1.42857ZM2.14286 2.78261H2.85714V3.47826H2.14286V2.78261ZM3.57143 2.78261H4.28571V3.47826H3.57143V2.78261ZM5 2.78261H5.71429V3.47826H5V2.78261ZM6.42857 2.78261H7.14286V3.47826H6.42857V2.78261ZM10 4.17391V5.56522H10.7143V6.26087H10V6.95652H10.7143V7.65217H10V8.34783H10.7143V9.04348H10V9.73913H10.7143V10.4348H10V11.1304H10.7143V11.8261H10V12.5217H10.7143V13.2174H10V13.913H10.7143V14.6087H10V16H15V4.17391H10ZM2.14286 4.52174H2.85714V5.91304H2.14286V4.52174ZM3.57143 4.52174H4.28571V5.91304H3.57143V4.52174ZM5 4.52174H5.71429V5.91304H5V4.52174ZM6.42857 4.52174H7.14286V5.91304H6.42857V4.52174ZM11.4286 5.56522H12.1429V6.26087H11.4286V5.56522ZM12.8571 5.56522H13.5714V6.26087H12.8571V5.56522ZM2.14286 6.6087H2.85714V8H2.14286V6.6087ZM3.57143 6.6087H4.28571V8H3.57143V6.6087ZM5 6.6087H5.71429V8H5V6.6087ZM6.42857 6.6087H7.14286V8H6.42857V6.6087ZM11.4286 6.95652H12.1429V7.65217H11.4286V6.95652ZM12.8571 6.95652H13.5714V7.65217H12.8571V6.95652ZM11.4286 8.34783H12.1429V9.04348H11.4286V8.34783ZM12.8571 8.34783H13.5714V9.04348H12.8571V8.34783ZM2.14286 8.69565H2.85714V10.087H2.14286V8.69565ZM3.57143 8.69565H4.28571V10.087H3.57143V8.69565ZM5 8.69565H5.71429V10.087H5V8.69565ZM6.42857 8.69565H7.14286V10.087H6.42857V8.69565ZM11.4286 9.73913H12.1429V10.4348H11.4286V9.73913ZM12.8571 9.73913H13.5714V10.4348H12.8571V9.73913ZM2.14286 10.7826H2.85714V12.1739H2.14286V10.7826ZM3.57143 10.7826H4.28571V12.1739H3.57143V10.7826ZM5 10.7826H5.71429V12.1739H5V10.7826ZM6.42857 10.7826H7.14286V12.1739H6.42857V10.7826ZM11.4286 11.1304H12.1429V11.8261H11.4286V11.1304ZM12.8571 11.1304H13.5714V11.8261H12.8571V11.1304ZM11.4286 12.5217H12.1429V13.2174H11.4286V12.5217ZM12.8571 12.5217H13.5714V13.2174H12.8571V12.5217ZM2.14286 12.8696H2.85714V14.6087H2.14286V12.8696ZM6.42857 12.8696H7.14286V14.6087H6.42857V12.8696ZM11.4286 13.913H12.1429V14.6087H11.4286V13.913ZM12.8571 13.913H13.5714V14.6087H12.8571V13.913Z" fill="#989898"/>
</svg>
