<svg width="39" height="39" viewBox="0 0 39 39" fill="none" xmlns="http://www.w3.org/2000/svg">
<path d="M21.786 19.5106L38.5037 2.79293C39.149 2.16978 39.1668 1.1416 38.5437 0.496365C37.9205 -0.148867 36.8924 -0.166758 36.2471 0.456395C36.2336 0.469433 36.2203 0.482756 36.2072 0.496365L19.4894 17.2141L2.77166 0.49627C2.12642 -0.126883 1.09824 -0.108992 0.475085 0.53624C-0.132842 1.16567 -0.132842 2.1635 0.475085 2.79293L17.1928 19.5106L0.475085 36.2283C-0.159013 36.8625 -0.159013 37.8907 0.475085 38.5249C1.10928 39.1589 2.13746 39.1589 2.77166 38.5249L19.4894 21.8072L36.2071 38.5249C36.8523 39.1481 37.8805 39.1302 38.5036 38.4849C39.1115 37.8555 39.1115 36.8577 38.5036 36.2283L21.786 19.5106Z" fill="#FDBF00"/>
</svg>
