<svg width="39" height="39" viewBox="0 0 39 39" fill="none" xmlns="http://www.w3.org/2000/svg">
<path d="M21.7865 19.5106L38.5042 2.79293C39.1494 2.16978 39.1673 1.1416 38.5442 0.496365C37.921 -0.148867 36.8928 -0.166758 36.2476 0.456395C36.2341 0.469433 36.2208 0.482756 36.2076 0.496365L19.4898 17.2141L2.77214 0.49627C2.12691 -0.126883 1.09873 -0.108992 0.475573 0.53624C-0.132353 1.16567 -0.132353 2.1635 0.475573 2.79293L17.1933 19.5106L0.475573 36.2283C-0.158524 36.8625 -0.158524 37.8907 0.475573 38.5249C1.10977 39.1589 2.13795 39.1589 2.77214 38.5249L19.4898 21.8072L36.2075 38.5249C36.8528 39.1481 37.881 39.1302 38.5041 38.4849C39.1119 37.8555 39.1119 36.8577 38.5041 36.2283L21.7865 19.5106Z" fill="#FDBF00"/>
</svg>
