<svg width="19" height="19" viewBox="0 0 19 19" fill="none" xmlns="http://www.w3.org/2000/svg">
<circle cx="9.5" cy="9.5" r="9.5" fill="#D7D7D7"/>
<path d="M11.9268 11.5705C11.9737 11.618 12 11.6822 12 11.7491C12 11.816 11.9737 11.8802 11.9268 11.9278C11.879 11.9741 11.8152 12 11.7487 12C11.6823 12 11.6185 11.9741 11.5707 11.9278L9.5 9.84683L7.42929 11.9278C7.38153 11.9741 7.3177 12 7.25126 12C7.18483 12 7.121 11.9741 7.07324 11.9278C7.02632 11.8802 7 11.816 7 11.7491C7 11.6822 7.02632 11.618 7.07324 11.5705L9.14707 9.49269L7.07324 7.41489C7.0334 7.36618 7.01304 7.30434 7.01612 7.2414C7.0192 7.17845 7.0455 7.11891 7.08991 7.07435C7.13432 7.02979 7.19366 7.0034 7.25638 7.00031C7.31911 6.99721 7.38074 7.01765 7.42929 7.05763L9.5 9.13856L11.5707 7.05763C11.6193 7.01765 11.6809 6.99721 11.7436 7.00031C11.8063 7.0034 11.8657 7.02979 11.9101 7.07435C11.9545 7.11891 11.9808 7.17845 11.9839 7.2414C11.987 7.30434 11.9666 7.36618 11.9268 7.41489L9.85293 9.49269L11.9268 11.5705Z" fill="black"/>
</svg>
