<svg width="20" height="20" viewBox="0 0 20 20" fill="none" xmlns="http://www.w3.org/2000/svg">
<path d="M19.5 10C19.5 15.2467 15.2467 19.5 10 19.5C4.75329 19.5 0.5 15.2467 0.5 10C0.5 4.75329 4.75329 0.5 10 0.5C15.2467 0.5 19.5 4.75329 19.5 10Z" fill="#FBFAFC" stroke="#3C36A0"/>
<path d="M13.2812 6.25H11.5625V5.9375C11.5625 5.42057 11.1419 5 10.625 5H9.375C8.85807 5 8.4375 5.42057 8.4375 5.9375V6.25H6.71875C6.28797 6.25 5.9375 6.60047 5.9375 7.03125V8.125C5.9375 8.29758 6.07742 8.4375 6.25 8.4375H6.42078L6.69076 14.1071C6.71461 14.6078 7.12594 15 7.62719 15H12.3728C12.8741 15 13.2854 14.6078 13.3092 14.1071L13.5792 8.4375H13.75C13.9226 8.4375 14.0625 8.29758 14.0625 8.125V7.03125C14.0625 6.60047 13.712 6.25 13.2812 6.25ZM9.0625 5.9375C9.0625 5.7652 9.2027 5.625 9.375 5.625H10.625C10.7973 5.625 10.9375 5.7652 10.9375 5.9375V6.25H9.0625V5.9375ZM6.5625 7.03125C6.5625 6.9451 6.6326 6.875 6.71875 6.875H13.2812C13.3674 6.875 13.4375 6.9451 13.4375 7.03125V7.8125C13.3412 7.8125 6.96158 7.8125 6.5625 7.8125V7.03125ZM12.6849 14.0774C12.677 14.2443 12.5399 14.375 12.3728 14.375H7.62719C7.4601 14.375 7.32299 14.2443 7.31506 14.0774L7.04648 8.4375H12.9535L12.6849 14.0774Z" fill="#3C36A0"/>
<path d="M10 13.75C10.1726 13.75 10.3125 13.6101 10.3125 13.4375V9.375C10.3125 9.20242 10.1726 9.0625 10 9.0625C9.82742 9.0625 9.6875 9.20242 9.6875 9.375V13.4375C9.6875 13.6101 9.8274 13.75 10 13.75Z" fill="#3C36A0"/>
<path d="M11.5625 13.75C11.7351 13.75 11.875 13.6101 11.875 13.4375V9.375C11.875 9.20242 11.7351 9.0625 11.5625 9.0625C11.3899 9.0625 11.25 9.20242 11.25 9.375V13.4375C11.25 13.6101 11.3899 13.75 11.5625 13.75Z" fill="#3C36A0"/>
<path d="M8.4375 13.75C8.61008 13.75 8.75 13.6101 8.75 13.4375V9.375C8.75 9.20242 8.61008 9.0625 8.4375 9.0625C8.26492 9.0625 8.125 9.20242 8.125 9.375V13.4375C8.125 13.6101 8.2649 13.75 8.4375 13.75Z" fill="#3C36A0"/>
</svg>
