<svg width="14" height="23" viewBox="0 0 14 23" fill="none" xmlns="http://www.w3.org/2000/svg">
<path d="M13.825 14.9C13.825 15.8167 13.5833 16.6667 13.1 17.45C12.6333 18.2167 11.9333 18.85 11 19.35C10.0833 19.8333 8.99167 20.1 7.725 20.15V22.175H6.125V20.125C4.35833 19.975 2.93333 19.45 1.85 18.55C0.766667 17.6333 0.191667 16.3917 0.125 14.825H4.675C4.775 15.825 5.25833 16.4667 6.125 16.75V12.8C4.825 12.4667 3.78333 12.1417 3 11.825C2.23333 11.5083 1.55833 11 0.975 10.3C0.391667 9.6 0.1 8.64167 0.1 7.425C0.1 5.90833 0.658333 4.69167 1.775 3.775C2.90833 2.85833 4.35833 2.34167 6.125 2.225V0.199999H7.725V2.225C9.475 2.35833 10.8583 2.86667 11.875 3.75C12.8917 4.63333 13.4583 5.85833 13.575 7.425H9C8.9 6.525 8.475 5.94167 7.725 5.675V9.55C9.10833 9.93333 10.175 10.275 10.925 10.575C11.675 10.875 12.3417 11.375 12.925 12.075C13.525 12.7583 13.825 13.7 13.825 14.9ZM4.625 7.225C4.625 7.64167 4.75 7.99167 5 8.275C5.26667 8.55833 5.64167 8.80833 6.125 9.025V5.55C5.65833 5.63333 5.29167 5.81667 5.025 6.1C4.75833 6.36667 4.625 6.74167 4.625 7.225ZM7.725 16.825C8.225 16.7417 8.61667 16.5417 8.9 16.225C9.2 15.9083 9.35 15.5167 9.35 15.05C9.35 14.6167 9.20833 14.2667 8.925 14C8.65833 13.7167 8.25833 13.475 7.725 13.275V16.825Z" fill="#3C36A0"/>
</svg>
