<svg width="12" height="12" viewBox="0 0 12 12" fill="none" xmlns="http://www.w3.org/2000/svg">
<g clip-path="url(#clip0)">
<path d="M11.142 7.71387C10.9053 7.71387 10.7134 7.90574 10.7134 8.14245V10.7139C10.7134 10.9506 10.5216 11.1425 10.2849 11.1425H1.71347C1.47677 11.1425 1.28489 10.9506 1.28489 10.7139V8.14245C1.28489 7.90574 1.09302 7.71387 0.856314 7.71387C0.619612 7.71387 0.427734 7.90574 0.427734 8.14245V10.7139C0.427734 11.424 1.00337 11.9996 1.71345 11.9996H10.2849C10.995 11.9996 11.5706 11.424 11.5706 10.7139V8.14245C11.5706 7.90574 11.3787 7.71387 11.142 7.71387Z" fill="#373737"/>
<path d="M8.43595 7.41128C8.26986 7.2509 8.00656 7.2509 7.8405 7.41128L6.42835 8.82256V0.42858C6.42835 0.191878 6.23647 0 5.99977 0C5.76307 0 5.57119 0.191878 5.57119 0.42858V8.82258L4.1599 7.41128C3.98964 7.24685 3.71833 7.25157 3.5539 7.42181C3.39349 7.58789 3.39349 7.85119 3.5539 8.01728L5.69675 10.1601C5.86392 10.3277 6.13527 10.328 6.30284 10.1609C6.30309 10.1607 6.30335 10.1604 6.30362 10.1601L8.44647 8.01728C8.61092 7.84702 8.6062 7.57572 8.43595 7.41128Z" fill="#373737"/>
</g>
<defs>
<clipPath id="clip0">
<rect width="12" height="12" fill="white"/>
</clipPath>
</defs>
</svg>
