<svg width="32" height="32" viewBox="0 0 32 32" fill="none" xmlns="http://www.w3.org/2000/svg">
<g clip-path="url(#clip0)">
<path d="M27.6886 0H4.31304C1.9316 0 0.000976562 1.93055 0.000976562 4.31206V27.6878C0.000976562 30.0693 1.93152 31.9998 4.31304 31.9998H15.8418L15.8614 20.5648H12.8906C12.5045 20.5648 12.1912 20.2526 12.1897 19.8666L12.1754 16.1806C12.1739 15.7924 12.4882 15.4769 12.8764 15.4769H15.8418V11.9153C15.8418 7.78215 18.3661 5.53159 22.0532 5.53159H25.0787C25.4658 5.53159 25.7797 5.84542 25.7797 6.23259V9.34063C25.7797 9.72764 25.4661 10.0414 25.0791 10.0416L23.2224 10.0425C21.2173 10.0425 20.829 10.9953 20.829 12.3936V15.477H25.235C25.6548 15.477 25.9805 15.8436 25.9311 16.2605L25.4942 19.9465C25.4524 20.2992 25.1533 20.565 24.7981 20.565H20.8486L20.829 32H27.6888C30.0702 32 32.0007 30.0695 32.0007 27.688V4.31206C32.0007 1.93055 30.0701 0 27.6886 0Z" fill="#3C36A0"/>
</g>
<defs>
<clipPath id="clip0">
<rect width="32" height="32" fill="white"/>
</clipPath>
</defs>
</svg>
