<svg width="32" height="32" viewBox="0 0 32 32" fill="none" xmlns="http://www.w3.org/2000/svg">
<path d="M12.0003 16.6667H13.3337V14H14.667C15.0448 14 15.3617 13.872 15.6177 13.616C15.8728 13.3609 16.0003 13.0445 16.0003 12.6667V11.3334C16.0003 10.9556 15.8728 10.6387 15.6177 10.3827C15.3617 10.1276 15.0448 10 14.667 10H12.0003V16.6667ZM13.3337 12.6667V11.3334H14.667V12.6667H13.3337ZM17.3337 16.6667H20.0003C20.3781 16.6667 20.695 16.5387 20.951 16.2827C21.2061 16.0276 21.3337 15.7111 21.3337 15.3334V11.3334C21.3337 10.9556 21.2061 10.6387 20.951 10.3827C20.695 10.1276 20.3781 10 20.0003 10H17.3337V16.6667ZM18.667 15.3334V11.3334H20.0003V15.3334H18.667ZM22.667 16.6667H24.0003V14H25.3337V12.6667H24.0003V11.3334H25.3337V10H22.667V16.6667ZM10.667 24C9.93366 24 9.3061 23.7391 8.78433 23.2174C8.26166 22.6947 8.00033 22.0667 8.00033 21.3334V5.33335C8.00033 4.60002 8.26166 3.97202 8.78433 3.44935C9.3061 2.92758 9.93366 2.66669 10.667 2.66669H26.667C27.4003 2.66669 28.0283 2.92758 28.551 3.44935C29.0728 3.97202 29.3337 4.60002 29.3337 5.33335V21.3334C29.3337 22.0667 29.0728 22.6947 28.551 23.2174C28.0283 23.7391 27.4003 24 26.667 24H10.667ZM5.33366 29.3334C4.60033 29.3334 3.97277 29.0725 3.45099 28.5507C2.92833 28.028 2.66699 27.4 2.66699 26.6667V8.00002H5.33366V26.6667H24.0003V29.3334H5.33366Z" fill="#F27405"/>
</svg>
