<svg width="19" height="19" viewBox="0 0 19 19" fill="none" xmlns="http://www.w3.org/2000/svg">
<g opacity="0.7" clip-path="url(#clip0)">
<path d="M16.7729 1.11332H13.7673V0.556624C13.7673 0.249219 13.5181 0 13.2107 0C12.9033 0 12.6541 0.249219 12.6541 0.556624V1.11332H10.0563V0.556624C10.0563 0.249219 9.80711 0 9.4997 0C9.19229 0 8.94308 0.249219 8.94308 0.556624V1.11332H6.34531V0.556624C6.34531 0.249219 6.09609 0 5.78869 0C5.48128 0 5.23206 0.249219 5.23206 0.556624V1.11332H2.22651C1.30575 1.11332 0.556641 1.86239 0.556641 2.7832V16.2162C0.556641 17.1371 1.30575 17.8861 2.22651 17.8861H5.97178C8.08973 19.3712 10.9094 19.3714 13.0277 17.8861H16.7729C17.6937 17.8861 18.4428 17.1371 18.4428 16.2162V2.7832C18.4428 1.86239 17.6937 1.11332 16.7729 1.11332ZM9.4997 17.8862C6.71699 17.8862 4.45308 15.6223 4.45308 12.8395C4.45308 10.0569 6.71699 7.79296 9.4997 7.79296C12.2824 7.79296 14.5463 10.0569 14.5463 12.8395C14.5463 15.6223 12.2824 17.8862 9.4997 17.8862ZM17.3295 16.2162C17.3295 16.5232 17.0798 16.7729 16.7729 16.7729H14.2365C15.1246 15.7052 15.6596 14.3337 15.6596 12.8395C15.6596 9.44302 12.8963 6.67971 9.4997 6.67971C6.10314 6.67971 3.33987 9.44302 3.33987 12.8395C3.33987 14.3337 3.87479 15.7052 4.7629 16.7729H2.22655C1.91963 16.7729 1.66993 16.5232 1.66993 16.2162V5.56647H17.3295V16.2162H17.3295ZM17.3295 4.45322H1.66989V2.7832C1.66989 2.47627 1.91959 2.22657 2.22651 2.22657H5.23206V2.78305C5.23206 3.09045 5.48128 3.33967 5.78869 3.33967C6.09609 3.33967 6.34531 3.09045 6.34531 2.78305V2.22657H8.94308V2.78305C8.94308 3.09045 9.19229 3.33967 9.4997 3.33967C9.80711 3.33967 10.0563 3.09045 10.0563 2.78305V2.22657H12.6541V2.78305C12.6541 3.09045 12.9033 3.33967 13.2107 3.33967C13.5181 3.33967 13.7673 3.09045 13.7673 2.78305V2.22657H16.7729C17.0798 2.22657 17.3295 2.47627 17.3295 2.7832V4.45322Z" fill="black"/>
<path d="M10.1423 12.3515C9.65125 12.1703 9.19345 11.9732 9.04424 11.908C8.89962 11.7852 8.93944 11.5009 9.25638 11.4055C9.70606 11.27 10.0877 11.4659 10.3288 11.6542C10.6056 11.8708 10.9541 11.7978 11.1316 11.5615C11.3035 11.3327 11.288 10.99 11.0139 10.7767C10.6954 10.5281 10.3506 10.3652 9.99658 10.2917V10.0193C9.99658 9.71187 9.74736 9.46265 9.43996 9.46265C9.13255 9.46265 8.88333 9.71187 8.88333 10.0193V10.3571C7.68251 10.7615 7.5081 12.2448 8.46282 12.8603C8.73498 13.0358 9.12502 13.1628 9.75705 13.3959C9.88722 13.444 10.3082 13.6219 10.2593 13.8957C10.2223 14.1033 9.96426 14.3181 9.59667 14.3181C9.24269 14.3181 8.73505 14.024 8.60272 13.9102C8.41866 13.6945 8.0972 13.6502 7.86022 13.8162C7.60848 13.9927 7.54747 14.3398 7.72392 14.5915C7.87269 14.8038 8.38605 15.1452 8.94334 15.3202V15.66C8.94334 15.9674 9.19256 16.2166 9.49996 16.2166C9.80737 16.2166 10.0566 15.9674 10.0566 15.66V15.3782C11.5869 15.0176 12 13.0367 10.1423 12.3515Z" fill="black"/>
</g>
<defs>
<clipPath id="clip0">
<rect width="19" height="19" fill="white"/>
</clipPath>
</defs>
</svg>
