<svg width="586" height="587" viewBox="0 0 586 587" fill="none" xmlns="http://www.w3.org/2000/svg">
<path d="M527.283 467.477H488.466V467.77H527.283V467.477Z" fill="#EBEBEB"/>
<path d="M388.19 470.664H378.005V470.957H388.19V470.664Z" fill="#EBEBEB"/>
<path d="M487.294 456.601H464.804V456.894H487.294V456.601Z" fill="#EBEBEB"/>
<path d="M112.102 458.569H61.4829V458.862H112.102V458.569Z" fill="#EBEBEB"/>
<path d="M129.963 458.569H122.544V458.862H129.963V458.569Z" fill="#EBEBEB"/>
<path d="M263.876 463.516H154.083V463.809H263.876V463.516Z" fill="#EBEBEB"/>
<path d="M277.764 396.348H51.4743C49.6995 396.348 47.9973 395.643 46.7423 394.388C45.4873 393.133 44.7822 391.431 44.7822 389.656V71.5398C44.7977 69.7751 45.5096 68.0879 46.7629 66.8456C48.0162 65.6032 49.7096 64.9062 51.4743 64.9063H277.764C279.539 64.9063 281.241 65.6113 282.496 66.8663C283.751 68.1213 284.456 69.8235 284.456 71.5984V389.656C284.456 391.431 283.751 393.133 282.496 394.388C281.241 395.643 279.539 396.348 277.764 396.348ZM51.4743 65.1407C49.7781 65.1437 48.1523 65.8189 46.9529 67.0183C45.7535 68.2177 45.0783 69.8436 45.0752 71.5398V389.656C45.0783 391.352 45.7535 392.978 46.9529 394.177C48.1523 395.377 49.7781 396.052 51.4743 396.055H277.764C279.46 396.052 281.086 395.377 282.286 394.177C283.485 392.978 284.16 391.352 284.163 389.656V71.5398C284.16 69.8436 283.485 68.2177 282.286 67.0183C281.086 65.8189 279.46 65.1437 277.764 65.1407H51.4743Z" fill="#EBEBEB"/>
<path d="M531.279 396.348H304.966C303.192 396.345 301.492 395.639 300.237 394.384C298.983 393.13 298.277 391.43 298.274 389.656V71.5398C298.292 69.776 299.005 68.0907 300.258 66.8489C301.511 65.6072 303.202 64.9092 304.966 64.9062H531.279C533.04 64.9123 534.727 65.6121 535.976 66.8538C537.224 68.0955 537.933 69.7791 537.948 71.5398V389.656C537.948 391.427 537.246 393.125 535.996 394.38C534.746 395.634 533.05 396.342 531.279 396.348ZM304.966 65.1407C303.27 65.1437 301.644 65.8189 300.445 67.0183C299.245 68.2177 298.57 69.8436 298.567 71.5398V389.656C298.57 391.352 299.245 392.978 300.445 394.177C301.644 395.377 303.27 396.052 304.966 396.055H531.279C532.975 396.052 534.601 395.377 535.801 394.177C537 392.978 537.675 391.352 537.678 389.656V71.5398C537.675 69.8436 537 68.2177 535.801 67.0183C534.601 65.8189 532.975 65.1437 531.279 65.1407H304.966Z" fill="#EBEBEB"/>
<path d="M586 448.619H0V448.912H586V448.619Z" fill="#EBEBEB"/>
<path d="M127.127 415.897H83.6691C81.9625 415.897 80.3253 415.221 79.1152 414.018C77.9052 412.814 77.2207 411.181 77.2114 409.474C77.2145 407.764 77.8963 406.124 79.107 404.916C80.3177 403.707 81.9585 403.028 83.6691 403.028H127.127C127.976 403.025 128.817 403.19 129.603 403.512C130.388 403.834 131.102 404.309 131.704 404.907C132.306 405.506 132.784 406.218 133.111 407.001C133.438 407.785 133.607 408.625 133.608 409.474C133.599 411.185 132.911 412.822 131.696 414.026C130.481 415.23 128.838 415.903 127.127 415.897Z" fill="#F0F0F0"/>
<path d="M189.665 415.897H146.196C144.485 415.894 142.845 415.212 141.637 414.001C140.428 412.791 139.75 411.15 139.75 409.439C139.75 407.73 140.429 406.09 141.638 404.881C142.846 403.672 144.486 402.993 146.196 402.993H189.665C191.375 402.993 193.014 403.672 194.223 404.881C195.432 406.09 196.111 407.73 196.111 409.439C196.111 411.15 195.432 412.791 194.224 414.001C193.015 415.212 191.376 415.894 189.665 415.897Z" fill="#F0F0F0"/>
<path d="M252.203 415.897H208.733C207.022 415.894 205.383 415.212 204.174 414.001C202.966 412.791 202.287 411.15 202.287 409.439C202.287 407.73 202.966 406.09 204.175 404.881C205.384 403.672 207.024 402.993 208.733 402.993H252.203C253.912 402.993 255.552 403.672 256.761 404.881C257.969 406.09 258.649 407.73 258.649 409.439C258.649 411.15 257.97 412.791 256.761 414.001C255.553 415.212 253.913 415.894 252.203 415.897Z" fill="#F0F0F0"/>
<path d="M314.729 415.897H271.271C269.575 415.882 267.952 415.199 266.755 413.997C265.558 412.796 264.881 411.171 264.872 409.474C264.875 407.764 265.557 406.124 266.768 404.916C267.978 403.707 269.619 403.028 271.33 403.028H314.788C316.498 403.028 318.139 403.707 319.35 404.916C320.56 406.124 321.242 407.764 321.245 409.474C321.241 410.324 321.068 411.165 320.738 411.948C320.408 412.732 319.926 413.442 319.321 414.039C318.715 414.635 317.998 415.107 317.21 415.426C316.422 415.744 315.579 415.905 314.729 415.897Z" fill="#F0F0F0"/>
<path d="M377.267 415.897H333.798C332.087 415.894 330.447 415.212 329.239 414.001C328.03 412.791 327.352 411.15 327.352 409.439C327.352 407.73 328.031 406.09 329.24 404.881C330.448 403.672 332.088 402.993 333.798 402.993H377.267C378.977 402.993 380.616 403.672 381.825 404.881C383.034 406.09 383.713 407.73 383.713 409.439C383.713 411.15 383.034 412.791 381.826 414.001C380.617 415.212 378.978 415.894 377.267 415.897Z" fill="#F0F0F0"/>
<path d="M439.805 415.897H396.335C394.624 415.894 392.985 415.212 391.776 414.001C390.568 412.791 389.889 411.15 389.889 409.439C389.889 407.73 390.568 406.09 391.777 404.881C392.986 403.672 394.626 402.993 396.335 402.993H439.805C441.514 402.993 443.154 403.672 444.363 404.881C445.571 406.09 446.251 407.73 446.251 409.439C446.251 411.15 445.572 412.791 444.363 414.001C443.155 415.212 441.515 415.894 439.805 415.897Z" fill="#F0F0F0"/>
<path d="M502.331 415.897H458.873C457.163 415.903 455.519 415.23 454.304 414.026C453.089 412.822 452.401 411.185 452.392 409.474C452.395 407.764 453.077 406.124 454.288 404.916C455.498 403.707 457.139 403.028 458.85 403.028H502.308C504.018 403.028 505.659 403.707 506.87 404.916C508.08 406.124 508.762 407.764 508.765 409.474C508.756 411.177 508.075 412.807 506.87 414.01C505.665 415.212 504.034 415.891 502.331 415.897Z" fill="#F0F0F0"/>
<path d="M419.529 103.969H166.471C118.546 103.969 79.6958 142.819 79.6958 190.744V241.468C79.6958 289.392 118.546 328.243 166.471 328.243H419.529C467.453 328.243 506.304 289.392 506.304 241.468V190.744C506.304 142.819 467.453 103.969 419.529 103.969Z" fill="#F5F5F5" stroke="#263238" stroke-miterlimit="10"/>
<path d="M103.734 301.38L157.224 104.484C147.115 105.553 137.275 108.402 128.158 112.899L85.064 271.553C89.1819 282.668 95.5362 292.819 103.734 301.38Z" fill="#FAFAFA"/>
<path d="M477.73 126.378L422.928 328.149C445.344 327.282 466.551 317.764 482.098 301.592C497.645 285.42 506.321 263.854 506.304 241.421V190.732C506.317 178.602 503.78 166.605 498.857 155.518C493.935 144.432 486.737 134.504 477.73 126.378Z" fill="#FAFAFA"/>
<path d="M440.789 106.594C433.853 104.851 426.728 103.969 419.576 103.969H308.611L247.667 328.243H380.595L440.789 106.594Z" fill="#FAFAFA"/>
<path d="M166.424 328.243H199.24L260.184 103.969H177.323L120.071 314.776C133.928 323.58 150.007 328.251 166.424 328.243Z" fill="#FAFAFA"/>
<path d="M463.948 116.193C460.717 114.269 457.366 112.554 453.915 111.06L394.964 328.243H406.391L463.948 116.193Z" fill="#FAFAFA"/>
<path d="M335.461 223.36H316.709V325.477H335.461V223.36Z" fill="#F0F0F0"/>
<path d="M260.735 325.477H241.983V223.36L260.735 266.865V325.477Z" fill="#F0F0F0"/>
<path d="M359.839 259.938H347.475V327.305H359.839V259.938Z" fill="#E0E0E0"/>
<path d="M184.907 259.938H172.542V327.305H184.907V259.938Z" fill="#EBEBEB"/>
<path d="M415.322 259.938H402.957V327.305H415.322V259.938Z" fill="#F5F5F5"/>
<path d="M390.382 218.755V195.373H386.772V164.163H376.247V195.373H372.638V218.755H368.571V327.294H394.449V218.755H390.382Z" fill="#EBEBEB"/>
<path d="M218.25 191.072V161.725H213.714V122.557H200.518V161.725H195.982V191.072H190.884V327.293H223.348V191.072H218.25Z" fill="#F0F0F0"/>
<path d="M434.355 183.583V195.373H441.563V218.755H449.708V327.294H423.831V269.784V218.755V208.289V195.373V164.163L434.355 183.583Z" fill="#E6E6E6"/>
<path d="M158.478 209.414V219.083H152.548V238.257H145.879V327.294H167.104V280.121V238.257V229.689V219.083V193.486L158.478 209.414Z" fill="#E6E6E6"/>
<path d="M291.488 162.78V218.755H286.648V162.78L276.123 182.212V218.755V225.295V327.294H302.001V225.295V218.755V182.212L291.488 162.78Z" fill="#E0E0E0"/>
<path d="M419.576 333.517H166.424C142.028 333.477 118.643 323.765 101.397 306.509C84.1503 289.254 74.4498 265.865 74.4219 241.468V190.732C74.4498 166.337 84.1507 142.949 101.397 125.696C118.644 108.442 142.029 98.7325 166.424 98.6953H419.576C443.979 98.7201 467.376 108.424 484.633 125.679C501.889 142.934 511.597 166.329 511.625 190.732V241.468C511.597 265.873 501.89 289.269 484.633 306.526C467.377 323.782 443.98 333.489 419.576 333.517ZM166.424 109.243C144.825 109.277 124.122 117.875 108.852 133.151C93.5833 148.427 84.9947 169.134 84.9699 190.732V241.468C84.9947 263.068 93.5829 283.777 108.852 299.054C124.121 314.332 144.824 322.932 166.424 322.969H419.576C441.184 322.944 461.899 314.35 477.178 299.071C492.457 283.792 501.052 263.076 501.077 241.468V190.732C501.052 169.126 492.457 148.411 477.178 133.134C461.898 117.857 441.183 109.265 419.576 109.243H166.424Z" fill="#E6E6E6"/>
<path d="M287.351 497.034C412.852 497.034 514.59 491.094 514.59 483.767C514.59 476.44 412.852 470.5 287.351 470.5C161.85 470.5 60.1118 476.44 60.1118 483.767C60.1118 491.094 161.85 497.034 287.351 497.034Z" fill="#F5F5F5"/>
<path d="M434.91 309.604L439.966 319.072L443.731 317.062L438.674 307.594L434.91 309.604Z" fill="#263238"/>
<path d="M471.741 364.493H464.85V376.295H471.741V364.493Z" fill="#263238"/>
<path d="M457.103 456.554H442.559V464.57H457.103V456.554Z" fill="#263238"/>
<path d="M487.025 482.83H412.638L414.349 474.556C415.1 470.953 417.069 467.718 419.925 465.396C422.781 463.073 426.349 461.805 430.03 461.805H469.62C473.302 461.803 476.871 463.07 479.728 465.393C482.584 467.716 484.552 470.952 485.302 474.556L487.025 482.83Z" fill="#263238"/>
<path opacity="0.4" d="M487.025 482.83H412.638L414.349 474.556C415.1 470.953 417.069 467.718 419.925 465.396C422.781 463.073 426.349 461.805 430.03 461.805H469.62C473.302 461.803 476.871 463.07 479.728 465.393C482.584 467.716 484.552 470.952 485.302 474.556L487.025 482.83Z" fill="white"/>
<path d="M449.544 458.558L441.973 456.413C440.524 456.002 439.176 455.299 438.009 454.348C436.843 453.396 435.883 452.216 435.19 450.881C434.496 449.545 434.083 448.081 433.975 446.58C433.868 445.078 434.069 443.571 434.566 442.15L456.587 379.073C457.508 376.407 459.413 374.193 461.912 372.886C464.411 371.579 467.315 371.276 470.03 372.041C472.738 372.811 475.05 374.587 476.492 377.005C477.935 379.423 478.398 382.301 477.789 385.05L463.35 450.283C463.029 451.757 462.41 453.15 461.531 454.375C460.652 455.6 459.531 456.632 458.237 457.408C456.943 458.183 455.505 458.685 454.009 458.883C452.514 459.081 450.994 458.97 449.544 458.558Z" fill="#263238"/>
<path d="M466.808 368.959L472.058 366.368C472.669 366.068 473.212 365.645 473.654 365.127C474.095 364.608 474.426 364.005 474.626 363.354C474.825 362.703 474.89 362.018 474.815 361.341C474.741 360.665 474.528 360.01 474.191 359.418L448.7 314.425C448.072 313.314 447.042 312.485 445.821 312.108C444.601 311.731 443.283 311.835 442.137 312.398C441.001 312.974 440.126 313.961 439.691 315.158C439.256 316.355 439.292 317.673 439.793 318.844L460.022 366.439C460.289 367.06 460.68 367.621 461.171 368.087C461.661 368.553 462.241 368.915 462.876 369.15C463.51 369.386 464.185 369.49 464.861 369.457C465.537 369.424 466.199 369.255 466.808 368.959Z" fill="#263238"/>
<path opacity="0.3" d="M466.808 368.959L472.058 366.368C472.669 366.068 473.212 365.645 473.654 365.127C474.095 364.608 474.426 364.005 474.626 363.354C474.825 362.703 474.89 362.018 474.815 361.341C474.741 360.665 474.528 360.01 474.191 359.418L448.7 314.425C448.072 313.314 447.042 312.485 445.821 312.108C444.601 311.731 443.283 311.835 442.137 312.398C441.001 312.974 440.126 313.961 439.691 315.158C439.256 316.355 439.292 317.673 439.793 318.844L460.022 366.439C460.289 367.06 460.68 367.621 461.171 368.087C461.661 368.553 462.241 368.915 462.876 369.15C463.51 369.386 464.185 369.49 464.861 369.457C465.537 369.424 466.199 369.255 466.808 368.959Z" fill="white"/>
<path d="M438.035 312.023L441.621 308.742C441.836 308.543 442.009 308.303 442.128 308.037C442.248 307.77 442.313 307.482 442.318 307.189C442.324 306.897 442.27 306.607 442.16 306.336C442.051 306.065 441.887 305.819 441.68 305.612L403.438 267.44C403.042 267.045 402.508 266.819 401.949 266.808C401.39 266.797 400.848 267.003 400.437 267.382C400.029 267.76 399.78 268.281 399.743 268.836C399.706 269.392 399.883 269.941 400.238 270.37L434.918 311.812C435.104 312.037 435.335 312.222 435.595 312.355C435.855 312.488 436.14 312.566 436.431 312.586C436.723 312.606 437.015 312.566 437.291 312.469C437.567 312.373 437.82 312.221 438.035 312.023Z" fill="#263238"/>
<path opacity="0.5" d="M438.035 312.023L441.621 308.742C441.836 308.543 442.009 308.303 442.128 308.037C442.248 307.77 442.313 307.482 442.318 307.189C442.324 306.897 442.27 306.607 442.16 306.336C442.051 306.065 441.887 305.819 441.68 305.612L403.438 267.44C403.042 267.045 402.508 266.819 401.949 266.808C401.39 266.797 400.848 267.003 400.437 267.382C400.029 267.76 399.78 268.281 399.743 268.836C399.706 269.392 399.883 269.941 400.238 270.37L434.918 311.812C435.104 312.037 435.335 312.222 435.595 312.355C435.855 312.488 436.14 312.566 436.431 312.586C436.723 312.606 437.015 312.566 437.291 312.469C437.567 312.373 437.82 312.221 438.035 312.023Z" fill="white"/>
<path d="M398.222 266.737C397.935 265.772 397.326 264.935 396.496 264.365C395.666 263.796 394.666 263.528 393.663 263.607L387.475 264.064L385.377 264.744L380.173 268.436C379.984 268.568 379.824 268.739 379.706 268.937C379.587 269.135 379.512 269.356 379.485 269.586C379.459 269.815 379.481 270.048 379.551 270.268C379.621 270.488 379.738 270.69 379.892 270.862L386.924 267.885L388.295 267.475L393.921 267.077C394.131 267.062 394.341 267.118 394.515 267.238C394.69 267.357 394.819 267.531 394.882 267.733C394.94 267.936 394.928 268.154 394.847 268.35C394.766 268.545 394.622 268.708 394.436 268.811L389.526 271.577L388.155 271.987L380.642 273.382C380.609 273.609 380.624 273.841 380.687 274.062C380.751 274.283 380.86 274.487 381.009 274.663C381.157 274.838 381.342 274.979 381.549 275.078C381.757 275.176 381.983 275.229 382.212 275.234L388.975 275.398L391.073 274.718L396.159 271.858C397.035 271.367 397.717 270.592 398.092 269.661C398.467 268.729 398.513 267.698 398.222 266.737Z" fill="#263238"/>
<g opacity="0.7">
<path d="M453.564 440.967C452.794 440.193 451.837 439.631 450.786 439.337C449.711 439.032 448.575 439.012 447.49 439.281C446.405 439.55 445.41 440.097 444.602 440.87C443.794 441.642 443.202 442.612 442.885 443.684C442.568 444.755 442.536 445.891 442.793 446.979L453.564 440.967Z" fill="white"/>
<path d="M444.469 450.026C445.455 451.01 446.736 451.647 448.116 451.839C449.496 452.03 450.901 451.767 452.118 451.089C453.336 450.411 454.299 449.355 454.862 448.08C455.425 446.805 455.558 445.382 455.24 444.025L444.469 450.026Z" fill="white"/>
</g>
<g opacity="0.7">
<path d="M461.768 359.899C461.807 359.138 462.045 358.401 462.459 357.762C462.873 357.122 463.447 356.603 464.125 356.255C464.802 355.907 465.56 355.744 466.32 355.78C467.081 355.817 467.819 356.053 468.46 356.465C469.091 356.86 469.609 357.414 469.96 358.071L461.768 359.899Z" fill="white"/>
<path d="M470.499 360.392C470.46 361.152 470.221 361.889 469.807 362.529C469.394 363.168 468.819 363.688 468.142 364.036C467.464 364.383 466.707 364.547 465.946 364.51C465.185 364.473 464.448 364.237 463.807 363.826C463.175 363.431 462.658 362.877 462.307 362.22L470.499 360.392Z" fill="white"/>
</g>
<g opacity="0.7">
<path d="M435.902 303.714C436.336 303.597 436.793 303.597 437.226 303.714C437.667 303.828 438.07 304.056 438.396 304.375C438.722 304.693 438.958 305.091 439.083 305.53C439.207 305.968 439.215 306.431 439.105 306.873C438.995 307.315 438.772 307.721 438.457 308.05L435.902 303.714Z" fill="white"/>
<path d="M437.226 308.777C436.785 308.892 436.322 308.889 435.882 308.77C435.443 308.65 435.042 308.418 434.72 308.096C434.397 307.773 434.165 307.373 434.046 306.933C433.926 306.493 433.924 306.03 434.038 305.589C434.142 305.149 434.36 304.745 434.671 304.417L437.226 308.777Z" fill="white"/>
</g>
<path d="M117.196 258.808L106.858 267.619L110.363 271.731L120.701 262.92L117.196 258.808Z" fill="#263238"/>
<path d="M146.547 329.79H137.851V344.686H146.547V329.79Z" fill="#263238"/>
<path d="M152.817 449.287H134.463V459.401H152.817V449.287Z" fill="#263238"/>
<path d="M190.591 482.455H96.7017L98.8699 472.012C99.8156 467.462 102.3 463.376 105.906 460.443C109.511 457.51 114.017 455.909 118.665 455.909H168.627C173.275 455.909 177.781 457.51 181.386 460.443C184.992 463.376 187.477 467.462 188.422 472.012L190.591 482.455Z" fill="#263238"/>
<path opacity="0.4" d="M190.591 482.455H96.7017L98.8699 472.012C99.8156 467.462 102.3 463.376 105.906 460.443C109.511 457.51 114.017 455.909 118.665 455.909H168.627C173.275 455.909 177.781 457.51 181.386 460.443C184.992 463.376 187.477 467.462 188.422 472.012L190.591 482.455Z" fill="white"/>
<path d="M147.777 451.503H137.827C135.927 451.502 134.048 451.112 132.304 450.358C130.56 449.605 128.989 448.503 127.686 447.12C126.384 445.737 125.377 444.103 124.729 442.317C124.08 440.532 123.804 438.632 123.915 436.736L128.92 352.563C129.129 349.015 130.686 345.681 133.272 343.244C135.858 340.806 139.277 339.448 142.831 339.448C146.386 339.445 149.807 340.802 152.394 343.24C154.981 345.679 156.537 349.014 156.743 352.563L161.736 436.736C161.848 438.636 161.569 440.539 160.918 442.328C160.267 444.117 159.256 445.753 157.949 447.137C156.641 448.52 155.064 449.621 153.315 450.372C151.565 451.123 149.681 451.508 147.777 451.503Z" fill="#263238"/>
<path d="M149.477 331.654L143.16 335.487C142.426 335.934 141.609 336.226 140.758 336.346C139.907 336.466 139.041 336.41 138.212 336.183C137.383 335.956 136.61 335.562 135.939 335.025C135.268 334.488 134.714 333.82 134.311 333.061L103.628 275.445C102.877 274.015 102.701 272.351 103.137 270.795C103.573 269.24 104.587 267.909 105.972 267.077C107.35 266.243 108.995 265.966 110.57 266.303C112.145 266.641 113.531 267.568 114.446 268.894L151.446 322.677C151.929 323.388 152.262 324.191 152.425 325.036C152.588 325.88 152.577 326.749 152.393 327.589C152.208 328.429 151.855 329.223 151.353 329.922C150.852 330.621 150.214 331.211 149.477 331.654Z" fill="#263238"/>
<path opacity="0.3" d="M149.477 331.654L143.16 335.487C142.426 335.934 141.609 336.226 140.758 336.346C139.907 336.466 139.041 336.41 138.212 336.183C137.383 335.956 136.61 335.562 135.939 335.025C135.268 334.488 134.714 333.82 134.311 333.061L103.628 275.445C102.877 274.015 102.701 272.351 103.137 270.795C103.573 269.24 104.587 267.909 105.972 267.077C107.35 266.243 108.995 265.966 110.57 266.303C112.145 266.641 113.531 267.568 114.446 268.894L151.446 322.677C151.929 323.388 152.262 324.191 152.425 325.036C152.588 325.88 152.577 326.749 152.393 327.589C152.208 328.429 151.855 329.223 151.353 329.922C150.852 330.621 150.214 331.211 149.477 331.654Z" fill="white"/>
<path d="M116.684 267.241L113.344 262.108C113.145 261.797 113.01 261.45 112.948 261.086C112.886 260.722 112.898 260.35 112.984 259.991C113.069 259.632 113.226 259.294 113.445 258.997C113.664 258.701 113.941 258.451 114.258 258.263L173.104 223.783C173.712 223.428 174.433 223.32 175.118 223.481C175.803 223.643 176.399 224.061 176.784 224.651C177.166 225.242 177.306 225.957 177.175 226.649C177.045 227.34 176.653 227.955 176.081 228.366L120.564 267.979C120.264 268.195 119.923 268.348 119.562 268.428C119.202 268.508 118.828 268.514 118.465 268.445C118.102 268.376 117.757 268.233 117.451 268.026C117.145 267.819 116.884 267.552 116.684 267.241Z" fill="#263238"/>
<path opacity="0.5" d="M116.684 267.241L113.344 262.108C113.145 261.797 113.01 261.45 112.948 261.086C112.886 260.722 112.898 260.35 112.984 259.991C113.069 259.632 113.226 259.294 113.445 258.997C113.664 258.701 113.941 258.451 114.258 258.263L173.104 223.783C173.712 223.428 174.433 223.32 175.118 223.481C175.803 223.643 176.399 224.061 176.784 224.651C177.166 225.242 177.306 225.957 177.175 226.649C177.045 227.34 176.653 227.955 176.081 228.366L120.564 267.979C120.264 268.195 119.923 268.348 119.562 268.428C119.202 268.508 118.828 268.514 118.465 268.445C118.102 268.376 117.757 268.233 117.451 268.026C117.145 267.819 116.884 267.552 116.684 267.241Z" fill="white"/>
<path d="M178.144 222.904C178.146 221.634 178.582 220.403 179.379 219.414C180.176 218.425 181.287 217.738 182.527 217.466L190.18 215.778H192.958L200.588 218.357C200.865 218.449 201.119 218.598 201.334 218.795C201.55 218.992 201.721 219.232 201.837 219.5C201.953 219.767 202.012 220.057 202.008 220.348C202.005 220.64 201.94 220.928 201.818 221.193L192.231 220.138H190.427L183.477 221.697C183.212 221.756 182.977 221.906 182.81 222.119C182.643 222.333 182.556 222.598 182.562 222.869C182.556 223.14 182.643 223.405 182.81 223.618C182.977 223.832 183.212 223.981 183.477 224.041L190.427 225.6H192.208L201.795 224.557C201.917 224.82 201.981 225.106 201.984 225.396C201.987 225.687 201.929 225.974 201.813 226.24C201.696 226.506 201.525 226.744 201.31 226.939C201.094 227.133 200.84 227.28 200.564 227.369L192.454 230.018H189.676L182.48 228.401C181.238 228.119 180.129 227.42 179.34 226.419C178.551 225.419 178.129 224.178 178.144 222.904Z" fill="#263238"/>
<g opacity="0.7">
<path d="M146.5 428.766C144.963 427.906 143.187 427.572 141.443 427.814C139.698 428.056 138.08 428.861 136.835 430.106C135.59 431.351 134.785 432.969 134.543 434.714C134.301 436.458 134.635 438.234 135.495 439.771L146.5 428.766Z" fill="white"/>
<path d="M138.659 442.889C139.889 443.573 141.275 443.925 142.682 443.91C144.089 443.896 145.468 443.515 146.682 442.805C147.897 442.095 148.906 441.081 149.61 439.863C150.314 438.644 150.688 437.264 150.696 435.857C150.696 434.477 150.341 433.121 149.664 431.919L138.659 442.889Z" fill="white"/>
</g>
<g opacity="0.7">
<path d="M143.218 320.168C142.378 319.701 141.431 319.461 140.47 319.472C139.509 319.483 138.568 319.745 137.739 320.232C136.911 320.718 136.223 321.413 135.745 322.246C135.267 323.08 135.015 324.024 135.014 324.985C135.009 325.921 135.248 326.841 135.706 327.657L143.218 320.168Z" fill="white"/>
<path d="M137.851 329.778C138.67 330.238 139.595 330.476 140.534 330.47C141.992 330.47 143.39 329.891 144.421 328.86C145.452 327.829 146.031 326.431 146.031 324.973C146.037 324.033 145.799 323.109 145.34 322.289L137.851 329.778Z" fill="white"/>
</g>
<g opacity="0.7">
<path d="M121.888 257.771C121.388 257.498 120.827 257.358 120.257 257.367C119.688 257.375 119.13 257.531 118.639 257.819C118.148 258.107 117.74 258.517 117.455 259.01C117.17 259.503 117.017 260.062 117.012 260.631C117.013 261.196 117.154 261.751 117.422 262.248L121.888 257.771Z" fill="white"/>
<path d="M118.7 263.538C119.202 263.821 119.77 263.967 120.346 263.962C120.922 263.957 121.487 263.801 121.985 263.509C122.482 263.217 122.893 262.8 123.179 262.299C123.464 261.798 123.613 261.231 123.61 260.654C123.61 260.093 123.469 259.541 123.2 259.049L118.7 263.538Z" fill="white"/>
</g>
<path d="M261.473 178.591L259.434 180.724C257.534 182.707 256.058 185.058 255.097 187.631C254.135 190.204 253.709 192.947 253.843 195.69C253.843 195.69 253.949 198.21 254.007 199.054C254.593 207.258 257.02 231.87 257.02 231.87C257.02 231.87 252.332 237.425 253.421 275.234L248.03 279.816C247.57 280.204 247.233 280.718 247.06 281.295C246.887 281.871 246.886 282.486 247.058 283.063L247.819 285.653C247.844 285.718 247.864 285.784 247.878 285.852L248.511 288.724C248.606 289.144 248.787 289.539 249.043 289.886C249.299 290.232 249.623 290.522 249.997 290.737C250.37 290.951 250.784 291.086 251.212 291.133C251.64 291.18 252.073 291.138 252.484 291.009L258.66 289.075C259.243 288.89 259.759 288.539 260.145 288.064C260.53 287.589 260.768 287.012 260.829 286.403L260.547 276.734L267.579 233.019C267.579 233.019 273.287 185.506 261.473 178.591Z" fill="#263238"/>
<path opacity="0.2" d="M261.473 178.591L259.434 180.724C257.534 182.707 256.058 185.058 255.097 187.631C254.135 190.204 253.709 192.947 253.843 195.69C253.843 195.69 253.949 198.21 254.007 199.054C254.593 207.258 257.02 231.87 257.02 231.87C257.02 231.87 252.332 237.425 253.421 275.234L248.03 279.816C247.57 280.204 247.233 280.718 247.06 281.295C246.887 281.871 246.886 282.486 247.058 283.063L247.819 285.653C247.844 285.718 247.864 285.784 247.878 285.852L248.511 288.724C248.606 289.144 248.787 289.539 249.043 289.886C249.299 290.232 249.623 290.522 249.997 290.737C250.37 290.951 250.784 291.086 251.212 291.133C251.64 291.18 252.073 291.138 252.484 291.009L258.66 289.075C259.243 288.89 259.759 288.539 260.145 288.064C260.53 287.589 260.768 287.012 260.829 286.403L260.547 276.734L267.579 233.019C267.579 233.019 273.287 185.506 261.473 178.591Z" fill="black"/>
<path d="M256.726 266.901L254.687 283.485C254.687 283.485 254.218 339.741 253.222 358.493C251.874 383.75 244.432 459.285 244.432 459.285C244.432 459.285 239.217 472.177 235.853 475.189C234.095 476.771 229.677 478.541 225.774 479.877C225.44 479.989 225.154 480.213 224.966 480.511C224.779 480.809 224.7 481.164 224.744 481.513C224.789 481.863 224.953 482.187 225.209 482.429C225.465 482.671 225.797 482.817 226.149 482.842C231.88 483.287 239.357 483.592 242.674 482.584C245.991 481.576 252.753 476.806 257.148 473.56C258.281 472.723 259.07 471.503 259.368 470.126C259.666 468.75 259.452 467.312 258.766 466.083L254.98 459.273C254.98 459.273 273.732 399.63 275.49 378.991C275.924 373.717 273.732 357.895 273.732 357.895L293.867 301.416C293.867 301.416 306.619 284.798 292.344 260.209L258.895 262.975L256.726 266.901Z" fill="#263238"/>
<path opacity="0.2" d="M256.726 266.901L254.687 283.485C254.687 283.485 254.218 339.741 253.222 358.493C251.874 383.75 244.432 459.285 244.432 459.285C244.432 459.285 239.217 472.177 235.853 475.189C234.095 476.771 229.677 478.541 225.774 479.877C225.44 479.989 225.154 480.213 224.966 480.511C224.779 480.809 224.7 481.164 224.744 481.513C224.789 481.863 224.953 482.187 225.209 482.429C225.465 482.671 225.797 482.817 226.149 482.842C231.88 483.287 239.357 483.592 242.674 482.584C245.991 481.576 252.753 476.806 257.148 473.56C258.281 472.723 259.07 471.503 259.368 470.126C259.666 468.75 259.452 467.312 258.766 466.083L254.98 459.273C254.98 459.273 273.732 399.63 275.49 378.991C275.924 373.717 273.732 357.895 273.732 357.895L293.867 301.416C293.867 301.416 306.619 284.798 292.344 260.209L258.895 262.975L256.726 266.901Z" fill="white"/>
<path opacity="0.7" d="M269.243 360.837C270.596 360.837 271.693 359.142 271.693 357.051C271.693 354.96 270.596 353.266 269.243 353.266C267.891 353.266 266.794 354.96 266.794 357.051C266.794 359.142 267.891 360.837 269.243 360.837Z" fill="white"/>
<path opacity="0.4" d="M269.15 349.116C265.856 349.116 263.137 352.468 262.809 356.769H253.304C253.304 357.367 253.304 357.941 253.222 358.492H256.539L247.292 458.393H244.491C244.491 458.968 244.409 459.272 244.409 459.272C244.409 459.272 244.268 459.601 244.045 460.151H255.496L255.015 459.284L255.285 458.393H249.12L258.332 358.527H264.567V357.648C264.567 353.91 266.63 350.874 269.185 350.874C271.341 350.874 273.24 353.124 273.697 356.23L273.802 356.98H274.095L275.033 354.332C274.025 351.238 271.74 349.116 269.15 349.116Z" fill="white"/>
<path opacity="0.4" d="M244.948 481.599C245.522 481.306 246.12 480.978 246.753 480.603C246.802 479.697 246.5 478.807 245.909 478.119C243.764 475.681 238.056 475.528 235.244 475.622C234.196 476.342 233.081 476.958 231.915 477.462H233.767C236.111 477.263 242.756 477.193 244.584 479.279C244.78 479.508 244.916 479.782 244.979 480.077C245.043 480.371 245.032 480.677 244.948 480.966V481.599Z" fill="white"/>
<g opacity="0.7">
<path d="M254.921 464.231C254.721 463.833 254.422 463.493 254.053 463.245C253.683 462.997 253.256 462.848 252.812 462.812C251.194 462.813 249.894 464.828 249.894 467.325C249.893 467.902 249.968 468.478 250.116 469.036L254.921 464.231Z" fill="white"/>
<path d="M250.913 470.723C251.12 471.045 251.4 471.313 251.73 471.506C252.059 471.7 252.43 471.813 252.812 471.837C254.417 471.837 255.718 469.821 255.718 467.324C255.712 466.896 255.669 466.468 255.589 466.047L250.913 470.723Z" fill="white"/>
</g>
<path d="M310.334 262.248L306.103 257.114L267.661 265.787C268.378 267.154 269.012 268.563 269.56 270.006C270.45 273.288 270.04 280.273 271.107 283.496C272.279 287.012 279.018 295.802 279.018 295.802L301.719 460.538C301.719 460.538 296.797 476.466 293.082 480.392C291.649 481.601 290.04 482.585 288.312 483.31C287.959 483.501 287.676 483.8 287.505 484.163C287.335 484.526 287.285 484.935 287.364 485.328C287.442 485.722 287.645 486.08 287.942 486.349C288.24 486.619 288.616 486.786 289.015 486.826C292.988 487.014 297.418 487.002 299.504 486.205C303.325 484.74 310.381 477.532 314.084 473.559C314.806 472.787 315.282 471.818 315.453 470.775C315.624 469.732 315.482 468.662 315.045 467.699L311.529 459.835C311.529 459.835 319.053 399.079 316.51 378.967C315.748 372.978 309.912 356.113 309.912 356.113C309.912 356.113 311.306 326.813 312.549 310.405C312.804 306.873 313.429 303.377 314.412 299.974C316.44 292.931 319.428 277.038 310.334 262.248Z" fill="#263238"/>
<path opacity="0.4" d="M310.334 262.248L306.103 257.114L267.661 265.787C268.378 267.154 269.012 268.563 269.56 270.006C270.45 273.288 270.04 280.273 271.107 283.496C272.279 287.012 279.018 295.802 279.018 295.802L301.719 460.538C301.719 460.538 296.797 476.466 293.082 480.392C291.649 481.601 290.04 482.585 288.312 483.31C287.959 483.501 287.676 483.8 287.505 484.163C287.335 484.526 287.285 484.935 287.364 485.328C287.442 485.722 287.645 486.08 287.942 486.349C288.24 486.619 288.616 486.786 289.015 486.826C292.988 487.014 297.418 487.002 299.504 486.205C303.325 484.74 310.381 477.532 314.084 473.559C314.806 472.787 315.282 471.818 315.453 470.775C315.624 469.732 315.482 468.662 315.045 467.699L311.529 459.835C311.529 459.835 319.053 399.079 316.51 378.967C315.748 372.978 309.912 356.113 309.912 356.113C309.912 356.113 311.306 326.813 312.549 310.405C312.804 306.873 313.429 303.377 314.412 299.974C316.44 292.931 319.428 277.038 310.334 262.248Z" fill="white"/>
<path d="M316.51 379.002C315.819 373.6 311.002 359.336 310.064 356.606H309.631C309.396 361.294 306.877 364.974 303.771 364.974C300.665 364.974 297.911 360.907 297.911 355.891H292.32L305.294 460.527L311.6 460.093C311.6 460.093 319.054 399.114 316.51 379.002Z" fill="#263238"/>
<path opacity="0.4" d="M316.51 379.002C315.819 373.6 311.002 359.336 310.064 356.606H309.631C309.396 361.294 306.877 364.974 303.771 364.974C300.665 364.974 297.911 360.907 297.911 355.891H292.32L305.294 460.527L311.6 460.093C311.6 460.093 319.054 399.114 316.51 379.002Z" fill="white"/>
<path d="M303.806 364.974C307.042 364.974 309.666 360.907 309.666 355.891C309.666 350.874 307.042 346.808 303.806 346.808C300.569 346.808 297.946 350.874 297.946 355.891C297.946 360.907 300.569 364.974 303.806 364.974Z" fill="#263238"/>
<path opacity="0.3" d="M303.806 364.974C307.042 364.974 309.666 360.907 309.666 355.891C309.666 350.874 307.042 346.808 303.806 346.808C300.569 346.808 297.946 350.874 297.946 355.891C297.946 360.907 300.569 364.974 303.806 364.974Z" fill="white"/>
<path d="M305.552 291.419C309.837 291.419 313.311 286.03 313.311 279.382C313.311 272.735 309.837 267.346 305.552 267.346C301.267 267.346 297.793 272.735 297.793 279.382C297.793 286.03 301.267 291.419 305.552 291.419Z" fill="#263238"/>
<path opacity="0.3" d="M305.552 291.419C309.837 291.419 313.311 286.03 313.311 279.382C313.311 272.735 309.837 267.346 305.552 267.346C301.267 267.346 297.793 272.735 297.793 279.382C297.793 286.03 301.267 291.419 305.552 291.419Z" fill="white"/>
<path d="M310.638 471.837C312.244 471.837 313.545 469.817 313.545 467.325C313.545 464.833 312.244 462.812 310.638 462.812C309.033 462.812 307.732 464.833 307.732 467.325C307.732 469.817 309.033 471.837 310.638 471.837Z" fill="#263238"/>
<path opacity="0.5" d="M310.638 471.837C312.244 471.837 313.545 469.817 313.545 467.325C313.545 464.833 312.244 462.812 310.638 462.812C309.033 462.812 307.732 464.833 307.732 467.325C307.732 469.817 309.033 471.837 310.638 471.837Z" fill="white"/>
<path opacity="0.4" d="M302.692 346.972C299.985 347.78 297.934 351.46 297.934 355.891C297.934 360.321 299.985 364.001 302.692 364.81C305.4 364.001 307.439 360.321 307.439 355.891C307.439 351.46 305.4 347.78 302.692 346.972Z" fill="white"/>
<path opacity="0.4" d="M304.38 267.498C300.653 268.377 297.793 273.358 297.793 279.382C297.793 285.406 300.653 290.387 304.38 291.266C308.107 290.387 310.978 285.406 310.978 279.382C310.978 273.358 308.107 268.377 304.38 267.498Z" fill="white"/>
<path d="M310.639 472.763C308.506 472.763 306.841 470.419 306.841 467.372C306.841 464.324 308.506 461.98 310.639 461.98C312.772 461.98 314.424 464.324 314.424 467.372C314.424 470.419 312.76 472.763 310.639 472.763ZM310.639 463.738C309.678 463.738 308.599 465.227 308.599 467.372C308.599 469.516 309.678 471.005 310.639 471.005C311.6 471.005 312.666 469.516 312.666 467.372C312.666 465.227 311.6 463.692 310.639 463.692V463.738Z" fill="#263238"/>
<path d="M306.126 481.517C305.993 480.741 305.575 480.043 304.954 479.56C302.399 477.603 296.527 478.669 293.996 479.255C293.733 479.667 293.439 480.059 293.117 480.427C292.785 480.753 292.424 481.047 292.039 481.306H293.117H293.339C296.445 480.462 302.059 479.642 303.888 481.037C304.084 481.182 304.242 481.373 304.346 481.594C304.45 481.815 304.498 482.058 304.485 482.302V483.052L306.126 481.517Z" fill="#263238"/>
<path d="M293.339 356.734H297.09C297.383 361.891 300.219 365.817 303.794 365.817C307.169 365.817 309.876 362.301 310.427 357.613L309.912 356.09L310.099 352.222C309.244 348.87 307.204 346.444 304.708 345.964L306.407 292.169C310.767 291.524 314.201 286.004 314.201 279.277C314.201 272.151 310.322 266.385 305.552 266.385C300.782 266.385 297.066 271.952 296.926 278.89L297.008 281.14C297.57 287 300.711 291.524 304.649 292.134L302.95 345.928C299.774 346.503 297.359 350.194 297.09 354.929H287.292V355.808L287.409 356.687H291.57L304.298 459.378L301.579 459.519L301.649 460.023L301.708 460.445V460.585V460.655C301.681 460.725 301.657 460.795 301.637 460.866C301.637 460.948 301.579 461.054 301.532 461.171L312.08 460.644L311.939 460.316L311.646 459.671C311.646 459.671 311.646 459.53 311.646 459.261C311.646 458.991 311.646 459.038 311.646 458.897L306.079 459.179L293.339 356.734ZM298.672 279.382C298.672 273.229 301.754 268.225 305.552 268.225C309.349 268.225 312.443 273.229 312.443 279.382C312.443 285.535 309.349 290.528 305.552 290.528C301.754 290.528 298.672 285.535 298.672 279.382ZM303.794 347.686C306.501 347.686 308.775 351.449 308.775 355.89C308.775 360.332 306.501 364.094 303.794 364.094C301.086 364.094 298.813 360.344 298.813 355.89C298.813 351.437 301.098 347.686 303.794 347.686Z" fill="#263238"/>
<path opacity="0.7" d="M303.806 355.891C303.806 357.907 302.751 359.524 301.462 359.524C300.172 359.524 299.118 357.907 299.118 355.891C299.118 353.875 300.172 352.258 301.462 352.258C302.751 352.258 303.806 353.887 303.806 355.891Z" fill="white"/>
<path opacity="0.7" d="M306.806 279.382C306.806 282.453 305.189 284.949 303.208 284.949C301.227 284.949 299.61 282.453 299.61 279.382C299.61 276.312 301.227 273.804 303.208 273.804C305.189 273.804 306.806 276.3 306.806 279.382Z" fill="white"/>
<path opacity="0.7" d="M310.638 467.324C310.638 468.332 310.111 469.141 309.466 469.141C308.822 469.141 308.294 468.332 308.294 467.324C308.294 466.316 308.81 465.508 309.466 465.508C310.123 465.508 310.638 466.316 310.638 467.324Z" fill="white"/>
<path d="M224.098 267.346H219.926C215.636 267.346 212.155 272.725 212.155 279.382C212.155 286.039 215.671 291.407 219.926 291.407H224.098C228.387 291.407 231.857 286.027 231.857 279.382C231.857 272.737 228.387 267.346 224.098 267.346Z" fill="#263238"/>
<path opacity="0.6" d="M224.098 267.346H219.926C215.636 267.346 212.155 272.725 212.155 279.382C212.155 286.039 215.671 291.407 219.926 291.407H224.098C228.387 291.407 231.857 286.027 231.857 279.382C231.857 272.737 228.387 267.346 224.098 267.346Z" fill="white"/>
<path opacity="0.2" d="M224.098 291.419C228.383 291.419 231.857 286.03 231.857 279.382C231.857 272.735 228.383 267.346 224.098 267.346C219.813 267.346 216.339 272.735 216.339 279.382C216.339 286.03 219.813 291.419 224.098 291.419Z" fill="black"/>
<path d="M230.462 275.034H225.985C224.438 275.034 223.184 276.98 223.184 279.382C223.184 281.785 224.438 283.719 225.985 283.719H230.462C232.056 283.719 233.228 281.726 233.228 279.382C233.228 277.038 232.056 275.034 230.462 275.034Z" fill="#263238"/>
<path opacity="0.6" d="M230.462 275.034H225.985C224.438 275.034 223.184 276.98 223.184 279.382C223.184 281.785 224.438 283.719 225.985 283.719H230.462C232.056 283.719 233.228 281.726 233.228 279.382C233.228 277.038 232.056 275.034 230.462 275.034Z" fill="white"/>
<path opacity="0.2" d="M233.228 279.382C233.228 281.726 231.974 283.719 230.438 283.719C228.903 283.719 227.637 281.773 227.637 279.382C227.637 276.991 228.891 275.034 230.438 275.034C231.985 275.034 233.228 277.038 233.228 279.382Z" fill="black"/>
<path d="M235.42 277.449H231.083C230.403 277.449 229.841 278.316 229.841 279.383C229.841 280.45 230.403 281.305 231.083 281.305H235.42C236.111 281.305 236.662 280.438 236.662 279.383C236.662 278.328 236.111 277.449 235.42 277.449Z" fill="#263238"/>
<path opacity="0.6" d="M235.42 277.449H231.083C230.403 277.449 229.841 278.316 229.841 279.383C229.841 280.45 230.403 281.305 231.083 281.305H235.42C236.111 281.305 236.662 280.438 236.662 279.383C236.662 278.328 236.111 277.449 235.42 277.449Z" fill="white"/>
<path opacity="0.2" d="M236.662 279.383C236.662 280.438 236.111 281.305 235.42 281.305C234.728 281.305 234.177 280.438 234.177 279.383C234.177 278.328 234.74 277.449 235.42 277.449C236.099 277.449 236.662 278.316 236.662 279.383Z" fill="black"/>
<path d="M241.795 348.53H239.264C236.662 348.53 234.576 351.812 234.576 355.844C234.576 359.875 236.685 363.157 239.264 363.157H241.795C244.409 363.157 246.483 359.887 246.483 355.844C246.483 351.8 244.409 348.53 241.795 348.53Z" fill="#263238"/>
<path opacity="0.6" d="M241.795 348.53H239.264C236.662 348.53 234.576 351.812 234.576 355.844C234.576 359.875 236.685 363.157 239.264 363.157H241.795C244.409 363.157 246.483 359.887 246.483 355.844C246.483 351.8 244.409 348.53 241.795 348.53Z" fill="white"/>
<path opacity="0.2" d="M246.518 355.89C246.518 359.934 244.408 363.204 241.83 363.204C239.252 363.204 237.142 359.934 237.142 355.89C237.142 351.847 239.252 348.577 241.83 348.577C244.408 348.577 246.518 351.859 246.518 355.89Z" fill="black"/>
<path d="M248.007 353.219H242.944C242.006 353.219 241.244 354.391 241.244 355.856C241.244 357.321 242.006 358.493 242.944 358.493H248.007C248.944 358.493 249.706 357.321 249.706 355.856C249.706 354.391 248.944 353.219 248.007 353.219Z" fill="#263238"/>
<path opacity="0.6" d="M248.007 353.219H242.944C242.006 353.219 241.244 354.391 241.244 355.856C241.244 357.321 242.006 358.493 242.944 358.493H248.007C248.944 358.493 249.706 357.321 249.706 355.856C249.706 354.391 248.944 353.219 248.007 353.219Z" fill="white"/>
<path opacity="0.2" d="M249.706 355.891C249.706 357.344 248.945 358.528 248.007 358.528C247.069 358.528 246.308 357.356 246.308 355.891C246.308 354.426 247.069 353.254 248.007 353.254C248.945 353.254 249.706 354.391 249.706 355.891Z" fill="black"/>
<path d="M231.529 176.035H228.997C226.384 176.035 224.309 179.317 224.309 183.348C224.309 187.38 226.419 190.662 228.997 190.662H231.529C234.13 190.662 236.217 187.392 236.217 183.348C236.217 179.305 234.13 176.035 231.529 176.035Z" fill="#263238"/>
<path opacity="0.6" d="M231.529 176.035H228.997C226.384 176.035 224.309 179.317 224.309 183.348C224.309 187.38 226.419 190.662 228.997 190.662H231.529C234.13 190.662 236.217 187.392 236.217 183.348C236.217 179.305 234.13 176.035 231.529 176.035Z" fill="white"/>
<path opacity="0.2" d="M231.528 190.662C234.137 190.662 236.251 187.387 236.251 183.348C236.251 179.309 234.137 176.035 231.528 176.035C228.92 176.035 226.805 179.309 226.805 183.348C226.805 187.387 228.92 190.662 231.528 190.662Z" fill="black"/>
<path d="M237.74 180.712H232.677C231.739 180.712 230.978 181.884 230.978 183.349C230.978 184.814 231.739 185.986 232.677 185.986H237.74C238.678 185.986 239.439 184.814 239.439 183.349C239.439 181.884 238.678 180.712 237.74 180.712Z" fill="#263238"/>
<path opacity="0.6" d="M237.74 180.712H232.677C231.739 180.712 230.978 181.884 230.978 183.349C230.978 184.814 231.739 185.986 232.677 185.986H237.74C238.678 185.986 239.439 184.814 239.439 183.349C239.439 181.884 238.678 180.712 237.74 180.712Z" fill="white"/>
<path opacity="0.2" d="M237.74 185.986C238.678 185.986 239.439 184.805 239.439 183.349C239.439 181.893 238.678 180.712 237.74 180.712C236.801 180.712 236.041 181.893 236.041 183.349C236.041 184.805 236.801 185.986 237.74 185.986Z" fill="black"/>
<path d="M222.574 279.383L222.07 283.485C222.07 283.485 221.613 338.123 220.652 357.649H231.036C231.036 353.418 233.497 349.996 236.533 349.996L246.389 295.791L222.574 279.383Z" fill="#263238"/>
<path opacity="0.2" d="M222.574 279.383L222.07 283.485C222.07 283.485 221.613 338.123 220.652 357.649H231.036C231.036 353.418 233.497 349.996 236.533 349.996L246.389 295.791L222.574 279.383Z" fill="black"/>
<path opacity="0.7" d="M224.602 280.777L222.574 279.383L222.07 283.485C222.07 283.485 221.613 338.123 220.652 357.649H222.844C223.817 338.123 224.274 283.485 224.274 283.485L224.602 280.777Z" fill="white"/>
<path d="M328.382 465.648H323.917C323.319 465.648 322.839 466.399 322.839 467.324C322.839 468.25 323.319 469 323.917 469H328.382C328.98 469 329.461 468.25 329.461 467.324C329.461 466.399 328.98 465.648 328.382 465.648Z" fill="#263238"/>
<path opacity="0.3" d="M328.382 465.648H323.917C323.319 465.648 322.839 466.399 322.839 467.324C322.839 468.25 323.319 469 323.917 469H328.382C328.98 469 329.461 468.25 329.461 467.324C329.461 466.399 328.98 465.648 328.382 465.648Z" fill="white"/>
<path d="M331.488 462.812H329.93C328.324 462.812 327.023 464.828 327.023 467.325C327.023 469.821 328.324 471.837 329.93 471.837H331.488C333.106 471.837 334.407 469.821 334.407 467.325C334.407 464.828 333.106 462.812 331.488 462.812Z" fill="#263238"/>
<path opacity="0.6" d="M331.488 462.812H329.93C328.324 462.812 327.023 464.828 327.023 467.325C327.023 469.821 328.324 471.837 329.93 471.837H331.488C333.106 471.837 334.407 469.821 334.407 467.325C334.407 464.828 333.106 462.812 331.488 462.812Z" fill="white"/>
<path d="M334.406 467.325C334.406 469.821 333.105 471.837 331.488 471.837C329.871 471.837 328.582 469.821 328.582 467.325C328.582 464.828 329.882 462.812 331.488 462.812C333.094 462.812 334.406 464.828 334.406 467.325Z" fill="#263238"/>
<path d="M336.141 379.002C335.461 373.6 330.633 359.336 329.695 356.606H329.332C329.098 361.294 326.578 364.974 323.472 364.974C320.366 364.974 317.612 360.907 317.612 355.891H311.986L324.949 460.527L331.254 460.093C331.254 460.093 338.708 399.114 336.141 379.002Z" fill="#263238"/>
<path opacity="0.4" d="M336.141 379.002C335.461 373.6 330.633 359.336 329.695 356.606H329.332C329.098 361.294 326.578 364.974 323.472 364.974C320.366 364.974 317.612 360.907 317.612 355.891H311.986L324.949 460.527L331.254 460.093C331.254 460.093 338.708 399.114 336.141 379.002Z" fill="white"/>
<path d="M330.504 352.527H321.514C320.342 352.527 319.346 354.039 319.346 355.891C319.346 357.743 320.307 359.255 321.514 359.255H330.504C331.676 359.255 332.672 357.754 332.672 355.891C332.672 354.027 331.676 352.527 330.504 352.527Z" fill="#263238"/>
<path opacity="0.3" d="M330.504 352.527H321.514C320.342 352.527 319.346 354.039 319.346 355.891C319.346 357.743 320.307 359.255 321.514 359.255H330.504C331.676 359.255 332.672 357.754 332.672 355.891C332.672 354.027 331.676 352.527 330.504 352.527Z" fill="white"/>
<path d="M336.75 346.808H333.598C330.363 346.808 327.738 350.874 327.738 355.891C327.738 360.907 330.363 364.974 333.598 364.974H336.75C339.985 364.974 342.61 360.907 342.61 355.891C342.61 350.874 339.985 346.808 336.75 346.808Z" fill="#263238"/>
<path opacity="0.7" d="M336.75 346.808H333.598C330.363 346.808 327.738 350.874 327.738 355.891C327.738 360.907 330.363 364.974 333.598 364.974H336.75C339.985 364.974 342.61 360.907 342.61 355.891C342.61 350.874 339.985 346.808 336.75 346.808Z" fill="white"/>
<path d="M336.751 364.974C339.987 364.974 342.611 360.907 342.611 355.891C342.611 350.874 339.987 346.808 336.751 346.808C333.514 346.808 330.891 350.874 330.891 355.891C330.891 360.907 333.514 364.974 336.751 364.974Z" fill="#263238"/>
<path d="M338.708 352.938C338.522 352.581 338.248 352.279 337.911 352.059C337.574 351.84 337.187 351.71 336.786 351.684C335.286 351.684 334.067 353.571 334.067 355.891C334.066 356.397 334.129 356.901 334.254 357.391L338.708 352.938Z" fill="white"/>
<path d="M335.004 359.079C335.198 359.37 335.456 359.613 335.759 359.788C336.062 359.963 336.401 360.065 336.751 360.087C338.251 360.087 339.458 358.2 339.458 355.879C339.456 355.486 339.42 355.094 339.353 354.707L335.004 359.079Z" fill="white"/>
<path d="M350.03 177.829C349.938 177.452 349.763 177.1 349.519 176.798C349.275 176.497 348.966 176.254 348.617 176.085C348.267 175.917 347.885 175.829 347.497 175.826C347.109 175.824 346.725 175.907 346.373 176.071C344.35 176.979 342.556 178.33 341.124 180.024C339.692 181.717 338.658 183.711 338.099 185.857L352.514 228.869L355.819 228.307C355.819 224.908 357.53 222.165 359.628 222.165H359.933C357.753 209.402 352.022 185.845 350.03 177.829ZM348.459 186.455C347.721 186.595 346.853 185.283 346.514 183.618C346.174 181.954 346.514 180.395 347.228 180.255C347.943 180.114 348.822 181.427 349.162 183.091C349.502 184.755 349.186 186.302 348.459 186.455Z" fill="#263238"/>
<path opacity="0.4" d="M350.03 177.829C349.938 177.452 349.763 177.1 349.519 176.798C349.275 176.497 348.966 176.254 348.617 176.085C348.267 175.917 347.885 175.829 347.497 175.826C347.109 175.824 346.725 175.907 346.373 176.071C344.35 176.979 342.556 178.33 341.124 180.024C339.692 181.717 338.658 183.711 338.099 185.857L352.514 228.869L355.819 228.307C355.819 224.908 357.53 222.165 359.628 222.165H359.933C357.753 209.402 352.022 185.845 350.03 177.829ZM348.459 186.455C347.721 186.595 346.853 185.283 346.514 183.618C346.174 181.954 346.514 180.395 347.228 180.255C347.943 180.114 348.822 181.427 349.162 183.091C349.502 184.755 349.186 186.302 348.459 186.455Z" fill="white"/>
<path d="M363.132 226.643H358.632C358.034 226.643 357.554 227.393 357.554 228.319C357.554 229.244 358.034 229.983 358.632 229.983H363.109C363.695 229.983 364.176 229.233 364.176 228.319C364.176 227.404 363.718 226.643 363.132 226.643Z" fill="#263238"/>
<path opacity="0.3" d="M363.132 226.643H358.632C358.034 226.643 357.554 227.393 357.554 228.319C357.554 229.244 358.034 229.983 358.632 229.983H363.109C363.695 229.983 364.176 229.233 364.176 228.319C364.176 227.404 363.718 226.643 363.132 226.643Z" fill="white"/>
<path d="M366.238 223.795H364.679C363.074 223.795 361.761 225.811 361.761 228.307C361.761 230.803 363.074 232.819 364.679 232.819H366.238C367.844 232.819 369.157 230.792 369.157 228.307C369.157 225.822 367.844 223.795 366.238 223.795Z" fill="#263238"/>
<path opacity="0.6" d="M366.238 223.795H364.679C363.074 223.795 361.761 225.811 361.761 228.307C361.761 230.803 363.074 232.819 364.679 232.819H366.238C367.844 232.819 369.157 230.792 369.157 228.307C369.157 225.822 367.844 223.795 366.238 223.795Z" fill="white"/>
<path d="M369.18 228.307C369.18 230.792 367.867 232.819 366.262 232.819C364.656 232.819 363.355 230.792 363.355 228.307C363.355 225.822 364.656 223.795 366.262 223.795C367.867 223.795 369.18 225.811 369.18 228.307Z" fill="#263238"/>
<path d="M357.905 181.685H353.44C352.842 181.685 352.362 182.423 352.362 183.349C352.362 184.275 352.842 185.025 353.44 185.025H357.905C358.503 185.025 358.984 184.275 358.984 183.349C358.984 182.423 358.503 181.685 357.905 181.685Z" fill="#263238"/>
<path opacity="0.3" d="M357.905 181.685H353.44C352.842 181.685 352.362 182.423 352.362 183.349C352.362 184.275 352.842 185.025 353.44 185.025H357.905C358.503 185.025 358.984 184.275 358.984 183.349C358.984 182.423 358.503 181.685 357.905 181.685Z" fill="white"/>
<path d="M360.976 178.837H359.417C357.8 178.837 356.499 180.864 356.499 183.349C356.499 185.834 357.8 187.861 359.417 187.861H360.976C362.582 187.861 363.883 185.845 363.883 183.349C363.883 180.853 362.629 178.837 360.976 178.837Z" fill="#263238"/>
<path opacity="0.6" d="M360.976 178.837H359.417C357.8 178.837 356.499 180.864 356.499 183.349C356.499 185.834 357.8 187.861 359.417 187.861H360.976C362.582 187.861 363.883 185.845 363.883 183.349C363.883 180.853 362.629 178.837 360.976 178.837Z" fill="white"/>
<path d="M363.929 183.349C363.929 185.845 362.628 187.861 361.023 187.861C359.417 187.861 358.116 185.845 358.116 183.349C358.116 180.853 359.417 178.837 361.023 178.837C362.628 178.837 363.929 180.864 363.929 183.349Z" fill="#263238"/>
<path d="M330.375 176.071C326.379 177.899 319.968 182.868 321.644 195.585L333.223 229.432C333.223 229.432 329.109 241.152 333.364 273.523L326.988 277.296C326.324 277.688 325.78 278.255 325.416 278.935C325.053 279.615 324.883 280.382 324.925 281.152L325.042 283.192V286.075C325.039 286.75 325.196 287.417 325.5 288.02L326.285 289.567C326.774 290.534 327.618 291.274 328.639 291.634C329.661 291.995 330.782 291.947 331.77 291.501L336.012 289.591C336.59 289.329 337.101 288.94 337.506 288.453C337.912 287.966 338.203 287.393 338.356 286.778L341.298 275.128C341.298 275.128 345.213 238.597 344.814 228.67C344.439 220.244 336.493 187.556 334.079 177.829C333.986 177.447 333.81 177.09 333.562 176.785C333.314 176.481 333.001 176.235 332.646 176.066C332.291 175.898 331.903 175.811 331.51 175.812C331.117 175.812 330.729 175.901 330.375 176.071Z" fill="#263238"/>
<path opacity="0.4" d="M330.375 176.071C326.379 177.899 319.968 182.868 321.644 195.585L333.223 229.432C333.223 229.432 329.109 241.152 333.364 273.523L326.988 277.296C326.324 277.688 325.78 278.255 325.416 278.935C325.053 279.615 324.883 280.382 324.925 281.152L325.042 283.192V286.075C325.039 286.75 325.196 287.417 325.5 288.02L326.285 289.567C326.774 290.534 327.618 291.274 328.639 291.634C329.661 291.995 330.782 291.947 331.77 291.501L336.012 289.591C336.59 289.329 337.101 288.94 337.506 288.453C337.912 287.966 338.203 287.393 338.356 286.778L341.298 275.128C341.298 275.128 345.213 238.597 344.814 228.67C344.439 220.244 336.493 187.556 334.079 177.829C333.986 177.447 333.81 177.09 333.562 176.785C333.314 176.481 333.001 176.235 332.646 176.066C332.291 175.898 331.903 175.811 331.51 175.812C331.117 175.812 330.729 175.901 330.375 176.071Z" fill="white"/>
<path d="M334.114 177.829C334.02 177.451 333.844 177.099 333.599 176.798C333.353 176.497 333.044 176.253 332.694 176.085C332.343 175.917 331.96 175.829 331.571 175.826C331.182 175.824 330.798 175.907 330.445 176.071C328.423 176.981 326.631 178.333 325.199 180.026C323.767 181.719 322.733 183.712 322.171 185.857L336.598 228.869L339.903 228.307C339.903 224.908 341.603 222.165 343.712 222.165H344.005C341.837 209.402 336.094 185.845 334.114 177.829Z" fill="#263238"/>
<path opacity="0.4" d="M334.114 177.829C334.02 177.451 333.844 177.099 333.599 176.798C333.353 176.497 333.044 176.253 332.694 176.085C332.343 175.917 331.96 175.829 331.571 175.826C331.182 175.824 330.798 175.907 330.445 176.071C328.423 176.981 326.631 178.333 325.199 180.026C323.767 181.719 322.733 183.712 322.171 185.857L336.598 228.869L339.903 228.307C339.903 224.908 341.603 222.165 343.712 222.165H344.005C341.837 209.402 336.094 185.845 334.114 177.829Z" fill="white"/>
<path d="M344.568 233.334H344.38C344.163 233.447 343.922 233.508 343.677 233.51C342.083 233.51 340.747 231.096 340.747 228.248C340.747 225.4 342.083 222.986 343.677 222.986H344.122C344.029 222.423 343.935 221.814 343.818 221.216H343.677C341.216 221.216 339.259 223.911 338.989 227.486L337.137 227.803L322.956 185.622L322.593 184.368C322.206 185.382 321.916 186.429 321.726 187.497L335.368 228.166L333.129 228.553H332.93L333.223 229.408C333.223 229.408 333.117 229.701 332.965 230.311H333.364L339.013 229.35C339.329 232.772 341.251 235.338 343.642 235.338C343.998 235.33 344.351 235.263 344.685 235.139C344.685 234.495 344.685 233.885 344.755 233.287L344.568 233.334Z" fill="#263238"/>
<path d="M335.684 185.236C336.27 188.212 335.684 190.826 334.453 191.096C333.223 191.365 331.676 189.138 331.078 186.161C330.48 183.185 331.078 180.571 332.309 180.301C333.539 180.032 335.086 182.259 335.684 185.236Z" fill="#263238"/>
<path opacity="0.2" d="M335.684 185.236C336.27 188.212 335.684 190.826 334.453 191.096C333.223 191.365 331.676 189.138 331.078 186.161C330.48 183.185 331.078 180.571 332.309 180.301C333.539 180.032 335.086 182.259 335.684 185.236Z" fill="white"/>
<path opacity="0.7" d="M333.047 185.529C333.258 186.607 333.047 187.557 332.602 187.639C332.157 187.721 331.594 186.936 331.43 185.857C331.266 184.779 331.43 183.841 331.875 183.748C332.321 183.654 332.848 184.451 333.047 185.529Z" fill="white"/>
<path d="M336.293 277.379H333.563C332.859 277.379 332.273 278.27 332.273 279.383C332.273 280.496 332.859 281.375 333.563 281.375H336.293C336.997 281.375 337.583 280.485 337.583 279.383C337.583 278.281 336.997 277.379 336.293 277.379Z" fill="#263238"/>
<path opacity="0.3" d="M336.293 277.379H333.563C332.859 277.379 332.273 278.27 332.273 279.383C332.273 280.496 332.859 281.375 333.563 281.375H336.293C336.997 281.375 337.583 280.485 337.583 279.383C337.583 278.281 336.997 277.379 336.293 277.379Z" fill="white"/>
<path d="M344.99 274.917H338.93C337.348 274.917 336.059 276.921 336.059 279.382C336.059 281.844 337.348 283.836 338.93 283.836H344.99C346.572 283.836 347.861 281.844 347.861 279.382C347.861 276.921 346.572 274.917 344.99 274.917Z" fill="#263238"/>
<path opacity="0.4" d="M344.99 274.917H338.93C337.348 274.917 336.059 276.921 336.059 279.382C336.059 281.844 337.348 283.836 338.93 283.836H344.99C346.572 283.836 347.861 281.844 347.861 279.382C347.861 276.921 346.572 274.917 344.99 274.917Z" fill="white"/>
<path d="M352.127 267.346H347.955C343.665 267.346 340.185 272.725 340.185 279.382C340.185 286.039 343.701 291.407 347.955 291.407H352.127C356.405 291.407 359.886 286.027 359.886 279.382C359.886 272.737 356.405 267.346 352.127 267.346Z" fill="#263238"/>
<path opacity="0.6" d="M352.127 267.346H347.955C343.665 267.346 340.185 272.725 340.185 279.382C340.185 286.039 343.701 291.407 347.955 291.407H352.127C356.405 291.407 359.886 286.027 359.886 279.382C359.886 272.737 356.405 267.346 352.127 267.346Z" fill="white"/>
<path d="M352.127 291.419C356.412 291.419 359.886 286.03 359.886 279.382C359.886 272.735 356.412 267.346 352.127 267.346C347.842 267.346 344.369 272.735 344.369 279.382C344.369 286.03 347.842 291.419 352.127 291.419Z" fill="#263238"/>
<path d="M354.682 275.468C354.431 274.998 354.065 274.599 353.618 274.308C353.172 274.017 352.659 273.843 352.127 273.804C350.135 273.804 348.529 276.3 348.529 279.382C348.53 280.05 348.613 280.715 348.775 281.363L354.682 275.468Z" fill="white"/>
<path d="M349.818 283.626C350.078 284.015 350.425 284.338 350.832 284.568C351.239 284.798 351.695 284.929 352.162 284.95C354.143 284.95 355.749 282.454 355.749 279.383C355.747 278.875 355.696 278.369 355.596 277.871L349.818 283.626Z" fill="white"/>
<path d="M252.941 173.48C248.762 174.781 244.722 176.493 240.881 178.59L241.479 180.524C241.864 181.77 241.959 183.087 241.756 184.376C241.552 185.664 241.057 186.888 240.307 187.955C236.873 192.783 231.692 202.792 236.966 214.161H238.677L248.581 210.434C248.581 189.092 257.418 181.04 257.418 181.04C256.607 180.96 255.833 180.659 255.182 180.169C254.531 179.679 254.027 179.019 253.726 178.262C253.54 177.445 253.525 176.599 253.683 175.776C253.84 174.953 254.166 174.171 254.64 173.48H252.941Z" fill="#263238"/>
<path opacity="0.7" d="M252.941 173.48C248.762 174.781 244.722 176.493 240.881 178.59L241.479 180.524C241.864 181.77 241.959 183.087 241.756 184.376C241.552 185.664 241.057 186.888 240.307 187.955C236.873 192.783 231.692 202.792 236.966 214.161H238.677L248.581 210.434C248.581 189.092 257.418 181.04 257.418 181.04C256.607 180.96 255.833 180.659 255.182 180.169C254.531 179.679 254.027 179.019 253.726 178.262C253.54 177.445 253.525 176.599 253.683 175.776C253.84 174.953 254.166 174.171 254.64 173.48H252.941Z" fill="white"/>
<path d="M246.881 210.434C246.881 189.092 255.707 181.04 255.707 181.04C254.898 180.958 254.127 180.656 253.478 180.166C252.829 179.676 252.327 179.018 252.027 178.262C251.841 177.445 251.826 176.599 251.983 175.776C252.141 174.953 252.467 174.171 252.941 173.48C248.762 174.781 244.722 176.493 240.881 178.59L241.479 180.524C241.864 181.77 241.959 183.087 241.756 184.376C241.552 185.664 241.057 186.888 240.307 187.955C236.873 192.783 231.692 202.792 236.966 214.161L246.87 210.434H246.881Z" fill="#263238"/>
<path d="M297.688 170.539C300.137 172.976 293.363 177.957 287.304 179.915C280.495 182.059 274.025 181.989 272.853 178.297C272.673 177.479 272.662 176.633 272.821 175.81C272.98 174.988 273.306 174.207 273.779 173.515C273.779 173.515 281.01 172.461 281.01 157.869L294.605 148.118C294.605 148.118 292.39 165.288 297.688 170.539Z" fill="#263238"/>
<path opacity="0.2" d="M294.23 152.712C294.371 150.005 294.605 148.118 294.605 148.118L280.952 157.834C280.967 159.797 280.81 161.758 280.483 163.694C282.962 163.585 285.363 162.795 287.421 161.409C290.574 159.325 292.964 156.273 294.23 152.712Z" fill="black"/>
<path d="M275.321 136.328C276.151 132.157 274.641 128.342 271.949 127.807C269.258 127.271 266.403 130.218 265.573 134.389C264.744 138.56 266.253 142.375 268.945 142.911C271.637 143.446 274.491 140.499 275.321 136.328Z" fill="#263238"/>
<path d="M306.29 143.865L301.907 142.997C301.321 142.88 300.735 143.513 300.524 144.427C300.313 145.341 300.676 146.15 301.262 146.267L305.646 147.146C306.22 147.263 306.818 146.619 307.028 145.716C307.239 144.814 306.876 143.982 306.29 143.865Z" fill="#263238"/>
<path opacity="0.3" d="M306.29 143.865L301.907 142.997C301.321 142.88 300.735 143.513 300.524 144.427C300.313 145.341 300.676 146.15 301.262 146.267L305.646 147.146C306.22 147.263 306.818 146.619 307.028 145.716C307.239 144.814 306.876 143.982 306.29 143.865Z" fill="white"/>
<path d="M309.9 141.685L308.365 141.38C306.794 141.064 305.118 142.798 304.638 145.236C304.157 147.674 305.024 149.924 306.607 150.229L308.142 150.533C309.712 150.85 311.388 149.127 311.881 146.677C312.373 144.228 311.482 142.001 309.9 141.685Z" fill="#263238"/>
<path opacity="0.6" d="M309.9 141.685L308.365 141.38C306.794 141.064 305.118 142.798 304.638 145.236C304.157 147.674 305.024 149.924 306.607 150.229L308.142 150.533C309.712 150.85 311.388 149.127 311.881 146.677C312.373 144.228 311.482 142.001 309.9 141.685Z" fill="white"/>
<path d="M311.881 146.677C311.389 149.126 309.713 150.849 308.142 150.533C306.572 150.216 305.681 147.989 306.162 145.54C306.642 143.09 308.33 141.368 309.9 141.684C311.471 142 312.361 144.239 311.881 146.677Z" fill="#263238"/>
<path d="M299.715 136.082C296.844 146.325 295.672 152.49 289.284 156.639C279.686 162.956 267.907 155.408 267.673 144.544C267.462 134.699 272.197 119.662 283.237 117.729C285.67 117.287 288.175 117.476 290.514 118.277C292.853 119.078 294.949 120.465 296.601 122.304C298.252 124.144 299.406 126.376 299.951 128.788C300.496 131.2 300.415 133.711 299.715 136.082Z" fill="#263238"/>
<path opacity="0.4" d="M299.715 136.082C296.844 146.325 295.672 152.49 289.284 156.639C279.686 162.956 267.907 155.408 267.673 144.544C267.462 134.699 272.197 119.662 283.237 117.729C285.67 117.287 288.175 117.476 290.514 118.277C292.853 119.078 294.949 120.465 296.601 122.304C298.252 124.144 299.406 126.376 299.951 128.788C300.496 131.2 300.415 133.711 299.715 136.082Z" fill="white"/>
<path d="M282.839 135.579C282.651 136.422 282.065 137.02 281.503 136.891C280.94 136.762 280.659 135.989 280.846 135.145C281.034 134.301 281.62 133.715 282.171 133.844C282.722 133.973 283.015 134.735 282.839 135.579Z" fill="#2E353A"/>
<path d="M273.299 133.516C273.111 134.359 272.513 134.945 271.963 134.828C271.412 134.711 271.119 133.926 271.295 133.094C271.47 132.262 272.08 131.652 272.631 131.769C273.182 131.887 273.475 132.672 273.299 133.516Z" fill="#2E353A"/>
<g opacity="0.7">
<path d="M277.318 148.54C275.199 148.798 273.051 148.44 271.13 147.509C270.992 147.465 270.865 147.392 270.758 147.294C270.65 147.196 270.566 147.076 270.51 146.942C270.454 146.808 270.429 146.663 270.434 146.518C270.44 146.373 270.478 146.232 270.544 146.103C270.703 145.865 270.943 145.693 271.219 145.619C271.495 145.546 271.789 145.576 272.044 145.704C273.699 146.48 275.543 146.761 277.354 146.513C277.493 146.484 277.637 146.482 277.776 146.509C277.916 146.536 278.049 146.59 278.168 146.669C278.287 146.747 278.389 146.848 278.468 146.966C278.548 147.084 278.603 147.217 278.631 147.357C278.599 147.682 278.447 147.984 278.204 148.202C277.961 148.421 277.645 148.542 277.318 148.54Z" fill="white"/>
</g>
<path d="M276.147 134.605L274.424 142.575L270.544 140.946L276.147 134.605Z" fill="#263238"/>
<path opacity="0.5" d="M291.289 140.559L267.521 136.235C267.265 136.19 267.021 136.091 266.807 135.944C266.592 135.798 266.411 135.608 266.276 135.386C266.14 135.164 266.054 134.916 266.022 134.658C265.99 134.4 266.014 134.139 266.091 133.891L267.263 129.847C267.337 129.614 267.457 129.399 267.616 129.213C267.775 129.027 267.969 128.876 268.187 128.766C268.406 128.657 268.644 128.593 268.888 128.577C269.132 128.561 269.376 128.595 269.607 128.675L293.621 136.317L291.289 140.559Z" fill="white"/>
<path d="M283.237 117.728C278.549 118.549 275.033 121.713 272.501 125.85L284.221 129.753C285.273 129.11 286.432 128.665 287.644 128.44C290.027 128.021 292.483 128.421 294.611 129.574C296.738 130.727 298.414 132.566 299.364 134.792L299.891 134.968C300.4 132.644 300.326 130.231 299.675 127.943C299.024 125.655 297.816 123.564 296.16 121.856C294.503 120.149 292.45 118.878 290.182 118.158C287.915 117.437 285.505 117.29 283.167 117.728H283.237Z" fill="#263238"/>
<path opacity="0.4" d="M283.237 117.728C278.549 118.549 275.033 121.713 272.501 125.85L284.221 129.753C285.273 129.11 286.432 128.665 287.644 128.44C290.027 128.021 292.483 128.421 294.611 129.574C296.738 130.727 298.414 132.566 299.364 134.792L299.891 134.968C300.4 132.644 300.326 130.231 299.675 127.943C299.024 125.655 297.816 123.564 296.16 121.856C294.503 120.149 292.45 118.878 290.182 118.158C287.915 117.437 285.505 117.29 283.167 117.728H283.237Z" fill="white"/>
<path d="M283.237 104.204C278.549 105.012 275.033 108.189 272.501 112.326L284.221 116.228C285.273 115.586 286.432 115.141 287.644 114.916C290.027 114.497 292.483 114.896 294.611 116.05C296.738 117.203 298.414 119.042 299.364 121.268L299.891 121.444C300.4 119.12 300.326 116.706 299.675 114.418C299.024 112.13 297.816 110.039 296.16 108.332C294.503 106.624 292.45 105.354 290.182 104.633C287.915 103.913 285.505 103.765 283.167 104.204H283.237Z" fill="#263238"/>
<path opacity="0.4" d="M283.237 104.204C278.549 105.012 275.033 108.189 272.501 112.326L284.221 116.228C285.273 115.586 286.432 115.141 287.644 114.916C290.027 114.497 292.483 114.896 294.611 116.05C296.738 117.203 298.414 119.042 299.364 121.268L299.891 121.444C300.4 119.12 300.326 116.706 299.675 114.418C299.024 112.13 297.816 110.039 296.16 108.332C294.503 106.624 292.45 105.354 290.182 104.633C287.915 103.913 285.505 103.765 283.167 104.204H283.237Z" fill="white"/>
<path d="M300.471 142.778C301.301 138.608 299.791 134.792 297.099 134.257C294.408 133.721 291.553 136.669 290.723 140.84C289.894 145.01 291.403 148.826 294.095 149.361C296.787 149.896 299.641 146.949 300.471 142.778Z" fill="#263238"/>
<path d="M298.86 142.434C298.321 145.188 296.434 147.122 294.664 146.782C292.895 146.442 291.898 143.911 292.449 141.168C293 138.426 294.875 136.48 296.645 136.832C298.415 137.184 299.352 139.692 298.86 142.434Z" fill="#263238"/>
<path opacity="0.4" d="M296.082 136.797C294.477 136.797 292.883 138.672 292.39 141.168C291.898 143.665 292.66 145.95 294.137 146.618C295.742 146.618 297.336 144.743 297.84 142.247C298.344 139.75 297.559 137.465 296.082 136.797Z" fill="white"/>
<path opacity="0.7" d="M295.637 141.813C295.473 142.68 294.875 143.301 294.312 143.184C293.75 143.067 293.433 142.282 293.609 141.403C293.785 140.524 294.383 139.926 294.933 140.032C295.484 140.137 295.812 140.946 295.637 141.813Z" fill="white"/>
<path d="M318.514 177.723C318.638 177.365 318.689 176.986 318.666 176.609C318.643 176.231 318.545 175.862 318.378 175.522C318.212 175.182 317.979 174.878 317.695 174.629C317.411 174.379 317.08 174.188 316.721 174.066C308.927 171.453 285.569 165.546 261.637 178.59L262.223 180.524C262.609 181.77 262.703 183.087 262.5 184.375C262.297 185.663 261.801 186.888 261.051 187.955C257.617 192.783 252.437 202.792 257.711 214.16C257.711 214.16 259.821 235.819 259.621 243.05C259.446 249.051 256.68 266.9 256.68 266.9C256.68 266.9 257.852 268.002 263.852 268.213C264.708 272.198 266.806 274.565 270.017 274.565C273.428 274.565 277.049 271.905 278.397 267.533C286.073 266.713 296.399 265.131 310.287 262.306C310.287 262.306 306.419 251.547 305.599 247.832C304.568 242.315 304.089 236.708 304.169 231.096C304.72 218.626 315.268 187.075 318.514 177.723Z" fill="#263238"/>
<g opacity="0.6">
<path d="M259.434 232.397C260.688 237.39 263.571 240.132 267.638 240.132C272.326 240.132 276.674 236.616 278.467 231.46C285.956 230.639 294.734 229.315 304.567 227.51C304.638 226.936 304.731 226.338 304.825 225.729H304.474C294.359 227.592 285.347 228.952 277.705 229.76L277.131 229.831L276.967 230.381C275.525 235.069 271.693 238.363 267.591 238.363C263.36 238.363 261.66 234.554 260.969 231.331L260.828 230.663H260.149H259.176C259.176 231.26 259.258 231.835 259.293 232.432L259.434 232.397Z" fill="white"/>
<path d="M304.978 244.223C294.43 246.227 285.218 247.657 277.494 248.489L276.908 248.547L276.744 249.11C275.455 253.329 272.056 256.283 268.364 256.283C264.672 256.283 263.055 252.86 262.504 249.989L262.364 249.321H261.672C260.781 249.321 259.984 249.239 259.211 249.168C259.152 249.743 259.082 250.341 259.012 250.915C259.586 250.915 260.184 251.02 260.922 251.055C262.094 255.579 264.708 258.087 268.399 258.087C272.642 258.087 276.603 254.876 278.279 250.223C285.909 249.379 294.98 247.961 305.235 246.016C305.153 245.465 305.06 244.844 304.978 244.27V244.223Z" fill="white"/>
<path d="M308.236 209.555C308.166 209.555 301.028 210.27 298.672 210.328C291.875 210.516 272.795 209.766 268.564 209.59C268.751 192.666 275.49 183.654 277.612 181.228C280.884 181.411 284.16 180.953 287.257 179.88C293.117 178.016 299.633 173.305 297.805 170.785C295.092 173.363 291.819 175.277 288.242 176.376C281.444 178.532 274.975 178.45 273.803 174.758C273.685 174.379 273.625 173.984 273.627 173.586C273.18 174.261 272.876 175.019 272.733 175.815C272.59 176.611 272.611 177.428 272.795 178.216C273.022 178.839 273.398 179.398 273.89 179.843C274.383 180.288 274.976 180.607 275.619 180.771C272.818 184.228 266.911 193.44 266.782 209.778L257.582 213.235H257.383C257.512 213.528 257.605 213.821 257.746 214.114C257.746 214.114 257.746 214.43 257.828 214.97L267.79 211.266C269.982 211.36 291.359 212.251 298.696 212.04C300.887 211.981 306.806 211.407 308.072 211.289C308.236 210.692 308.4 210.117 308.552 209.508L308.236 209.555Z" fill="white"/>
</g>
<path d="M311.412 201.046C316.435 201.046 320.507 194.734 320.507 186.947C320.507 179.16 316.435 172.848 311.412 172.848C306.389 172.848 302.317 179.16 302.317 186.947C302.317 194.734 306.389 201.046 311.412 201.046Z" fill="#263238"/>
<path opacity="0.4" d="M311.412 201.046C316.435 201.046 320.507 194.734 320.507 186.947C320.507 179.16 316.435 172.848 311.412 172.848C306.389 172.848 302.317 179.16 302.317 186.947C302.317 194.734 306.389 201.046 311.412 201.046Z" fill="white"/>
<path d="M311.412 198.385C315.483 198.385 318.784 193.264 318.784 186.947C318.784 180.629 315.483 175.508 311.412 175.508C307.341 175.508 304.04 180.629 304.04 186.947C304.04 193.264 307.341 198.385 311.412 198.385Z" fill="#263238"/>
<path opacity="0.2" d="M311.412 198.385C315.483 198.385 318.784 193.264 318.784 186.947C318.784 180.629 315.483 175.508 311.412 175.508C307.341 175.508 304.04 180.629 304.04 186.947C304.04 193.264 307.341 198.385 311.412 198.385Z" fill="white"/>
<path opacity="0.4" d="M310.299 175.66C306.783 176.492 304.04 181.227 304.04 186.947C304.04 192.666 306.759 197.401 310.299 198.245C313.815 197.401 316.557 192.678 316.557 186.947C316.557 181.215 313.838 176.492 310.299 175.66Z" fill="white"/>
<path opacity="0.7" d="M312.83 186.947C312.83 190.076 311.201 192.608 309.185 192.608C307.169 192.608 305.54 190.076 305.54 186.947C305.54 183.818 307.169 181.298 309.185 181.298C311.201 181.298 312.83 183.829 312.83 186.947Z" fill="white"/>
</svg>
