<svg width="25" height="25" viewBox="0 0 25 25" fill="none" xmlns="http://www.w3.org/2000/svg">
<path d="M17.5445 8.0376H7.45801L12.5013 12.3604L17.5445 8.0376Z" fill="#FBAA26"/>
<path d="M12.4989 13.3902C12.3923 13.3902 12.2892 13.3521 12.2083 13.2826L6.69531 8.55713V16.9617H18.3025V8.55713L12.7895 13.2826C12.7086 13.3521 12.6055 13.3902 12.4989 13.3902Z" fill="#FBAA26"/>
<path d="M12.5 0C5.59649 0 0 5.59649 0 12.5C0 19.4035 5.59649 25 12.5 25C19.4035 25 25 19.4035 25 12.5C24.9922 5.59976 19.4002 0.00784738 12.5 0ZM19.1964 17.4107C19.1964 17.6573 18.9965 17.8571 18.75 17.8571H6.25C6.00346 17.8571 5.80357 17.6573 5.80357 17.4107V7.58929C5.80357 7.34275 6.00346 7.14286 6.25 7.14286H18.75C18.9965 7.14286 19.1964 7.34275 19.1964 7.58929V17.4107Z" fill="#FBAA26"/>
</svg>
