<svg width="172" height="78" viewBox="0 0 172 78" fill="none" xmlns="http://www.w3.org/2000/svg">
<path d="M63.1042 46.9618C62.4563 45.2884 62.1323 42.6434 62.1323 38.9728C62.1323 33.5209 62.8882 28.3929 64.454 23.4808C64.8319 22.2933 65.4258 21.3756 66.2897 20.8358C67.1536 20.296 68.3414 19.9722 69.9072 19.9722C70.717 19.9722 71.3109 20.0801 71.6349 20.296C71.9588 20.512 72.1208 20.8898 72.1208 21.4836C72.1208 22.1313 71.7969 23.6427 71.203 26.0178C70.771 27.6912 70.4471 29.1486 70.1771 30.3902C69.9072 31.6317 69.6912 33.1971 69.5292 35.0324C70.933 31.4697 72.4448 28.5009 74.1725 26.2877C75.9003 24.0206 77.574 22.4012 79.1938 21.4836C80.8675 20.512 82.3793 20.0262 83.7291 20.0262C86.4287 20.0262 87.7785 21.3756 87.7785 24.0746C87.7785 24.6144 87.6165 25.9099 87.2386 28.0151C86.9146 29.6884 86.7526 30.714 86.7526 31.1459C86.7526 32.6033 87.2926 33.359 88.3184 33.359C89.5062 33.359 90.964 32.4414 92.8537 30.6061C93.3936 30.0663 93.9336 29.7964 94.5275 29.7964C95.0674 29.7964 84.9709 39.9985 80.2196 36.058C78.8698 34.7625 79.2478 32.9272 79.4097 32.2794C79.5177 31.4697 79.5177 30.876 79.5177 30.6061C79.5177 29.9583 79.3017 29.5805 78.8158 29.5805C78.1679 29.5805 77.358 30.2822 76.3322 31.6857C75.3063 33.0891 74.2805 34.9244 73.3086 37.2455C72.2828 39.5666 71.4729 41.9417 70.879 44.5327C70.3931 46.476 69.9071 47.8255 69.2592 48.5272C68.6653 49.2289 67.6935 49.5528 66.3977 49.5528C64.8859 49.4448 63.7521 48.6351 63.1042 46.9618Z" fill="#303030"/>
<path d="M90.4242 46.6921C88.8584 44.8029 88.1025 42.3738 88.1025 39.297C88.1025 35.9503 88.8584 32.8195 90.4242 29.7966C91.99 26.8278 94.0417 24.3987 96.5793 22.6174C99.1709 20.7821 101.87 19.9185 104.732 19.9185C105.65 19.9185 106.244 20.0804 106.568 20.4582C106.892 20.8361 107.162 21.4299 107.324 22.3475C108.188 22.1856 109.105 22.0776 110.077 22.0776C112.129 22.0776 113.155 22.8333 113.155 24.2908C113.155 25.1544 112.831 27.2596 112.237 30.5524C111.265 35.3565 110.779 38.7032 110.779 40.5925C110.779 41.2402 110.941 41.7261 111.265 42.1039C111.589 42.4818 111.967 42.6437 112.507 42.6437C113.317 42.6437 114.235 42.1579 115.368 41.1323C116.502 40.1067 118.014 38.4333 119.958 36.1662C120.444 35.5724 121.038 35.3025 121.632 35.3025C122.171 35.3025 122.603 35.5724 122.927 36.0582C123.251 36.544 123.413 37.2458 123.413 38.1095C123.413 39.7828 123.035 41.0783 122.225 41.9959C120.498 44.1011 118.716 45.9364 116.772 47.3939C114.829 48.8513 112.993 49.607 111.211 49.607C109.807 49.607 108.565 49.1212 107.432 48.2036C106.298 47.2859 105.434 45.9904 104.84 44.371C102.68 47.8797 99.9268 49.607 96.6333 49.607C94.0417 49.4991 91.99 48.5814 90.4242 46.6921ZM101.493 41.5641C102.302 40.4845 102.95 39.0271 103.328 37.2458L105.65 25.7482C103.922 25.8022 102.302 26.4499 100.791 27.7454C99.3329 29.0409 98.1451 30.7143 97.2272 32.7655C96.3633 34.8707 95.9314 37.0838 95.9314 39.405C95.9314 40.7005 96.2013 41.6721 96.6873 42.2658C97.2272 42.9136 97.9291 43.1835 98.8469 43.1835C99.8188 43.1835 100.683 42.6437 101.493 41.5641Z" fill="#303030"/>
<path d="M64.1838 34.9246C63.8598 34.3848 63.4279 34.1688 62.888 34.1688C62.456 34.1688 61.9701 34.3308 61.4302 34.6547C58.6766 36.4899 58.2987 36.8138 54.9512 39.3509L54.5192 39.6747C54.6812 37.5695 54.7352 35.3564 54.7352 33.0353C54.7352 31.092 54.2493 29.6886 53.3314 28.8789C52.4135 28.0692 50.7398 27.6374 48.3102 27.6374C48.2562 27.6374 48.1482 27.6374 48.0402 27.6374C46.6364 27.6374 45.5566 28.8249 45.6106 30.2284C45.6106 30.4443 45.6106 30.6602 45.6106 30.8761C45.6106 34.7086 44.7467 37.7855 43.0729 39.9986C41.3992 42.2657 39.4015 43.3993 37.0798 43.3993C34.7582 43.3993 32.8145 42.2657 31.2487 39.9446C29.6289 37.6235 28.8191 34.4387 28.8191 30.3363C28.8191 26.2339 29.359 22.2934 30.4388 18.4609C31.5187 14.6284 33.1384 11.3896 35.2981 8.69066C37.4578 5.9917 39.8334 4.64222 42.479 4.64222C44.4767 4.64222 46.0425 5.18201 47.1223 6.20761C48.2022 7.2872 48.7421 8.63668 48.7421 10.2561C48.7421 11.8754 48.0942 13.3329 46.7444 14.6284C45.4486 15.9239 43.6668 16.5716 41.3992 16.5716C41.3992 16.5716 41.3992 16.5716 41.3452 16.5716C40.0494 16.5716 39.5095 18.137 40.4813 18.9467C40.8593 19.2706 41.2912 19.5405 41.7231 19.7564C43.2889 20.5661 44.9087 20.9979 46.5824 20.9979C49.228 20.9979 51.4957 20.0803 53.3854 18.299C55.3291 16.5176 56.247 14.0886 56.247 10.9578C56.247 7.88096 55.1671 5.28996 53.0075 3.18477C50.8478 1.07958 47.7702 0 43.6668 0C39.6175 0 35.946 0.863658 32.8145 2.53701C29.6289 4.21037 27.0373 6.53148 25.0396 9.39238C20.8823 15.2761 18.8306 22.1855 18.8306 30.1744C18.8306 36.0041 20.2883 40.4844 23.1499 43.7772C26.0115 47.0159 29.467 48.6353 33.4624 48.6353C35.784 48.6353 37.9977 48.0415 40.1574 46.9079C42.317 45.7744 44.2068 44.101 45.7185 41.8879C45.6106 43.4533 45.5026 45.0187 45.3406 46.4221C41.5612 49.445 38.5376 52.1439 36.3779 54.519C34.0023 57.164 32.3285 59.4851 31.4647 61.4823C30.6008 63.4796 30.1689 65.4768 30.1689 67.4201C30.1689 69.5252 30.8168 71.2526 32.1666 72.6021C33.5164 73.8976 35.2441 74.5453 37.3498 74.5453C41.2912 74.5453 44.5847 72.0623 47.1763 67.0962C49.7679 62.1301 51.8736 55.3287 53.4934 46.692C58.8926 42.9675 60.1344 42.1038 62.564 40.4844C63.2119 40.0526 63.6439 39.5668 63.9138 39.027C64.1838 38.4872 64.3457 37.7315 64.3457 36.7599C64.6697 36.1121 64.5077 35.4643 64.1838 34.9246ZM36.5399 66.1246C36.5399 64.4512 37.2418 62.5079 38.6456 60.3488C39.8874 58.4055 41.8311 56.2464 44.4227 53.9252C44.7467 53.6014 45.1246 53.3315 45.5026 53.0076C44.3687 58.4595 43.1809 62.454 41.8851 64.883C40.5893 67.3661 39.4015 68.5536 38.3217 68.5536C37.1878 68.5536 36.5939 67.7439 36.5399 66.1785V66.1246Z" fill="#303030"/>
<path d="M122.711 47.8793C121.685 46.5838 121.091 44.4246 120.821 41.5097C120.335 35.68 120.065 30.5519 120.065 26.1796V23.9665C120.119 22.563 120.497 21.6454 121.199 21.1056C121.901 20.5658 122.981 20.2959 124.385 20.2959C125.465 20.2959 126.275 20.5118 126.814 20.9976C127.354 21.4834 127.624 22.2931 127.624 23.4267C127.624 28.2308 127.894 34.4924 128.488 42.1575C130.27 39.0807 131.836 36.2198 133.131 33.6827C134.427 31.0917 135.885 27.745 137.397 23.5347C137.883 22.2931 138.477 21.4295 139.233 20.9976C139.988 20.5658 140.906 20.3499 142.04 20.3499C144.362 20.3499 145.496 21.1056 145.496 22.563C145.496 23.0488 145.334 23.7506 145.01 24.6142C141.608 32.4952 138.423 38.8647 135.453 43.7229C133.995 46.098 132.592 47.7173 131.242 48.581C129.892 49.4447 128.434 49.8765 126.868 49.8765C125.087 49.8225 123.737 49.1748 122.711 47.8793Z" fill="#303030"/>
<path d="M170.656 20.728C171.034 20.9979 171.196 21.3757 171.196 21.9695C171.196 22.9951 170.656 26.5578 169.576 32.6574C168.604 38.5412 168.064 42.0498 167.902 43.1294C166.337 53.8713 164.231 62.346 161.531 68.6076C158.832 74.8692 155.214 78 150.679 78C148.573 78 146.792 77.3522 145.496 76.0027C144.146 74.7072 143.498 72.9799 143.498 70.8207C143.498 68.8775 143.93 66.8803 144.848 64.829C145.766 62.7778 147.439 60.4567 149.869 57.8117C152.299 55.1668 155.754 52.1439 160.236 48.6892L160.398 47.2318C160.668 45.6664 161.045 43.4533 161.423 40.5924C160.614 43.6152 159.426 45.8823 157.914 47.4477C156.402 49.0131 154.836 49.7688 153.163 49.7688C151.273 49.7688 149.761 48.9052 148.573 47.1778C147.385 45.4505 146.792 43.2913 146.792 40.7003C146.792 37.5695 147.008 34.7086 147.439 32.1176C147.871 29.5266 148.519 26.7197 149.491 23.8048C149.923 22.5633 150.517 21.6457 151.219 21.1059C151.975 20.5661 153.163 20.2962 154.782 20.2962C155.7 20.2962 156.348 20.4581 156.672 20.728C157.05 20.9979 157.212 21.4837 157.212 22.0235C157.212 22.3474 156.996 23.4809 156.51 25.4242C156.078 26.9896 155.754 28.3931 155.484 29.6346C155.16 31.3619 154.836 32.9813 154.62 34.5467C154.35 36.1121 154.242 37.4076 154.242 38.3792C154.242 39.9446 154.674 40.7543 155.538 40.7543C156.186 40.7543 156.942 40.1065 157.86 38.865C158.778 37.6235 159.804 35.7342 160.883 33.1432C161.963 30.6062 162.989 27.4754 163.961 23.7508C164.285 22.5093 164.825 21.5917 165.473 21.0519C166.175 20.5121 167.201 20.2422 168.55 20.2422C169.63 20.3501 170.278 20.4581 170.656 20.728ZM154.89 68.2837C156.186 65.8546 157.482 61.8602 158.778 56.1924C155.538 58.8913 153.217 61.3744 151.813 63.5875C150.355 65.8007 149.653 67.7979 149.653 69.4173C149.653 70.119 149.815 70.7128 150.085 71.1446C150.355 71.5764 150.787 71.8463 151.435 71.8463C152.407 71.9543 153.595 70.7128 154.89 68.2837Z" fill="#303030"/>
<path d="M143.444 28.1235C142.472 30.6066 141.932 31.0384 142.688 31.7401C143.93 32.7657 145.603 30.4986 149.761 22.8875C151.327 20.0266 154.998 26.774 154.998 26.774L151.435 32.172L149.275 33.2516C149.275 33.2516 145.765 37.6779 142.742 37.408C139.772 37.1381 138.854 34.2232 138.854 34.2232L138.477 28.2315C138.531 28.1775 144.416 25.6405 143.444 28.1235Z" fill="#303030"/>
<path d="M16.2391 5.75766C16.779 6.35143 16.2931 7.32307 15.4832 7.21511C15.4832 7.21511 15.4832 7.21511 15.4292 7.21511C14.2414 7.05317 11.0559 6.13552 9.11217 6.94521C7.54641 7.59296 6.08863 8.56459 5.49471 8.83449C4.63084 9.26632 2.09322 10.076 0.527457 8.18673C-1.03831 6.29745 1.17536 3.22065 3.33504 2.41096C6.03463 1.43933 9.35541 2.11692 12.1357 3.32859C14.2414 4.24624 15.5372 5.05593 16.2391 5.75766Z" fill="#303030"/>
<path d="M14.4034 11.2275C15.0513 11.2275 15.3213 12.1452 14.7814 12.523C13.9715 13.1168 11.5959 14.4663 10.894 16.0857C10.354 17.3272 9.9761 18.8386 9.86811 19.3244C9.65215 20.2961 8.6263 22.0774 6.57461 21.8615C4.52292 21.6455 4.03699 18.5687 4.84687 16.7874C5.81872 14.6282 7.81642 13.2788 10.57 12.1452C12.3517 11.5514 13.6476 11.2275 14.4034 11.2275Z" fill="#303030"/>
</svg>
