<svg width="117" height="53" viewBox="0 0 117 53" fill="none" xmlns="http://www.w3.org/2000/svg">
<path d="M42.8772 31.9104C42.4369 30.7734 42.2168 28.9761 42.2168 26.482C42.2168 22.7775 42.7304 19.2931 43.7943 15.9554C44.0511 15.1485 44.4547 14.5249 45.0417 14.1581C45.6287 13.7914 46.4358 13.5713 47.4997 13.5713C48.05 13.5713 48.4535 13.6446 48.6737 13.7914C48.8938 13.9381 49.0039 14.1948 49.0039 14.5983C49.0039 15.0384 48.7837 16.0654 48.3802 17.6792C48.0867 18.8163 47.8666 19.8066 47.6831 20.6502C47.4997 21.4938 47.3529 22.5574 47.2429 23.8045C48.1967 21.3837 49.224 19.3664 50.398 17.8626C51.5719 16.3221 52.7092 15.2218 53.8098 14.5983C54.9471 13.9381 55.9743 13.608 56.8915 13.608C58.7259 13.608 59.643 14.5249 59.643 16.3588C59.643 16.7256 59.533 17.6059 59.2762 19.0363C59.056 20.1734 58.946 20.8702 58.946 21.1637C58.946 22.154 59.3128 22.6675 60.0099 22.6675C60.817 22.6675 61.8075 22.0439 63.0916 20.7969C63.4585 20.4301 63.8253 20.2467 64.2289 20.2467C64.5957 20.2467 57.7353 27.1789 54.5069 24.5014C53.5897 23.6211 53.8465 22.3741 53.9566 21.9339C54.0299 21.3837 54.0299 20.9803 54.0299 20.7969C54.0299 20.3567 53.8832 20.1 53.553 20.1C53.1128 20.1 52.5625 20.5768 51.8654 21.5305C51.1684 22.4841 50.4713 23.7312 49.811 25.3083C49.1139 26.8855 48.5636 28.4993 48.1601 30.2599C47.8299 31.5803 47.4997 32.4972 47.0594 32.9741C46.6559 33.4509 45.9955 33.6709 45.1151 33.6709C44.0878 33.5976 43.3174 33.0474 42.8772 31.9104Z" fill="#303030"/>
<path d="M61.4408 31.727C60.3769 30.4433 59.8633 28.7928 59.8633 26.7021C59.8633 24.4281 60.3769 22.3007 61.4408 20.2468C62.5047 18.2295 63.8988 16.579 65.6231 15.3686C67.3841 14.1215 69.2184 13.5347 71.1628 13.5347C71.7865 13.5347 72.1901 13.6447 72.4102 13.9014C72.6303 14.1582 72.8137 14.5617 72.9238 15.1852C73.5108 15.0752 74.1345 15.0018 74.7948 15.0018C76.1889 15.0018 76.886 15.5153 76.886 16.5056C76.886 17.0925 76.6659 18.5229 76.2623 20.7603C75.6019 24.0246 75.2717 26.2987 75.2717 27.5824C75.2717 28.0225 75.3818 28.3527 75.6019 28.6094C75.8221 28.8661 76.0789 28.9762 76.4457 28.9762C76.996 28.9762 77.6197 28.6461 78.3901 27.9492C79.1606 27.2523 80.1878 26.1153 81.5085 24.5748C81.8387 24.1713 82.2422 23.9879 82.6458 23.9879C83.0127 23.9879 83.3062 24.1713 83.5263 24.5014C83.7464 24.8315 83.8565 25.3084 83.8565 25.8952C83.8565 27.0322 83.5997 27.9125 83.0494 28.536C81.8754 29.9665 80.6647 31.2135 79.344 32.2039C78.0233 33.1942 76.7759 33.7077 75.5653 33.7077C74.6114 33.7077 73.7676 33.3776 72.9972 32.754C72.2267 32.1305 71.6398 31.2502 71.2362 30.1499C69.7687 32.534 67.8977 33.7077 65.6598 33.7077C63.8988 33.6343 62.5047 33.0108 61.4408 31.727ZM68.9616 28.2426C69.5119 27.5091 69.9522 26.5187 70.209 25.3084L71.7865 17.4959C70.6125 17.5326 69.5119 17.9727 68.4847 18.853C67.4941 19.7333 66.687 20.8703 66.0634 22.2641C65.4764 23.6945 65.1829 25.1983 65.1829 26.7755C65.1829 27.6558 65.3663 28.316 65.6965 28.7194C66.0634 29.1596 66.5403 29.343 67.164 29.343C67.8243 29.343 68.4113 28.9762 68.9616 28.2426Z" fill="#303030"/>
<path d="M43.6118 23.7308C43.3917 23.364 43.0982 23.2173 42.7314 23.2173C42.4379 23.2173 42.1077 23.3273 41.7408 23.5474C39.8698 24.7945 39.613 25.0145 37.3384 26.7384L37.0449 26.9585C37.155 25.528 37.1917 24.0242 37.1917 22.447C37.1917 21.1266 36.8615 20.173 36.2378 19.6228C35.6141 19.0727 34.4768 18.7792 32.8259 18.7792C32.7892 18.7792 32.7159 18.7792 32.6425 18.7792C31.6886 18.7792 30.9549 19.5862 30.9916 20.5398C30.9916 20.6865 30.9916 20.8332 30.9916 20.9799C30.9916 23.5841 30.4046 25.6747 29.2673 27.1785C28.13 28.719 26.7726 29.4893 25.1951 29.4893C23.6175 29.4893 22.2968 28.719 21.2329 27.1419C20.1323 25.5647 19.582 23.4007 19.582 20.6131C19.582 17.8256 19.9489 15.1481 20.6826 12.5439C21.4163 9.93978 22.5169 7.7391 23.9844 5.90519C25.4519 4.07128 27.0661 3.15433 28.8637 3.15433C30.2212 3.15433 31.2851 3.52111 32.0188 4.21799C32.7525 4.95156 33.1194 5.86851 33.1194 6.96886C33.1194 8.0692 32.6792 9.05952 31.762 9.93979C30.8815 10.8201 29.6709 11.2602 28.13 11.2602C28.13 11.2602 28.13 11.2602 28.0933 11.2602C27.2128 11.2602 26.846 12.3239 27.5063 12.874C27.7631 13.0941 28.0566 13.2775 28.3501 13.4242C29.414 13.9744 30.5147 14.2678 31.6519 14.2678C33.4496 14.2678 34.9904 13.6443 36.2745 12.4339C37.5952 11.2235 38.2189 9.573 38.2189 7.44567C38.2189 5.35501 37.4851 3.59446 36.0177 2.16401C34.5502 0.733562 32.4591 0 29.6709 0C26.9193 0 24.4246 0.586844 22.2968 1.72387C20.1323 2.86089 18.3713 4.43806 17.0139 6.382C14.189 10.3799 12.7949 15.0747 12.7949 20.5031C12.7949 24.4644 13.7855 27.5086 15.7299 29.746C17.6743 31.9467 20.0222 33.0471 22.7371 33.0471C24.3146 33.0471 25.8187 32.6436 27.2862 31.8734C28.7537 31.1031 30.0377 29.9661 31.065 28.4623C30.9916 29.5259 30.9182 30.5896 30.8081 31.5432C28.2401 33.5972 26.1856 35.4311 24.7181 37.045C23.1039 38.8422 21.9666 40.4194 21.3796 41.7765C20.7926 43.1336 20.4992 44.4907 20.4992 45.8111C20.4992 47.2415 20.9394 48.4152 21.8566 49.3322C22.7737 50.2124 23.9477 50.6526 25.3785 50.6526C28.0566 50.6526 30.2945 48.9654 32.0555 45.591C33.8165 42.2166 35.2473 37.5951 36.3479 31.7266C40.0165 29.1958 40.8603 28.609 42.5112 27.5086C42.9515 27.2152 43.245 26.8851 43.4284 26.5183C43.6118 26.1515 43.7219 25.6381 43.7219 24.9779C43.942 24.5377 43.832 24.0976 43.6118 23.7308ZM24.8282 44.9308C24.8282 43.7938 25.3051 42.4733 26.259 41.0062C27.1028 39.6858 28.4235 38.2187 30.1845 36.6415C30.4046 36.4214 30.6614 36.238 30.9182 36.018C30.1478 39.7225 29.3407 42.4367 28.4602 44.0872C27.5797 45.7744 26.7726 46.5813 26.0389 46.5813C25.2684 46.5813 24.8649 46.0311 24.8282 44.9675V44.9308Z" fill="#303030"/>
<path d="M83.3797 32.5331C82.6826 31.6528 82.2791 30.1857 82.0956 28.205C81.7655 24.2438 81.582 20.7594 81.582 17.7884V16.2846C81.6187 15.331 81.8755 14.7075 82.3525 14.3407C82.8294 13.9739 83.5631 13.7905 84.517 13.7905C85.2507 13.7905 85.801 13.9372 86.1679 14.2673C86.5348 14.5974 86.7182 15.1476 86.7182 15.9179C86.7182 19.1822 86.9016 23.4369 87.3052 28.6452C88.5158 26.5545 89.5798 24.6106 90.4602 22.8867C91.3407 21.1262 92.3313 18.8521 93.3585 15.9912C93.6887 15.1476 94.0922 14.5608 94.6059 14.2673C95.1195 13.9739 95.7432 13.8272 96.5136 13.8272C98.0911 13.8272 98.8615 14.3407 98.8615 15.331C98.8615 15.6611 98.7515 16.1379 98.5314 16.7248C96.2201 22.0798 94.0556 26.4078 92.0378 29.7089C91.0472 31.3227 90.0934 32.423 89.1762 33.0099C88.259 33.5967 87.2685 33.8902 86.2046 33.8902C84.9939 33.8535 84.0767 33.4133 83.3797 32.5331Z" fill="#303030"/>
<path d="M115.957 14.0845C116.214 14.2679 116.324 14.5246 116.324 14.9281C116.324 15.625 115.957 18.0457 115.224 22.1904C114.563 26.1883 114.196 28.5724 114.086 29.3059C113.022 36.6049 111.592 42.3634 109.757 46.6181C107.923 50.8727 105.465 53.0001 102.383 53.0001C100.952 53.0001 99.7418 52.5599 98.8613 51.643C97.9442 50.7627 97.5039 49.589 97.5039 48.1219C97.5039 46.8014 97.7974 45.4444 98.4211 44.0506C99.0448 42.6568 100.182 41.0797 101.833 39.2824C103.484 37.4852 105.832 35.4312 108.877 33.0838L108.987 32.0935C109.17 31.0298 109.427 29.526 109.684 27.5821C109.134 29.636 108.327 31.1765 107.299 32.2402C106.272 33.3039 105.208 33.8174 104.071 33.8174C102.787 33.8174 101.76 33.2305 100.952 32.0568C100.145 30.8831 99.7418 29.416 99.7418 27.6554C99.7418 25.5281 99.8886 23.5842 100.182 21.8236C100.476 20.063 100.916 18.1558 101.576 16.1752C101.87 15.3316 102.273 14.708 102.75 14.3412C103.264 13.9745 104.071 13.7911 105.171 13.7911C105.795 13.7911 106.235 13.9011 106.455 14.0845C106.712 14.2679 106.822 14.598 106.822 14.9648C106.822 15.1848 106.676 15.9551 106.345 17.2755C106.052 18.3392 105.832 19.2928 105.648 20.1364C105.428 21.3101 105.208 22.4104 105.061 23.4741C104.878 24.5378 104.805 25.4181 104.805 26.0783C104.805 27.1419 105.098 27.6921 105.685 27.6921C106.125 27.6921 106.639 27.252 107.263 26.4084C107.886 25.5648 108.583 24.281 109.317 22.5205C110.051 20.7966 110.748 18.6693 111.408 16.1385C111.628 15.2949 111.995 14.6713 112.435 14.3046C112.912 13.9378 113.609 13.7544 114.527 13.7544C115.26 13.8278 115.701 13.9011 115.957 14.0845ZM105.245 46.398C106.125 44.7475 107.006 42.0333 107.886 38.1821C105.685 40.016 104.108 41.7032 103.154 43.207C102.163 44.7108 101.686 46.0679 101.686 47.1682C101.686 47.6451 101.796 48.0485 101.98 48.3419C102.163 48.6354 102.457 48.8188 102.897 48.8188C103.557 48.8921 104.364 48.0485 105.245 46.398Z" fill="#303030"/>
<path d="M97.4689 19.1094C96.8086 20.7966 96.4417 21.09 96.9553 21.5668C97.7991 22.2637 98.9364 20.7232 101.761 15.5516C102.825 13.6076 105.32 18.1924 105.32 18.1924L102.899 21.8603L101.431 22.5938C101.431 22.5938 99.0465 25.6014 96.992 25.418C94.9742 25.2346 94.3506 23.254 94.3506 23.254L94.0938 19.1827C94.1304 19.1461 98.1293 17.4222 97.4689 19.1094Z" fill="#303030"/>
<path d="M11.0343 3.91251C11.4011 4.31597 11.071 4.97619 10.5207 4.90283C10.5207 4.90283 10.5206 4.90283 10.484 4.90283C9.67685 4.7928 7.51233 4.16927 6.1916 4.71944C5.12769 5.15958 4.13714 5.81979 3.73359 6.00318C3.1466 6.2966 1.42232 6.84677 0.358401 5.56303C-0.705517 4.2793 0.798641 2.18864 2.26611 1.63847C4.10046 0.978262 6.35688 1.43868 8.24607 2.26199C9.67685 2.88552 10.5573 3.4357 11.0343 3.91251Z" fill="#303030"/>
<path d="M9.7872 7.62842C10.2274 7.62842 10.4109 8.25195 10.044 8.50869C9.4937 8.91215 7.87948 9.82911 7.40255 10.9295C7.03569 11.7731 6.77888 12.8 6.7055 13.1301C6.55875 13.7904 5.86171 15.0007 4.46761 14.854C3.07351 14.7073 2.74333 12.6167 3.29363 11.4063C3.95399 9.93915 5.3114 9.02219 7.18243 8.25195C8.3931 7.84849 9.27358 7.62842 9.7872 7.62842Z" fill="#303030"/>
</svg>
