<svg width="472" height="265" viewBox="0 0 472 265" fill="none" xmlns="http://www.w3.org/2000/svg">
<path d="M324.212 136.551L327.903 127.645C330.711 121.066 338.013 118.017 344.191 120.665C359.677 127.404 366.336 146.26 359.195 162.789L353.98 174.824C351.653 180.12 352.455 185.897 355.585 189.989C358.393 193.68 358.874 198.895 356.868 203.389L354.14 209.727C351.172 216.628 345.314 221.683 338.414 223.769C334.402 224.972 330.791 228.021 328.946 232.354L325.014 241.341C320.682 251.29 309.609 256.024 300.302 251.932L295.006 249.605C285.699 245.513 281.606 234.119 285.939 224.25C292.92 212.375 292.358 203.469 289.871 197.451C286.26 188.625 286.26 178.435 290.192 169.368L290.753 168.084C294.926 158.536 302.949 151.395 312.498 148.346C316.67 146.982 321.083 143.692 324.212 136.551Z" fill="#50BFA5"/>
<path d="M257.617 261.401C265.159 251.612 306.802 199.779 333.601 191.113C363.209 181.485 335.286 219.678 335.286 219.678C335.286 219.678 387.841 162.068 407.098 167.203C424.75 171.937 407.098 207.722 407.098 207.722C407.098 207.722 426.997 187.904 451.148 187.904C474.657 187.904 433.496 259.154 431.329 262.845L316.912 262.685L257.617 261.401Z" fill="#96D9C9"/>
<path d="M416.486 150.114C394.982 183.733 379.417 222.728 370.43 262.445H368.264C377.17 223.611 393.378 184.215 414.801 150.676C419.776 142.893 425.151 133.585 434.459 130.536C434.619 130.456 434.7 130.777 434.539 130.857C426.114 134.067 421.14 142.812 416.486 150.114Z" fill="#3C8F7C"/>
<path d="M375.324 262.606C399.315 229.87 428.762 199.3 463.424 172.982C463.745 172.741 464.226 173.303 463.905 173.544C431.008 198.899 402.043 228.747 377.571 262.526H375.324V262.606Z" fill="#3C8F7C"/>
<path d="M418.493 129.333C419.055 130.135 421.141 132.301 421.783 135.029C422.585 137.677 421.943 141.047 421.863 140.887C421.703 140.967 424.35 138.72 425.153 135.19C426.196 131.82 425.474 127.166 424.19 125.561C421.943 122.031 417.931 121.71 417.209 123.395C416.327 125.16 417.37 127.407 418.493 129.333Z" fill="#3C8F7C"/>
<path d="M423.626 159.26C422.824 158.698 420.738 156.532 418.01 155.81C415.362 154.927 412.072 155.489 412.152 155.569C412.072 155.729 414.319 153.162 417.849 152.44C421.219 151.477 425.873 152.279 427.397 153.643C430.848 155.97 431.088 159.982 429.403 160.704C427.718 161.506 425.392 160.463 423.626 159.26Z" fill="#3C8F7C"/>
<path d="M415.843 172.419C415.041 171.858 412.955 169.691 410.227 168.969C407.579 168.087 404.289 168.648 404.369 168.729C404.289 168.889 406.536 166.321 410.066 165.599C413.436 164.636 418.09 165.439 419.614 166.803C423.064 169.13 423.305 173.142 421.62 173.864C419.935 174.666 417.689 173.623 415.843 172.419Z" fill="#3C8F7C"/>
<path d="M443.525 202.988C442.722 202.427 440.636 200.26 437.908 199.538C435.26 198.655 431.971 199.217 432.051 199.297C431.971 199.458 434.217 196.89 437.748 196.168C441.118 195.205 445.771 196.008 447.296 197.372C450.746 199.699 450.987 203.71 449.302 204.433C447.617 205.235 445.29 204.112 443.525 202.988Z" fill="#3C8F7C"/>
<path d="M457.648 190.473C456.845 189.911 454.759 187.745 452.031 187.023C449.383 186.14 446.094 186.702 446.174 186.782C446.094 186.943 448.34 184.375 451.871 183.653C455.241 182.69 459.894 183.493 461.419 184.857C464.869 187.183 465.11 191.195 463.425 191.917C461.66 192.72 459.413 191.677 457.648 190.473Z" fill="#3C8F7C"/>
<path d="M407.659 144.177C408.382 144.899 410.789 146.665 411.832 149.312C413.116 151.8 412.955 155.17 412.875 155.089C412.714 155.17 414.961 152.602 415.202 148.991C415.683 145.461 414.239 140.968 412.714 139.684C409.906 136.555 405.975 136.876 405.493 138.641C404.851 140.406 406.215 142.492 407.659 144.177Z" fill="#3C8F7C"/>
<path d="M396.186 159.1C397.149 159.581 400.519 160.544 402.204 163.031C404.13 165.278 404.371 169.129 404.21 169.049C404.05 169.209 406.617 165.358 406.457 161.186C406.697 157.094 404.29 152.681 402.124 151.878C398.112 149.632 393.057 151.638 392.656 153.804C392.175 156.051 394.261 157.816 396.186 159.1Z" fill="#3C8F7C"/>
<path d="M384.229 181.727C385.272 182.048 388.723 182.449 390.809 184.616C393.055 186.461 393.938 190.232 393.777 190.152C393.617 190.313 395.543 186.14 394.74 182.048C394.259 177.956 391.13 174.025 388.883 173.623C384.55 172.019 379.897 174.907 379.897 177.154C379.736 179.401 382.063 180.765 384.229 181.727Z" fill="#3C8F7C"/>
<path d="M419.776 197.453C420.498 197.935 423.226 198.897 424.43 200.984C425.874 202.909 425.794 206.038 425.713 205.958C425.553 206.038 427.88 203.07 428.04 199.7C428.441 196.33 426.757 192.639 424.991 191.837C421.862 189.75 417.61 191.114 417.128 192.88C416.566 194.805 418.171 196.33 419.776 197.453Z" fill="#3C8F7C"/>
<path d="M438.229 134.547C437.748 134.146 436.624 132.782 435.02 132.3C433.495 131.659 431.489 131.899 431.57 131.899C431.489 131.98 432.934 130.535 435.1 130.295C437.186 129.893 439.834 130.535 440.717 131.418C442.642 132.942 442.642 135.349 441.599 135.67C440.556 136.072 439.272 135.349 438.229 134.547Z" fill="#3C8F7C"/>
<path d="M433.897 124.999C433.897 125.561 434.298 127.326 433.736 128.931C433.335 130.536 431.971 131.98 431.971 131.9C431.891 131.9 433.897 131.579 435.421 130.135C437.026 128.771 438.149 126.203 437.989 124.999C437.989 122.512 436.063 121.068 435.181 121.71C434.137 122.191 433.897 123.716 433.897 124.999Z" fill="#3C8F7C"/>
<path d="M467.757 177.797C467.275 177.395 466.152 176.031 464.547 175.55C463.023 174.908 461.017 175.149 461.097 175.149C461.017 175.229 462.461 173.785 464.627 173.544C466.713 173.143 469.361 173.785 470.244 174.667C472.17 176.192 472.17 178.599 471.127 178.92C470.083 179.321 468.8 178.519 467.757 177.797Z" fill="#3C8F7C"/>
<path d="M462.54 168.086C462.621 168.648 463.102 170.333 462.701 172.018C462.38 173.623 461.176 175.227 461.176 175.147C461.096 175.147 463.022 174.666 464.466 173.061C465.91 171.617 466.793 168.889 466.552 167.765C466.311 165.278 464.306 164.075 463.503 164.716C462.621 165.358 462.54 166.803 462.54 168.086Z" fill="#3C8F7C"/>
<path d="M438.793 223.77C438.953 224.653 439.836 227.301 439.274 229.868C438.953 232.436 437.108 234.923 437.028 234.843C436.867 234.843 439.916 234.041 442.002 231.393C444.249 228.986 445.452 224.733 444.971 222.968C444.49 219.117 441.28 217.271 439.996 218.394C438.632 219.438 438.552 221.845 438.793 223.77Z" fill="#3C8F7C"/>
<path d="M419.455 230.751C419.615 231.634 420.498 234.282 419.936 236.849C419.615 239.417 417.77 241.904 417.69 241.824C417.529 241.824 420.578 241.022 422.664 238.374C424.911 235.967 426.115 231.714 425.633 229.949C425.152 226.098 421.942 224.252 420.658 225.375C419.294 226.419 419.294 228.745 419.455 230.751Z" fill="#3C8F7C"/>
<path d="M399.877 239.496C400.037 240.378 400.92 243.026 400.358 245.594C400.037 248.161 398.192 250.649 398.112 250.569C397.951 250.569 401 249.766 403.086 247.118C405.333 244.711 406.536 240.459 406.055 238.694C405.574 234.842 402.364 232.997 401.08 234.12C399.716 235.163 399.636 237.49 399.877 239.496Z" fill="#3C8F7C"/>
<path d="M444.569 241.905C444.168 241.182 443.366 238.695 441.52 237.09C439.835 235.405 437.107 234.603 437.107 234.683C437.027 234.764 439.675 233.72 442.724 234.443C445.693 235.004 448.902 237.411 449.624 239.016C451.389 242.145 450.106 245.275 448.501 245.194C446.816 245.194 445.532 243.509 444.569 241.905Z" fill="#3C8F7C"/>
<path d="M424.429 249.045C424.027 248.323 423.225 245.836 421.38 244.231C419.695 242.546 416.967 241.744 416.967 241.824C416.886 241.904 419.534 240.861 422.583 241.583C425.552 242.145 428.761 244.552 429.484 246.157C431.249 249.286 429.965 252.415 428.36 252.335C426.756 252.335 425.391 250.65 424.429 249.045Z" fill="#3C8F7C"/>
<path d="M459.813 234.603C459.492 234.202 458.69 232.758 457.245 232.036C455.961 231.234 454.116 231.073 454.196 231.073C454.116 231.153 455.721 230.11 457.646 230.19C459.572 230.11 461.979 231.234 462.541 232.116C464.065 233.881 463.664 235.967 462.621 236.128C461.658 236.369 460.615 235.486 459.813 234.603Z" fill="#3C8F7C"/>
<path d="M457.487 225.136C457.407 225.697 457.487 227.302 456.685 228.666C456.043 230.03 454.518 231.153 454.518 231.073C454.438 231.073 456.283 231.153 457.968 230.03C459.653 229.067 461.098 226.901 461.098 225.777C461.499 223.531 460.054 221.926 459.092 222.327C458.209 222.648 457.808 223.932 457.487 225.136Z" fill="#3C8F7C"/>
<path d="M458.529 230.43C452.351 230.992 446.253 232.115 440.236 233.72C429.243 236.608 418.732 240.861 408.382 245.354C403.246 247.601 398.192 249.767 393.137 252.255C390.81 253.378 388.403 254.501 386.316 255.945C383.428 257.871 378.854 261.883 378.373 262.445L380.78 262.525C382.385 261.161 388.403 256.186 396.667 252.174C416.325 242.706 436.705 232.998 458.61 230.591C458.69 230.591 458.61 230.43 458.529 230.43Z" fill="#3C8F7C"/>
<path d="M120.997 122.522C105.912 100.056 102.301 72.3741 101.9 53.1173C101.499 32.2558 104.628 16.4492 104.628 16.2887L103.585 15.9678C103.585 16.1282 100.376 32.0151 100.777 53.0371C101.178 72.4544 104.869 100.377 120.114 123.164L120.997 122.522Z" fill="#3C8F7C"/>
<path d="M107.999 12.3564C107.839 17.0904 105.913 21.1022 103.105 23.6698C100.537 20.4603 98.9326 16.0473 99.093 11.3134C99.2535 6.5794 101.179 2.56757 103.987 0C106.635 3.20947 108.16 7.62248 107.999 12.3564Z" fill="#3C8F7C"/>
<path d="M98.7716 23.6707C101.339 27.6825 102.222 32.256 101.66 36.3481C97.9692 35.5457 94.2783 33.0584 91.7108 29.0465C89.1432 25.0347 88.2606 20.4612 88.8222 16.3691C92.5131 17.0913 96.204 19.6588 98.7716 23.6707Z" fill="#3C8F7C"/>
<path d="M93.7162 36.6688C97.5676 39.0759 100.215 42.847 101.339 46.9391C97.8083 48.1426 93.5557 47.6612 89.7846 45.2541C85.9332 42.847 83.2854 39.0759 82.1621 34.9838C85.6925 33.7803 89.9451 34.2617 93.7162 36.6688Z" fill="#3C8F7C"/>
<path d="M96.0425 54.4797C99.0915 56.3251 101.097 59.7753 101.659 63.5464C98.61 64.9907 95.0796 64.9907 92.0306 63.065C88.9816 61.2195 86.9757 57.7694 86.4141 53.9982C89.5433 52.554 92.9935 52.554 96.0425 54.4797Z" fill="#3C8F7C"/>
<path d="M107.598 32.8174C110.888 30.8115 114.659 30.651 117.868 31.8545C117.146 35.4652 114.98 38.7549 111.77 40.6806C108.481 42.6865 104.709 42.847 101.5 41.6434C102.222 38.113 104.308 34.8233 107.598 32.8174Z" fill="#3C8F7C"/>
<path d="M107.678 45.1728C110.968 43.1669 114.739 43.0065 117.949 44.21C117.226 47.8206 115.06 51.1104 111.77 53.036C108.481 55.0419 104.709 55.2024 101.5 53.9989C102.302 50.4685 104.389 47.1788 107.678 45.1728Z" fill="#3C8F7C"/>
<path d="M105.432 232.848C73.8183 221.374 51.7532 193.933 38.7548 172.911C24.7134 150.124 17.9736 129.824 17.9736 129.583L16.5293 130.145C16.6095 130.386 23.3494 150.846 37.4711 173.794C50.5496 194.976 72.9357 222.738 104.95 234.373L105.432 232.848Z" fill="#96D9C9"/>
<path d="M19.1757 122.282C22.0643 127.738 22.5457 133.836 21.0212 139.212C15.9663 138.009 11.3125 134.478 8.42403 129.022C5.53551 123.566 5.05409 117.468 6.57859 112.092C11.6335 113.216 16.2872 116.826 19.1757 122.282Z" fill="#96D9C9"/>
<path d="M16.0473 142.982C21.5034 145.149 25.5955 149.481 27.5212 154.536C22.7872 157.024 17.0102 157.425 11.4738 155.258C6.01775 153.092 1.92568 148.759 0 143.704C4.8142 141.217 10.5912 140.816 16.0473 142.982Z" fill="#96D9C9"/>
<path d="M20.4161 174.85C28.5321 173.693 34.7009 169.874 34.1944 166.321C33.688 162.767 26.6981 160.824 18.5821 161.981C10.466 163.138 4.29729 166.956 4.80375 170.51C5.31021 174.063 12.3001 176.006 20.4161 174.85Z" fill="#96D9C9"/>
<path d="M30.0884 179.971C35.9457 179.168 41.4821 181.014 45.4137 184.544C42.2042 188.957 37.1493 192.247 31.292 192.969C25.4347 193.771 19.8984 191.926 15.9668 188.395C19.096 183.982 24.2312 180.773 30.0884 179.971Z" fill="#96D9C9"/>
<path d="M29.2053 151.81C29.5263 146.033 31.9334 140.898 35.3836 137.368C38.5128 140.818 40.278 145.873 39.957 151.57C39.6361 157.347 37.229 162.482 33.7788 166.012C30.6496 162.562 28.8844 157.507 29.2053 151.81Z" fill="#96D9C9"/>
<path d="M40.8413 170.506C41.082 164.729 43.4089 159.594 46.859 155.983C49.9883 159.353 51.9139 164.408 51.6732 170.105C51.4325 175.882 49.1057 181.017 45.6555 184.627C42.446 181.338 40.6006 176.283 40.8413 170.506Z" fill="#96D9C9"/>
<path d="M49.0243 198.749C51.271 197.546 53.7583 197.546 55.8445 198.428C55.2026 200.755 53.6781 202.841 51.4314 204.045C49.1848 205.248 46.6975 205.248 44.6113 204.366C45.2532 202.039 46.858 199.953 49.0243 198.749Z" fill="#96D9C9"/>
<path d="M181.253 202.438C181.253 202.438 205.806 148.198 197.622 136.083C186.308 119.393 172.187 170.665 171.465 166.171C164.965 123.566 166.329 69.8875 135.92 61.7033C118.669 57.0496 137.043 101.822 134.877 113.376C132.71 124.93 103.985 83.7684 86.2532 61.944C68.5209 40.1197 57.7692 52.2354 68.0395 78.6333C77.9888 104.149 113.935 134.157 105.911 136.725C97.8875 139.292 52.7143 103.667 45.8942 116.826C37.5495 132.873 107.034 161.277 100.134 164.486C93.1535 167.696 60.0158 152.611 60.0158 165.449C60.0158 178.287 105.831 181.497 104.627 186.953C102.702 195.939 73.977 172.992 71.7304 185.428C69.4035 198.186 110.725 199.149 109.361 209.098C108.559 214.875 98.1282 208.777 96.2828 216.721C91.95 234.694 157.102 259.808 157.102 259.808L181.253 202.438Z" fill="#3C8F7C"/>
<path d="M226.589 214.793C236.458 219.447 233.811 230.92 233.811 230.92C233.811 230.92 260.61 209.979 270.639 222.175C280.669 234.371 275.373 258.361 263.659 262.213C259.486 263.577 244.081 264.219 225.787 264.299C192.409 264.54 149.723 263.336 149.723 263.336C149.723 263.336 217.683 210.621 226.589 214.793Z" fill="#96D9C9"/>
<path d="M155.661 243.918L156.624 243.116C135.121 216.958 125.974 184.142 122.042 161.274C117.79 136.401 118.672 117.545 118.672 117.385L117.388 117.144C117.388 117.305 116.506 136.401 120.758 161.354C124.69 184.382 133.917 217.44 155.661 243.918Z" fill="#50BFA5"/>
<path d="M121.48 113.133C122.122 118.75 120.678 123.644 117.869 126.774C114.259 123.083 111.691 117.867 111.049 112.171C110.407 106.474 111.852 101.66 114.66 98.5303C118.271 102.301 120.838 107.517 121.48 113.133Z" fill="#50BFA5"/>
<path d="M113.135 126.29C116.826 130.944 118.751 136.4 118.751 141.294C114.338 140.492 109.604 137.603 105.913 132.95C102.223 128.296 100.297 122.84 100.297 117.945C104.71 118.748 109.444 121.636 113.135 126.29Z" fill="#50BFA5"/>
<path d="M109.685 142.018C114.58 144.746 118.351 149.159 120.357 153.893C116.505 155.418 111.531 155.016 106.636 152.369C101.742 149.64 97.9708 145.308 95.9648 140.494C99.8162 138.889 104.791 139.29 109.685 142.018Z" fill="#50BFA5"/>
<path d="M118.351 167.854C120.437 168.817 122.203 170.582 123.165 172.508C121.561 173.31 119.555 173.31 117.388 172.348C115.302 171.385 113.537 169.62 112.574 167.694C114.179 166.892 116.265 166.892 118.351 167.854Z" fill="#50BFA5"/>
<path d="M120.998 177.484C123.084 178.447 124.849 180.212 125.812 182.138C124.207 182.94 122.201 182.94 120.035 181.978C117.949 181.015 116.184 179.249 115.221 177.324C116.825 176.521 118.912 176.521 120.998 177.484Z" fill="#50BFA5"/>
<path d="M125.011 136.882C128.461 134.395 132.714 133.993 136.725 135.277C136.565 139.61 134.639 143.622 131.189 146.029C127.739 148.516 123.486 148.917 119.475 147.634C119.715 143.381 121.561 139.369 125.011 136.882Z" fill="#50BFA5"/>
<path d="M127.257 151.647C130.707 149.16 134.96 148.759 138.972 150.042C138.811 154.375 136.885 158.387 133.435 160.794C129.985 163.201 125.733 163.683 121.721 162.399C121.961 158.066 123.887 154.134 127.257 151.647Z" fill="#50BFA5"/>
<path d="M128.781 172.83C131.027 171.226 133.835 170.985 136.403 171.787C136.243 174.596 135.039 177.163 132.792 178.848C130.546 180.453 127.737 180.694 125.17 179.891C125.33 177.083 126.534 174.435 128.781 172.83Z" fill="#50BFA5"/>
<path d="M171.788 263.578C171.788 263.578 140.415 223.219 127.257 217.121C113.295 210.542 125.411 233.329 125.411 233.329C125.411 233.329 95.4829 203.962 88.5023 211.264C81.4415 218.566 88.9838 225.466 88.9838 225.466C88.9838 225.466 63.9499 220.812 60.259 230.2C54.6425 244.642 95.8039 251.784 95.8039 251.784C95.8039 251.784 76.0657 247.451 79.9973 256.357C86.0952 269.757 171.788 263.578 171.788 263.578Z" fill="#50BFA5"/>
<path d="M60.2578 230.12C63.8685 220.732 88.9825 225.386 88.9825 225.386C88.9825 225.386 81.5205 218.485 88.5011 211.184C95.5619 203.882 118.911 221.133 118.911 221.133C118.911 221.133 115.3 205.166 132.872 217.763C145.469 226.67 169.701 260.048 169.701 260.048L60.2578 230.12Z" fill="#96D9C9"/>
<path d="M148.758 262.937C148.758 262.937 198.745 266.468 208.534 257.481C218.323 248.495 208.614 232.287 208.614 232.287C208.614 232.287 225.785 218.727 225.544 209.901C225.223 200.995 214.07 205.568 214.07 205.568C214.07 205.568 233.006 181.176 228.513 176.523C220.168 167.857 198.264 193.212 198.264 193.212C198.264 193.212 204.763 181.176 197.943 179.251C187.592 176.362 179.97 206.13 179.97 206.13C179.97 206.13 181.896 194.335 174.754 195.94C161.836 198.748 148.758 262.937 148.758 262.937Z" fill="#50BFA5"/>
<path d="M315.169 200.83V207.168C315.169 207.65 315.008 208.131 314.768 208.532C314.447 208.934 314.126 209.255 313.644 209.415C313.484 209.495 313.323 209.495 313.163 209.576C313.003 209.576 312.842 209.576 312.762 209.576H212.306C211.022 209.576 209.898 208.532 209.898 207.249C209.898 207.249 209.898 207.168 209.898 207.088V200.75C209.898 200.75 209.898 200.669 209.898 200.589C209.979 199.305 211.022 198.262 212.306 198.262H312.762C312.922 198.262 313.083 198.262 313.163 198.262C313.323 198.262 313.484 198.342 313.644 198.423C314.126 198.583 314.527 198.904 314.768 199.305C315.008 199.867 315.169 200.268 315.169 200.83Z" fill="#FFC222"/>
<path d="M265.823 209.576H212.065C210.942 209.576 209.979 208.532 209.898 207.249C209.898 207.249 209.898 207.168 209.898 207.088V200.75C209.898 200.75 209.898 200.669 209.898 200.589C209.979 199.305 210.942 198.262 212.065 198.262H259.244C259.966 201.632 261.731 206.206 265.823 209.576Z" fill="#E5A621"/>
<path d="M302.973 198.344H301.85V209.497H302.973V198.344Z" fill="#FBAA26"/>
<path d="M299.041 198.344H297.918V209.497H299.041V198.344Z" fill="#FBAA26"/>
<path d="M294.467 198.344H293.344V209.497H294.467V198.344Z" fill="#FBAA26"/>
<path d="M287.326 198.344H286.203V209.497H287.326V198.344Z" fill="#FBAA26"/>
<path d="M279.864 198.344H278.74V209.497H279.864V198.344Z" fill="#FBAA26"/>
<path d="M268.311 198.344H267.188V209.497H268.311V198.344Z" fill="#FBAA26"/>
<path d="M257.559 198.344H256.436V209.497H257.559V198.344Z" fill="#FBAA26"/>
<path d="M247.932 198.344H246.809V209.497H247.932V198.344Z" fill="#FBAA26"/>
<path d="M306.664 198.344H305.461V209.497H306.584V198.344H306.664Z" fill="#FBAA26"/>
<path d="M309.071 198.344H307.867V209.497H308.99V198.344H309.071Z" fill="#FBAA26"/>
<path d="M311.399 198.344H310.275V209.497H311.399V198.344Z" fill="#FBAA26"/>
<path d="M313.162 198.424V209.497C313.002 209.497 312.841 209.497 312.761 209.497H312.039V198.344H312.761C312.841 198.344 313.002 198.424 313.162 198.424Z" fill="#FBAA26"/>
<path d="M314.768 199.466V208.453C314.447 208.854 314.126 209.175 313.645 209.335V198.503C314.046 198.744 314.447 199.065 314.768 199.466Z" fill="#FBAA26"/>
<path d="M304.417 189.598V195.937C304.417 196.418 304.257 196.899 304.016 197.301C303.695 197.702 303.374 198.023 302.892 198.183C302.732 198.263 302.572 198.263 302.411 198.344C302.251 198.344 302.09 198.344 302.01 198.344H201.554C200.27 198.344 199.146 197.301 199.146 196.017C199.146 196.017 199.146 195.937 199.146 195.856V189.518C199.146 189.518 199.146 189.437 199.146 189.357C199.227 188.073 200.27 187.03 201.554 187.03H302.01C302.09 187.03 302.17 187.03 302.17 187.03H302.251H302.331C302.331 187.03 302.331 187.03 302.411 187.03C302.572 187.03 302.732 187.11 302.892 187.191C302.892 187.191 302.892 187.191 302.973 187.191C302.973 187.191 302.973 187.191 303.053 187.191C303.053 187.191 303.133 187.191 303.213 187.271H303.294C303.294 187.271 303.294 187.271 303.374 187.271L303.454 187.351C303.454 187.351 303.534 187.431 303.615 187.431L303.695 187.512C303.695 187.512 303.695 187.512 303.775 187.592C303.855 187.672 303.936 187.752 303.936 187.752C303.936 187.752 303.936 187.752 304.016 187.833C304.016 187.833 304.016 187.833 304.096 187.913C304.096 187.913 304.176 187.993 304.176 188.073C304.256 188.715 304.417 189.116 304.417 189.598Z" fill="#FFC222"/>
<path d="M255.072 198.345H201.233C200.109 198.345 199.147 197.302 199.066 196.018C199.066 196.018 199.066 195.938 199.066 195.858V189.519C199.066 189.519 199.066 189.439 199.066 189.359C199.147 188.075 200.109 187.032 201.233 187.032H248.492C248.492 187.112 248.492 187.192 248.572 187.353C249.375 190.723 251.14 195.136 255.072 198.345Z" fill="#E5A621"/>
<path d="M292.221 187.191H291.098V198.344H292.221V187.191Z" fill="#FBAA26"/>
<path d="M288.369 187.191H287.246V198.344H288.369V187.191Z" fill="#FBAA26"/>
<path d="M283.715 187.191H282.592V198.344H283.715V187.191Z" fill="#FBAA26"/>
<path d="M276.576 187.191H275.453V198.344H276.576V187.191Z" fill="#FBAA26"/>
<path d="M269.114 187.191H267.99V198.344H269.114V187.191Z" fill="#FBAA26"/>
<path d="M257.559 187.191H256.436V198.344H257.559V187.191Z" fill="#FBAA26"/>
<path d="M246.807 187.191H245.684V198.344H246.807V187.191Z" fill="#FBAA26"/>
<path d="M237.18 187.191H236.057V198.344H237.18V187.191Z" fill="#FBAA26"/>
<path d="M295.912 187.191H294.789V198.344H295.912V187.191Z" fill="#FBAA26"/>
<path d="M298.319 187.191H297.195V198.344H298.319V187.191Z" fill="#FBAA26"/>
<path d="M300.647 187.191H299.523V198.344H300.647V187.191Z" fill="#FBAA26"/>
<path d="M302.41 187.271V198.344C302.25 198.344 302.089 198.344 302.009 198.344H301.287V187.191H302.009C302.17 187.191 302.25 187.191 302.41 187.271Z" fill="#FBAA26"/>
<path d="M304.016 188.316V197.302C303.695 197.704 303.374 198.025 302.893 198.185V187.353C303.374 187.594 303.695 187.915 304.016 188.316Z" fill="#FBAA26"/>
<path d="M310.435 255.233V261.411C310.435 261.892 310.274 262.374 310.033 262.695C309.713 263.096 309.311 263.417 308.91 263.577C308.83 263.657 308.589 263.657 308.429 263.657C308.349 263.657 308.108 263.738 308.028 263.738H209.417C209.016 263.738 208.695 263.657 208.374 263.417C207.652 263.096 207.17 262.374 207.09 261.571C207.09 261.491 207.09 261.491 207.09 261.491V261.411V255.233C207.09 255.152 207.09 255.152 207.09 255.152C207.17 253.869 208.213 252.906 209.497 252.906H308.108C308.188 252.906 308.429 252.906 308.509 252.986C308.669 253.066 308.83 253.066 308.99 253.066C309.472 253.227 309.873 253.548 310.114 253.949C310.274 254.27 310.435 254.671 310.435 255.233Z" fill="#FFC222"/>
<path d="M262.052 263.818H209.256C208.935 263.818 208.534 263.738 208.293 263.497C207.651 263.176 207.25 262.454 207.17 261.651C207.17 261.571 207.17 261.571 207.17 261.571V261.491V255.313C207.17 255.232 207.17 255.232 207.17 255.232C207.25 253.949 208.133 252.986 209.336 252.986H255.713C256.435 256.115 258.12 260.448 261.891 263.657C261.811 263.657 261.891 263.657 262.052 263.818Z" fill="#E5A621"/>
<path d="M298.399 252.825H297.275V263.737H298.399V252.825Z" fill="#FBAA26"/>
<path d="M294.709 252.825H293.586V263.737H294.709V252.825Z" fill="#FBAA26"/>
<path d="M290.135 252.825H289.012V263.737H290.135V252.825Z" fill="#FBAA26"/>
<path d="M283.074 252.825H281.951V263.737H283.074V252.825Z" fill="#FBAA26"/>
<path d="M275.772 252.825H274.648V263.737H275.772V252.825Z" fill="#FBAA26"/>
<path d="M264.459 252.825H263.336V263.737H264.459V252.825Z" fill="#FBAA26"/>
<path d="M253.867 252.825H252.744V263.737H253.867V252.825Z" fill="#FBAA26"/>
<path d="M244.401 252.825H243.277V263.737H244.401V252.825Z" fill="#FBAA26"/>
<path d="M302.09 252.825H300.967V263.737H302.09V252.825Z" fill="#FBAA26"/>
<path d="M304.416 252.825H303.293V263.737H304.416V252.825Z" fill="#FBAA26"/>
<path d="M306.744 252.825H305.621V263.737H306.744V252.825Z" fill="#FBAA26"/>
<path d="M308.43 252.905V263.817C308.35 263.817 308.109 263.897 308.029 263.897H307.307V252.905H308.029C308.189 252.825 308.35 252.825 308.43 252.905Z" fill="#FBAA26"/>
<path d="M310.033 253.869V262.695C309.713 263.096 309.311 263.417 308.91 263.577V252.906C309.392 253.146 309.793 253.467 310.033 253.869Z" fill="#FBAA26"/>
<path d="M318.458 244.24V250.419C318.458 250.9 318.298 251.382 318.057 251.702C317.736 252.104 317.335 252.425 316.934 252.585C316.853 252.665 316.613 252.665 316.452 252.665C316.372 252.665 316.131 252.746 316.051 252.746H217.52C216.237 252.746 215.194 251.702 215.113 250.499C215.113 250.419 215.113 250.419 215.113 250.419V244.24C215.113 244.16 215.113 244.16 215.113 244.16C215.194 243.037 216.076 242.074 217.199 241.914C217.28 241.914 217.36 241.914 217.52 241.914H316.131C316.211 241.914 316.452 241.914 316.532 241.994C316.693 242.074 316.853 242.074 317.014 242.074C317.495 242.235 317.896 242.555 318.137 242.957C318.378 243.278 318.458 243.759 318.458 244.24Z" fill="#FFC222"/>
<path d="M270.075 252.826H217.28C216.156 252.826 215.194 251.783 215.113 250.579C215.113 250.499 215.113 250.499 215.113 250.499V244.321C215.113 244.241 215.113 244.241 215.113 244.241C215.194 243.117 215.996 242.155 216.959 241.994C217.039 241.994 217.119 241.994 217.28 241.994H263.656C264.298 245.123 266.064 249.536 270.075 252.826Z" fill="#E5A621"/>
<path d="M306.504 241.914H305.381V252.826H306.504V241.914Z" fill="#FBAA26"/>
<path d="M302.733 241.914H301.609V252.826H302.733V241.914Z" fill="#FBAA26"/>
<path d="M298.158 241.914H297.035V252.826H298.158V241.914Z" fill="#FBAA26"/>
<path d="M291.178 241.914H290.055V252.826H291.178V241.914Z" fill="#FBAA26"/>
<path d="M283.797 241.914H282.674V252.826H283.797V241.914Z" fill="#FBAA26"/>
<path d="M272.483 241.914H271.359V252.826H272.483V241.914Z" fill="#FBAA26"/>
<path d="M261.891 241.914H260.768V252.826H261.891V241.914Z" fill="#FBAA26"/>
<path d="M252.504 241.914H251.381V252.826H252.504V241.914Z" fill="#FBAA26"/>
<path d="M310.115 241.914H308.992V252.826H310.115V241.914Z" fill="#FBAA26"/>
<path d="M312.522 241.914H311.398V252.826H312.522V241.914Z" fill="#FBAA26"/>
<path d="M314.768 241.914H313.645V252.826H314.768V241.914Z" fill="#FBAA26"/>
<path d="M316.533 241.914V252.826C316.453 252.826 316.213 252.906 316.132 252.906H315.41V241.994H316.132C316.293 241.914 316.373 241.914 316.533 241.914Z" fill="#FBAA26"/>
<path d="M318.057 242.876V251.702C317.736 252.104 317.335 252.425 316.934 252.585V241.914C317.415 242.235 317.816 242.475 318.057 242.876Z" fill="#FBAA26"/>
<path d="M305.54 233.327V239.505C305.54 239.986 305.38 240.468 305.139 240.789C304.818 241.19 304.417 241.511 304.016 241.671C303.935 241.751 303.695 241.751 303.534 241.751C303.454 241.751 303.454 241.751 303.454 241.751C303.374 241.751 303.374 241.751 303.374 241.751H303.293C303.213 241.751 303.213 241.751 303.213 241.751H204.602C203.319 241.751 202.276 240.708 202.195 239.505C202.195 239.425 202.195 239.425 202.195 239.425V233.246C202.195 233.166 202.195 233.166 202.195 233.166C202.276 231.882 203.319 230.919 204.602 230.919H303.213C303.294 230.919 303.293 230.919 303.293 230.919C303.374 230.919 303.454 230.919 303.614 231C303.775 231.08 303.935 231.08 304.096 231.08C304.176 231.16 304.176 231.16 304.337 231.16C304.417 231.16 304.417 231.24 304.417 231.24C304.497 231.24 304.497 231.321 304.497 231.321C304.577 231.321 304.577 231.401 304.577 231.401C304.658 231.481 304.738 231.481 304.818 231.642L304.898 231.722L304.978 231.802C304.978 231.882 305.059 231.882 305.059 231.882C305.139 231.963 305.139 231.963 305.139 231.963C305.38 232.364 305.54 232.845 305.54 233.327Z" fill="#FFC222"/>
<path d="M257.157 241.913H204.362C203.238 241.913 202.276 240.869 202.195 239.666C202.195 239.586 202.195 239.586 202.195 239.586V233.407C202.195 233.327 202.195 233.327 202.195 233.327C202.276 232.043 203.158 231.081 204.362 231.081H250.738C250.738 231.161 250.819 231.241 250.819 231.402C251.461 234.37 253.226 238.703 257.157 241.913Z" fill="#E5A621"/>
<path d="M293.504 230.919H292.381V241.832H293.504V230.919Z" fill="#FBAA26"/>
<path d="M289.735 230.919H288.611V241.832H289.735V230.919Z" fill="#FBAA26"/>
<path d="M285.24 230.919H284.117V241.832H285.24V230.919Z" fill="#FBAA26"/>
<path d="M278.18 230.919H277.057V241.832H278.18V230.919Z" fill="#FBAA26"/>
<path d="M270.877 230.919H269.754V241.832H270.877V230.919Z" fill="#FBAA26"/>
<path d="M259.565 230.919H258.441V241.832H259.565V230.919Z" fill="#FBAA26"/>
<path d="M248.975 230.919H247.852V241.832H248.975V230.919Z" fill="#FBAA26"/>
<path d="M239.506 230.919H238.383V241.832H239.506V230.919Z" fill="#FBAA26"/>
<path d="M297.196 230.919H296.072V241.832H297.196V230.919Z" fill="#FBAA26"/>
<path d="M299.604 230.919H298.48V241.832H299.604V230.919Z" fill="#FBAA26"/>
<path d="M301.85 230.919H300.727V241.832H301.85V230.919Z" fill="#FBAA26"/>
<path d="M303.616 230.919V241.832C303.535 241.832 303.295 241.912 303.214 241.912H302.492V231H303.214C303.295 230.919 303.455 230.919 303.616 230.919Z" fill="#FBAA26"/>
<path d="M305.139 231.963V240.869C304.818 241.271 304.417 241.592 304.016 241.752V231.081C304.497 231.321 304.898 231.562 305.139 231.963Z" fill="#FBAA26"/>
<path d="M312.761 222.577V228.755C312.761 229.236 312.6 229.718 312.359 230.039C312.039 230.44 311.637 230.761 311.236 230.921C311.156 231.001 310.915 231.001 310.755 231.001C310.675 231.001 310.434 231.082 310.354 231.082H211.823C211.422 231.082 211.101 231.001 210.78 230.761C210.058 230.44 209.496 229.718 209.496 228.835C209.496 228.755 209.496 228.755 209.496 228.755V228.675V222.496C209.496 222.416 209.496 222.416 209.496 222.416C209.576 221.293 210.459 220.33 211.582 220.169C211.662 220.169 211.743 220.169 211.903 220.169H310.514C310.594 220.169 310.835 220.169 310.915 220.25C311.076 220.33 311.236 220.33 311.397 220.33C311.878 220.49 312.279 220.811 312.52 221.213C312.68 221.694 312.761 222.095 312.761 222.577Z" fill="#FFC222"/>
<path d="M264.378 231.162H211.582C211.261 231.162 210.86 231.081 210.619 230.841C209.978 230.52 209.576 229.798 209.496 228.915C209.496 228.835 209.496 228.835 209.496 228.835V228.755V222.576C209.496 222.496 209.496 222.496 209.496 222.496C209.576 221.373 210.379 220.41 211.342 220.25C211.422 220.25 211.502 220.25 211.662 220.25H258.039C258.761 223.379 260.446 227.712 264.217 230.921C264.137 231.001 264.298 231.081 264.378 231.162Z" fill="#E5A621"/>
<path d="M300.807 220.169H299.684V231.162H300.807V220.169Z" fill="#FBAA26"/>
<path d="M297.036 220.169H295.832V231.162H296.955V220.169H297.036Z" fill="#FBAA26"/>
<path d="M292.461 220.169H291.338V231.162H292.461V220.169Z" fill="#FBAA26"/>
<path d="M285.481 220.169H284.357V231.162H285.481V220.169Z" fill="#FBAA26"/>
<path d="M278.1 220.169H276.977V231.162H278.1V220.169Z" fill="#FBAA26"/>
<path d="M266.785 220.169H265.662V231.162H266.785V220.169Z" fill="#FBAA26"/>
<path d="M256.196 220.169H255.072V231.162H256.196V220.169Z" fill="#FBAA26"/>
<path d="M246.807 220.169H245.684V231.162H246.807V220.169Z" fill="#FBAA26"/>
<path d="M304.416 220.169H303.293V231.162H304.416V220.169Z" fill="#FBAA26"/>
<path d="M306.825 220.169H305.701V231.162H306.825V220.169Z" fill="#FBAA26"/>
<path d="M309.071 220.169H307.947V231.162H309.071V220.169Z" fill="#FBAA26"/>
<path d="M310.836 220.248V231.16C310.756 231.16 310.515 231.24 310.435 231.24H309.713V220.328H310.435C310.596 220.167 310.676 220.248 310.836 220.248Z" fill="#FBAA26"/>
<path d="M312.362 221.291V230.117C312.041 230.518 311.639 230.839 311.238 231V220.328C311.72 220.569 312.121 220.89 312.362 221.291Z" fill="#FBAA26"/>
<path d="M305.54 211.664V217.842C305.54 218.324 305.38 218.805 305.139 219.126C304.818 219.527 304.417 219.848 304.016 220.009C303.935 220.089 303.695 220.089 303.534 220.089C303.454 220.089 303.454 220.089 303.454 220.089H303.374H303.293C303.213 220.089 303.213 220.089 303.213 220.089H204.602C203.319 220.089 202.276 219.046 202.195 217.842C202.195 217.762 202.195 217.762 202.195 217.762V211.584C202.195 211.503 202.195 211.503 202.195 211.503C202.276 210.22 203.319 209.257 204.602 209.257H303.213C303.294 209.257 303.534 209.257 303.614 209.337C303.775 209.417 303.935 209.417 304.096 209.417C304.577 209.578 304.978 209.899 305.219 210.3C305.38 210.701 305.54 211.102 305.54 211.664Z" fill="#FFC222"/>
<path d="M257.157 220.249H204.362C203.238 220.249 202.276 219.206 202.195 218.003C202.195 217.923 202.195 217.923 202.195 217.923V211.744C202.195 211.664 202.195 211.664 202.195 211.664C202.276 210.38 203.158 209.417 204.362 209.417H250.738C251.38 212.466 253.065 216.96 257.157 220.249Z" fill="#E5A621"/>
<path d="M293.504 209.257H292.381V220.169H293.504V209.257Z" fill="#FBAA26"/>
<path d="M289.735 209.257H288.611V220.169H289.735V209.257Z" fill="#FBAA26"/>
<path d="M285.24 209.257H284.117V220.169H285.24V209.257Z" fill="#FBAA26"/>
<path d="M278.18 209.257H277.057V220.169H278.18V209.257Z" fill="#FBAA26"/>
<path d="M270.877 209.257H269.754V220.169H270.877V209.257Z" fill="#FBAA26"/>
<path d="M259.565 209.257H258.441V220.169H259.565V209.257Z" fill="#FBAA26"/>
<path d="M248.975 209.257H247.852V220.169H248.975V209.257Z" fill="#FBAA26"/>
<path d="M239.506 209.257H238.383V220.169H239.506V209.257Z" fill="#FBAA26"/>
<path d="M297.196 209.257H296.072V220.169H297.196V209.257Z" fill="#FBAA26"/>
<path d="M299.604 209.257H298.48V220.169H299.604V209.257Z" fill="#FBAA26"/>
<path d="M301.85 209.257H300.727V220.169H301.85V209.257Z" fill="#FBAA26"/>
<path d="M303.616 209.338V220.25C303.535 220.25 303.295 220.33 303.214 220.33H302.492V209.418H303.214C303.295 209.258 303.455 209.338 303.616 209.338Z" fill="#FBAA26"/>
<path d="M305.139 210.3V219.206C304.818 219.608 304.417 219.928 304.016 220.089V209.417C304.497 209.578 304.898 209.899 305.139 210.3Z" fill="#FBAA26"/>
<path d="M198.185 263.336C228.995 263.336 254.029 238.303 254.029 207.492C254.029 176.681 228.995 151.647 198.185 151.647C167.374 151.647 142.34 176.681 142.34 207.492C142.34 238.303 167.374 263.336 198.185 263.336Z" fill="#A57213"/>
<path d="M193.37 263.339C224.181 263.339 249.215 238.305 249.215 207.494C249.215 176.683 224.181 151.649 193.37 151.649C162.559 151.649 137.525 176.683 137.525 207.494C137.525 238.305 162.559 263.339 193.37 263.339Z" fill="#FFCF1D"/>
<path d="M193.689 256.679C220.408 256.679 242.072 235.015 242.072 208.296C242.072 181.577 220.408 159.994 193.689 159.994C166.971 159.994 145.307 181.658 145.307 208.296C145.387 235.015 166.971 256.679 193.689 256.679Z" fill="#FDBB24"/>
<path d="M193.37 259.004C186.55 259.004 179.81 257.72 173.552 254.992C167.534 252.425 162.078 248.814 157.344 244.08C152.69 239.426 148.999 233.97 146.432 227.872C143.784 221.614 142.42 214.954 142.42 208.054C142.42 201.234 143.704 194.574 146.432 188.235C148.999 182.218 152.61 176.761 157.344 172.028C161.998 167.374 167.454 163.683 173.552 161.115C179.81 158.468 186.47 157.104 193.37 157.104C200.271 157.104 206.93 158.387 213.189 161.115C219.206 163.683 224.662 167.294 229.396 172.028C234.13 176.761 237.741 182.137 240.309 188.235C242.956 194.494 244.32 201.153 244.32 208.054C244.32 214.874 243.037 221.614 240.309 227.872C237.741 233.89 234.13 239.346 229.396 244.08C224.662 248.814 219.287 252.425 213.189 254.992C206.85 257.64 200.271 259.004 193.37 259.004ZM193.37 160.393C180.613 160.393 168.577 165.368 159.51 174.435C150.444 183.501 145.469 195.537 145.469 208.294C145.469 221.052 150.444 233.088 159.51 242.154C168.577 251.221 180.613 256.196 193.37 256.196C206.128 256.196 218.163 251.221 227.23 242.154C236.297 233.088 241.271 221.052 241.271 208.294C241.271 195.537 236.297 183.501 227.23 174.435C218.163 165.368 206.128 160.393 193.37 160.393Z" fill="#C27A1D"/>
<path d="M211.743 224.663L207.651 223.941L209.336 215.035L213.669 215.837C215.755 216.238 217.841 214.794 218.162 212.708C218.563 210.542 217.199 208.536 215.113 208.135L210.78 207.332L211.262 204.524C211.422 203.481 211.181 202.438 210.62 201.635C210.058 200.833 209.175 200.191 208.132 200.031C206.046 199.629 204.04 200.994 203.639 203.08L203.158 205.968L186.549 202.919C179.728 201.635 175.075 194.976 176.439 187.915C177.723 180.934 184.382 176.281 191.283 177.564L207.892 180.613L206.207 189.68L189.598 186.631C187.511 186.23 185.425 187.674 185.104 189.76C184.703 191.927 186.067 193.933 188.153 194.334L208.614 198.105C210.7 198.506 212.626 197.142 213.027 195.056L213.107 194.735L216.236 177.966C216.637 175.879 215.273 173.954 213.187 173.553L192.727 169.701C181.654 167.615 170.902 175.077 168.816 186.39C166.65 197.945 174.272 208.536 185.104 210.542L201.713 213.591L200.028 222.417L183.419 219.368C181.333 218.967 179.408 220.331 179.006 222.417L178.926 222.738L175.797 239.507C175.396 241.593 176.76 243.519 178.846 243.92L199.306 247.771C201.392 248.173 203.398 246.809 203.799 244.722C204.12 243.198 204.522 241.112 205.083 238.143L206.287 231.804L210.379 232.527C212.465 232.928 214.551 231.483 214.872 229.397C215.193 227.07 213.829 225.065 211.743 224.663ZM196.979 239.186L184.222 236.779L185.907 227.712L198.664 230.119L196.979 239.186Z" fill="#C88A1D"/>
<path d="M310.232 104.028C310.232 104.028 315.606 98.0927 321.061 99.2156C326.515 100.258 327.798 104.59 327.237 105.552C326.595 106.515 324.75 107.798 322.023 107.156C319.216 106.515 310.232 104.028 310.232 104.028Z" fill="#F7A491"/>
<path d="M300.047 251.373C299.646 252.336 299.886 253.138 300.448 253.86C301.571 255.223 304.057 256.427 306.865 257.469C307.266 257.63 307.586 257.71 307.827 257.87C307.907 257.87 307.988 257.951 308.068 257.951C308.148 257.951 308.228 258.031 308.228 258.031C310.955 259.234 310.314 259.956 315.287 262.603C320.981 265.651 323.869 264.768 324.591 264.046C325.152 263.485 322.987 261.64 320.58 259.555C320.42 259.474 320.34 259.394 320.179 259.234C319.859 258.993 319.538 258.672 319.217 258.352C316.329 255.785 316.329 254.181 315.206 249.368C314.324 245.438 314.083 226.107 314.083 226.107L305.581 227.391C305.581 227.391 307.747 242.069 305.742 245.117C304.699 246.721 303.095 247.283 301.972 248.566C301.892 248.646 301.811 248.726 301.731 248.807C301.09 249.609 300.448 250.411 300.047 251.373Z" fill="#F7A491"/>
<path d="M300.047 251.373C299.646 252.336 299.886 253.138 300.448 253.86C301.651 255.223 304.137 256.346 306.865 257.469C307.266 257.629 307.506 257.71 307.827 257.87C307.907 257.87 307.988 257.95 308.068 257.95C308.148 257.95 308.228 258.03 308.228 258.03C310.955 259.234 310.314 259.956 315.287 262.602C320.981 265.65 323.869 264.768 324.591 264.046C325.152 263.485 322.987 261.64 320.58 259.554C319.618 259.554 315.367 259.234 311.276 256.507C307.667 254.1 304.619 250.491 302.052 248.646C301.972 248.726 301.892 248.806 301.811 248.887C301.09 249.609 300.448 250.411 300.047 251.373Z" fill="#3C8F7C"/>
<path d="M367.584 246.239C368.146 249.046 372.156 248.565 376.648 247.522C381.14 246.399 380.097 247.683 386.433 247.041C392.77 246.319 394.695 243.993 394.936 243.031C395.096 242.229 391.968 241.908 388.599 241.507C388.198 241.426 387.717 241.427 387.316 241.346C383.466 240.865 380.739 238.379 377.209 236.373C373.921 234.448 369.028 226.668 369.028 226.668L360.285 227.39C360.285 227.39 364.857 234.368 366.622 237.336C367.664 239.1 367.584 241.507 367.504 243.271C367.424 244.234 367.344 245.277 367.584 246.239Z" fill="#F7A491"/>
<path d="M376.566 247.523C381.057 246.4 380.015 247.683 386.351 247.042C392.688 246.32 394.613 243.994 394.853 243.031C395.014 242.229 391.886 241.908 388.517 241.507V241.588C388.517 241.588 384.667 244.315 379.373 244.395C375.042 244.475 370.47 243.272 367.502 243.352C367.422 244.315 367.342 245.357 367.582 246.32C368.144 249.047 372.154 248.646 376.566 247.523Z" fill="#3C8F7C"/>
<path d="M334.055 190.414L315.206 241.106C315.206 241.106 312.318 241.347 309.511 240.625C306.944 239.903 304.057 237.978 304.057 237.978C304.057 237.978 308.709 189.371 317.291 179.185C325.874 168.998 334.055 190.414 334.055 190.414Z" fill="#355389"/>
<path d="M259.622 169.88C259.622 169.88 313.683 151.593 325.795 155.443C337.826 159.293 374.081 231.401 374.081 231.401C374.081 231.401 373.279 232.444 371.033 233.326C368.947 234.128 363.974 234.048 363.974 234.048C363.974 234.048 331.249 206.055 327.399 197.873C323.549 189.692 321.945 181.912 318.095 182.714C314.244 183.516 267.884 201.804 257.376 190.895C246.869 179.987 249.596 165.79 249.596 165.79L259.622 169.88Z" fill="#466EB6"/>
<path d="M290.501 40.9839C288.175 39.7005 285.368 39.5401 283.443 39.6203C283.924 39.1391 284.967 38.8984 284.967 38.8984C283.763 38.738 281.036 39.9412 281.036 39.9412C264.112 33.4442 261.465 58.3091 261.866 64.0842C262.187 69.8592 262.267 76.5166 253.845 81.7302C237.242 91.9168 251.279 109.723 251.279 109.723C251.439 109.803 258.979 122.717 258.979 122.717C258.578 118.065 280.074 93.3606 291.383 85.9813C294.11 81.9709 295.073 74.8322 295.153 74.2708C294.672 79.8854 293.709 83.0938 292.827 84.8584C302.212 76.0354 296.677 44.4329 290.501 40.9839Z" fill="#184655"/>
<path d="M290.582 86.3016C290.663 86.3016 285.128 89.1891 281.038 88.0662C277.188 87.0235 274.621 81.9703 274.701 81.9703C276.305 81.6494 276.867 79.4036 276.786 69.6982L277.508 69.8587L290.021 72.3452C290.021 72.3452 289.7 76.2754 289.7 79.965C289.62 83.013 289.78 85.9807 290.582 86.3016Z" fill="#F7A491"/>
<path d="M289.94 72.2658C289.94 72.2658 289.62 76.196 289.62 79.8857C282.641 79.7252 278.952 73.3085 277.428 69.7793L289.94 72.2658Z" fill="#F5866D"/>
<path d="M276.145 68.4156C276.145 68.4156 272.455 62.6406 271.573 57.6676C270.931 54.1384 272.776 40.984 285.93 42.9091C285.93 42.9091 289.78 43.3101 293.309 45.7164C296.197 47.6414 300.288 51.8123 295.716 63.2822L294.513 67.1323L276.145 68.4156Z" fill="#184655"/>
<path d="M292.266 75.7946C292.266 75.7946 275.743 76.0353 275.743 65.7685C275.743 55.4215 273.577 48.5234 284.165 47.962C294.753 47.3203 296.758 51.2506 297.64 54.6996C298.442 58.1486 296.598 75.4738 292.266 75.7946Z" fill="#F7A491"/>
<path d="M297.079 48.9255C294.512 45.7973 292.587 46.5192 291.464 47.4015C287.855 42.0275 276.626 49.8078 276.626 49.8078C275.503 57.1871 270.209 61.4382 270.209 61.4382C270.209 61.4382 273.257 63.283 280.155 61.5184C285.609 60.0746 289.62 52.2943 291.063 49.0859C292.026 49.9682 294.111 51.9734 294.753 53.9787C295.555 56.6256 295.956 61.9996 297.48 61.8392C297.48 61.8392 300.929 53.5776 297.079 48.9255Z" fill="#184655"/>
<path d="M246.947 170.201C247.83 172.688 250.557 173.33 254.246 172.929C261.225 172.126 271.652 167.394 279.111 164.186C290.501 159.213 295.715 163.865 299.324 160.737C302.933 157.609 295.153 150.55 301.891 118.065C304.217 106.996 289.699 83.4149 289.699 83.4149C289.699 83.4149 288.416 90.3931 274.62 82.0514C274.379 81.8909 263.39 99.7776 263.39 99.7776C263.39 99.7776 252.081 124.081 253.685 130.899C256.813 143.893 244.381 162.983 246.947 170.201Z" fill="#FAE0B2"/>
<path d="M289.779 83.334L298.362 118.385C298.362 118.385 299.404 120.23 301.089 122.957C305.019 129.294 312.238 140.042 316.89 141.165C319.216 141.726 324.029 139.801 329.403 137.074C339.589 131.941 327.237 105.472 327.237 105.472C328.039 100.82 310.233 104.028 310.233 104.028C310.233 104.028 323.868 124.562 321.462 124.722C316.168 125.123 310.794 99.6165 305.901 91.1143C302.372 85.0184 289.779 83.334 289.779 83.334Z" fill="#FAE0B2"/>
<path d="M246.947 170.201C247.83 172.688 250.557 173.33 254.246 172.929C259.059 170.843 279.994 162.742 279.753 157.208C279.432 149.106 275.742 148.786 278.309 138.759C280.395 130.738 261.064 115.739 258.016 112.451C252.241 123.439 252.081 124.001 253.685 130.819C256.813 143.893 244.381 162.983 246.947 170.201Z" fill="#FAE0B2"/>
<path d="M301.01 123.038C304.94 129.375 312.159 140.123 316.811 141.246C319.137 141.807 323.95 139.882 329.324 137.155C325.393 138.118 321.543 138.118 317.854 137.797C313.843 137.396 312.64 132.503 306.304 125.043C302.213 120.231 301.25 121.434 301.01 123.038Z" fill="#CD4339"/>
<path d="M274.62 81.9707C274.62 81.9707 256.413 83.8155 253.285 90.3927C250.237 96.9699 241.173 122.877 243.82 134.748C246.467 146.619 270.129 125.925 270.129 125.925L274.62 81.9707Z" fill="#FAE0B2"/>
<path d="M254.248 172.929C254.248 172.929 254.248 178.544 263.633 176.859C273.017 175.175 335.34 164.748 335.34 164.748L330.928 158.732L262.991 174.854L258.98 171.966C259.061 171.966 259.061 172.287 254.248 172.929Z" fill="#355389"/>
<path d="M354.189 159.133L262.991 174.934C258.9 175.656 254.97 172.929 254.248 168.758L246.307 123.039C245.585 118.948 248.312 115.018 252.483 114.296L343.601 98.5747C347.692 97.8528 351.622 100.58 352.344 104.751L360.285 150.47C361.087 154.481 358.279 158.411 354.189 159.133Z" fill="#3A7F62"/>
<path d="M322.508 151.512C322.669 151.432 322.829 151.432 322.909 151.352C323.07 151.432 323.23 151.512 323.391 151.672C323.872 151.993 324.032 152.394 323.872 152.956C323.792 153.116 323.711 153.277 323.711 153.437C323.551 153.517 323.391 153.517 323.15 153.597C322.669 153.678 322.268 153.597 322.027 153.196C321.786 152.795 321.786 152.314 322.107 151.913C322.268 151.753 322.348 151.672 322.508 151.512ZM322.348 152.073C322.428 152.474 322.428 152.795 322.508 153.277C322.669 152.956 322.749 152.876 322.829 152.635C322.99 152.795 323.15 152.956 323.23 153.116C323.23 152.795 323.23 152.635 323.31 152.394C323.391 151.993 323.31 151.913 322.909 151.913C322.829 151.993 322.669 151.993 322.348 152.073Z" fill="white"/>
<path d="M322.507 151.512C322.347 151.672 322.267 151.752 322.106 151.913C321.785 152.314 321.785 152.795 322.026 153.196C322.267 153.597 322.668 153.677 323.149 153.597C323.309 153.597 323.47 153.517 323.71 153.437C323.39 153.998 322.828 153.918 322.347 153.758C321.866 153.597 321.625 153.036 321.625 152.474C321.705 151.993 321.946 151.592 322.507 151.512Z" fill="black"/>
<path d="M323.71 153.437C323.791 153.277 323.871 153.116 323.871 152.956C324.031 152.394 323.871 151.993 323.389 151.672C323.229 151.592 323.069 151.512 322.908 151.352C323.47 151.432 323.951 151.672 324.111 152.234C324.272 152.715 324.192 153.196 323.71 153.437Z" fill="black"/>
<path d="M301.412 116.299C312.722 114.134 323.55 121.433 325.715 132.582C327.881 143.972 320.582 154.72 309.192 156.885C298.123 158.971 287.295 151.832 285.13 140.442C282.964 129.374 290.343 118.465 301.412 116.299ZM324.994 132.662C322.908 121.914 312.401 114.856 301.572 117.021C290.905 119.107 283.846 129.614 285.851 140.282C287.776 150.789 297.963 158.249 309.192 156.083C320.181 153.998 327.159 143.651 324.994 132.662Z" fill="white"/>
<path d="M322.346 152.074C322.667 151.994 322.827 151.994 322.987 151.994C323.388 151.994 323.469 152.074 323.388 152.475C323.388 152.716 323.308 152.876 323.308 153.197C323.148 153.036 323.068 152.876 322.907 152.716C322.747 152.956 322.667 153.117 322.586 153.357C322.506 152.796 322.426 152.475 322.346 152.074ZM323.228 152.154C323.068 152.074 322.907 152.074 322.907 152.074C322.827 152.074 322.747 152.154 322.747 152.234C322.827 152.314 322.907 152.395 322.987 152.395C322.987 152.395 323.068 152.314 323.228 152.154Z" fill="black"/>
<path d="M323.229 152.153C323.069 152.314 322.989 152.394 322.909 152.394C322.828 152.394 322.748 152.314 322.668 152.234C322.748 152.153 322.748 152.073 322.828 152.073C322.989 152.073 323.069 152.153 323.229 152.153Z" fill="white"/>
<path d="M307.749 148.624C301.092 149.908 294.595 145.496 293.311 138.839C291.948 131.781 296.68 125.524 303.257 124.321C309.834 123.198 316.251 127.61 317.534 134.187C318.818 140.844 314.406 147.341 307.749 148.624ZM302.295 144.213C302.616 144.774 302.455 145.175 302.375 145.496C302.215 145.978 302.054 146.379 301.894 146.86C301.813 147.341 301.894 147.421 302.455 147.582C302.535 147.101 302.696 146.619 302.776 146.138C302.856 145.897 302.856 145.577 302.936 145.336C303.337 144.373 303.017 143.652 302.295 143.01C301.974 142.689 301.573 142.368 301.332 142.047C300.851 141.566 300.771 140.924 301.011 140.283C301.172 139.882 301.332 139.561 301.493 139.16C301.894 138.518 301.813 137.796 301.493 137.155C301.252 136.754 301.011 136.272 300.771 135.871C300.289 134.989 300.45 134.107 300.931 133.144C301.011 133.305 301.011 133.305 301.011 133.385C300.691 134.668 301.092 135.791 301.894 136.754C302.455 137.395 302.455 138.197 302.134 138.919C301.894 139.32 301.733 139.801 301.573 140.283C301.332 141.005 301.573 141.646 302.134 142.208C302.295 142.368 302.535 142.529 302.696 142.689C303.819 143.652 303.979 144.293 303.498 145.657C303.418 145.817 303.337 145.978 303.257 146.218C303.177 146.539 303.097 146.78 303.097 147.101C303.017 147.742 303.257 147.903 303.979 147.742C303.738 147.02 303.979 146.298 304.22 145.657C304.3 145.416 304.38 145.095 304.46 144.774C304.621 143.972 304.46 143.25 303.819 142.769C303.578 142.529 303.257 142.288 303.017 142.128C302.295 141.486 302.134 140.764 302.455 139.882C302.535 139.641 302.616 139.4 302.776 139.24C303.257 138.358 303.177 137.636 302.616 136.834C302.295 136.433 302.054 135.951 301.813 135.55C301.412 134.748 301.332 133.946 301.813 133.144C301.733 133.866 301.733 134.668 302.134 135.31C302.455 135.871 302.776 136.352 303.097 136.834C303.658 137.556 303.658 138.277 303.337 138.999C303.177 139.32 303.017 139.721 302.936 140.042C302.696 140.764 302.856 141.406 303.418 141.887C303.658 142.128 303.979 142.368 304.3 142.609C304.942 143.25 305.182 143.972 304.942 144.774C304.861 145.095 304.701 145.416 304.701 145.737C304.621 146.298 304.621 146.94 304.621 147.502C304.701 148.063 304.861 148.063 305.503 147.822C305.022 147.02 305.182 146.138 305.423 145.256C305.503 145.015 305.583 144.774 305.663 144.454C305.824 143.652 305.663 142.93 305.022 142.368C304.701 142.047 304.3 141.726 303.979 141.406C303.578 141.005 303.418 140.443 303.578 139.882C303.738 139.4 303.899 138.919 304.059 138.438C304.22 138.037 304.46 137.876 304.861 137.876C305.262 137.876 305.583 137.796 305.984 137.636C306.385 137.475 306.706 137.556 307.027 137.876C307.348 138.197 307.669 138.598 308.07 138.919C308.471 139.4 308.631 139.962 308.391 140.604C308.23 140.924 308.07 141.245 307.909 141.646C307.428 142.609 307.508 143.571 308.15 144.373C308.872 145.175 309.433 146.058 309.514 147.181C310.235 146.94 310.316 146.78 310.155 146.218C309.995 145.496 309.514 144.855 308.952 144.293C308.23 143.571 308.15 142.769 308.551 141.887C308.711 141.486 308.872 141.165 309.032 140.764C309.353 140.122 309.273 139.481 308.792 138.919C308.631 138.759 308.471 138.518 308.31 138.358C307.348 137.636 307.107 136.673 307.508 135.47C307.508 135.39 307.589 135.23 307.589 135.149C307.909 134.026 307.829 132.903 307.027 131.941C307.027 131.941 307.027 131.861 307.027 131.781C307.829 132.342 308.07 133.144 308.07 134.026C308.07 134.668 307.99 135.39 307.829 136.032C307.749 136.753 307.909 137.395 308.551 137.876C308.792 138.037 308.952 138.197 309.113 138.438C309.834 139.08 309.915 139.721 309.594 140.604C309.433 141.005 309.273 141.325 309.113 141.726C308.711 142.529 308.792 143.25 309.353 143.972C309.674 144.373 309.995 144.694 310.316 145.095C310.556 145.496 310.797 145.978 311.038 146.379C311.599 146.058 311.679 145.817 311.358 145.416C311.038 144.935 310.717 144.534 310.316 144.133C309.674 143.491 309.594 142.689 309.915 141.887C310.075 141.486 310.235 141.165 310.396 140.764C310.797 139.962 310.717 139.24 310.155 138.518C309.915 138.197 309.594 137.876 309.273 137.556C308.631 136.994 308.391 136.272 308.631 135.47C308.631 135.31 308.711 135.23 308.711 135.069C308.952 134.107 308.792 133.224 308.31 132.422C308.23 132.262 308.15 132.101 308.07 131.941C308.872 132.342 309.273 133.064 309.273 133.866C309.273 134.427 309.273 135.069 309.193 135.631C309.113 136.352 309.353 136.994 309.834 137.556C310.075 137.796 310.396 138.117 310.636 138.358C311.278 138.999 311.358 139.721 311.038 140.523C310.797 141.005 310.556 141.486 310.396 141.967C310.155 142.448 310.155 142.93 310.476 143.331C311.038 144.133 311.679 144.855 312.321 145.657C312.802 145.496 312.882 145.256 312.642 144.935C312.321 144.534 311.92 144.133 311.599 143.732C311.358 143.411 311.118 143.17 311.198 142.689C311.84 143.491 312.562 144.213 313.203 145.015C313.524 144.694 313.765 144.454 313.925 144.213C313.765 143.972 313.684 143.732 313.524 143.411C314.005 143.25 314.807 143.571 314.807 142.689C314.567 142.609 314.326 142.448 314.085 142.368C314.406 142.047 314.406 142.047 314.968 142.047C315.529 142.047 315.529 142.047 315.609 141.406C315.208 141.325 314.807 141.165 314.326 141.085C314.246 141.245 314.166 141.406 314.166 141.486C314.005 142.047 313.925 142.047 313.444 141.887C313.043 141.807 312.722 141.646 312.401 141.486C311.759 141.245 311.679 141.165 311.92 140.523C312.16 139.721 312 139.08 311.519 138.518C311.278 138.197 311.038 137.876 310.717 137.636C310.075 137.074 309.834 136.352 309.915 135.47C309.995 134.748 309.995 134.026 309.754 133.304C309.594 132.903 309.353 132.583 309.113 132.021C309.353 132.182 309.514 132.262 309.594 132.342C310.235 133.144 310.636 134.026 310.476 135.069C310.316 136.032 310.556 136.834 311.278 137.556C311.519 137.876 311.84 138.197 312 138.518C312.562 139.4 313.203 139.882 314.326 139.882C314.406 140.283 314.567 140.523 314.968 140.523C315.208 140.523 315.449 140.604 315.69 140.684C315.93 140.764 316.171 140.764 316.251 140.443C316.331 140.122 316.171 139.962 315.93 139.882C315.529 139.801 315.128 139.641 314.807 139.481C314.727 139.4 314.647 139.24 314.567 139.16C314.727 139.08 314.888 138.919 314.968 138.919C315.289 138.999 315.609 139.08 316.011 139.16C316.652 139.32 316.813 139.16 316.652 138.438C316.251 138.358 315.85 138.277 315.449 138.117C315.048 137.957 314.567 138.037 314.406 137.475C315.289 137.155 316.091 137.957 316.973 137.636C316.973 137.395 316.973 137.155 316.893 136.914C316.01 136.673 315.208 136.513 314.406 136.352C314.085 136.272 313.845 136.192 313.845 135.711C314.166 135.711 314.567 135.711 314.888 135.791C315.289 135.871 315.69 135.951 316.091 136.032C316.412 136.112 316.732 136.192 316.893 135.871C317.053 135.55 317.053 135.23 316.813 135.069C316.251 135.069 315.85 135.149 315.449 135.069C314.807 134.989 314.166 134.828 313.444 134.668C313.123 134.588 312.963 134.427 312.963 134.107C313.444 133.946 313.925 134.026 314.406 134.187C314.807 134.267 315.289 134.347 315.77 134.347C316.572 134.267 316.652 134.026 316.412 133.304C314.326 126.246 306.786 124 301.894 125.685C296.68 127.529 293.632 132.502 294.113 137.796C294.194 138.438 294.434 138.598 295.076 138.358C295.557 138.117 296.119 137.876 296.52 137.556C296.921 137.315 297.242 137.074 297.803 137.074C297.482 137.876 295.958 138.999 294.595 139.32C294.595 140.283 294.835 140.363 295.637 139.962C295.958 139.801 296.199 139.561 296.52 139.4C296.84 139.16 297.161 138.919 297.562 138.999C297.482 139.561 297.482 139.561 297.161 139.721C296.6 140.122 295.958 140.604 295.397 141.005C295.156 141.165 295.076 141.325 295.236 141.646C295.397 141.967 295.718 141.887 295.958 141.807C296.199 141.646 296.439 141.406 296.76 141.245C297.001 141.005 297.322 140.844 297.803 140.924C297.482 141.887 296.439 142.128 295.958 142.849C296.279 143.491 296.359 143.491 296.84 143.17C297.161 142.93 297.562 142.609 297.883 142.368C298.284 142.689 298.284 142.93 297.963 143.17C297.562 143.491 297.161 143.812 296.6 144.213C297.001 144.373 297.322 144.694 297.402 144.614C297.883 144.213 298.685 144.053 298.525 143.17C299.487 142.849 299.969 142.208 299.969 141.165C299.969 140.924 300.129 140.684 300.209 140.443C300.61 139.561 300.61 138.679 300.37 137.796C300.209 137.395 300.049 136.994 299.888 136.593C299.568 135.871 299.648 135.069 300.129 134.427C299.969 135.47 300.129 136.433 300.691 137.235C301.252 138.117 301.252 139.08 300.851 139.962C300.771 140.122 300.691 140.283 300.61 140.443C300.289 141.245 300.37 142.047 300.851 142.849C301.011 143.01 301.092 143.25 301.252 143.491C300.61 144.053 300.129 144.694 299.487 145.095C298.685 144.373 298.525 144.373 297.803 145.256C297.963 145.416 298.124 145.577 298.284 145.657C298.685 145.496 299.006 145.015 299.487 145.496C299.247 145.737 299.086 145.897 298.846 146.138C299.086 146.619 299.407 146.619 299.888 146.379C300.289 146.218 300.45 146.379 300.37 146.86C300.37 146.94 300.37 147.02 300.289 147.181C300.691 147.341 301.092 147.502 301.493 147.662C301.733 146.298 301.974 145.336 302.295 144.213Z" fill="white"/>
<path d="M299.729 118.947C300.932 118.707 301.974 118.466 303.017 118.306C304.14 118.145 304.621 118.787 304.3 119.91C304.3 119.99 304.22 120.15 304.22 120.231C304.381 120.391 304.621 120.552 304.782 120.712C305.423 121.354 305.183 122.557 304.3 122.878C303.258 123.198 302.135 123.359 301.092 123.599C301.012 123.599 300.932 123.519 300.771 123.519C300.45 122.075 300.13 120.552 299.729 118.947ZM302.375 122.075C303.097 121.995 303.418 121.755 303.258 121.434C303.017 120.953 302.616 121.193 302.215 121.193C302.215 121.594 302.295 121.835 302.375 122.075ZM301.814 120.15C302.215 120.231 302.536 120.231 302.616 119.91C302.696 119.83 302.536 119.509 302.456 119.429C302.215 119.348 301.974 119.429 301.654 119.429C301.734 119.749 301.734 119.91 301.814 120.15Z" fill="white"/>
<path d="M296.52 126.087C296.199 125.605 295.959 125.124 295.638 124.643C295.076 123.761 294.435 122.878 293.793 121.916C294.836 121.354 295.798 120.713 296.841 120.231C297.884 119.75 299.007 120.632 298.926 121.836C298.846 122.558 299.167 122.798 299.648 123.039C299.969 123.199 300.29 123.44 300.771 123.761C300.29 124.001 299.889 124.242 299.488 124.322C299.327 124.402 299.087 124.322 298.846 124.242C298.525 124.162 298.285 123.921 297.964 123.841C297.723 123.761 297.483 123.68 297.322 124.001C297.483 124.322 297.723 124.643 297.884 125.044C297.563 125.445 297.162 125.926 296.52 126.087ZM295.878 121.996C296.119 122.397 296.36 122.638 296.6 122.959C296.841 122.718 297.001 122.477 297.162 122.237C297.242 122.076 297.242 121.836 297.162 121.755C297.082 121.675 296.841 121.595 296.681 121.595C296.44 121.675 296.199 121.836 295.878 121.996Z" fill="white"/>
<path d="M296.52 126.087C296.279 126.408 296.038 126.728 295.798 126.969C295.477 127.29 295.156 127.129 294.755 127.129C294.194 127.049 293.472 127.932 293.632 128.493C293.712 128.734 293.953 129.054 293.873 129.295C293.712 129.776 293.472 130.177 293.151 130.659C292.991 130.498 292.83 130.338 292.75 130.177C291.948 129.054 291.226 127.932 290.424 126.809C290.023 126.247 290.023 126.247 290.424 125.686C290.664 125.365 290.905 125.044 291.146 124.723C291.386 124.322 291.707 124.322 292.108 124.483C293.712 125.044 295.076 125.525 296.52 126.087ZM293.231 126.488C292.83 126.327 292.429 126.247 292.028 126.087C292.028 126.167 291.948 126.167 291.948 126.247C292.188 126.568 292.349 126.889 292.67 127.21C292.91 126.889 293.071 126.728 293.231 126.488Z" fill="white"/>
<path d="M303.256 151.352C303.577 152.796 302.695 154.159 301.251 154.48C299.807 154.801 298.283 153.838 297.963 152.394C297.642 151.031 298.604 149.587 299.888 149.347C301.492 149.026 302.936 149.908 303.256 151.352ZM301.813 151.673C301.732 151.111 301.492 150.79 301.091 150.63C300.77 150.469 300.369 150.63 300.128 150.871C299.727 151.272 299.567 151.833 299.647 152.394C299.727 152.796 299.968 153.116 300.369 153.197C300.69 153.357 301.091 153.197 301.331 152.956C301.652 152.555 301.893 152.074 301.813 151.673Z" fill="white"/>
<path d="M305.823 117.984C306.465 118.065 306.946 118.145 307.588 118.225C307.507 118.626 307.507 118.947 307.427 119.268C307.347 119.829 307.267 120.471 307.187 121.032C307.106 121.594 307.267 121.915 307.668 121.995C308.069 122.075 308.31 121.915 308.47 121.273C308.63 120.631 308.791 119.909 308.951 119.188C309.031 118.947 309.112 118.706 309.192 118.385C309.753 118.546 310.235 118.626 310.796 118.786C310.555 119.99 310.475 121.193 309.994 122.235C309.673 122.957 309.192 123.278 308.47 123.278C307.748 123.278 307.026 123.118 306.385 122.797C305.903 122.556 305.502 122.155 305.502 121.514C305.422 120.391 305.663 119.268 305.823 117.984Z" fill="white"/>
<path d="M316.731 128.893C316.571 128.732 316.491 128.732 316.411 128.652C315.689 128.011 315.368 127.289 315.849 126.406C315.929 126.326 315.929 126.166 316.01 125.845C315.609 126.246 315.288 126.487 314.887 126.888C314.486 126.567 314.165 126.246 313.764 125.845C314.806 124.642 315.929 123.439 316.972 122.155C317.453 122.556 317.774 122.877 318.255 123.198C317.935 123.599 317.694 124 317.293 124.481C317.694 124.481 317.935 124.481 318.175 124.401C319.057 124.16 319.619 124.481 320.02 125.203C320.02 125.283 320.1 125.364 320.18 125.444C320.18 125.444 320.18 125.524 320.18 125.604C319.779 125.765 319.378 125.845 318.897 125.845C317.935 125.845 317.614 126.166 317.293 127.128C317.132 127.69 316.972 128.251 316.731 128.893Z" fill="white"/>
<path d="M290.103 137.235C290.825 135.711 290.825 135.711 290.344 134.989C290.183 135.23 290.023 135.47 289.863 135.711C289.702 135.952 289.702 136.192 289.542 136.433C288.98 137.315 287.857 137.395 287.135 136.593C286.815 136.192 286.574 135.711 286.654 135.15C286.654 134.668 286.734 134.267 286.895 133.786C287.216 132.904 287.376 132.904 288.258 133.385C288.018 134.027 287.777 134.588 288.018 135.31C288.419 135.39 288.499 135.069 288.579 134.829C288.74 134.508 288.82 134.187 288.98 133.866C289.542 132.824 290.986 132.824 291.547 133.866C292.108 134.749 291.948 136.353 291.306 137.155C291.146 137.395 290.905 137.476 290.584 137.395C290.504 137.395 290.264 137.315 290.103 137.235Z" fill="white"/>
<path d="M318.979 149.346C318.578 149.025 318.337 148.785 318.017 148.544C317.215 147.903 316.493 147.181 315.691 146.539C315.289 146.138 315.29 146.058 315.61 145.576C316.011 145.015 316.412 144.454 316.813 143.972C317.375 143.25 317.455 143.25 318.177 143.892C317.776 144.454 317.455 145.015 317.054 145.576C317.215 145.737 317.375 145.817 317.616 145.978C317.856 145.737 318.017 145.496 318.257 145.256C318.819 144.534 318.819 144.534 319.621 145.256C319.46 145.496 319.3 145.737 319.14 145.978C318.979 146.218 318.819 146.379 318.658 146.699C318.819 146.86 319.059 147.02 319.22 147.181C319.541 146.86 319.781 146.539 320.022 146.218C320.583 145.496 320.744 145.496 321.466 146.298C320.583 147.261 319.781 148.223 318.979 149.346Z" fill="white"/>
<path d="M320.582 128.492C320.582 128.893 320.582 129.134 320.582 129.375C320.582 129.695 320.662 130.096 320.662 130.417C320.662 131.54 319.619 132.182 318.657 131.701C317.694 131.3 316.892 129.936 316.972 128.974C316.972 128.492 317.213 128.332 318.015 128.332C318.256 128.974 318.095 129.695 318.737 130.177C319.058 129.936 319.058 129.695 318.978 129.375C318.897 129.134 318.897 128.974 318.817 128.733C318.657 127.53 319.699 126.728 320.822 127.129C321.785 127.45 322.507 128.893 322.507 129.776C322.507 130.096 322.346 130.177 321.624 130.177C321.304 129.776 321.544 128.893 320.582 128.492Z" fill="white"/>
<path d="M315.85 148.143C316.091 148.464 316.251 148.705 316.411 148.945C315.93 149.346 315.529 149.667 315.128 149.988C315.288 150.229 315.369 150.389 315.529 150.63C315.93 150.389 316.251 150.148 316.572 149.908C317.374 149.346 317.374 149.427 317.935 150.309C316.973 151.191 315.93 151.833 314.727 152.555C313.764 151.191 312.962 149.908 312.08 148.464C312.962 147.822 313.764 147.181 314.567 146.539C314.807 146.379 315.048 146.379 315.208 146.699C315.288 146.86 315.369 146.94 315.529 147.1C315.128 147.421 314.727 147.742 314.326 148.063C313.925 148.384 313.925 148.384 314.406 148.865C314.807 148.785 315.288 148.464 315.85 148.143Z" fill="white"/>
<path d="M308.148 149.988C309.191 149.587 310.154 149.267 311.116 149.026C311.196 149.026 311.357 149.026 311.517 149.026C311.678 149.347 311.838 149.668 311.999 150.069C311.357 150.309 310.715 150.55 310.073 150.871C310.154 151.111 310.154 151.272 310.234 151.512C310.795 151.352 311.357 151.192 311.918 151.111C311.998 151.512 312.159 151.833 312.239 152.234C311.678 152.475 311.196 152.715 310.635 152.876C310.715 153.197 310.795 153.518 310.795 153.838C310.876 154.32 310.795 154.48 310.394 154.641C310.314 154.641 310.234 154.721 310.154 154.721C309.432 154.881 309.271 154.801 309.111 154.159C308.79 153.117 308.549 152.154 308.309 151.111C308.309 150.71 308.229 150.309 308.148 149.988Z" fill="white"/>
<path d="M307.668 150.149C307.668 150.63 307.748 150.951 307.748 151.352C307.027 151.432 306.385 151.513 305.823 151.513C305.663 152.154 305.663 152.235 306.225 152.235C306.626 152.235 306.946 152.235 307.347 152.235C307.428 152.475 307.428 152.716 307.508 152.876C307.588 153.197 307.428 153.438 307.027 153.438C306.946 153.438 306.866 153.438 306.786 153.438C305.743 153.518 305.663 153.518 305.583 154.561C305.503 155.042 305.342 155.122 304.941 155.122C304.059 155.122 303.898 155.042 303.898 154.16C303.898 153.037 303.979 151.914 304.059 150.791C304.059 150.149 304.139 150.069 304.781 150.069C305.663 150.149 306.626 150.149 307.668 150.149Z" fill="white"/>
<path d="M315.128 122.556C314.807 122.236 314.647 121.995 314.326 121.754C313.925 121.434 313.524 121.273 313.043 121.514C312.562 121.835 312.241 122.236 312.241 122.797C312.241 123.359 312.562 123.599 313.043 123.84C313.364 124 313.685 124.08 314.005 124.161C313.845 125.043 313.685 125.364 312.562 125.043C311.439 124.722 310.717 123.679 310.717 122.556C310.717 121.434 311.358 120.471 312.321 120.07C313.444 119.669 315.128 120.23 315.69 121.273C315.85 121.594 315.85 121.835 315.61 122.075C315.529 122.236 315.369 122.396 315.128 122.556Z" fill="white"/>
<path d="M297.241 151.432C297.081 152.475 296.92 152.635 295.958 152.395C294.915 152.154 294.113 151.352 293.872 150.309C293.632 149.266 294.113 148.224 294.995 147.662C295.958 147.021 297 147.101 297.963 147.742C298.123 147.823 298.284 147.983 298.364 148.063C299.166 148.946 299.006 149.186 298.123 149.587C297.963 149.427 297.722 149.186 297.482 149.026C297 148.625 296.519 148.545 296.038 148.865C295.557 149.186 295.316 149.668 295.396 150.229C295.476 150.79 295.797 151.111 296.279 151.272C296.68 151.352 297 151.352 297.241 151.432Z" fill="white"/>
<path d="M288.979 128.011C289.38 128.172 289.781 128.252 290.182 128.412C290.022 128.894 289.942 129.295 289.781 129.776C290.824 130.177 291.947 130.658 293.07 131.059C292.909 131.621 292.749 132.022 292.508 132.583C291.386 132.182 290.343 131.781 289.14 131.38C288.979 131.781 288.739 132.182 288.578 132.583C288.338 132.503 288.177 132.423 287.937 132.343C287.616 132.182 287.455 132.022 287.616 131.621C288.017 130.498 288.498 129.295 288.979 128.011Z" fill="white"/>
<path d="M292.508 142.529C292.268 142.93 291.947 143.331 291.867 143.732C291.787 144.133 292.027 144.534 292.107 144.935C291.706 144.855 291.305 144.614 290.904 144.694C290.503 144.774 290.263 145.175 289.861 145.496C289.861 145.256 289.781 145.015 289.861 144.855C289.942 144.293 289.861 143.892 289.22 143.732C289.059 143.651 288.899 143.491 288.578 143.331C288.979 143.25 289.22 143.09 289.46 143.09C289.942 143.09 290.182 142.849 290.263 142.368C290.263 142.127 290.343 141.967 290.423 141.807C290.503 141.807 290.583 141.807 290.583 141.807C290.904 142.609 291.546 142.849 292.348 142.529C292.348 142.529 292.428 142.529 292.508 142.529Z" fill="white"/>
<path d="M320.662 139.401C320.662 139 320.662 138.759 320.662 138.519C320.742 138.037 320.582 137.797 320.181 137.636C319.94 137.556 319.699 137.396 319.539 137.155C319.78 137.075 320.101 136.995 320.341 136.995C320.742 136.914 320.903 136.754 320.983 136.353C320.983 136.112 321.143 135.872 321.223 135.551C321.544 135.952 321.785 136.353 322.106 136.513C322.427 136.674 322.908 136.433 323.389 136.433C323.229 136.674 323.229 136.914 323.068 136.995C322.587 137.396 322.507 137.797 322.828 138.358C322.908 138.519 322.908 138.679 322.988 139C322.828 139 322.667 139 322.587 138.92C321.945 138.519 321.464 138.679 321.063 139.24C320.983 139.24 320.903 139.24 320.662 139.401Z" fill="white"/>
<path d="M302.296 144.213C301.975 145.336 301.734 146.298 301.413 147.341C301.012 147.181 300.611 147.02 300.21 146.86C300.21 146.779 300.21 146.699 300.29 146.539C300.371 146.058 300.21 145.897 299.809 146.058C299.328 146.218 299.007 146.218 298.766 145.817C299.007 145.576 299.167 145.416 299.408 145.175C298.927 144.694 298.606 145.175 298.205 145.336C298.045 145.175 297.884 145.095 297.724 144.935C298.526 144.052 298.606 143.972 299.408 144.774C300.05 144.373 300.611 143.732 301.173 143.17C301.012 142.929 300.852 142.769 300.772 142.528C300.29 141.807 300.21 141.004 300.531 140.122C300.611 139.962 300.691 139.801 300.772 139.641C301.253 138.678 301.253 137.796 300.611 136.914C300.05 136.112 299.889 135.149 300.05 134.106C299.568 134.748 299.488 135.55 299.809 136.272C299.97 136.673 300.13 137.074 300.29 137.475C300.611 138.358 300.531 139.24 300.13 140.122C300.05 140.363 299.889 140.603 299.889 140.844C299.889 141.887 299.328 142.528 298.446 142.849C298.526 143.732 297.804 143.892 297.323 144.293C297.242 144.373 296.922 144.133 296.521 143.892C297.082 143.491 297.483 143.17 297.884 142.849C298.205 142.609 298.205 142.368 297.804 142.047C297.483 142.288 297.082 142.609 296.761 142.849C296.28 143.25 296.2 143.17 295.879 142.528C296.36 141.807 297.403 141.646 297.724 140.603C297.242 140.443 297.002 140.684 296.681 140.924C296.44 141.085 296.2 141.325 295.879 141.486C295.638 141.646 295.398 141.646 295.157 141.325C294.997 141.085 295.157 140.844 295.317 140.684C295.879 140.283 296.521 139.801 297.082 139.4C297.403 139.16 297.403 139.16 297.483 138.678C297.002 138.598 296.761 138.919 296.44 139.079C296.119 139.24 295.879 139.48 295.558 139.641C294.756 140.042 294.515 139.962 294.515 138.999C295.879 138.678 297.483 137.555 297.724 136.753C297.242 136.673 296.841 136.994 296.44 137.235C295.959 137.555 295.478 137.796 294.997 138.037C294.355 138.277 294.114 138.117 294.034 137.475C293.553 132.181 296.601 127.208 301.814 125.364C306.707 123.679 314.247 125.925 316.332 132.983C316.573 133.705 316.412 134.026 315.691 134.026C315.209 134.026 314.808 133.946 314.327 133.866C313.846 133.786 313.364 133.625 312.883 133.786C312.883 134.187 313.044 134.347 313.364 134.347C314.006 134.507 314.648 134.668 315.37 134.748C315.771 134.828 316.252 134.748 316.733 134.748C316.974 134.909 316.894 135.229 316.814 135.55C316.653 135.871 316.332 135.791 316.011 135.711C315.61 135.63 315.209 135.55 314.808 135.47C314.487 135.39 314.167 135.47 313.766 135.39C313.766 135.871 313.926 135.951 314.327 136.031C315.129 136.192 315.931 136.432 316.814 136.593C316.814 136.834 316.813 137.074 316.894 137.315C316.011 137.636 315.209 136.834 314.327 137.154C314.407 137.796 314.969 137.716 315.37 137.796C315.771 137.956 316.172 138.037 316.573 138.117C316.733 138.839 316.573 138.999 315.931 138.839C315.61 138.759 315.29 138.598 314.888 138.598C314.728 138.598 314.568 138.759 314.487 138.839C314.568 138.919 314.648 139.079 314.728 139.16C315.129 139.32 315.45 139.4 315.851 139.561C316.092 139.641 316.252 139.801 316.172 140.122C316.092 140.443 315.851 140.443 315.61 140.363C315.37 140.283 315.129 140.202 314.888 140.202C314.407 140.202 314.247 139.962 314.247 139.561C313.204 139.641 312.482 139.079 311.921 138.197C311.68 137.876 311.439 137.555 311.199 137.235C310.477 136.513 310.236 135.711 310.397 134.748C310.557 133.705 310.156 132.823 309.514 132.021C309.434 131.941 309.274 131.861 309.033 131.7C309.354 132.262 309.514 132.582 309.675 132.983C309.915 133.705 309.996 134.427 309.835 135.149C309.675 136.031 309.915 136.753 310.637 137.315C310.958 137.555 311.199 137.876 311.439 138.197C311.921 138.759 312.081 139.48 311.841 140.202C311.6 140.924 311.68 140.924 312.322 141.165C312.643 141.325 313.044 141.405 313.364 141.566C313.846 141.726 313.926 141.646 314.086 141.165C314.086 141.085 314.167 141.004 314.247 140.764C314.648 140.844 315.129 141.004 315.53 141.085C315.45 141.807 315.45 141.807 314.888 141.726C314.407 141.726 314.407 141.726 314.006 142.047C314.247 142.127 314.487 142.288 314.728 142.368C314.808 143.25 314.006 142.929 313.445 143.09C313.605 143.411 313.685 143.651 313.846 143.892C313.605 144.133 313.365 144.373 313.124 144.694C312.402 143.892 311.76 143.17 311.119 142.368C311.038 142.769 311.279 143.09 311.52 143.411C311.841 143.812 312.242 144.213 312.562 144.614C312.803 144.935 312.723 145.175 312.242 145.336C311.68 144.614 311.038 143.812 310.397 143.01C310.076 142.609 310.156 142.127 310.317 141.646C310.557 141.165 310.718 140.684 310.958 140.202C311.359 139.4 311.199 138.678 310.557 138.037C310.317 137.796 309.996 137.475 309.755 137.235C309.194 136.673 309.033 136.112 309.113 135.31C309.194 134.748 309.194 134.106 309.194 133.545C309.194 132.663 308.793 132.021 307.99 131.62C308.071 131.78 308.151 131.941 308.231 132.101C308.712 132.903 308.873 133.786 308.632 134.748C308.632 134.909 308.552 134.989 308.552 135.149C308.311 135.951 308.472 136.673 309.194 137.235C309.514 137.475 309.835 137.876 310.076 138.197C310.637 138.919 310.798 139.641 310.317 140.443C310.156 140.764 309.996 141.165 309.835 141.566C309.514 142.368 309.675 143.17 310.236 143.812C310.637 144.213 310.958 144.694 311.279 145.095C311.6 145.576 311.52 145.737 310.958 146.058C310.718 145.657 310.557 145.175 310.236 144.774C309.996 144.373 309.595 144.052 309.274 143.651C308.712 142.929 308.632 142.208 309.033 141.405C309.194 141.085 309.434 140.684 309.514 140.283C309.835 139.4 309.755 138.759 309.033 138.117C308.873 137.956 308.632 137.716 308.472 137.555C307.91 137.074 307.67 136.432 307.75 135.711C307.83 135.069 307.91 134.347 307.99 133.705C307.99 132.823 307.75 132.021 306.948 131.459C306.948 131.54 306.868 131.62 306.948 131.62C307.67 132.582 307.83 133.705 307.509 134.828C307.509 134.908 307.429 135.069 307.429 135.149C307.028 136.272 307.269 137.235 308.231 138.037C308.392 138.197 308.552 138.358 308.712 138.598C309.194 139.16 309.274 139.801 308.953 140.443C308.793 140.844 308.632 141.165 308.472 141.566C308.071 142.448 308.151 143.25 308.873 143.972C309.434 144.534 309.835 145.095 310.076 145.897C310.236 146.459 310.156 146.619 309.434 146.86C309.354 145.737 308.793 144.854 308.071 144.052C307.349 143.25 307.269 142.288 307.83 141.325C307.99 141.004 308.231 140.684 308.311 140.283C308.552 139.721 308.472 139.079 307.99 138.598C307.67 138.277 307.349 137.876 306.948 137.555C306.627 137.235 306.306 137.154 305.905 137.315C305.584 137.395 305.183 137.555 304.782 137.555C304.381 137.555 304.14 137.716 303.98 138.117C303.82 138.598 303.659 139.079 303.499 139.561C303.258 140.122 303.419 140.684 303.9 141.085C304.221 141.405 304.541 141.726 304.943 142.047C305.584 142.609 305.825 143.33 305.584 144.133C305.504 144.373 305.424 144.614 305.344 144.935C305.103 145.817 304.862 146.619 305.424 147.501C304.782 147.742 304.541 147.662 304.541 147.181C304.461 146.619 304.541 145.977 304.622 145.416C304.622 145.095 304.782 144.774 304.862 144.453C305.023 143.571 304.862 142.849 304.221 142.288C303.98 142.047 303.659 141.807 303.338 141.566C302.777 141.085 302.616 140.443 302.857 139.721C302.937 139.32 303.098 138.999 303.258 138.678C303.579 137.876 303.579 137.154 303.017 136.513C302.616 136.031 302.296 135.47 302.055 134.989C301.654 134.347 301.654 133.545 301.734 132.823C301.253 133.625 301.333 134.427 301.734 135.229C301.975 135.711 302.215 136.112 302.536 136.513C303.017 137.315 303.178 138.117 302.697 138.919C302.616 139.16 302.456 139.32 302.376 139.561C302.055 140.443 302.215 141.165 302.937 141.807C303.178 142.047 303.499 142.288 303.739 142.448C304.381 143.01 304.622 143.651 304.381 144.453C304.301 144.774 304.221 145.015 304.14 145.336C303.9 146.058 303.659 146.699 303.9 147.421C303.098 147.501 302.937 147.421 303.017 146.779C303.017 146.459 303.098 146.218 303.178 145.897C303.258 145.737 303.338 145.576 303.419 145.336C303.9 143.972 303.739 143.25 302.616 142.368C302.456 142.208 302.215 142.047 302.055 141.887C301.494 141.325 301.253 140.684 301.494 139.962C301.654 139.48 301.814 139.079 302.055 138.598C302.456 137.796 302.376 137.074 301.814 136.432C301.012 135.47 300.611 134.347 300.932 133.064C300.932 132.983 300.932 132.983 300.852 132.823C300.371 133.786 300.29 134.668 300.691 135.55C300.932 135.951 301.173 136.432 301.413 136.834C301.814 137.475 301.814 138.117 301.413 138.839C301.253 139.16 301.092 139.561 300.932 139.962C300.691 140.603 300.772 141.245 301.253 141.726C301.574 142.047 301.895 142.368 302.215 142.689C302.937 143.33 303.258 144.052 302.857 145.015C302.777 145.256 302.777 145.576 302.697 145.817C302.616 146.298 302.456 146.779 302.376 147.261C301.734 147.1 301.654 147.02 301.814 146.539C301.975 146.058 302.135 145.657 302.296 145.175C302.536 145.175 302.697 144.774 302.296 144.213ZM300.451 132.823C302.937 130.978 305.664 130.497 308.552 131.139C308.793 130.256 309.033 129.534 309.113 128.652C308.632 128.893 308.151 129.133 307.67 129.374C307.67 128.813 307.67 128.412 307.75 127.77C306.948 128.331 306.226 128.813 305.504 129.294C305.424 129.133 305.263 128.973 305.183 128.813C304.782 128.251 304.782 128.251 305.183 127.69C305.344 127.449 305.424 127.289 305.664 126.968C305.344 126.968 305.263 126.968 305.103 127.048C304.221 127.208 304.14 127.208 303.659 126.406C303.579 126.326 303.499 126.166 303.338 126.085C303.178 126.567 303.098 127.048 302.857 127.369C302.616 127.69 302.055 127.77 301.654 127.93C302.937 128.732 303.017 129.133 302.456 130.016C301.654 129.855 300.932 129.374 299.97 129.534C300.21 130.016 300.371 130.417 300.611 130.898C299.97 130.818 299.488 130.818 298.847 130.738C299.488 131.54 299.97 132.101 300.451 132.823ZM306.707 132.342C306.547 131.7 306.065 131.46 305.424 131.379C304.622 131.299 303.9 131.459 303.258 131.861C302.777 132.101 302.536 132.502 302.536 133.144C302.857 133.144 303.178 133.064 303.419 133.064C303.9 133.064 304.301 133.304 304.381 133.786C304.461 134.106 304.381 134.347 304.06 134.427C303.82 134.507 303.499 134.507 303.258 134.588C302.697 134.668 302.616 134.828 302.697 135.31C302.937 136.272 303.579 136.994 304.461 137.395C305.183 137.716 305.825 137.475 306.306 136.914C306.787 136.272 307.108 135.55 307.028 134.668C307.028 134.427 306.948 134.187 306.868 133.946C306.226 134.106 305.745 134.267 305.183 134.347C304.943 134.106 304.862 133.705 305.023 133.385C305.344 132.502 306.146 132.663 306.707 132.342ZM315.851 133.064C315.29 132.422 314.728 131.78 314.167 131.219C313.605 130.577 313.525 129.775 313.284 128.893C312.322 129.454 312.322 130.417 312.161 131.139C311.199 131.139 310.236 130.738 309.434 131.54C310.076 132.021 310.637 132.342 311.199 132.743C311.6 133.064 312.081 133.144 312.643 133.224C313.284 133.224 314.006 133.304 314.648 133.385C315.129 133.465 315.53 133.465 315.851 133.064ZM294.435 137.235C295.157 137.315 295.638 136.994 296.119 136.753C296.681 136.432 297.323 136.112 297.884 135.791C298.045 135.711 298.205 135.63 298.285 135.47C298.766 134.748 299.167 134.026 299.649 133.304C298.686 132.983 297.964 133.625 297.082 133.946C296.681 133.224 296.28 132.502 295.237 132.262C295.879 134.187 294.997 135.63 294.435 137.235ZM306.787 133.304C306.226 132.903 306.146 132.983 305.745 133.465C306.146 133.385 306.467 133.304 306.787 133.304ZM303.82 133.786C303.017 133.465 303.017 133.465 302.697 134.026C303.098 133.946 303.419 133.946 303.82 133.786Z" fill="black"/>
<path d="M300.45 132.824C299.969 132.102 299.487 131.46 298.846 130.738C299.487 130.818 299.969 130.818 300.61 130.898C300.37 130.417 300.209 130.016 299.969 129.535C300.931 129.375 301.653 129.936 302.455 130.016C303.097 129.054 302.936 128.733 301.653 127.931C302.054 127.77 302.535 127.61 302.856 127.369C303.097 127.048 303.177 126.567 303.337 126.086C303.418 126.246 303.578 126.327 303.658 126.407C304.14 127.209 304.22 127.209 305.102 127.048C305.262 127.048 305.343 127.048 305.663 126.968C305.503 127.289 305.343 127.53 305.182 127.69C304.781 128.252 304.781 128.252 305.182 128.813C305.262 128.973 305.423 129.134 305.503 129.294C306.225 128.813 306.947 128.332 307.749 127.77C307.749 128.412 307.749 128.813 307.669 129.375C308.15 129.134 308.631 128.893 309.113 128.653C309.032 129.535 308.792 130.337 308.551 131.139C305.664 130.497 302.936 131.059 300.45 132.824ZM303.017 130.337C303.819 130.177 304.38 130.096 305.022 129.936C305.022 129.856 305.022 129.856 305.022 129.776C304.621 129.615 304.22 129.455 303.819 129.214C303.578 129.455 303.337 129.695 303.177 129.936C303.177 130.016 303.177 130.177 303.017 130.337Z" fill="white"/>
<path d="M306.706 132.343C306.145 132.583 305.343 132.423 305.102 133.225C304.942 133.626 305.022 133.947 305.263 134.188C305.824 134.027 306.386 133.947 306.947 133.786C307.027 134.107 307.108 134.348 307.108 134.508C307.188 135.391 306.867 136.113 306.386 136.754C305.904 137.396 305.263 137.556 304.541 137.235C303.578 136.834 303.017 136.113 302.776 135.15C302.616 134.669 302.776 134.508 303.338 134.428C303.578 134.428 303.899 134.348 304.14 134.268C304.461 134.188 304.541 133.947 304.461 133.626C304.38 133.225 303.979 132.904 303.498 132.904C303.177 132.904 302.937 132.984 302.616 132.984C302.536 132.343 302.856 131.942 303.338 131.701C303.979 131.3 304.701 131.14 305.503 131.22C306.065 131.46 306.546 131.701 306.706 132.343ZM304.461 136.032C305.182 136.754 305.744 136.674 305.985 135.711C305.503 135.872 304.942 135.952 304.461 136.032ZM304.701 135.23C304.701 135.31 304.781 135.391 304.781 135.391C305.022 135.31 305.263 135.23 305.584 135.07C305.183 134.829 304.942 134.909 304.701 135.23Z" fill="white"/>
<path d="M315.85 133.064C315.529 133.465 315.128 133.465 314.727 133.385C314.086 133.305 313.364 133.225 312.722 133.225C312.161 133.225 311.76 133.064 311.278 132.744C310.717 132.343 310.155 131.942 309.514 131.54C310.316 130.738 311.278 131.139 312.241 131.139C312.401 130.337 312.321 129.455 313.364 128.894C313.524 129.776 313.685 130.578 314.246 131.22C314.647 131.781 315.209 132.343 315.85 133.064Z" fill="white"/>
<path d="M294.434 137.234C294.995 135.63 295.877 134.106 295.236 132.261C296.278 132.502 296.599 133.224 297.081 133.946C297.963 133.625 298.685 132.903 299.647 133.304C299.166 134.026 298.765 134.748 298.284 135.47C298.203 135.63 298.043 135.71 297.883 135.79C297.321 136.111 296.679 136.352 296.118 136.753C295.557 137.074 295.155 137.395 294.434 137.234Z" fill="white"/>
<path d="M306.787 133.305C306.466 133.385 306.145 133.385 305.744 133.465C306.145 132.904 306.225 132.904 306.787 133.305Z" fill="white"/>
<path d="M303.818 133.786C303.337 133.866 303.096 133.946 302.695 134.027C303.016 133.545 303.016 133.545 303.818 133.786Z" fill="white"/>
<path d="M303.018 130.338C303.098 130.177 303.178 130.097 303.258 130.017C303.499 129.776 303.659 129.536 303.9 129.295C304.301 129.455 304.702 129.616 305.103 129.856C305.103 129.937 305.103 129.937 305.103 130.017C304.461 130.017 303.82 130.177 303.018 130.338Z" fill="black"/>
<path d="M304.461 136.032C304.942 135.952 305.504 135.871 305.985 135.711C305.664 136.673 305.183 136.754 304.461 136.032Z" fill="black"/>
<path d="M304.701 135.23C304.862 134.989 305.182 134.909 305.583 135.15C305.263 135.31 305.022 135.39 304.781 135.471C304.781 135.31 304.781 135.31 304.701 135.23Z" fill="black"/>
<path d="M261.146 112.45C261.146 112.45 266.521 106.515 271.975 107.637C277.429 108.68 278.712 113.011 278.151 113.974C277.509 114.937 275.664 116.22 272.937 115.578C270.13 114.937 261.146 112.45 261.146 112.45Z" fill="#F7A491"/>
</svg>
