<svg width="317" height="366" viewBox="0 0 317 366" fill="none" xmlns="http://www.w3.org/2000/svg">
<path d="M138.726 197.881C121.426 172.092 117.254 140.369 116.786 118.285C116.282 94.3303 119.915 76.2386 119.951 76.0587L118.764 75.6631C118.728 75.8429 115.06 94.0785 115.563 118.213C116.031 140.513 120.275 172.56 137.755 198.672L138.726 197.881Z" fill="#3C8F7C"/>
<path d="M123.837 71.5275C123.621 76.9586 121.463 81.5984 118.226 84.5118C115.241 80.8431 113.442 75.7357 113.658 70.3046C113.874 64.8735 116.032 60.2337 119.269 57.3203C122.254 60.989 124.053 66.0964 123.837 71.5275Z" fill="#3C8F7C"/>
<path d="M113.225 84.4404C116.174 89.0442 117.217 94.3314 116.498 99.0072C112.218 98.108 108.01 95.1947 105.06 90.5908C102.111 85.987 101.068 80.6997 101.787 76.0239C106.068 76.9231 110.276 79.8365 113.225 84.4404Z" fill="#3C8F7C"/>
<path d="M107.471 99.4007C111.895 102.134 114.952 106.486 116.247 111.162C112.183 112.529 107.363 111.953 102.975 109.22C98.5513 106.486 95.4941 102.134 94.1992 97.4585C98.2636 96.0917 103.083 96.6312 107.471 99.4007Z" fill="#3C8F7C"/>
<path d="M110.133 119.831C113.622 121.989 115.888 125.874 116.607 130.19C113.118 131.88 109.09 131.844 105.601 129.65C102.112 127.492 99.8463 123.608 99.127 119.292C102.652 117.601 106.644 117.637 110.133 119.831Z" fill="#3C8F7C"/>
<path d="M123.369 95.0135C127.11 92.7476 131.426 92.4958 135.131 93.8985C134.303 98.0348 131.857 101.775 128.117 104.041C124.34 106.307 120.06 106.559 116.355 105.156C117.183 101.056 119.629 97.2795 123.369 95.0135Z" fill="#3C8F7C"/>
<path d="M123.44 109.185C127.181 106.919 131.497 106.667 135.202 108.07C134.374 112.206 131.929 115.947 128.152 118.213C124.411 120.479 120.095 120.731 116.391 119.328C117.254 115.227 119.7 111.451 123.44 109.185Z" fill="#3C8F7C"/>
<path d="M120.922 324.485C84.6667 311.285 59.3096 279.813 44.419 255.715C28.2696 229.567 20.6084 206.26 20.5365 206.008L18.918 206.655C18.9899 206.907 26.7229 230.394 42.9803 256.722C58.0148 281.036 83.6237 312.868 120.347 326.212L120.922 324.485Z" fill="#96D9C9"/>
<path d="M21.9402 197.556C25.2493 203.779 25.8247 210.828 24.0623 216.979C18.3075 215.576 12.9483 211.512 9.63932 205.289C6.3303 199.067 5.75481 192.017 7.51722 185.867C13.308 187.233 18.6312 191.334 21.9402 197.556Z" fill="#96D9C9"/>
<path d="M18.3794 221.332C24.6738 223.813 29.3136 228.777 31.5436 234.604C26.1484 237.445 19.4944 237.949 13.1641 235.467C6.86981 232.985 2.22999 228.022 0 222.195C5.43111 219.353 12.0851 218.85 18.3794 221.332Z" fill="#96D9C9"/>
<path d="M23.3527 257.913C32.6742 256.584 39.7582 252.191 39.1752 248.101C38.5922 244.01 30.563 241.771 21.2414 243.1C11.9199 244.428 4.83589 248.821 5.41888 252.912C6.00188 257.002 14.0311 259.241 23.3527 257.913Z" fill="#96D9C9"/>
<path d="M34.4206 263.808C41.1825 262.909 47.4769 264.995 51.9728 269.023C48.3041 274.131 42.4773 277.835 35.7514 278.699C28.9895 279.598 22.6952 277.512 18.1992 273.483C21.8679 268.412 27.6947 264.707 34.4206 263.808Z" fill="#96D9C9"/>
<path d="M33.4137 231.438C33.7734 224.856 36.5069 218.957 40.5353 214.893C44.132 218.813 46.1822 224.64 45.8225 231.222C45.4628 237.804 42.7293 243.703 38.7009 247.767C35.1042 243.847 33.054 237.984 33.4137 231.438Z" fill="#96D9C9"/>
<path d="M46.7576 252.946C47.0454 246.364 49.671 240.394 53.6634 236.293C57.2961 240.142 59.4902 245.933 59.2024 252.515C58.9147 259.097 56.2891 265.068 52.2967 269.168C48.6639 265.319 46.4699 259.529 46.7576 252.946Z" fill="#96D9C9"/>
<path d="M56.2179 285.319C58.8076 283.952 61.6131 283.916 64.0229 284.959C63.3036 287.657 61.5052 290.031 58.9515 291.398C56.3618 292.764 53.5563 292.8 51.1465 291.757C51.8658 289.06 53.6642 286.686 56.2179 285.319Z" fill="#96D9C9"/>
<path d="M207.856 289.561C207.856 289.561 236.054 227.337 226.631 213.454C213.61 194.283 197.425 253.162 196.634 247.983C189.188 199.103 190.735 137.49 155.846 128.139C136.028 122.816 157.141 174.177 154.696 187.413C152.25 200.65 119.267 153.424 98.9457 128.427C78.6241 103.429 66.1792 117.241 77.9766 147.525C89.3783 176.839 130.597 211.188 121.39 214.137C112.146 217.087 60.3885 176.228 52.5835 191.298C43.0161 209.749 122.756 242.336 114.771 246.005C106.787 249.673 68.7689 232.409 68.7689 247.12C68.7689 261.83 121.282 265.499 119.915 271.829C117.721 282.116 84.7386 255.788 82.1489 270.067C79.5233 284.67 126.929 285.785 125.274 297.187C124.339 303.769 112.398 296.863 110.24 305.891C105.312 326.464 180.017 355.31 180.017 355.31L207.856 289.561Z" fill="#3C8F7C"/>
<path d="M259.865 303.697C271.195 309.02 268.138 322.184 268.138 322.184C268.138 322.184 298.89 298.193 310.364 312.185C321.873 326.212 315.831 353.656 302.343 358.116C297.559 359.698 279.899 360.381 258.93 360.525C220.661 360.813 171.637 359.446 171.637 359.446C171.637 359.446 249.686 298.913 259.865 303.697Z" fill="#96D9C9"/>
<path d="M178.472 337.11L179.551 336.174C154.913 306.177 144.41 268.555 139.914 242.263C135.059 213.741 136.03 192.088 136.03 191.872L134.519 191.621C134.519 191.836 133.512 213.669 138.404 242.335C142.936 268.843 153.546 306.789 178.472 337.11Z" fill="#50BFA5"/>
<path d="M139.303 187.126C140.022 193.6 138.367 199.211 135.13 202.808C130.994 198.564 128.009 192.557 127.289 186.083C126.57 179.609 128.225 173.998 131.462 170.401C135.598 174.645 138.583 180.652 139.303 187.126Z" fill="#50BFA5"/>
<path d="M129.7 202.196C133.908 207.556 136.102 213.814 136.102 219.389C130.995 218.49 125.564 215.181 121.355 209.858C117.147 204.498 114.953 198.24 114.953 192.665C120.096 193.564 125.492 196.873 129.7 202.196Z" fill="#50BFA5"/>
<path d="M125.743 220.218C131.318 223.311 135.67 228.383 138.008 233.85C133.548 235.612 127.865 235.145 122.29 232.087C116.715 228.994 112.363 223.959 110.025 218.456C114.485 216.693 120.168 217.161 125.743 220.218Z" fill="#50BFA5"/>
<path d="M135.742 249.889C138.152 251.004 140.13 253.019 141.245 255.248C139.447 256.148 137.073 256.148 134.663 255.033C132.253 253.918 130.275 251.904 129.16 249.674C130.959 248.774 133.332 248.774 135.742 249.889Z" fill="#50BFA5"/>
<path d="M138.764 260.967C141.174 262.082 143.152 264.097 144.267 266.327C142.468 267.226 140.094 267.226 137.685 266.111C135.275 264.996 133.297 262.982 132.182 260.752C133.98 259.817 136.354 259.853 138.764 260.967Z" fill="#50BFA5"/>
<path d="M143.332 214.39C147.289 211.548 152.18 211.045 156.748 212.556C156.532 217.483 154.374 222.087 150.418 224.892C146.461 227.734 141.57 228.237 137.002 226.727C137.254 221.799 139.412 217.231 143.332 214.39Z" fill="#50BFA5"/>
<path d="M145.957 231.259C149.914 228.417 154.805 227.914 159.373 229.424C159.157 234.352 156.999 238.956 153.043 241.761C149.086 244.567 144.195 245.106 139.627 243.595C139.879 238.668 142.037 234.1 145.957 231.259Z" fill="#50BFA5"/>
<path d="M147.682 255.608C150.236 253.774 153.437 253.45 156.422 254.421C156.279 257.622 154.876 260.608 152.322 262.478C149.768 264.312 146.567 264.636 143.582 263.665C143.726 260.464 145.129 257.478 147.682 255.608Z" fill="#50BFA5"/>
<path d="M197.03 359.662C197.03 359.662 161.027 313.408 145.956 306.322C129.915 298.769 143.834 324.918 143.834 324.918C143.834 324.918 109.521 291.216 101.464 299.632C93.4075 308.049 102.004 315.926 102.004 315.926C102.004 315.926 73.2656 310.602 69.0934 321.357C62.6552 337.902 109.881 346.102 109.881 346.102C109.881 346.102 87.257 341.139 91.7889 351.39C98.6588 366.82 197.03 359.662 197.03 359.662Z" fill="#50BFA5"/>
<path d="M69.0938 321.356C73.266 310.602 102.004 315.925 102.004 315.925C102.004 315.925 93.4079 308.048 101.465 299.631C109.521 291.215 136.353 311.069 136.353 311.069C136.353 311.069 132.181 292.798 152.359 307.185C166.782 317.435 194.585 355.705 194.585 355.705L69.0938 321.356Z" fill="#96D9C9"/>
<path d="M170.559 358.943C170.559 358.943 227.927 363.007 239.113 352.72C250.299 342.434 239.185 323.838 239.185 323.838C239.185 323.838 258.895 308.264 258.571 298.121C258.248 287.943 245.443 293.122 245.443 293.122C245.443 293.122 267.204 265.139 262.024 259.816C252.421 249.889 227.28 278.987 227.28 278.987C227.28 278.987 234.725 265.139 226.884 262.945C215.015 259.636 206.274 293.769 206.274 293.769C206.274 293.769 208.504 280.282 200.304 282.08C185.629 285.281 170.559 358.943 170.559 358.943Z" fill="#50BFA5"/>
<path d="M195.819 87.3566C195.819 87.3566 180.065 59.23 176.217 53.2593C172.368 47.2887 162.405 23.5141 162.046 22.579C161.686 21.6438 168.915 10.386 167.297 10.0263C165.678 9.63063 163.88 15.9609 162.189 15.2056C160.463 14.4503 155.428 -0.728047 154.456 0.0272725C152.622 1.43001 157.154 9.45079 156.183 9.95433C155.212 10.4579 152.226 1.14227 150.32 1.39405C148.414 1.68179 153.989 9.95433 153.449 10.6737C152.91 11.393 147.119 3.62404 146.076 5.27855C145.5 6.17774 151.399 12.0764 150.284 12.6159C149.169 13.1554 143.918 9.34288 143.342 10.4579C142.803 11.5729 148.198 13.0475 149.817 16.0329C151.435 18.9822 154.169 20.277 155.32 25.7441C156.471 31.2112 158.161 51.0653 164.024 60.9564C169.887 70.8475 182.763 92.7518 182.763 92.7518L195.819 87.3566Z" fill="#F48C7F"/>
<path d="M265.667 223.063C265.667 223.063 264.373 221.481 264.013 220.905C263.545 220.258 262.358 218.172 262.358 218.172C262.358 218.172 258.51 210.69 259.085 210.475C259.661 210.223 261.028 211.158 261.423 211.518C261.819 211.913 262.323 212.309 262.718 212.669C263.114 213.028 263.725 213.064 264.229 212.597C264.732 212.129 263.473 210.295 262.898 209.719C261.136 207.993 255.525 204.324 254.949 203.928C254.266 203.425 249.986 189.254 248.151 184.506C245.346 176.665 242.864 168.428 242.576 167.601L240.814 131.957L227.506 127.533C227.506 127.533 228.909 167.134 229.196 169.112C229.34 170.047 237.217 187.743 237.217 187.743C241.641 196.195 245.562 203.677 246.281 205.115C246.281 205.115 247.252 210.043 247.684 213.208C248.115 216.373 249.77 219.107 250.058 220.006C250.093 220.15 250.813 223.171 253.007 226.336C254.913 229.07 254.338 225.581 254.338 225.581C254.338 225.581 251.748 219.898 252.216 219.754C252.575 219.646 253.834 222.847 255.884 225.869C256.424 226.66 256.927 227.415 257.431 228.135C258.726 229.969 260.2 229.681 259.193 227.559C258.834 226.804 258.186 225.545 257.611 224.754C256.999 223.854 256.676 222.847 256.28 222.02C255.453 220.366 254.841 219.179 254.913 219.179C255.021 219.179 255.093 218.747 255.669 219.538C256.388 220.509 257.431 222.919 258.582 224.286C259.229 225.041 260.488 226.732 260.488 226.732C260.488 226.732 262.826 229.25 263.006 229.142C263.941 228.602 262.79 226.336 261.747 225.401C261.387 224.466 260.021 222.739 260.021 222.739C260.021 222.739 258.006 218.603 258.582 218.279C259.049 218.028 265.811 227.02 266.711 226.408C267.538 225.833 265.667 223.063 265.667 223.063Z" fill="#F48C7F"/>
<path d="M241.821 84.159C242.145 76.3899 240.994 68.6929 237.505 61.4634C234.52 55.241 227.111 51.7162 220.349 51.6802C198.912 51.6442 196.179 79.9867 182.511 90.9209C178.339 94.2658 173.663 96.9634 169.742 100.596C155.176 113.904 161.722 138.506 175.102 150.195C184.381 158.288 198.984 162.892 210.422 156.562C216.392 153.253 220.924 147.786 224.161 141.743C228.765 133.219 231.715 123.364 234.952 114.264C238.476 104.589 241.39 94.4817 241.821 84.159Z" fill="#B75742"/>
<path d="M174.778 334.527C174.778 334.527 173.267 344.993 170.677 348.374C169.814 349.525 168.196 350.928 167.153 352.978C165.534 356.179 166.433 360.927 167.62 363.517C168.232 364.848 167.584 364.848 168.987 365.279C173.159 366.574 177.583 364.416 179.346 360.424C180.353 358.194 181.216 355.244 181.36 351.504C181.791 342.008 184.777 337.188 184.777 337.188L174.778 334.527Z" fill="#F7A491"/>
<path d="M220.277 339.312C220.277 339.312 221.212 351.109 220.457 354.957C220.061 357.008 217.795 361.252 218.838 363.158C219.881 365.1 221.068 365.568 221.068 365.568L247.9 366C249.375 366.035 248.404 365.1 247.217 364.201C245.275 362.798 243.728 361.863 237.577 358.878C237.182 358.698 235.707 357.763 235.168 357.439C233.837 356.612 232.47 355.353 231.319 354.058C229.377 351.9 229.233 341.542 229.233 341.542L220.277 339.312Z" fill="#F7A491"/>
<path d="M241.245 182.527C241.245 182.527 244.626 201.662 242.396 214.251C240.166 226.804 229.52 343.195 229.52 343.195L217.686 343.878C217.686 343.878 215.205 295.25 215.636 288.488C216.068 281.726 219.593 270.396 219.593 270.396L218.406 231.156L233.332 179.578L241.245 182.527Z" fill="#355389"/>
<path d="M206.466 178.501C206.466 178.501 197.15 192.492 194.92 204.109C192.69 215.691 196.539 251.335 192.295 266.513C189.993 274.75 181.217 287.446 179.886 298.057C178.555 308.667 173.34 336.506 173.34 336.506L185.173 338.844L212.688 269.355L234.269 206.519L239.808 174.148L206.466 178.501Z" fill="#466EB6"/>
<path d="M213.982 98.7945C213.982 98.7945 201.646 98.0032 196.754 103.326C191.862 108.65 207.58 150.66 208.479 157.422C209.379 164.184 203.947 182.167 203.947 182.167C203.947 182.167 232.937 187.994 241.246 182.527C241.246 182.527 242.145 133.899 241.246 129.079C240.347 124.26 232.973 104.621 231.175 102.679C229.413 100.737 213.982 98.7945 213.982 98.7945Z" fill="#F7CC7F"/>
<path d="M218.118 82.3577C218.118 82.3577 218.046 82.7174 217.938 83.3289C217.399 86.2782 215.277 96.1333 213.838 98.8309C212.112 102.104 219.773 112.499 227.146 111.24C229.34 110.844 225.276 101.672 225.492 100.701C225.851 98.8309 226.355 96.3132 226.894 93.6875C227.182 92.2129 227.47 90.7382 227.757 89.3354C228.549 85.343 229.196 82.106 229.196 82.106L218.118 82.3577Z" fill="#F7A491"/>
<path d="M217.94 83.3302C218.048 82.7187 218.12 82.359 218.12 82.359L229.162 82.0713C229.162 82.0713 228.514 85.3443 227.723 89.3008C227.435 90.7035 227.147 92.1782 226.86 93.6528C225.169 93.4011 223.371 92.5738 221.572 91.0272C219.63 89.3367 218.335 87.2866 217.58 85.0926C217.724 84.3732 217.832 83.7977 217.94 83.3302Z" fill="#F47458"/>
<path d="M225.528 57.2888C225.528 57.2888 220.312 56.6774 217.075 60.8856C213.802 65.0938 210.313 78.114 218.406 85.1997C226.499 92.2853 234.52 84.2645 235.707 75.7762C236.894 67.2878 237.325 57.0011 225.528 57.2888Z" fill="#F7A491"/>
<path d="M238.082 75.667C237.111 77.5373 235.492 78.5804 234.449 78.0049C233.406 77.3935 233.37 75.4153 234.341 73.5449C235.312 71.6746 236.931 70.6316 237.974 71.2071C239.017 71.7825 239.053 73.7967 238.082 75.667Z" fill="#F7A491"/>
<path d="M226.103 55.9201C226.103 55.9201 219.161 68.2929 214.162 68.8684C209.198 69.4439 208.551 76.0259 208.551 76.0259C208.551 76.0259 210.313 60.8836 215.241 57.9342C220.204 55.0209 226.103 55.9201 226.103 55.9201Z" fill="#B75742"/>
<path d="M180.137 358.337C173.699 359.524 169.383 355.747 167.153 352.942C165.498 356.143 164.707 360.891 165.93 363.516C167.009 365.818 170.102 365.746 172.548 365.854C175.138 365.962 177.116 364.523 178.411 362.258C179.022 361.214 179.634 359.92 180.137 358.337Z" fill="#B75742"/>
<path d="M235.13 357.437C228.045 359.271 222.793 358.013 219.844 356.826C219.089 358.984 218.082 361.645 218.621 363.192C219.269 365.098 220.204 365.53 221.031 365.53C227.505 365.71 244.806 365.925 249.733 365.997C250.417 365.997 250.812 365.206 250.345 364.667C249.122 363.228 235.67 357.761 235.13 357.437Z" fill="#B75742"/>
<path d="M215.494 71.9629C215.89 74.1569 215.098 76.1711 213.66 76.4589C212.257 76.7466 210.782 75.2 210.387 73.006C209.991 70.812 210.782 68.7978 212.221 68.51C213.624 68.2223 215.098 69.7689 215.494 71.9629Z" fill="#F7A491"/>
<path d="M191.467 78.2578C191.467 78.2578 208.875 96.961 211.501 104.478C214.09 112.031 208.983 122.786 201.897 123.253C194.848 123.721 179.094 90.0552 179.094 90.0552L191.467 78.2578Z" fill="#F7CC7F"/>
</svg>
