<svg width="174" height="174" viewBox="0 0 174 174" fill="none" xmlns="http://www.w3.org/2000/svg">
<g opacity="0.2">
<path d="M48.959 97.875C53.2853 97.875 57.4345 96.1564 60.4937 93.0972C63.5529 90.038 65.2715 85.8888 65.2715 81.5625C65.2715 77.2362 63.5529 73.087 60.4937 70.0278C57.4345 66.9686 53.2853 65.25 48.959 65.25C44.6326 65.25 40.4835 66.9686 37.4243 70.0278C34.3651 73.087 32.6465 77.2362 32.6465 81.5625C32.6465 85.8888 34.3651 90.038 37.4243 93.0972C40.4835 96.1564 44.6326 97.875 48.959 97.875Z" fill="#474747"/>
<path d="M152.271 141.375C152.271 147.143 149.98 152.676 145.901 156.755C141.822 160.833 136.29 163.125 130.521 163.125H21.7715C16.003 163.125 10.4708 160.833 6.39191 156.755C2.313 152.676 0.0214844 147.143 0.0214844 141.375V54.375C0.0214815 48.6103 2.31001 43.0814 6.38422 39.0031C10.4584 34.9248 15.985 32.6308 21.7497 32.625C21.7497 26.8565 24.0412 21.3243 28.1202 17.2454C32.1991 13.1665 37.7313 10.875 43.4997 10.875H152.25C158.018 10.875 163.55 13.1665 167.629 17.2454C171.708 21.3243 174 26.8565 174 32.625V119.625C174 125.39 171.711 130.919 167.637 134.997C163.563 139.075 158.036 141.369 152.271 141.375ZM152.25 21.75H43.4997C40.6155 21.75 37.8494 22.8958 35.8099 24.9352C33.7705 26.9747 32.6247 29.7408 32.6247 32.625H130.521C136.29 32.625 141.822 34.9165 145.901 38.9954C149.98 43.0743 152.271 48.6065 152.271 54.375V130.5C155.152 130.494 157.912 129.346 159.947 127.307C161.982 125.268 163.125 122.505 163.125 119.625V32.625C163.125 29.7408 161.979 26.9747 159.939 24.9352C157.9 22.8958 155.134 21.75 152.25 21.75ZM21.7715 43.5C18.8873 43.5 16.1212 44.6458 14.0817 46.6852C12.0422 48.7247 10.8965 51.4908 10.8965 54.375V141.375L39.6717 115.775C40.5606 114.89 41.7284 114.339 42.9771 114.216C44.2258 114.093 45.4785 114.406 46.523 115.101L75.4505 134.382L115.797 94.0361C116.603 93.2289 117.643 92.6958 118.769 92.5124C119.895 92.3289 121.051 92.5044 122.072 93.0139L141.396 114.188V54.375C141.396 51.4908 140.251 48.7247 138.211 46.6852C136.172 44.6458 133.406 43.5 130.521 43.5H21.7715Z" fill="#474747"/>
</g>
</svg>
