<svg width="78" height="77" viewBox="0 0 78 77" fill="none" xmlns="http://www.w3.org/2000/svg">
<g clip-path="url(#clip0)">
<path d="M0.734375 14.5068C0.734375 11.9701 1.74207 9.53726 3.53579 7.74355C5.3295 5.94984 7.7623 4.94214 10.299 4.94214H67.6867C70.2234 4.94214 72.6562 5.94984 74.4499 7.74355C76.2437 9.53726 77.2514 11.9701 77.2514 14.5068V62.3299C77.2514 64.8665 76.2437 67.2993 74.4499 69.0931C72.6562 70.8868 70.2234 71.8945 67.6867 71.8945H10.299C7.7623 71.8945 5.3295 70.8868 3.53579 69.0931C1.74207 67.2993 0.734375 64.8665 0.734375 62.3299V14.5068ZM5.51669 57.5475V62.3299C5.51669 63.5982 6.02054 64.8146 6.91739 65.7115C7.81425 66.6083 9.03065 67.1122 10.299 67.1122H67.6867C68.9551 67.1122 70.1715 66.6083 71.0683 65.7115C71.9652 64.8146 72.469 63.5982 72.469 62.3299V45.5918L54.4063 36.2806C53.9578 36.056 53.45 35.978 52.9548 36.0578C52.4596 36.1377 52.002 36.3712 51.6469 36.7254L33.9045 54.4677L21.1835 45.9935C20.7242 45.6877 20.1733 45.5502 19.6242 45.6042C19.0751 45.6582 18.5616 45.9005 18.1707 46.29L5.51669 57.5475ZM29.4282 26.4625C29.4282 24.56 28.6725 22.7354 27.3272 21.3901C25.9819 20.0448 24.1573 19.2891 22.2548 19.2891C20.3523 19.2891 18.5277 20.0448 17.1824 21.3901C15.8371 22.7354 15.0813 24.56 15.0813 26.4625C15.0813 28.3651 15.8371 30.1897 17.1824 31.5349C18.5277 32.8802 20.3523 33.636 22.2548 33.636C24.1573 33.636 25.9819 32.8802 27.3272 31.5349C28.6725 30.1897 29.4282 28.3651 29.4282 26.4625Z" fill="#3C36A0"/>
</g>
<defs>
<clipPath id="clip0">
<rect width="76.517" height="76.517" fill="white" transform="translate(0.724609 0.159851)"/>
</clipPath>
</defs>
</svg>
