<svg xmlns="http://www.w3.org/2000/svg" fill="none" viewBox="84.84 150.5 401.6 360.77">
<path d="M357.861 356.372C373.897 332.472 377.764 303.072 378.197 282.605C378.664 260.405 375.297 243.638 375.263 243.471L376.363 243.104C376.397 243.271 379.797 260.171 379.331 282.538C378.897 303.205 374.963 332.906 358.761 357.106L357.861 356.372Z" fill="#3C8F7C"/>
<path d="M371.662 239.271C371.862 244.305 373.862 248.605 376.862 251.305C379.629 247.905 381.296 243.171 381.096 238.138C380.896 233.105 378.896 228.805 375.895 226.104C373.128 229.505 371.462 234.238 371.662 239.271Z" fill="#3C8F7C"/>
<path d="M381.498 251.237C378.765 255.504 377.798 260.404 378.465 264.737C382.432 263.904 386.332 261.204 389.066 256.937C391.8 252.67 392.766 247.77 392.1 243.437C388.133 244.27 384.232 246.97 381.498 251.237Z" fill="#3C8F7C"/>
<path d="M386.831 265.071C382.73 267.605 379.897 271.638 378.696 275.971C382.464 277.238 386.931 276.705 390.998 274.171C395.098 271.638 397.932 267.605 399.132 263.271C395.365 262.038 390.898 262.538 386.831 265.071Z" fill="#3C8F7C"/>
<path d="M384.365 284.039C381.131 286.039 379.031 289.639 378.364 293.639C381.598 295.206 385.331 295.172 388.565 293.139C391.799 291.139 393.899 287.539 394.566 283.539C391.299 281.972 387.598 282.006 384.365 284.039Z" fill="#3C8F7C"/>
<path d="M372.097 261.037C368.63 258.937 364.629 258.704 361.196 260.004C361.962 263.837 364.229 267.304 367.696 269.404C371.197 271.504 375.164 271.737 378.598 270.437C377.831 266.604 375.564 263.137 372.097 261.037Z" fill="#3C8F7C"/>
<path d="M372.029 274.172C368.562 272.072 364.561 271.838 361.127 273.138C361.894 276.972 364.161 280.438 367.662 282.538C371.129 284.638 375.129 284.872 378.563 283.572C377.763 279.772 375.496 276.272 372.029 274.172Z" fill="#3C8F7C"/>
<path d="M374.362 473.706C407.966 461.473 431.469 432.306 445.271 409.972C460.239 385.738 467.34 364.138 467.407 363.905L468.907 364.505C468.841 364.738 461.673 386.505 446.604 410.905C432.669 433.439 408.933 462.939 374.896 475.306L374.362 473.706Z" fill="#96D9C9"/>
<path d="M466.107 356.039C463.04 361.806 462.506 368.339 464.14 374.039C469.474 372.739 474.441 368.973 477.508 363.206C480.575 357.439 481.109 350.906 479.475 345.206C474.108 346.506 469.174 350.306 466.107 356.039Z" fill="#96D9C9"/>
<path d="M469.408 378.106C463.574 380.406 459.273 385.006 457.206 390.406C462.207 393.039 468.374 393.506 474.242 391.206C480.076 388.906 484.376 384.306 486.443 378.906C481.409 376.272 475.242 375.806 469.408 378.106Z" fill="#96D9C9"/>
<path d="M464.805 411.975C456.166 410.744 449.6 406.673 450.14 402.882C450.68 399.091 458.122 397.016 466.762 398.247C475.402 399.478 481.968 403.55 481.428 407.341C480.887 411.132 473.445 413.207 464.805 411.975Z" fill="#96D9C9"/>
<path d="M454.54 417.472C448.272 416.639 442.438 418.572 438.271 422.306C441.671 427.039 447.072 430.473 453.306 431.273C459.573 432.106 465.408 430.173 469.575 426.439C466.174 421.739 460.807 418.306 454.54 417.472Z" fill="#96D9C9"/>
<path d="M455.473 387.473C455.14 381.373 452.606 375.906 448.872 372.14C445.539 375.773 443.638 381.173 443.972 387.273C444.305 393.373 446.839 398.84 450.572 402.607C453.906 398.973 455.806 393.54 455.473 387.473Z" fill="#96D9C9"/>
<path d="M443.105 407.405C442.838 401.305 440.404 395.772 436.704 391.972C433.337 395.538 431.303 400.905 431.57 407.005C431.837 413.105 434.27 418.639 437.971 422.439C441.371 418.872 443.371 413.505 443.105 407.405Z" fill="#96D9C9"/>
<path d="M434.337 437.405C431.937 436.139 429.336 436.105 427.103 437.072C427.77 439.572 429.436 441.772 431.803 443.039C434.17 444.305 436.804 444.339 439.038 443.372C438.371 440.872 436.704 438.672 434.337 437.405Z" fill="#96D9C9"/>
<path d="M293.787 441.34C293.787 441.34 267.65 383.673 276.384 370.806C288.453 353.039 303.454 407.606 304.188 402.806C311.089 357.506 309.655 300.405 341.993 291.738C360.361 286.805 340.792 334.406 343.059 346.672C345.326 358.939 375.897 315.172 394.732 292.005C413.568 268.838 425.103 281.638 414.168 309.705C403.6 336.872 365.395 368.706 373.93 371.439C382.498 374.173 430.47 336.306 437.704 350.272C446.572 367.373 372.663 397.573 380.064 400.973C387.465 404.373 422.703 388.373 422.703 402.006C422.703 415.64 374.03 419.04 375.297 424.907C377.33 434.44 407.901 410.04 410.301 423.273C412.735 436.807 368.796 437.84 370.329 448.407C371.196 454.507 382.264 448.107 384.264 456.474C388.832 475.541 319.59 502.274 319.59 502.274L293.787 441.34Z" fill="#3C8F7C"/>
<path d="M245.579 454.44C235.078 459.374 237.912 471.574 237.912 471.574C237.912 471.574 209.408 449.34 198.773 462.307C188.105 475.307 193.706 500.741 206.208 504.874C210.641 506.341 227.01 506.974 246.446 507.108C281.917 507.374 327.356 506.108 327.356 506.108C327.356 506.108 255.014 450.007 245.579 454.44Z" fill="#96D9C9"/>
<path d="M321.057 485.408L320.057 484.541C342.893 456.741 352.627 421.874 356.794 397.507C361.295 371.073 360.395 351.007 360.395 350.807L361.795 350.573C361.795 350.773 362.729 371.007 358.195 397.574C353.961 422.141 344.126 457.308 321.057 485.408Z" fill="#50BFA5"/>
<path d="M357.328 346.406C356.661 352.406 358.195 357.607 361.195 360.94C365.029 357.007 367.796 351.44 368.463 345.44C369.13 339.44 367.596 334.24 364.596 330.906C360.762 334.84 357.995 340.406 357.328 346.406Z" fill="#50BFA5"/>
<path d="M366.23 360.373C362.329 365.34 360.295 371.14 360.295 376.307C365.029 375.473 370.063 372.407 373.964 367.473C377.864 362.506 379.898 356.706 379.898 351.54C375.131 352.373 370.13 355.44 366.23 360.373Z" fill="#50BFA5"/>
<path d="M369.896 377.075C364.729 379.941 360.695 384.641 358.528 389.708C362.662 391.341 367.929 390.908 373.096 388.075C378.264 385.208 382.297 380.541 384.464 375.441C380.364 373.808 375.097 374.241 369.896 377.075Z" fill="#50BFA5"/>
<path d="M360.629 404.574C358.395 405.607 356.562 407.474 355.528 409.54C357.195 410.374 359.395 410.374 361.629 409.34C363.862 408.307 365.696 406.44 366.729 404.373C365.063 403.54 362.862 403.54 360.629 404.574Z" fill="#50BFA5"/>
<path d="M357.826 414.842C355.593 415.875 353.759 417.742 352.726 419.808C354.393 420.642 356.593 420.642 358.827 419.608C361.06 418.575 362.894 416.708 363.927 414.642C362.26 413.775 360.06 413.808 357.826 414.842Z" fill="#50BFA5"/>
<path d="M353.594 371.672C349.926 369.038 345.393 368.572 341.159 369.972C341.359 374.538 343.359 378.805 347.026 381.405C350.693 384.038 355.227 384.505 359.461 383.105C359.228 378.538 357.227 374.305 353.594 371.672Z" fill="#50BFA5"/>
<path d="M351.159 387.307C347.492 384.674 342.958 384.207 338.725 385.607C338.925 390.174 340.925 394.441 344.592 397.041C348.259 399.674 352.793 400.141 357.027 398.741C356.793 394.174 354.793 389.941 351.159 387.307Z" fill="#50BFA5"/>
<path d="M349.56 409.874C347.193 408.173 344.226 407.874 341.459 408.774C341.592 411.74 342.892 414.507 345.259 416.24C347.626 417.94 350.593 418.24 353.36 417.34C353.227 414.374 351.927 411.607 349.56 409.874Z" fill="#50BFA5"/>
<path d="M303.82 506.274C303.82 506.274 337.191 463.407 351.16 456.873C366.028 449.873 353.127 474.107 353.127 474.107C353.127 474.107 384.931 442.873 392.398 450.673C399.866 458.473 391.898 465.773 391.898 465.773C391.898 465.773 418.535 460.84 422.402 470.807C428.369 486.14 384.597 493.74 384.597 493.74C384.597 493.74 405.566 489.14 401.366 498.64C395.032 512.94 303.82 506.274 303.82 506.274Z" fill="#50BFA5"/>
<path d="M422.403 470.806C418.536 460.839 391.899 465.772 391.899 465.772C391.899 465.772 399.867 458.472 392.399 450.672C384.932 442.872 360.062 461.272 360.062 461.272C360.062 461.272 363.929 444.339 345.227 457.672C331.858 467.172 306.088 502.639 306.088 502.639L422.403 470.806Z" fill="#96D9C9"/>
<path d="M328.357 505.641C328.357 505.641 275.184 509.408 264.816 499.874C254.448 490.341 264.75 473.107 264.75 473.107C264.75 473.107 246.481 458.674 246.781 449.274C247.081 439.84 258.949 444.64 258.949 444.64C258.949 444.64 238.78 418.707 243.58 413.773C252.481 404.573 275.784 431.54 275.784 431.54C275.784 431.54 268.883 418.707 276.151 416.673C287.152 413.607 295.253 445.24 295.253 445.24C295.253 445.24 293.186 432.74 300.787 434.407C314.389 437.373 328.357 505.641 328.357 505.641Z" fill="#50BFA5"/>
<path d="M306.522 510.64H313.422L287.719 377.005L281.985 378.105L306.522 510.64Z" fill="#0E2E35"/>
<path d="M116.232 510.04L110.498 508.94L135.267 377.005L141.035 378.105L116.232 510.04Z" fill="#0E2E35"/>
<path d="M180.173 510.64H187.074L161.371 377.005L155.604 378.105L180.173 510.64Z" fill="#0E2E35"/>
<path d="M243.647 510.64L238.046 510.706L262.682 377.605L268.45 378.705L243.647 510.64Z" fill="#0E2E35"/>
<path d="M218.611 197.069C241.347 199.503 270.75 202.069 300.254 252.336C332.525 307.27 315.523 389.305 290.086 412.105C264.616 434.905 181.473 463.072 111.564 420.905C111.564 420.905 69.3589 395.371 91.0283 352.971C124.366 287.737 119.665 274.137 134.567 248.57C149.435 223.036 170.371 191.869 218.611 197.069Z" fill="#FAE0B2"/>
<path d="M300.255 252.336C280.119 218.036 260.017 205.935 242.048 200.969C248.982 208.169 256.016 217.469 263.084 229.436C295.355 284.37 278.352 366.404 252.916 389.204C230.346 409.438 162.371 433.838 98.5301 409.738C105.098 417.038 111.532 420.938 111.532 420.938C181.44 463.072 264.617 434.938 290.054 412.138C315.524 389.304 332.526 307.27 300.255 252.336Z" fill="#F7CC7F"/>
<path d="M145.669 280.537L139.835 298.137L157.637 291.103L145.669 280.537Z" fill="#F79C8D"/>
<path d="M164.005 228.235C162.805 228.269 159.571 229.369 154.804 238.369C148.736 249.836 139.869 284.503 139.869 284.503L166.372 294.369L169.772 287.136L175.373 231.435C175.373 231.435 164.338 228.235 164.005 228.235Z" fill="#DD513A"/>
<path d="M199.043 223.235C191.475 223.235 172.739 225.469 164.038 228.235C164.038 228.235 157.637 283.136 169.806 324.87C172.539 334.203 167.572 363.604 167.572 363.604L246.048 362.57C246.048 362.57 236.747 291.536 240.248 280.069C243.748 268.603 243.848 228.602 243.848 228.602C243.848 228.602 243.315 228.502 226.213 225.569C218.178 224.202 207.11 223.235 199.043 223.235Z" fill="#F47458"/>
<path d="M208.177 465.54C208.177 465.54 206.443 485.573 203.243 491.14C200.042 496.673 203.409 506.107 203.576 507.407C203.743 508.707 210.31 510.54 220.711 509.44C231.113 508.34 230.946 505.94 230.113 502.04C229.279 498.14 223.712 493.173 223.378 489.473C223.045 485.773 226.579 472.44 226.579 472.44L208.177 465.54Z" fill="#F7A491"/>
<path d="M176.372 347.07C176.372 347.07 122.199 344.07 110.097 351.404C97.9956 358.737 112.297 373.771 112.297 373.771C112.297 373.771 156.403 392.938 230.245 397.204C247.748 398.204 249.248 351.604 245.981 347.77C242.68 343.904 176.372 347.07 176.372 347.07Z" fill="#256653"/>
<path d="M222.012 510.973C232.746 509.84 231.413 504.573 230.546 500.573C230.013 498.073 226.912 495.107 225.079 492.34C224.112 493.107 222.545 494.44 217.911 495.84C213.077 497.273 206.443 494.44 202.209 492.673C200.709 498.273 200.642 505.44 200.776 506.507C200.976 507.807 211.277 512.14 222.012 510.973Z" fill="#184655"/>
<path d="M216.111 385.839C213.944 402.206 203.243 483.74 203.243 483.74L228.113 486.807C228.113 486.807 258.683 380.372 257.116 364.105C255.549 347.838 244.114 346.472 244.114 346.472C244.114 346.472 221.812 342.471 216.111 385.839Z" fill="#3C8F7C"/>
<path d="M244.648 234.703C237.314 231.936 233.714 298.07 232.747 325.271C219.745 326.537 197.109 325.271 191.475 324.871C188.808 324.671 182.707 322.437 180.074 322.071C177.373 321.704 174.906 321.537 173.606 321.771C173.106 321.871 159.571 327.404 158.404 328.604C156.971 330.104 153.07 333.904 153.737 335.537C154.404 337.171 161.205 330.971 161.205 330.971L164.538 329.104C160.405 333.171 152.47 338.504 153.637 340.438C154.737 342.338 161.871 336.904 166.972 333.237C162.605 337.171 157.204 344.238 158.438 345.338C159.571 346.338 165.739 338.171 172.306 335.804C174.74 334.937 177.173 337.338 179.107 337.638C180.507 337.838 182.707 338.304 184.074 337.904L191.208 335.871C193.642 336.104 193.709 337.537 196.142 338.037C198.976 338.638 203.677 339.271 207.277 340.171C228.18 345.271 235.147 347.638 241.515 347.638C260.884 347.671 261.984 241.203 244.648 234.703Z" fill="#F7A491"/>
<path d="M258.583 296.77C259.95 268.903 259.75 234.536 244.114 228.669C237.947 226.369 227.079 240.269 229.046 297.337C237.38 298.037 249.615 298.603 258.583 296.77Z" fill="#DD513A"/>
<path d="M171.139 284.802H172.739L196.675 343.636L195.042 343.402L171.139 284.802Z" fill="#F79C8D"/>
<path d="M135.468 482.672C135.468 482.672 137.635 489.639 133.768 494.239C129.867 498.839 113.732 503.339 111.632 505.839C109.498 508.339 109.665 510.439 109.665 510.439L154.97 509.205L154.47 495.539L152.37 485.705L135.468 482.672Z" fill="#F7A491"/>
<path d="M130.934 496.505C130.934 496.505 142.569 501.205 148.203 498.439C153.837 495.639 153.67 494.872 155.27 495.905C156.904 496.939 157.471 509.772 157.471 509.772L106.531 511.272C102.997 511.206 101.197 508.572 104.064 506.339C106.031 504.805 108.331 503.772 109.631 503.039C113.599 500.772 130.934 496.505 130.934 496.505Z" fill="#184655"/>
<path d="M137.168 359.902C133.667 352.535 125.7 342.935 111.698 348.702C98.3296 354.202 94.7291 367.769 98.963 381.636C103.197 395.503 130.934 477.037 131.9 488.27L154.07 488.404C154.07 488.404 150.036 423.836 149.036 408.236C148.102 393.236 143.235 372.669 137.168 359.902Z" fill="#3C8F7C"/>
<path d="M101.196 284.802H175.272C177.239 284.802 179.006 286.002 179.739 287.802L202.542 343.636H243.414C244.547 343.636 245.48 344.569 245.48 345.702C245.48 346.836 244.547 347.769 243.414 347.769H127.133C123.932 347.769 121.032 345.902 119.732 342.969L96.7621 291.635C95.3286 288.435 97.6622 284.802 101.196 284.802Z" fill="black"/>
<path d="M141.068 317.304C141.568 319.804 143.735 321.504 145.935 321.037C148.136 320.604 149.502 318.204 149.002 315.704C148.502 313.204 146.335 311.504 144.135 311.97C141.935 312.404 140.568 314.804 141.068 317.304Z" fill="white"/>
<path d="M181.405 156.168C183.639 155.402 185.839 154.568 187.973 153.535C190.373 152.368 193.474 151.035 195.44 150.735C199.574 150.102 206.675 150.535 210.609 154.768C215.51 160.068 224.177 155.735 222.444 183.502C220.477 214.936 202.975 211.469 202.575 210.936C202.141 210.402 186.973 190.835 186.973 190.835C186.973 190.835 181.672 202.436 181.672 202.002C181.672 201.602 154.602 165.202 181.405 156.168Z" fill="#0E2E35"/>
<path d="M194.674 213.269L193.174 224.502C193.174 224.502 189.807 240.669 194.141 243.802C198.475 246.936 212.643 224.035 212.643 224.035L211.143 195.568L194.674 213.269Z" fill="#F7A491"/>
<path d="M211.609 204.802C208.009 214.502 199.475 220.469 193.374 222.802L194.641 213.269L211.109 195.568L211.609 204.802Z" fill="#F47458"/>
<path d="M195.575 164.6C186.374 163.1 178.106 170.533 178.34 179.734C178.44 183.734 178.773 188.734 179.606 194.134C181.607 207.101 190.441 218.501 196.308 217.501C202.143 216.467 216.878 205.301 214.277 186.834C212.677 175.467 205.243 166.167 195.575 164.6Z" fill="#F7A491"/>
<path d="M210.211 189.068C210.711 191.935 212.978 193.901 215.312 193.501C217.645 193.101 219.112 190.468 218.612 187.601C218.112 184.735 215.845 182.768 213.512 183.168C211.211 183.568 209.711 186.235 210.211 189.068Z" fill="#F7A491"/>
<path d="M213.51 183.169C213.51 183.169 206.442 184.936 203.808 180.369C201.175 175.836 191.807 166.002 179.872 170.069C167.937 174.136 190.373 160.169 191.34 160.169C192.307 160.169 203.742 160.102 203.742 160.102C203.742 160.102 212.576 167.369 212.876 168.169C213.21 168.969 215.743 177.669 215.743 177.669L213.51 183.169Z" fill="#0E2E35"/>
</svg>