<svg width="19" height="17" viewBox="0 0 19 17" fill="none" xmlns="http://www.w3.org/2000/svg">
<path d="M17.5169 2.92657H13.5115V2.20986C13.5115 1.36465 12.824 0.677002 11.9787 0.677002H7.02128C6.17613 0.677002 5.48848 1.3646 5.48848 2.20986V2.92657H1.48312C0.665323 2.92657 0 3.59185 0 4.40959V14.8401C0 15.6578 0.665323 16.3231 1.48312 16.3231H17.5169C18.3347 16.3231 19 15.6578 19 14.8401V4.40959C19.0001 3.5919 18.3348 2.92657 17.5169 2.92657ZM6.78374 2.20986C6.78374 2.07883 6.89036 1.97221 7.02133 1.97221H11.9788C12.1097 1.97221 12.2164 2.07883 12.2164 2.20986V2.92657H6.78374V2.20986ZM1.48317 4.22178H17.5169C17.6206 4.22178 17.7048 4.30602 17.7048 4.40959V7.80811C15.6979 8.5526 12.6707 8.99235 9.49456 8.99235C6.32544 8.99235 3.30237 8.5541 1.29521 7.8121V4.40959C1.29526 4.30602 1.37955 4.22178 1.48317 4.22178ZM17.5169 15.0279H1.48317C1.37955 15.0279 1.29526 14.9437 1.29526 14.8401V9.1843C3.13228 9.7903 5.54754 10.1691 8.17966 10.264C8.17951 10.2715 8.17858 10.2788 8.17858 10.2864V10.572C8.17858 11.1074 8.61418 11.543 9.14967 11.543H9.85048C10.386 11.543 10.8216 11.1074 10.8216 10.572V10.2864C10.8216 10.2788 10.8205 10.2713 10.8205 10.2637C13.4543 10.1679 15.8692 9.78808 17.7049 9.18088V14.8401C17.7048 14.9437 17.6206 15.0279 17.5169 15.0279Z" fill="black"/>
</svg>
