<svg width="191" height="44" viewBox="0 0 191 44" fill="none" xmlns="http://www.w3.org/2000/svg">
<g clip-path="url(#clip0)">
<path d="M21.8639 43.5C33.939 43.5 43.7278 33.8741 43.7278 22C43.7278 10.1259 33.939 0.5 21.8639 0.5C9.78879 0.5 0 10.1259 0 22C0 33.8741 9.78879 43.5 21.8639 43.5Z" fill="#3C36A0"/>
<path d="M73.8295 32.658C71.5496 36.0939 66.5111 38.5534 58.4936 32.5865L56.3602 30.9585C52.8287 28.355 51.4691 28.9698 50.1448 30.5969C49.9974 30.7777 49.7772 30.6694 49.9236 30.4161C50.169 29.8284 50.5038 29.2808 50.9166 28.7921C51.1231 28.5355 51.2279 28.214 51.2115 27.8872V11.9394C51.2115 10.8547 50.2923 10.5289 49.7398 10.4574C45.9154 10.0233 43.1567 13.8923 45.6942 16.9309C45.7316 17.0034 45.6942 17.1116 45.5841 17.0391C43.1951 14.978 44.4415 9.62494 49.0418 9.76998C49.0781 9.76998 51.4691 9.87825 51.8368 9.87825C52.5722 9.8425 54.2258 9.80573 54.9258 9.76998C55.2198 9.76998 55.4036 9.76998 55.4451 9.98651C55.4451 10.0948 55.3714 10.2041 55.1512 10.2041L54.7825 10.2398C54.2309 10.2756 53.2754 10.6014 53.2754 11.7229V25.6422C53.3117 27.0527 53.4956 27.7758 54.5218 28.1017C55.5511 28.4632 56.7653 29.1864 58.1623 30.1996L59.5967 31.2434C65.5545 35.2217 70.3354 36.4157 73.6457 32.4691C73.7194 32.3332 74.0507 32.3332 73.8295 32.658Z" fill="#3C36A0"/>
<path d="M82.067 29.0781C82.067 29.2589 81.8832 29.3671 81.4438 29.3314C80.267 29.2231 78.5356 29.2231 78.2074 29.2231C77.8397 29.2231 76.479 29.2946 75.6336 29.3314C75.3386 29.3314 75.1547 29.3314 75.1142 29.1138C75.1142 29.0056 75.188 28.8973 75.7758 28.8616C76.3274 28.8248 76.4749 28.5715 76.4385 27.9566C76.3241 27.2061 76.1009 26.4755 75.7758 25.7872L74.9667 23.8343H66.9939L66.1474 25.7872C65.7797 26.5829 65.5242 27.3785 65.4858 27.9566C65.4121 28.5694 65.5959 28.8248 66.1474 28.8616L66.5151 28.8973C66.7364 28.8973 66.8101 29.0056 66.8101 29.1138C66.7727 29.3314 66.5889 29.3314 66.2908 29.3314C65.4453 29.2589 64.0836 29.2231 63.7159 29.2231C63.3482 29.2231 62.2088 29.2231 60.9946 29.3314C60.5906 29.3671 60.4067 29.2589 60.4067 29.0781C60.4067 28.933 60.5532 28.8616 60.7007 28.8616C60.8608 28.8676 61.0212 28.8553 61.1785 28.8248C62.6866 28.6083 63.4957 27.3785 64.2311 25.7872L69.7838 12.6952C69.7464 12.6952 70.407 11.3204 70.8505 9.98241C70.9606 9.69336 71.2182 9.69336 71.3283 9.98241L78.279 25.7872C78.9781 27.3785 79.7498 28.6083 81.2912 28.8248C81.5155 28.8616 82.067 28.7523 82.067 29.0781ZM74.5648 22.8579L71.0333 12.8402L67.3928 22.8579H74.5648Z" fill="#3C36A0"/>
<path d="M104.465 29.1138C104.465 29.2231 104.391 29.3314 104.133 29.3314H102.887C101.894 29.3314 100.276 29.5479 98.1798 27.4868L87.441 15.3324V27.3785C87.441 28.4632 88.3602 28.8248 88.9481 28.8616H89.2795C89.4997 28.8616 89.5734 28.9698 89.5734 29.1138C89.5734 29.2946 89.3532 29.3314 89.0541 29.2946C88.3551 29.2589 87.0671 29.2231 86.3317 29.2231C85.56 29.2231 84.566 29.2589 84.0467 29.2946C83.7527 29.3314 83.5273 29.2946 83.5273 29.1138C83.5273 28.9698 83.6011 28.8616 83.8223 28.8616H84.1526C84.7415 28.789 85.6608 28.4632 85.6608 27.3785V12.875C85.6244 10.9946 85.4769 10.0539 85.4769 10.0539C85.3294 9.51156 85.7345 9.33077 86.1001 9.87312C86.1001 9.87312 96.7288 23.5432 100.553 27.305V11.7188C100.553 10.6341 99.6339 10.2715 99.046 10.2357H98.7147C98.4935 10.2357 98.4207 10.1274 98.4207 9.98241C98.4207 9.80163 98.6409 9.76588 98.9349 9.80163C99.4542 9.80163 100.443 9.87415 101.22 9.87415C101.955 9.87415 103.242 9.80163 103.941 9.76588C104.235 9.76588 104.461 9.76588 104.461 9.98241C104.461 10.0907 104.387 10.2 104.166 10.2L103.835 10.2357C103.246 10.2715 102.327 10.5973 102.327 11.7188V27.3785C102.327 28.2099 103.026 28.8248 104.166 28.8616C104.427 28.8616 104.501 28.9698 104.465 29.1138Z" fill="#3C36A0"/>
<path d="M123.515 25.064C123.515 25.2448 123.184 27.5225 122.926 28.4274C122.742 28.933 122.706 28.9698 122.228 29.1863C121.198 29.5847 119.216 29.7992 117.483 29.7992C111.304 29.7992 106.303 25.6044 106.303 19.565C106.303 13.6338 111.081 9.36548 117.078 9.36548C117.887 9.36548 118.992 9.40225 119.911 9.58303C120.904 9.76382 121.749 9.90783 122.596 9.98035C122.89 9.98035 122.963 10.0886 122.963 10.2694C122.963 10.4502 122.89 10.7801 122.816 11.7167C122.78 12.5849 122.78 14.0311 122.742 14.4284C122.705 14.8258 122.668 14.9718 122.485 14.9718C122.301 14.9718 122.301 14.791 122.301 14.4284C122.301 13.4163 121.781 12.4041 121.158 11.7524C120.535 11.0293 118.547 10.3062 117.075 10.3062C112.401 10.4144 108.766 14.2119 108.766 19.565C108.766 25.062 112.591 28.787 117.482 28.8227C119.395 28.8227 120.645 28.6419 122.079 27.2682C122.631 26.7248 122.962 25.5318 123.036 25.062C123.109 24.7719 123.146 24.6637 123.33 24.6637C123.441 24.6657 123.515 24.8465 123.515 25.064Z" fill="#3C36A0"/>
<path d="M139.292 25.8956C139.256 26.0764 138.629 27.9567 138.262 28.6799C138.042 29.0782 137.49 29.3315 135.873 29.2927C133.484 29.2569 129.329 29.1844 129.252 29.1844C128.885 29.1844 126.715 29.2569 125.869 29.2927C125.574 29.3295 125.35 29.2927 125.35 29.1119C125.35 28.9679 125.424 28.8596 125.644 28.8596H125.975C126.564 28.7871 127.484 28.4613 127.484 27.3766V11.6821C127.484 10.5974 126.564 10.2716 125.975 10.2001H125.644C125.424 10.2001 125.35 10.0908 125.35 9.94677C125.35 9.76599 125.57 9.72922 125.869 9.76599C126.715 9.80174 128.882 9.87425 129.252 9.87425C129.4 9.87425 135.796 9.76599 135.796 9.76599C136.544 9.78013 137.293 9.75558 138.038 9.69245C138.259 9.6567 138.332 9.7282 138.332 9.87323C138.37 10.0183 138.37 10.3073 138.48 11.0662C138.554 11.7536 138.774 12.9108 138.811 13.2366C138.849 13.5624 138.811 13.7065 138.7 13.7065C138.554 13.7432 138.516 13.5982 138.442 13.3091C138.296 12.4767 137.045 10.7772 135.353 10.7414H131.859C129.99 10.8139 129.653 11.5371 129.574 13.1641V18.8848C129.574 18.8848 133.951 18.8848 134.503 18.8123C135.126 18.7398 135.458 18.7041 135.749 18.4508C135.969 18.27 136.043 18.0892 136.153 18.0892C136.227 18.0892 136.301 18.1617 136.301 18.3057C136.301 18.4865 136.153 18.9186 136.08 19.7888C136.043 20.3311 135.969 21.3076 135.969 21.5251C135.969 21.7059 135.969 22.0307 135.786 22.0307C135.638 22.0307 135.602 21.9224 135.602 21.7774C135.615 21.4843 135.578 21.1911 135.492 20.9102C135.382 20.5119 135.124 20.0778 134.094 19.9696C133.358 19.8613 129.57 19.8613 129.57 19.8613V25.6474C129.607 27.492 129.902 28.1794 131.998 28.3234H135.933C136.596 28.2899 137.224 28.0201 137.699 27.5645C138.218 27.0937 138.766 26.2265 138.876 25.8282C138.987 25.6116 139.059 25.5391 139.171 25.5391C139.292 25.5698 139.328 25.7148 139.292 25.8956Z" fill="#3C36A0"/>
<path d="M160.034 29.114C160.034 29.259 159.887 29.3315 159.703 29.3315H158.456C157.463 29.3315 155.074 29.2947 153.602 27.4869C152.057 25.6065 149.814 22.2779 146.798 20.7244C146.393 20.5436 146.577 20.1452 147.24 20.181C151.469 20.4343 154.227 18.4814 154.227 15.263C154.227 12.153 152.095 10.7782 149.226 10.7782H147.791C145.438 10.7782 145.364 11.7914 145.364 14.1783V27.3786C145.364 28.4633 146.283 28.8249 146.872 28.8617H147.203C147.424 28.8617 147.496 28.9699 147.496 29.114C147.496 29.2947 147.276 29.3315 146.977 29.2947C146.278 29.259 144.66 29.2232 143.925 29.2232C143.152 29.2232 142.159 29.259 141.639 29.2947C141.346 29.3315 141.12 29.2947 141.12 29.114C141.12 28.9699 141.193 28.8617 141.414 28.8617H141.745C142.333 28.7892 143.252 28.4633 143.252 27.3786V11.7189C143.252 10.6342 142.333 10.2716 141.745 10.2358H141.414C141.193 10.2358 141.12 10.1276 141.12 9.98252C141.12 9.80174 141.34 9.76599 141.639 9.80174C142.486 9.83851 144.652 9.87426 145.023 9.87426C145.395 9.87426 149.253 9.80174 149.253 9.80174C152.489 9.80174 156.609 10.9957 156.609 15.263C156.609 17.8665 154.99 20.4343 151.79 20.8684C151.169 20.9611 150.543 21.0214 149.914 21.0492C152.269 22.4239 155.248 25.9313 156.793 27.6677C157.234 28.21 158.153 28.7166 159.404 28.8617L159.735 28.8974C159.997 28.8944 160.034 29.0057 160.034 29.114Z" fill="#3C36A0"/>
<path d="M167.867 29.1138C167.867 29.2946 167.647 29.3314 167.347 29.2946C166.649 29.2589 165.031 29.2231 164.295 29.2231C163.523 29.2231 162.529 29.2589 162.015 29.2946C161.721 29.3314 161.496 29.2946 161.496 29.1138C161.496 28.9698 161.569 28.8615 161.791 28.8615H162.121C162.71 28.789 163.629 28.4632 163.629 27.3785V11.7187C163.629 10.634 162.71 10.2715 162.121 10.2357H161.791C161.569 10.2357 161.496 10.1274 161.496 9.9824C161.496 9.80162 161.717 9.76587 162.015 9.80162C162.534 9.80162 163.523 9.87413 164.295 9.87413C165.031 9.87413 166.649 9.80162 167.347 9.76587C167.642 9.76587 167.867 9.76587 167.867 9.9824C167.867 10.0907 167.793 10.2 167.573 10.2L167.242 10.2357C166.654 10.2715 165.733 10.5973 165.733 11.7187V27.3785C165.733 28.4632 166.654 28.8248 167.242 28.8615H167.573C167.793 28.8615 167.867 28.9698 167.867 29.1138Z" fill="#3C36A0"/>
<path d="M191 29.0781C191 29.2589 190.816 29.3671 190.377 29.3314C189.2 29.2231 187.468 29.2231 187.14 29.2231C186.772 29.2231 185.412 29.2946 184.565 29.3314C184.271 29.3314 184.087 29.3314 184.046 29.1138C184.046 29.0056 184.12 28.8973 184.708 28.8616C185.259 28.8248 185.407 28.5715 185.369 27.9566C185.256 27.206 185.033 26.4754 184.708 25.7872L183.898 23.8343H175.917L175.072 25.7872C174.704 26.5829 174.449 27.3785 174.41 27.9566C174.337 28.5694 174.52 28.8248 175.072 28.8616L175.44 28.8973C175.661 28.8973 175.734 29.0056 175.734 29.1138C175.697 29.3314 175.513 29.3314 175.214 29.3314C174.368 29.2589 173.007 29.2231 172.639 29.2231C172.272 29.2231 171.131 29.2231 169.918 29.3314C169.513 29.3671 169.329 29.2589 169.329 29.0781C169.329 28.933 169.477 28.8616 169.624 28.8616C169.784 28.8676 169.945 28.8552 170.102 28.8248C171.61 28.6083 172.419 27.3785 173.154 25.7872L178.707 12.6952C178.671 12.6952 179.33 11.3204 179.774 9.98241C179.884 9.69336 180.142 9.69336 180.253 9.98241L187.203 25.7872C187.902 27.3785 188.674 28.6083 190.216 28.8248C190.448 28.8616 191 28.7523 191 29.0781ZM183.498 22.8579L179.966 12.8402L176.326 22.8579H183.498Z" fill="#3C36A0"/>
<path d="M21.8121 41.8657C10.6402 41.8657 1.55811 32.9297 1.55811 21.9488C1.55811 10.968 10.6402 2.03198 21.8121 2.03198C32.9839 2.03198 42.066 10.965 42.066 21.9488C42.066 32.9327 32.9725 41.8657 21.8121 41.8657ZM21.8121 3.21167C11.2987 3.20861 2.74945 11.6156 2.74945 21.9488C2.74945 32.2821 11.2987 40.6891 21.8121 40.6891C32.3254 40.6891 40.8632 32.2821 40.8632 21.9488C40.8632 11.6156 32.315 3.20861 21.8121 3.20861V3.21167Z" fill="white"/>
<path d="M30.2157 36.477C30.1742 36.3748 30.1399 36.2645 30.089 36.1655C29.605 35.2238 29.122 34.281 28.6276 33.3454C28.5634 33.2459 28.4683 33.1693 28.3565 33.1269C28.0875 33.0145 27.806 32.9338 27.5339 32.8286C26.3273 32.3502 25.1982 31.7012 24.1821 30.9023C24.0783 30.8247 24.0149 30.7511 24.0554 30.5959C24.3078 29.6006 24.6556 28.6311 25.0941 27.7003C25.1054 27.6672 25.1083 27.6318 25.1027 27.5973C25.0971 27.5628 25.0831 27.5302 25.0619 27.5021C24.3192 26.7984 23.5683 26.1039 22.8235 25.4032C22.7843 25.3583 22.7318 25.3266 22.6733 25.3125C22.6148 25.2984 22.5533 25.3026 22.4974 25.3246C22.1923 25.4158 21.8688 25.4306 21.5564 25.3675C20.5291 25.1765 19.8384 24.1816 19.9984 23.1204C20.15 22.1195 21.1243 21.3698 22.137 21.4862C22.3303 21.5094 22.5263 21.483 22.7062 21.4096C24.4939 20.6973 26.1008 19.6077 27.4134 18.2178C28.3846 17.2097 29.1791 16.0729 29.8958 14.8851C29.9727 14.7574 30.0516 14.6318 30.1264 14.5092C30.1125 14.4898 30.0972 14.4714 30.0807 14.454C30.0485 14.4265 30.0153 14.3989 29.982 14.3734C28.4753 13.2189 26.585 12.6582 24.6804 12.8006C22.7758 12.943 20.9935 13.7783 19.6816 15.1435C18.5401 16.3296 17.8118 17.8419 17.602 19.4619C17.3921 21.0818 17.7116 22.7254 18.5141 24.1551C18.5882 24.2796 18.6309 24.4196 18.6388 24.5636C18.6481 26.5267 18.646 28.4898 18.6523 30.4529C18.6583 30.5237 18.6427 30.5946 18.6076 30.6566C18.5724 30.7186 18.5193 30.769 18.4549 30.8012C17.3986 31.4253 16.6653 32.3241 16.1771 33.4272C16.1522 33.4833 16.1356 33.5436 16.1086 33.6233C16.2592 33.613 16.3807 33.5967 16.5022 33.5987C16.953 33.6079 17.4048 33.5987 17.8525 33.6427C18.6658 33.7203 19.4105 34.0287 20.1272 34.3934C21.1025 34.8887 22.0705 35.3953 23.0427 35.8958C25.3433 37.0827 27.7416 37.1501 30.2157 36.477ZM7.73486 25.8986C7.75137 25.9125 7.76994 25.9239 7.78991 25.9323C8.9231 26.2203 10.0656 26.4297 11.2435 26.303C12.5127 26.1662 13.4247 25.5503 13.9326 24.3737C14.2155 23.7085 14.383 23.0015 14.428 22.2819C14.5205 20.9 14.5828 19.516 14.6524 18.133C14.7001 17.1903 14.776 16.2527 15.098 15.3539C15.5041 14.2222 16.1273 13.2437 17.1909 12.5962C18.0831 12.0559 19.0532 11.7954 20.1074 11.9302C20.8252 12.0211 21.4369 12.3388 21.9853 12.7953C22.022 12.8275 22.0649 12.852 22.1115 12.8673C22.1582 12.8826 22.2075 12.8883 22.2564 12.8842C22.7249 12.7565 23.1912 12.6064 23.6545 12.4624C23.6581 12.4236 23.6581 12.3847 23.6545 12.3459C23.4324 10.9828 22.7373 9.73737 21.6872 8.82115C20.311 7.59345 18.6959 7.01433 16.8481 6.99288C15.8946 6.98063 14.9785 7.12873 14.1247 7.56792C12.8451 8.22569 12.0235 9.27158 11.5011 10.5687C10.9558 11.9221 10.7875 13.3356 10.8872 14.7727C11.0035 16.4713 11.1832 18.1668 11.3338 19.8633C11.4211 20.8448 11.4595 21.8263 11.2788 22.8038C11.0368 24.1193 10.344 25.0805 9.02904 25.538C8.6115 25.6831 8.17526 25.7781 7.73486 25.8986ZM22.9181 25.1601C23.5319 25.7321 24.1156 26.2949 24.7191 26.8362C26.4277 28.3683 28.289 29.6858 30.4183 30.6041C31.0477 30.8747 31.7 31.0964 32.3471 31.3272C32.4302 31.3568 32.5932 31.3415 32.6358 31.2853C33.0398 30.7522 33.2102 30.0474 32.7771 29.4091C32.7418 29.357 32.7075 29.3069 32.6732 29.2497C33.4414 28.561 34.0925 27.7558 34.602 26.8648C35.4065 25.4439 35.8534 23.8543 35.9055 22.2288C35.9388 21.3984 35.9118 20.566 35.9118 19.6998C32.0687 21.521 28.1851 23.0704 23.9245 23.5055C23.9045 23.8406 23.8025 24.1659 23.6273 24.454C23.4521 24.742 23.2088 24.9843 22.9181 25.1601ZM31.1921 13.0394C31.1464 13.1293 31.1194 13.1824 31.0934 13.2355C30.4942 14.4887 29.7798 15.6852 28.9589 16.8104C27.3926 18.9216 25.4524 20.5833 22.9835 21.6108C22.942 21.6282 22.9025 21.6537 22.836 21.6905C23.1232 21.8427 23.37 22.059 23.5567 22.3221C23.7434 22.5852 23.8648 22.8876 23.911 23.2052C23.9674 23.2094 24.024 23.2094 24.0803 23.2052C25.1834 23.0071 26.2958 22.8498 27.3864 22.5995C30.1492 21.9683 32.7418 20.8754 35.2948 19.6855C35.4153 19.6294 35.4288 19.5558 35.3987 19.4404C34.8544 17.3588 33.8864 15.5142 32.3024 14.0046C31.9524 13.6758 31.5753 13.3693 31.1921 13.0394ZM31.2565 33.4302C31.2201 33.3281 31.2056 33.277 31.1838 33.2259C30.8593 32.5537 30.6257 31.8425 30.4889 31.1107C30.4759 31.0465 30.4455 30.987 30.4008 30.9384C30.3562 30.8899 30.2991 30.8541 30.2355 30.8349C28.9598 30.2591 27.7493 29.5529 26.624 28.7278C26.2085 28.4214 25.7931 28.1007 25.3703 27.7779C25.3392 27.8382 25.3101 27.8892 25.2852 27.9413C24.9207 28.7322 24.6257 29.5523 24.4034 30.3926C24.3738 30.4701 24.3729 30.5553 24.4008 30.6334C24.4287 30.7115 24.4837 30.7774 24.556 30.8196C26.0937 32.0077 27.8929 32.8251 29.8096 33.2065C30.2697 33.2964 30.7444 33.3516 31.2565 33.4302ZM23.6285 23.4411C23.6238 23.1142 23.521 22.7959 23.333 22.5262C23.1449 22.2565 22.8801 22.0474 22.5716 21.9252C22.2632 21.803 21.9249 21.7731 21.5993 21.8393C21.2736 21.9054 20.9751 22.0647 20.7412 22.2971C20.5073 22.5296 20.3484 22.8247 20.2845 23.1456C20.2206 23.4665 20.2545 23.7989 20.3819 24.1009C20.5094 24.4029 20.7248 24.6612 21.001 24.8432C21.2772 25.0253 21.6019 25.1231 21.9344 25.1244C22.1591 25.1268 22.3819 25.0847 22.5897 25.0007C22.7975 24.9168 22.986 24.7926 23.144 24.6356C23.302 24.4786 23.4263 24.2919 23.5096 24.0867C23.5928 23.8815 23.6333 23.662 23.6285 23.4411Z" fill="white"/>
</g>
<defs>
<clipPath id="clip0">
<rect width="191" height="43" fill="white" transform="translate(0 0.5)"/>
</clipPath>
</defs>
</svg>
