<svg width="12" height="12" viewBox="0 0 12 12" fill="none" xmlns="http://www.w3.org/2000/svg">
<path fill-rule="evenodd" clip-rule="evenodd" d="M11.7725 1.32466C11.8446 1.25269 11.9018 1.16724 11.9408 1.07318C11.9798 0.979113 11.9999 0.878283 12 0.776444C12.0001 0.674605 11.9801 0.573751 11.9412 0.47964C11.9022 0.38553 11.8452 0.300005 11.7732 0.22795C11.7012 0.155894 11.6158 0.0987197 11.5217 0.0596898C11.4277 0.0206599 11.3268 0.00053926 11.225 0.000476667C11.1232 0.000414074 11.0223 0.0204108 10.9282 0.059325C10.8341 0.0982392 10.7486 0.155309 10.6765 0.227275L5.9999 4.90396L1.32464 0.227275C1.17912 0.0817534 0.981751 -1.53333e-09 0.775955 0C0.570159 1.53332e-09 0.372791 0.0817534 0.227272 0.227275C0.081752 0.372798 1.5333e-09 0.570168 0 0.775967C-1.5333e-09 0.981767 0.081752 1.17914 0.227272 1.32466L4.90388 6L0.227272 10.6753C0.155218 10.7474 0.0980613 10.8329 0.0590659 10.9271C0.0200705 11.0212 0 11.1221 0 11.224C0 11.3259 0.0200705 11.4268 0.0590659 11.521C0.0980613 11.6151 0.155218 11.7007 0.227272 11.7727C0.372791 11.9182 0.570159 12 0.775955 12C0.877855 12 0.978757 11.9799 1.0729 11.9409C1.16704 11.9019 1.25258 11.8448 1.32464 11.7727L5.9999 7.09603L10.6765 11.7727C10.822 11.9181 11.0193 11.9996 11.225 11.9995C11.4307 11.9994 11.6279 11.9176 11.7732 11.772C11.9185 11.6265 12.0001 11.4292 12 11.2236C11.9999 11.0179 11.918 10.8207 11.7725 10.6753L7.09592 6L11.7725 1.32466Z" fill="white"/>
</svg>
