<svg width="20" height="14" viewBox="0 0 20 14" fill="none" xmlns="http://www.w3.org/2000/svg">
<g opacity="0.7">
<path d="M19.0234 0H0.976562C0.437891 0 0 0.437891 0 0.976562V12.6437C0 13.1824 0.437891 13.6203 0.976562 13.6203H19.0234C19.5621 13.6203 20 13.1824 20 12.6437V0.976562C20 0.437891 19.5621 0 19.0234 0ZM18.8281 12.4484H1.17188V1.17188H18.8281V12.4484Z" fill="black"/>
<path d="M2.92969 9.7146C3.46836 9.7146 3.90625 10.1525 3.90625 10.6912C3.90625 11.0146 4.16875 11.2771 4.49219 11.2771H15.5078C15.8313 11.2771 16.0938 11.0146 16.0938 10.6912C16.0938 10.1525 16.5316 9.7146 17.0703 9.7146C17.3938 9.7146 17.6562 9.45211 17.6562 9.12867V4.49194C17.6562 4.16851 17.3938 3.90601 17.0703 3.90601C16.5316 3.90601 16.0938 3.46812 16.0938 2.92944C16.0938 2.60601 15.8313 2.34351 15.5078 2.34351H4.49219C4.16875 2.34351 3.90625 2.60601 3.90625 2.92944C3.90625 3.46812 3.46836 3.90601 2.92969 3.90601C2.60625 3.90601 2.34375 4.16851 2.34375 4.49194V9.12867C2.34375 9.45211 2.60625 9.7146 2.92969 9.7146ZM3.51562 4.99702C4.23008 4.7939 4.79414 4.23023 4.99687 3.51538H15.0031C15.2059 4.23023 15.7699 4.7939 16.4844 4.99702V8.62359C15.7699 8.82671 15.2059 9.39039 15.0031 10.1052H4.99687C4.79414 9.39039 4.23008 8.82671 3.51562 8.62359V4.99702Z" fill="black"/>
<path d="M10 8.82202C11.1094 8.82202 12.0117 7.91968 12.0117 6.8103C12.0117 5.70093 11.1094 4.79858 10 4.79858C8.89062 4.79858 7.98828 5.70093 7.98828 6.8103C7.98828 7.91968 8.89062 8.82202 10 8.82202ZM10 5.97046C10.4633 5.97046 10.8398 6.34741 10.8398 6.8103C10.8398 7.27319 10.4633 7.65015 10 7.65015C9.53672 7.65015 9.16016 7.27319 9.16016 6.8103C9.16016 6.34741 9.53672 5.97046 10 5.97046Z" fill="black"/>
<path d="M5.55371 7.39624H6.1266C6.4502 7.39624 6.71254 7.1339 6.71254 6.8103C6.71254 6.48671 6.4502 6.22437 6.1266 6.22437H5.55371C5.23012 6.22437 4.96777 6.48671 4.96777 6.8103C4.96777 7.1339 5.23012 7.39624 5.55371 7.39624Z" fill="black"/>
<path d="M13.874 7.39624H14.4469C14.7705 7.39624 15.0329 7.1339 15.0329 6.8103C15.0329 6.48671 14.7705 6.22437 14.4469 6.22437H13.874C13.5504 6.22437 13.2881 6.48671 13.2881 6.8103C13.2881 7.1339 13.5504 7.39624 13.874 7.39624Z" fill="black"/>
</g>
</svg>
