<svg width="19" height="23" viewBox="0 0 19 23" fill="none" xmlns="http://www.w3.org/2000/svg">
<path d="M11.5759 2.95854C10.3699 2.61618 9.09183 2.61618 7.88574 2.95854C8.17497 2.22295 8.89307 1.70605 9.73084 1.70605C10.5686 1.70605 11.2867 2.22295 11.5759 2.95854V2.95854Z" stroke="#DADADA" stroke-width="1.5" stroke-miterlimit="10" stroke-linecap="round" stroke-linejoin="round"/>
<path d="M9.73071 2.66992C6.42948 2.66992 3.7466 5.34388 3.7466 8.63414V11.5069C3.7466 12.1133 3.48729 13.0377 3.17811 13.5546L2.03116 15.4532C1.32304 16.6262 1.81174 17.9284 3.1083 18.3658C7.40688 19.7972 12.0446 19.7972 16.3432 18.3658C17.55 17.9681 18.0785 16.5467 17.4203 15.4532L16.2733 13.5546C15.9741 13.0377 15.7148 12.1133 15.7148 11.5069V8.63414C15.7148 5.35382 13.022 2.66992 9.73071 2.66992Z" stroke="#DADADA" stroke-width="1.5" stroke-miterlimit="10" stroke-linecap="round"/>
<path d="M12.7224 18.7236C12.7224 20.3638 11.376 21.7057 9.73034 21.7057C8.91251 21.7057 8.15452 21.3678 7.61595 20.831C7.05559 20.2717 6.74007 19.5141 6.73828 18.7236" stroke="#DADADA" stroke-width="1.5" stroke-miterlimit="10"/>
</svg>
