<svg width="24" height="24" viewBox="0 0 24 24" fill="none" xmlns="http://www.w3.org/2000/svg">
<path d="M21.4403 11.05L12.2503 20.24C11.1244 21.3659 9.59747 21.9983 8.00529 21.9983C6.41311 21.9983 4.88613 21.3659 3.76029 20.24C2.63445 19.1142 2.00195 17.5872 2.00195 15.995C2.00195 14.4028 2.63445 12.8759 3.76029 11.75L12.9503 2.56001C13.7009 1.80945 14.7188 1.38779 15.7803 1.38779C16.8417 1.38779 17.8597 1.80945 18.6103 2.56001C19.3609 3.31057 19.7825 4.32855 19.7825 5.39001C19.7825 6.45147 19.3609 7.46945 18.6103 8.22001L9.41029 17.41C9.03501 17.7853 8.52602 17.9961 7.99529 17.9961C7.46456 17.9961 6.95557 17.7853 6.58029 17.41C6.20501 17.0347 5.99418 16.5257 5.99418 15.995C5.99418 15.4643 6.20501 14.9553 6.58029 14.58L15.0703 6.10001" stroke="white" stroke-width="2" stroke-linecap="round" stroke-linejoin="round"/>
</svg>
