<svg width="17" height="16" viewBox="0 0 17 16" fill="none" xmlns="http://www.w3.org/2000/svg">
<path fill-rule="evenodd" clip-rule="evenodd" d="M3.55938 6.4V3.73333C3.55938 1.67147 5.23084 0 7.29271 0C9.35458 0 11.026 1.67147 11.026 3.73333V6.4H12.626C13.5097 6.4 14.226 7.11634 14.226 8V8.58668C15.4432 8.83375 16.3594 9.90989 16.3594 11.2C16.3594 12.4901 15.4432 13.5663 14.226 13.8133V14.4C14.226 15.2836 13.5097 16 12.626 16H1.95938C1.07572 16 0.359375 15.2836 0.359375 14.4V8C0.359375 7.11634 1.07572 6.4 1.95938 6.4H3.55938ZM4.62604 3.73333C4.62604 2.26058 5.81995 1.06667 7.29271 1.06667C8.76547 1.06667 9.95938 2.26058 9.95938 3.73333V6.4H4.62604V3.73333ZM9.42604 9.6C8.54238 9.6 7.82604 10.3163 7.82604 11.2C7.82604 12.0836 8.54238 12.8 9.42604 12.8H13.6927C14.5763 12.8 15.2927 12.0836 15.2927 11.2C15.2927 10.3163 14.5763 9.6 13.6927 9.6H9.42604Z" fill="#989898"/>
</svg>
