<svg width="50" height="50" viewBox="0 0 50 50" fill="none" xmlns="http://www.w3.org/2000/svg">
<circle cx="25" cy="25" r="25" fill="#FA7269"/>
<g clip-path="url(#clip0)">
<path d="M34.8955 23.126C30.2436 23.126 26.458 26.9116 26.458 31.5635C26.458 36.2153 30.2436 40.001 34.8955 40.001C39.5474 40.001 43.333 36.2153 43.333 31.5635C43.333 26.9116 39.5474 23.126 34.8955 23.126ZM38.3717 35.0397C38.188 35.2216 37.948 35.3135 37.708 35.3135C37.468 35.3135 37.228 35.2216 37.0443 35.0397L34.2318 32.2272C34.0574 32.051 33.958 31.8128 33.958 31.5635V27.8135C33.958 27.296 34.378 26.876 34.8955 26.876C35.413 26.876 35.833 27.296 35.833 27.8135V31.1753L38.3717 33.7141C38.7374 34.0797 38.7374 34.6722 38.3717 35.0397Z" fill="white"/>
<path d="M25.2861 27.8498C25.2168 27.7711 25.1605 27.6811 25.0855 27.6061L22.708 25.2305L20.3305 27.608C19.4455 28.4911 18.958 29.6667 18.958 30.9211V32.5036H24.6299C24.6018 32.1942 24.583 31.8811 24.583 31.5642C24.583 30.2536 24.838 29.0048 25.2861 27.8498Z" fill="white"/>
<path d="M18.958 13.751V15.3316C18.958 16.5822 19.4455 17.7597 20.3305 18.6466L22.708 21.0241L25.0855 18.6466C25.9705 17.7616 26.458 16.5841 26.458 15.3316V13.751H18.958Z" fill="white"/>
<path d="M31.1455 10.0015H14.2705C13.753 10.0015 13.333 10.4233 13.333 10.939C13.333 11.4583 13.753 11.8765 14.2705 11.8765H15.208V15.3321C15.208 17.5858 16.0855 19.7046 17.6793 21.2983L19.5074 23.1265L17.6793 24.9546C16.0855 26.5502 15.208 28.6671 15.208 30.9208V34.3765H14.2705C13.753 34.3765 13.333 34.7965 13.333 35.314C13.333 35.8315 13.753 36.2515 14.2705 36.2515L25.7211 36.2496C25.4155 35.6552 25.168 35.029 24.9824 34.3746L17.083 34.3765V30.9208C17.083 29.1677 17.7655 27.5215 19.0049 26.2802L21.4968 23.7902C21.6711 23.614 21.7705 23.3758 21.7705 23.1265C21.7705 22.879 21.6711 22.639 21.4968 22.4627L19.0049 19.9727C17.7655 18.7333 17.083 17.0852 17.083 15.3321V11.8765H28.333V15.3321C28.333 17.0852 27.6505 18.7315 26.4111 19.9727L23.9193 22.4646C23.7449 22.6408 23.6455 22.879 23.6455 23.1265C23.6455 23.3758 23.7449 23.614 23.9193 23.7902L26.1899 26.059C26.5293 25.5246 26.9155 25.0258 27.3449 24.5627L25.9086 23.1265L27.7368 21.2965C29.3305 19.7046 30.208 17.5858 30.208 15.3321V11.8765H31.1455C31.663 11.8765 32.083 11.4565 32.083 10.939C32.083 10.4215 31.663 10.0015 31.1455 10.0015Z" fill="white"/>
</g>
<defs>
<clipPath id="clip0">
<rect width="30" height="30" fill="white" transform="translate(13.333 10.0015)"/>
</clipPath>
</defs>
</svg>
