<svg width="578" height="452" viewBox="0 0 578 452" fill="none" xmlns="http://www.w3.org/2000/svg">
<path d="M78.6024 138.438L87.27 137.013L87.0325 130.483L95.5814 128.702L96.2938 122.41L102.468 120.273L101.518 117.898L93.2067 120.747L92.4943 126.684L83.5892 128.584L83.8267 134.995L75.9902 136.301L78.6024 138.438Z" fill="#FEC55E"/>
<path d="M370.215 36.4496L379.002 35.9747L379.477 29.4446L388.144 28.6135L389.569 22.4396L395.981 20.8961L395.268 18.4028L386.719 20.3025L385.413 26.1202L376.39 27.07L376.033 33.4814L368.078 33.9563L370.215 36.4496Z" fill="#FEC55E"/>
<path d="M531.693 165.508L525.163 166.22V171.088L518.751 172.038L518.039 176.668L513.408 178.093L514.002 179.993L520.295 178.093L521.007 173.7L527.656 172.632V167.882L533.593 167.17L531.693 165.508Z" fill="#FF6677"/>
<path d="M272.14 22.4395L268.934 18.1652L263.71 19.3525L260.504 14.3659L255.279 17.2154L251.361 11.7539L246.256 13.7723L241.625 9.02312L243.406 7.24219L246.849 10.804L252.311 8.66693L256.111 14.0097L261.454 11.0415L265.016 16.6218L270.121 15.5532L273.09 19.4712L276.295 18.0465L277.364 20.3023L272.14 22.4395Z" fill="#FF6677"/>
<path d="M532.286 302.045C531.93 306.32 535.492 310.119 539.648 310.831C543.804 311.544 547.484 308.813 549.028 305.014C551.878 297.415 543.566 291.479 539.054 295.99C534.899 300.264 536.205 306.676 540.716 306.676C542.498 306.676 545.228 305.251 544.16 303.114C543.922 302.639 543.21 302.639 542.972 303.114C542.379 304.064 542.498 304.064 542.26 304.301C541.904 304.657 541.31 304.776 540.716 304.657C536.086 304.657 539.173 293.972 544.635 296.584C547.603 298.009 548.434 301.452 547.484 304.301C546.534 307.151 543.804 309.407 540.716 309.169C537.036 308.932 533.83 305.489 533.592 301.808C533.355 301.214 532.286 301.333 532.286 302.045Z" fill="#FEC55E"/>
<path d="M496.905 428.61C496.905 428.61 499.161 430.866 499.28 431.697C499.28 432.528 499.517 441.314 498.567 442.264C497.618 443.095 494.887 443.689 495.718 444.638C496.43 445.351 501.536 445.232 504.979 444.995C505.929 444.995 507.235 436.921 507.591 435.734C508.185 433.953 509.491 430.153 509.016 428.966C508.779 428.373 507.472 427.185 505.81 426.117C504.029 424.929 502.248 422.317 502.248 422.317L496.905 428.61Z" fill="#FFC3B5"/>
<path d="M473.039 433.834L475.058 439.652C475.176 440.602 475.77 442.858 475.77 443.689C475.77 446.894 461.522 440.958 464.728 439.652C464.965 439.533 465.915 438.465 466.034 437.396C466.153 435.734 464.846 433.597 464.846 433.597L473.039 433.834Z" fill="#FFC3B5"/>
<path d="M450.716 324.96C450.716 324.96 449.648 335.408 449.648 335.646C449.648 352.624 446.323 385.749 446.917 388.955C448.46 396.672 465.202 436.446 465.202 436.446L474.226 435.378L462.471 387.886L466.745 368.771L472.92 331.015L450.716 324.96Z" fill="#3C8F7C"/>
<path d="M480.993 334.221L482.774 344.076L487.405 384.918L505.096 424.93C505.096 424.93 502.603 430.748 498.922 431.579L470.782 390.617L453.328 338.139L453.922 326.504L480.993 334.221Z" fill="#50BFA5"/>
<path d="M505.691 425.999C505.691 425.999 500.348 441.078 498.329 441.671C497.736 441.79 495.123 442.384 494.648 443.571C494.53 443.927 494.648 445.114 494.648 445.114H505.691C505.691 445.114 507.116 438.466 507.591 435.616C507.591 435.616 510.559 428.492 510.203 427.899C509.965 427.305 505.691 425.999 505.691 425.999Z" fill="#F47458"/>
<path d="M476.601 444.876L474.939 439.652C474.939 439.652 471.495 441.077 469.833 440.84C468.171 440.602 464.728 439.652 464.728 439.652C457.841 441.908 452.26 442.977 453.329 444.876H476.601Z" fill="#F47458"/>
<path d="M476.007 272.839C476.007 272.839 487.405 274.026 490.374 277.232L484.556 306.439C484.081 308.576 483.962 310.951 483.962 313.207C484.081 319.262 484.318 332.084 483.843 336.24C482.537 347.757 452.854 336.715 448.342 335.171C448.342 335.171 454.991 284.237 459.503 276.401C461.046 273.789 467.814 273.67 467.814 273.67L476.007 272.839Z" fill="#F47458"/>
<path d="M422.339 256.335C422.695 255.504 426.495 258.116 427.326 257.522C428.157 257.047 424.001 252.773 424.358 252.06C425.189 250.754 429.226 256.335 429.582 255.86C429.938 255.266 426.02 249.211 427.445 248.855C428.87 248.499 430.888 255.504 431.482 255.147C432.194 254.672 429.107 248.736 430.413 247.549C431.126 246.955 434.569 258.353 435.756 258.828C436.944 259.303 438.368 254.316 439.556 254.554C440.743 254.672 435.756 263.815 435.994 264.408C436.231 265.121 440.743 279.843 443.474 284.236C445.136 283.524 446.68 282.692 448.105 281.98C448.698 285.423 450.123 288.391 450.835 291.716C445.611 293.972 439.674 296.228 438.131 295.634C433.5 293.972 431.244 271.532 430.532 267.376C429.819 263.221 427.801 262.39 426.732 260.134C425.901 257.997 421.983 257.166 422.339 256.335Z" fill="#F7A491"/>
<path d="M461.402 274.857L468.051 282.93C468.051 282.93 458.434 289.342 449.766 293.141C448.935 289.817 447.035 284.593 446.441 281.15C453.565 277.588 461.402 274.857 461.402 274.857Z" fill="#F47458"/>
<path d="M523.382 255.385C523.026 254.554 519.226 257.166 518.395 256.573C517.564 256.098 521.72 251.824 521.364 251.111C520.532 249.805 516.496 255.385 516.139 254.911C515.783 254.317 519.701 248.262 518.277 247.906C516.852 247.549 514.833 254.554 514.24 254.198C513.527 253.842 516.614 247.787 515.308 246.6C514.596 246.006 511.152 257.404 509.965 257.879C508.778 258.354 507.353 253.367 506.166 253.605C504.978 253.842 509.965 262.865 509.728 263.459C509.49 264.053 504.978 278.775 502.247 283.287C500.585 282.574 499.042 281.743 497.617 281.031C497.023 284.474 495.361 287.68 494.648 291.004C499.873 293.26 506.047 295.278 507.59 294.803C512.221 293.141 514.477 270.701 515.189 266.546C515.902 262.39 517.92 261.559 518.989 259.304C520.058 257.048 523.857 256.335 523.382 255.385Z" fill="#F7A491"/>
<path d="M483.369 274.145L482.182 292.31C482.182 292.31 486.812 288.511 495.48 292.31C496.311 288.986 498.211 283.762 498.804 280.319C491.562 276.757 483.369 274.145 483.369 274.145Z" fill="#F47458"/>
<path d="M476.126 262.391L477.789 273.077C477.789 273.077 471.971 285.9 468.409 284.712C465.44 283.762 467.221 272.483 467.221 272.483C467.221 272.483 468.884 266.428 468.29 263.341C467.934 260.492 476.126 262.391 476.126 262.391Z" fill="#F7A491"/>
<path d="M468.407 263.458C467.932 260.371 476.125 262.389 476.125 262.389L476.243 263.22C476.006 263.814 475.769 264.289 475.294 264.764C473.394 266.782 470.544 267.97 468.051 268.088C468.407 266.426 468.644 264.645 468.407 263.458Z" fill="#F47458"/>
<path d="M477.551 247.194C477.789 247.194 479.451 259.423 476.364 262.747C473.277 266.19 467.222 267.259 464.966 264.647C462.591 261.678 462.71 248.5 467.459 245.056C472.327 241.495 477.551 247.194 477.551 247.194Z" fill="#F7A491"/>
<path d="M469.358 238.407C473.157 239.119 475.532 241.493 476.363 242.443C478.026 242.681 480.281 243.631 482.775 247.549C485.743 252.417 483.487 257.878 480.163 260.609C476.719 263.221 476.719 266.426 476.719 266.426L476.244 264.764C475.888 263.577 475.651 262.271 475.888 260.965C475.888 260.253 476.126 259.422 476.482 258.709C477.313 256.928 474.701 255.741 473.989 254.316C473.395 253.129 473.395 250.517 472.564 248.617L471.495 247.192C471.495 247.192 469.12 245.293 466.746 245.768C464.371 246.48 464.609 237.457 469.358 238.407Z" fill="black"/>
<path d="M474.107 256.574C474.107 258.117 474.701 259.304 475.651 259.304C476.482 259.304 477.194 258.117 477.313 256.574C477.313 255.03 476.72 253.843 475.77 253.843C474.82 253.843 474.107 255.03 474.107 256.574Z" fill="#F7A491"/>
<path d="M381.139 50.8161C380.664 50.6974 380.189 50.4599 379.714 50.3412C379.595 50.3412 379.358 50.2225 379.239 50.2225C379.121 50.2225 378.883 50.2225 378.764 50.1037C378.646 50.1037 378.408 50.1037 378.289 49.985C378.171 49.985 377.933 49.985 377.814 49.8663C377.696 49.8663 377.458 49.8663 377.221 49.7476C377.102 49.7476 376.865 49.7476 376.746 49.7476C376.508 49.7476 376.39 49.7476 376.152 49.7476C376.033 49.7476 375.915 49.7476 375.677 49.7476C375.44 49.7476 375.202 49.7476 374.965 49.7476C374.846 49.7476 374.727 49.7476 374.609 49.7476C374.252 49.7476 373.896 49.7476 373.54 49.7476H202.087C201.731 49.7476 201.256 49.7476 200.9 49.7476C200.069 49.7476 199.356 49.8663 198.644 49.985C198.288 49.985 197.932 50.1037 197.457 50.2225C187.72 52.2409 180.121 60.3144 179.171 70.5251C179.171 71.2374 179.053 72.0685 179.053 72.8996V357.73V422.674C179.053 432.647 185.346 441.196 194.251 444.402C195.676 444.758 197.219 445.708 202.087 445.826H373.184C374.015 445.826 374.727 445.826 375.559 445.708C386.482 444.639 395.031 435.972 396.218 425.049C396.218 424.336 396.337 423.505 396.337 422.674V137.725V72.5435C396.337 62.5702 389.925 54.1405 381.139 50.8161Z" fill="black"/>
<path d="M381.019 78.9546H186.057V411.989H380.9V78.9546H381.019Z" fill="#FDBF00"/>
<path d="M381.375 189.135V413.176H186.057V202.314H206.36V230.809H212.534V202.314H218.352V187.829H223.339V180.705H238.656V187.829H243.524V202.314H249.461V216.205H255.279V169.782H279.145V216.205H281.282V196.734H285.081V156.722H289.712V147.58H310.134V156.722H314.765V216.205H319.396V196.734H322.839V184.505H328.182V160.403H339.343V184.505H344.686V196.734H348.129V221.429H353.71V189.135H381.375Z" fill="#E8AB00"/>
<path opacity="0.6" d="M313.221 68.5061H257.653C256.941 68.5061 256.229 67.9125 256.229 67.0814V65.6567C256.229 64.9443 256.822 64.2319 257.653 64.2319H313.221C313.934 64.2319 314.646 64.8256 314.646 65.6567V67.0814C314.527 67.9125 314.052 68.5061 313.221 68.5061Z" fill="#293241"/>
<path d="M381.375 258.472V233.183L327.232 270.107C327.232 270.107 281.282 215.73 256.348 235.082C267.271 253.485 280.451 271.057 287.219 279.487C302.535 298.365 325.807 307.388 330.319 305.37C335.425 302.877 381.375 258.472 381.375 258.472Z" fill="#F47458"/>
<path d="M131.676 285.661C131.676 285.661 142.006 268.564 144.499 264.527C146.993 260.609 153.404 244.818 153.642 244.225C153.879 243.631 149.248 236.388 150.317 236.151C151.386 235.914 152.454 239.95 153.642 239.475C154.71 239 157.916 228.909 158.629 229.383C159.816 230.215 156.847 235.557 157.441 235.914C158.035 236.151 159.935 230.096 161.241 230.215C162.428 230.333 158.866 235.914 159.222 236.27C159.578 236.626 163.259 231.521 163.972 232.589C164.328 233.183 160.528 237.101 161.241 237.457C161.953 237.813 165.278 235.201 165.634 235.914C165.99 236.626 162.547 237.694 161.478 239.713C160.41 241.612 158.628 242.562 157.916 246.124C157.204 249.805 155.898 264.883 152.098 271.413C148.299 278.062 140.581 290.41 140.581 290.41L131.676 285.661Z" fill="#8E5349"/>
<path d="M114.579 397.86C114.817 393.823 116.716 387.055 116.716 387.055L109.711 340.395L127.759 333.746H132.983C132.983 333.746 135.714 344.55 134.764 358.798C134.289 366.396 125.503 432.528 125.503 432.528C125.621 434.428 125.859 437.159 126.571 437.99C127.165 438.702 127.996 439.533 128.708 440.008C128.946 440.127 129.777 440.721 130.015 440.839C133.458 442.62 134.289 443.214 135.476 444.045C136.07 444.52 136.664 445.114 135.833 445.114L120.753 444.876C120.753 444.876 120.041 444.639 119.447 443.451C118.854 442.264 120.16 439.771 120.397 438.583C120.516 437.752 120.516 436.328 120.516 434.784C120.753 434.665 114.342 401.896 114.579 397.86Z" fill="#8E5349"/>
<path d="M128.828 440.009C124.909 441.077 121.941 440.365 120.279 439.652C119.922 440.958 119.329 442.502 119.566 443.452C119.922 444.639 120.397 444.876 120.872 444.876C124.553 444.995 134.171 445.114 136.902 445.114C137.258 445.114 137.495 444.639 137.258 444.283C136.664 443.452 129.065 440.127 128.828 440.009Z" fill="#184655"/>
<path d="M76.4642 399.285C74.5644 398.573 70.5275 397.979 70.29 398.454C70.1713 398.929 64.8282 415.432 66.6092 417.925C67.6778 419.469 69.1026 417.213 71.2399 413.889C70.6462 409.258 75.1581 399.404 76.4642 399.285Z" fill="#184655"/>
<path d="M130.015 326.979L108.999 324.842V327.216C108.286 328.641 99.2623 331.372 100.093 345.619C100.568 353.812 108.642 381.832 106.743 382.9C106.743 382.9 92.9694 385.987 79.4336 398.216C78.0088 398.928 76.9402 399.403 76.7027 399.522C76.4653 399.522 75.0404 399.403 74.803 399.522C70.766 404.034 70.766 409.495 71.3597 414.126C73.1407 411.514 75.1592 407.714 75.8716 407.358C76.3465 407.239 78.84 406.052 81.4521 404.984C89.2886 402.015 113.985 393.586 118.26 391.092C120.278 389.905 127.165 348.469 127.64 345.975C127.877 344.551 128.59 339.208 129.54 335.884C130.371 332.797 130.608 329.828 130.015 326.979Z" fill="#8E5349"/>
<path d="M125.622 432.528L120.516 433.241C119.329 426.829 114.461 401.421 114.698 397.86C114.936 393.823 116.835 387.055 116.835 387.055L109.83 340.395L127.878 333.746H133.102C133.102 333.746 135.833 344.55 134.883 358.798C134.289 366.396 125.622 432.528 125.622 432.528Z" fill="#13375B"/>
<path d="M81.2154 404.746L79.6719 397.623C93.0889 385.75 106.625 382.663 106.625 382.663C108.524 381.476 100.45 353.693 99.9755 345.382C99.1443 331.253 108.168 328.404 108.881 326.979V324.604L129.897 326.742C130.372 329.591 130.253 332.559 129.422 335.29C128.472 338.614 127.759 343.957 127.522 345.382C127.047 347.757 120.16 389.312 118.142 390.499C113.749 393.111 89.1706 401.422 81.3342 404.39C81.3342 404.746 81.3342 404.746 81.2154 404.746Z" fill="#355389"/>
<path d="M83.1141 247.787C84.7764 252.299 82.1643 255.624 80.2645 260.135C78.9584 263.103 81.8081 267.853 84.8952 269.99C92.7316 275.57 94.6314 275.689 94.0377 283.169C92.6129 301.215 114.104 293.498 117.547 292.904C120.99 292.311 123.603 292.548 125.265 291.361C130.252 287.918 134.882 277.47 134.051 268.684C133.22 259.898 122.772 262.985 120.516 258.948C118.141 254.911 125.265 249.925 119.209 243.276C101.755 224.042 83.4703 236.983 82.7579 244.344C82.6392 245.65 82.7579 246.838 83.1141 247.787Z" fill="#13375B"/>
<path d="M104.487 290.648C104.487 290.648 83.4709 291.123 78.8403 291.598C74.2096 291.954 57.5868 290.529 56.8744 290.529C56.2807 290.529 51.8875 283.168 51.1751 283.999C50.4627 284.83 53.5498 287.561 52.5999 288.273C51.65 288.986 41.3201 287.323 41.4389 288.155C41.6763 289.579 47.7318 289.461 47.7318 290.054C47.7318 290.767 41.4389 289.698 41.0827 290.767C40.7265 291.954 47.1381 291.241 47.3756 291.716C47.6131 292.191 41.4389 293.141 42.0325 294.21C42.3887 294.803 47.6131 293.26 47.6131 294.091C47.6131 294.922 43.8136 296.703 44.2885 297.297C44.7634 297.89 47.2569 295.397 49.5128 295.397C51.65 295.397 53.3123 294.21 56.7556 295.16C60.3177 296.109 72.3099 299.434 79.6714 300.621C87.2704 301.69 104.843 302.521 104.843 302.521L104.487 290.648Z" fill="#8E5349"/>
<path d="M137.613 314.155C138.682 302.995 136.188 300.857 136.07 299.67C137.138 296.108 140.938 290.765 141.769 289.222C141.769 289.222 136.545 283.404 132.745 283.404C132.745 283.404 128.708 288.628 125.621 290.172C125.621 290.172 124.552 290.647 124.077 290.647C121.109 290.647 110.898 290.291 108.998 290.884L106.742 306.794C107.336 307.744 107.93 325.909 109.117 327.453C110.304 328.996 130.133 335.645 132.864 333.864C132.864 333.745 137.019 321.16 137.613 314.155Z" fill="#8E5349"/>
<path d="M114.342 291.241C112.443 290.291 98.6693 290.41 98.6693 290.41C98.6693 290.41 96.7696 301.214 98.4319 303.47C98.4319 303.47 108.287 307.151 108.049 308.101L114.342 291.241Z" fill="#50BFA5"/>
<path d="M134.645 327.81C135.832 323.655 137.257 318.074 137.613 314.275C138.682 303.115 136.188 300.978 136.07 299.79C137.138 296.228 140.938 290.886 141.769 289.342C141.769 289.342 136.545 283.524 132.745 283.524C132.745 283.524 128.708 288.748 125.621 290.292C125.621 290.292 124.552 290.767 124.077 290.767C121.109 290.767 110.898 290.411 108.998 291.004L106.742 306.914C107.098 307.508 107.573 316.293 108.167 322.23C111.254 323.655 120.159 327.098 134.645 327.81Z" fill="#50BFA5"/>
<path d="M117.428 284.83C117.428 284.83 118.496 290.291 118.259 292.547C118.021 294.684 119.09 301.689 123.721 301.689C128.351 301.689 124.552 292.785 124.196 290.648C123.839 288.511 123.721 281.98 123.721 281.98L117.428 284.83Z" fill="#8E5349"/>
<path d="M123.603 285.187C123.603 283.406 123.485 281.862 123.485 281.862L117.311 284.712C117.311 284.712 117.548 285.78 117.785 287.205C120.516 287.917 122.416 286.849 123.603 285.187Z" fill="#7F4B44"/>
<path d="M115.173 269.633C115.173 269.633 112.799 270.939 111.967 273.789C111.136 276.638 112.086 284 118.142 285.781C124.197 287.561 126.928 281.744 125.622 277.232C124.316 272.602 121.704 266.903 115.173 269.633Z" fill="#8E5349"/>
<path d="M126.453 275.451C126.334 276.638 125.621 277.588 124.909 277.469C124.197 277.469 123.722 276.401 123.84 275.095C123.959 273.908 124.672 272.958 125.384 273.076C125.978 273.195 126.571 274.145 126.453 275.451Z" fill="#8E5349"/>
<path d="M115.885 269.277C115.885 269.277 114.816 277.47 112.085 278.894C109.354 280.319 110.542 284 110.542 284C110.542 284 108.167 275.57 110.304 272.839C112.323 270.227 115.885 269.277 115.885 269.277Z" fill="#13375B"/>
<path d="M113.629 280.082C114.341 281.15 114.341 282.338 113.629 282.931C112.916 283.406 111.729 282.931 111.017 281.863C110.304 280.794 110.304 279.607 111.017 279.013C111.848 278.538 112.916 279.013 113.629 280.082Z" fill="#8E5349"/>
<path d="M43.5752 247.193L45.7124 243.275L43.694 239.238C43.4565 238.764 43.8127 238.289 44.4064 238.407L48.7995 239.238L52.0054 236.033C52.3616 235.677 52.9553 235.914 53.074 236.389L53.6677 240.901L57.7046 242.919C58.1796 243.157 58.1796 243.869 57.7046 243.988L53.6677 245.887L52.9552 250.399C52.9552 250.874 52.2428 251.111 51.8866 250.755L48.7995 247.431L44.4064 248.143C43.694 248.143 43.3377 247.668 43.5752 247.193Z" fill="#F7CC7F"/>
<path d="M446.798 168.238L444.542 164.32L440.03 163.964C439.555 163.964 439.317 163.37 439.673 162.895L442.761 159.571L441.692 155.178C441.573 154.703 442.048 154.228 442.523 154.465L446.679 156.365L450.478 154.109C450.953 153.872 451.428 154.228 451.428 154.703L450.953 159.215L454.397 162.183C454.753 162.539 454.634 163.133 454.159 163.251L449.766 164.201L447.985 168.357C447.747 168.594 447.035 168.713 446.798 168.238Z" fill="#F7CC7F"/>
<path d="M124.672 189.965L125.859 188.066L124.909 187.709C124.79 187.709 124.672 187.472 124.672 187.234C124.672 187.116 124.909 186.997 125.147 186.997L126.215 187.353L127.284 185.691L126.334 185.335C126.215 185.335 126.097 185.097 126.097 184.86C126.097 184.741 126.334 184.622 126.571 184.622L127.64 185.097L128.827 183.198C128.946 183.079 129.065 182.96 129.302 183.079H129.421C129.659 183.198 129.659 183.435 129.54 183.673L128.471 185.454L130.134 186.047L131.321 184.148C131.44 184.029 131.558 183.91 131.796 184.029H131.915C132.152 184.148 132.152 184.385 132.033 184.622L130.965 186.403L131.915 186.76C132.033 186.76 132.152 186.997 132.152 187.234C132.152 187.353 131.915 187.472 131.677 187.472L130.608 187.116L129.659 188.778L130.608 189.134C130.727 189.134 130.846 189.372 130.846 189.609C130.846 189.728 130.608 189.847 130.371 189.847L129.302 189.372L128.115 191.271C127.996 191.39 127.878 191.509 127.64 191.39H127.521C127.284 191.271 127.284 191.034 127.403 190.796L128.59 188.897L126.928 188.303L125.74 190.203C125.622 190.321 125.503 190.44 125.265 190.321H125.147C124.672 190.44 124.553 190.203 124.672 189.965ZM128.827 188.54L129.896 186.878L128.234 186.285L127.165 187.947L128.827 188.54Z" fill="#F47458"/>
<path d="M43.3379 191.272L52.9554 196.615L51.768 186.998L43.3379 191.272Z" fill="#355389"/>
<path d="M338.513 413.295C337.444 395.723 336.732 377.557 336.732 364.141C336.732 363.666 333.763 334.103 333.763 334.103L270.834 350.725L280.451 413.295H338.513Z" fill="#355389"/>
<path d="M312.272 413.295L326.401 371.265L324.62 338.377L248.037 360.342L243.168 388.362L240.438 413.295H312.272Z" fill="#466EB6"/>
<path d="M237.826 206.469L254.686 201.126C254.686 201.126 256.349 207.657 248.868 210.269C240.082 213.355 237.826 206.469 237.826 206.469Z" fill="white"/>
<path d="M267.153 231.283C267.153 231.283 265.609 225.465 263.591 218.579C262.166 213.83 260.978 208.724 261.097 205.044C261.335 195.902 237.35 205.163 237.35 205.163L236.4 231.876L267.153 231.283Z" fill="#F7A491"/>
<path d="M261.098 204.926C261.336 195.784 237.351 205.044 237.351 205.044L237.232 207.656C238.064 208.844 239.013 209.912 239.963 210.743C246.375 215.967 255.755 218.342 263.354 217.511C262.048 213.118 260.979 208.488 261.098 204.926Z" fill="#F47458"/>
<path d="M260.741 144.018C260.741 144.018 270.715 159.215 271.546 171.801C272.258 184.505 269.646 193.172 269.646 193.172L237.588 154.822L260.741 144.018Z" fill="#184655"/>
<path d="M274.87 169.306C275.226 173.699 273.564 177.617 271.07 177.855C268.458 178.092 265.965 174.768 265.609 170.256C265.252 165.863 266.915 161.945 269.408 161.707C272.02 161.351 274.395 164.794 274.87 169.306Z" fill="#F48C7F"/>
<path d="M227.021 160.995C226.309 160.758 226.309 197.801 237.114 206.469C247.8 215.136 266.441 215.967 271.903 207.181C277.958 197.564 272.14 158.621 256.349 150.31C240.319 141.88 227.021 160.995 227.021 160.995Z" fill="#F7A491"/>
<path d="M224.408 137.963C216.216 145.086 212.298 150.31 206.717 163.014C199.949 178.568 213.366 194.834 224.765 201.364C236.163 207.775 237.113 215.611 237.113 215.611L237.588 210.743C237.825 208.962 237.825 207.537 237.469 206.35C237.113 204.925 236.401 203.738 235.807 202.432C234.738 200.414 231.77 193.29 230.583 191.39C227.377 186.404 226.783 185.454 228.327 180.824C229.514 177.143 228.089 169.307 230.108 163.37L245.306 160.046C245.306 160.046 254.805 157.79 259.673 152.21C273.208 136.656 245.899 118.728 224.408 137.963Z" fill="#184655"/>
<path d="M231.769 185.098C233.669 189.134 233.313 193.409 230.819 194.358C228.563 195.427 225.001 193.052 223.101 189.016C221.202 184.979 221.558 180.705 224.051 179.755C226.545 178.686 229.988 181.061 231.769 185.098Z" fill="#F7A491"/>
<path d="M139.632 103.412C141.532 108.636 144.975 116.948 144.975 116.948C145.094 119.322 145.569 129.177 146.162 141.168L162.904 132.026C162.904 132.026 160.292 112.555 161.004 111.249C161.479 110.18 162.785 111.249 167.297 102.938C168.603 100.563 168.366 96.5262 168.366 96.5262C168.366 96.5262 168.128 91.5396 166.941 91.3021C165.754 90.9459 164.685 91.8958 164.329 92.7269C164.091 93.6767 164.329 95.5764 164.091 96.5262C163.854 97.476 161.36 98.782 160.292 98.782C159.223 98.782 158.63 84.2971 158.63 84.2971C158.63 84.2971 158.748 80.1416 158.867 78.7169C158.986 77.5296 159.579 74.0865 159.579 74.0865C159.579 74.0865 160.173 69.0999 158.63 68.8624C157.68 68.7437 155.899 72.8992 154.83 77.2921C153.643 82.0413 153.287 86.9092 152.93 86.9092C151.743 86.9092 151.387 78.9543 151.387 78.9543C151.387 78.9543 152.099 75.155 151.862 73.4928C152.693 71.237 152.93 67.3189 151.031 67.2002C150.674 67.2002 148.893 72.4243 148.893 72.4243C148.893 72.4243 148.418 75.9861 147.943 77.767C147.35 80.7353 147.706 85.3657 147.469 87.3841C147.231 89.165 146.756 88.4526 146.637 88.5714C146.519 88.5714 146.519 86.3155 146.4 83.1098C146.4 81.4476 145.925 79.6667 146.162 77.8858C146.4 76.1048 146.281 73.7303 146.162 72.3055C146.044 68.15 143.432 68.8624 142.957 72.7804C142.838 74.2052 142.6 75.8674 142.482 77.4109C141.888 83.7035 142.6 89.6399 142.007 89.7586C141.176 89.8774 140.344 79.0731 140.344 79.0731C140.344 79.0731 138.326 73.2554 137.732 78.9543C137.02 85.6031 137.732 90.7085 137.851 90.9459C138.089 92.4894 137.614 98.3071 139.632 103.412Z" fill="#F7A491"/>
<path d="M285.556 239.356L265.015 228.79C265.015 228.79 246.73 231.402 244.474 231.758C242.218 231.995 237.944 317.005 237.587 348.824C237.231 380.643 241.149 385.749 241.149 385.749C241.149 385.749 270.833 388.717 292.086 384.205C314.052 379.575 337.681 364.496 337.681 364.496C337.681 364.496 311.321 306.676 305.266 288.273C299.211 270.107 285.556 239.356 285.556 239.356Z" fill="#FCFCFC"/>
<path d="M245.305 231.521L177.864 177.618C177.864 177.618 162.547 120.747 161.597 118.728C160.766 116.71 145.687 117.304 139.631 117.422C137.731 117.422 148.061 178.924 152.217 188.897C157.085 200.651 209.21 250.992 209.21 250.992C209.21 250.992 220.964 280.199 221.677 302.639C222.864 339.801 220.252 391.448 221.914 392.873C232.363 397.86 270.002 393.941 271.902 389.905C293.155 344.55 245.305 231.521 245.305 231.521Z" fill="#F47458"/>
<path d="M302.654 252.061C302.654 252.061 331.15 319.499 341.243 343.126C342.311 345.738 347.892 362.479 348.01 364.141C348.485 367.941 332.812 374.589 330.913 374.471C329.132 374.471 306.216 303.233 292.918 268.683C288.406 257.048 281.757 246.125 273.445 236.864L267.033 231.521L266.44 229.503C266.321 229.622 295.174 232.115 302.654 252.061Z" fill="#F47458"/>
<path d="M133.22 21.6089C132.864 25.8831 136.426 29.6824 140.581 30.3948C144.737 31.1072 148.418 28.3764 149.962 24.5771C152.811 16.9784 144.5 11.042 139.988 15.5537C135.832 19.8279 137.138 26.2393 141.65 26.2393C143.431 26.2393 146.162 24.8145 145.093 22.6774C144.856 22.2025 144.144 22.2025 143.906 22.6774C143.312 23.6272 143.431 23.6272 143.194 23.8647C142.837 24.2209 142.244 24.3396 141.65 24.2209C137.019 24.2209 140.107 13.5353 145.568 16.1473C148.537 17.5721 149.368 21.0152 148.418 23.8647C147.468 26.7142 144.737 28.97 141.65 28.7326C137.969 28.4951 134.763 25.052 134.526 21.3714C134.289 20.7778 133.22 20.8965 133.22 21.6089Z" fill="#FEC55E"/>
<path d="M95.7009 202.907H78.0094C73.26 202.907 69.3418 199.108 69.3418 194.24V176.668C69.3418 171.919 73.1413 168.001 78.0094 168.001H95.5821C100.332 168.001 104.25 171.8 104.25 176.668V194.24C104.368 198.989 100.45 202.907 95.7009 202.907Z" fill="#FF6677"/>
<path d="M92.0186 175.718C90.8312 175.718 89.7626 176.074 88.694 176.906C87.7441 177.618 87.1505 178.568 86.7943 179.161C86.4381 178.449 85.8444 177.618 84.8945 176.906C83.9446 176.193 82.876 175.718 81.5699 175.718C78.2454 175.718 75.752 178.449 75.752 182.011C75.752 185.929 78.9578 188.66 83.5884 192.696C84.4196 193.409 85.3695 194.24 86.3193 194.952C86.4381 195.071 86.5568 195.071 86.7943 195.071C87.0317 195.071 87.1505 195.071 87.2692 194.952C88.2191 194.121 89.169 193.29 90.0001 192.696C94.7495 188.66 97.8366 185.929 97.8366 182.011C97.8366 178.449 95.3432 175.718 92.0186 175.718Z" fill="#FCFCFC"/>
<path d="M82.5215 201.602L86.7959 208.963L91.0704 201.602H82.5215Z" fill="#FF6677"/>
<path d="M32.295 255.86H14.7223C9.97293 255.86 6.05469 252.06 6.05469 247.193V229.621C6.05469 224.872 9.85419 220.954 14.7223 220.954H32.295C37.0444 220.954 40.9627 224.753 40.9627 229.621V247.193C40.9627 252.06 37.1632 255.86 32.295 255.86Z" fill="#FF6677"/>
<path d="M28.6143 228.671C27.427 228.671 26.3583 229.027 25.2897 229.858C24.3399 230.571 23.7462 231.52 23.39 232.114C23.0338 231.402 22.4401 230.571 21.4902 229.858C20.5403 229.146 19.4717 228.671 18.1657 228.671C14.8411 228.671 12.3477 231.402 12.3477 234.964C12.3477 238.882 15.5535 241.612 20.1841 245.649C21.0153 246.361 21.9652 247.193 22.915 247.905C23.0338 248.024 23.1525 248.024 23.39 248.024C23.6274 248.024 23.7462 248.024 23.8649 247.905C24.8148 247.074 25.7647 246.243 26.5958 245.649C31.3452 241.612 34.4323 238.882 34.4323 234.964C34.551 231.402 31.9389 228.671 28.6143 228.671Z" fill="#FCFCFC"/>
<path d="M19.2344 254.555L23.5088 261.916L27.7833 254.555H19.2344Z" fill="#FF6677"/>
<path d="M463.658 228.791H446.086C441.336 228.791 437.418 224.992 437.418 220.124V202.552C437.418 197.803 441.217 193.885 446.086 193.885H463.658C468.408 193.885 472.326 197.684 472.326 202.552V220.124C472.326 224.992 468.408 228.791 463.658 228.791Z" fill="#FF6677"/>
<path d="M459.977 201.602C458.79 201.602 457.722 201.958 456.653 202.789C455.703 203.502 455.109 204.452 454.753 205.045C454.397 204.333 453.803 203.502 452.853 202.789C451.904 202.077 450.835 201.602 449.529 201.602C446.204 201.602 443.711 204.333 443.711 207.895C443.711 211.813 446.917 214.543 451.547 218.58C452.378 219.293 453.328 220.124 454.278 220.836C454.397 220.955 454.516 220.955 454.753 220.955C454.872 220.955 455.109 220.955 455.228 220.836C456.178 220.005 457.128 219.174 457.959 218.58C462.708 214.543 465.795 211.813 465.795 207.895C465.914 204.333 463.302 201.602 459.977 201.602Z" fill="#FCFCFC"/>
<path d="M450.598 227.484L454.872 234.845L459.147 227.484H450.598Z" fill="#FF6677"/>
<path d="M563.278 270.819H545.705C540.955 270.819 537.037 267.02 537.037 262.152V244.58C537.037 239.831 540.837 235.913 545.705 235.913H563.278C568.027 235.913 571.945 239.712 571.945 244.58V262.152C571.945 267.02 568.146 270.819 563.278 270.819Z" fill="#FF6677"/>
<path d="M559.597 243.63C558.409 243.63 557.341 243.987 556.272 244.818C555.322 245.53 554.729 246.48 554.372 247.074C554.016 246.361 553.422 245.53 552.473 244.818C551.523 244.105 550.454 243.63 549.148 243.63C545.823 243.63 543.33 246.361 543.33 249.923C543.33 253.841 546.536 256.572 551.167 260.609C551.998 261.321 552.948 262.152 553.897 262.864C554.016 262.983 554.135 262.983 554.372 262.983C554.491 262.983 554.729 262.983 554.847 262.864C555.797 262.033 556.747 261.202 557.578 260.609C562.328 256.572 565.415 253.841 565.415 249.923C565.533 246.361 562.921 243.63 559.597 243.63Z" fill="#FCFCFC"/>
<path d="M550.217 269.514L554.491 276.875L558.766 269.514H550.217Z" fill="#FF6677"/>
<path d="M59.3673 365.921H41.7946C37.0452 365.921 33.127 362.122 33.127 357.254V339.564C33.127 334.815 36.9265 330.896 41.7946 330.896H59.3673C64.1167 330.896 68.0349 334.696 68.0349 339.564V357.135C68.0349 362.003 64.2354 365.921 59.3673 365.921Z" fill="#FF6677"/>
<path d="M55.6866 338.733C54.4992 338.733 53.4306 339.09 52.362 339.921C51.4121 340.633 50.8184 341.583 50.4622 342.177C50.106 341.464 49.5124 340.633 48.5625 339.921C47.6126 339.208 46.544 338.733 45.2379 338.733C41.9133 338.733 39.4199 341.464 39.4199 345.026C39.4199 348.944 42.6258 351.675 47.2564 355.712C48.0875 356.424 49.0374 357.255 49.9873 357.967C50.106 358.086 50.2248 358.086 50.4622 358.086C50.6997 358.086 50.8184 358.086 50.9372 357.967C51.8871 357.136 52.8369 356.305 53.6681 355.712C58.4175 351.675 61.5045 348.944 61.5045 345.026C61.6233 341.464 59.0111 338.733 55.6866 338.733Z" fill="#FCFCFC"/>
<path d="M46.3066 364.497L50.5811 371.858L54.8555 364.497H46.3066Z" fill="#FF6677"/>
<path d="M536.799 398.098H519.226C514.477 398.098 510.559 394.298 510.559 389.43V371.859C510.559 367.109 514.358 363.191 519.226 363.191H536.799C541.548 363.191 545.467 366.991 545.467 371.859V389.43C545.467 394.298 541.548 398.098 536.799 398.098Z" fill="#FF6677"/>
<path d="M533.118 370.908C531.931 370.908 530.862 371.264 529.794 372.095C528.844 372.808 528.25 373.758 527.894 374.351C527.538 373.639 526.944 372.808 525.994 372.095C525.044 371.383 523.976 370.908 522.67 370.908C519.345 370.908 516.852 373.639 516.852 377.201C516.852 381.119 520.057 383.85 524.688 387.886C525.519 388.599 526.469 389.43 527.419 390.142C527.538 390.261 527.656 390.261 527.894 390.261C528.013 390.261 528.25 390.261 528.369 390.142C529.319 389.311 530.269 388.48 531.1 387.886C535.849 383.85 538.936 381.119 538.936 377.201C539.055 373.639 536.443 370.908 533.118 370.908Z" fill="#FCFCFC"/>
<path d="M523.738 396.791L528.013 404.152L532.287 396.791H523.738Z" fill="#FF6677"/>
<path d="M322.127 133.451H279.857C280.214 131.432 281.995 129.889 284.132 129.889C285.082 129.889 286.032 130.245 286.744 130.72C287.456 127.752 290.187 125.496 293.512 125.496C294.581 125.496 295.53 125.733 296.362 126.089C297.905 123.24 300.873 121.34 304.317 121.34C308.116 121.34 311.322 123.596 312.628 126.921C312.866 126.921 313.103 126.921 313.341 126.921C317.496 126.921 321.058 129.651 322.127 133.451Z" fill="#FFD357"/>
<path d="M222.034 111.249H191.875C192.112 109.824 193.419 108.755 194.962 108.755C195.674 108.755 196.268 108.993 196.862 109.349C197.456 107.212 199.355 105.668 201.611 105.668C202.324 105.668 203.036 105.787 203.63 106.143C204.698 104.125 206.836 102.7 209.329 102.7C212.06 102.7 214.316 104.362 215.266 106.618C215.384 106.618 215.622 106.618 215.741 106.618C218.828 106.618 221.321 108.518 222.034 111.249Z" fill="#FFD357"/>
<path d="M375.557 152.447H345.398C345.636 151.022 346.942 149.954 348.486 149.954C349.198 149.954 349.792 150.191 350.385 150.547C350.979 148.41 352.879 146.867 355.135 146.867C355.847 146.867 356.559 146.985 357.153 147.342C358.222 145.323 360.359 143.898 362.852 143.898C365.583 143.898 367.839 145.561 368.789 147.816C368.908 147.816 369.145 147.816 369.264 147.816C372.232 147.816 374.726 149.716 375.557 152.447Z" fill="#FFD357"/>
</svg>
