<svg width="11" height="11" viewBox="0 0 11 11" fill="none" xmlns="http://www.w3.org/2000/svg">
<path d="M9.43249 1.67689H1.51968C1.11664 1.67689 0.730099 1.837 0.445104 2.12199C0.160109 2.40699 0 2.79352 0 3.19657V7.33638C0 7.72553 0.154588 8.09874 0.429756 8.37391C0.704923 8.64907 1.07813 8.80366 1.46728 8.80366H1.67689V9.84333C1.67689 10.1235 1.78819 10.3922 1.98631 10.5903C2.18443 10.7885 2.45314 10.8998 2.73333 10.8998H8.16644C8.44663 10.8998 8.71534 10.7885 8.91346 10.5903C9.11158 10.3922 9.22288 10.1235 9.22288 9.84333V8.80366H9.43249C9.82164 8.80366 10.1948 8.64907 10.47 8.37391C10.7452 8.09874 10.8998 7.72553 10.8998 7.33638V3.14416C10.8998 2.75502 10.7452 2.38181 10.47 2.10664C10.1948 1.83148 9.82164 1.67689 9.43249 1.67689ZM8.38444 9.84333C8.38423 9.90108 8.3612 9.95641 8.32036 9.99725C8.27952 10.0381 8.2242 10.0611 8.16644 10.0613H2.73333C2.67558 10.0611 2.62025 10.0381 2.57941 9.99725C2.53857 9.95641 2.51554 9.90108 2.51533 9.84333V5.66788C2.51554 5.61013 2.53857 5.5548 2.57941 5.51396C2.62025 5.47313 2.67558 5.45009 2.73333 5.44989H8.16644C8.2242 5.45009 8.27952 5.47313 8.32036 5.51396C8.3612 5.5548 8.38423 5.61013 8.38444 5.66788V9.84333ZM9.06567 4.19012C8.93742 4.20043 8.80909 4.17115 8.698 4.10622C8.58691 4.0413 8.49841 3.94386 8.44444 3.82705C8.39048 3.71025 8.37364 3.5797 8.39621 3.45302C8.41877 3.32635 8.47966 3.20964 8.57064 3.11866C8.66162 3.02768 8.77833 2.96679 8.905 2.94423C9.03168 2.92166 9.16223 2.93849 9.27904 2.99246C9.39584 3.04643 9.49328 3.13493 9.55821 3.24602C9.62313 3.3571 9.65241 3.48544 9.6421 3.61369C9.63014 3.76258 9.56556 3.90235 9.45995 4.00796C9.35433 4.11358 9.21456 4.17816 9.06567 4.19012ZM7.75561 0H3.14416C2.7915 0.000525152 2.45078 0.127853 2.1842 0.358742C1.91761 0.589631 1.74295 0.908685 1.69208 1.25767H9.20769C9.15682 0.908685 8.98216 0.589631 8.71558 0.358742C8.44899 0.127853 8.10827 0.000525152 7.75561 0Z" fill="#EC8349"/>
</svg>
