<svg width="18" height="18" viewBox="0 0 18 18" fill="none" xmlns="http://www.w3.org/2000/svg">
<path d="M12.5625 5.8125H5.4375C5.13 5.8125 4.875 5.5575 4.875 5.25V3.75C4.875 1.83 5.7675 0.9375 7.6875 0.9375H10.3125C12.2325 0.9375 13.125 1.83 13.125 3.75V5.25C13.125 5.5575 12.87 5.8125 12.5625 5.8125ZM6 4.6875H12V3.75C12 2.475 11.5875 2.0625 10.3125 2.0625H7.6875C6.4125 2.0625 6 2.475 6 3.75V4.6875ZM9.75 17.0625H8.25C6.435 17.0625 5.4375 16.065 5.4375 14.25V11.25C5.4375 10.9425 5.6925 10.6875 6 10.6875H12C12.3075 10.6875 12.5625 10.9425 12.5625 11.25V14.25C12.5625 16.065 11.565 17.0625 9.75 17.0625ZM6.5625 11.8125V14.25C6.5625 15.435 7.065 15.9375 8.25 15.9375H9.75C10.935 15.9375 11.4375 15.435 11.4375 14.25V11.8125H6.5625Z" fill="black"/>
<path d="M13.5 14.0625H12C11.6925 14.0625 11.4375 13.8075 11.4375 13.5V11.8125H6.5625V13.5C6.5625 13.8075 6.3075 14.0625 6 14.0625H4.5C2.685 14.0625 1.6875 13.065 1.6875 11.25V7.5C1.6875 5.685 2.685 4.6875 4.5 4.6875H13.5C15.315 4.6875 16.3125 5.685 16.3125 7.5V11.25C16.3125 13.065 15.315 14.0625 13.5 14.0625ZM12.5625 12.9375H13.5C14.685 12.9375 15.1875 12.435 15.1875 11.25V7.5C15.1875 6.315 14.685 5.8125 13.5 5.8125H4.5C3.315 5.8125 2.8125 6.315 2.8125 7.5V11.25C2.8125 12.435 3.315 12.9375 4.5 12.9375H5.4375V11.25C5.4375 10.9425 5.6925 10.6875 6 10.6875H12C12.3075 10.6875 12.5625 10.9425 12.5625 11.25V12.9375Z" fill="black"/>
<path d="M12.75 11.8125H5.25C4.9425 11.8125 4.6875 11.5575 4.6875 11.25C4.6875 10.9425 4.9425 10.6875 5.25 10.6875H12.75C13.0575 10.6875 13.3125 10.9425 13.3125 11.25C13.3125 11.5575 13.0575 11.8125 12.75 11.8125ZM7.5 8.8125H5.25C4.9425 8.8125 4.6875 8.5575 4.6875 8.25C4.6875 7.9425 4.9425 7.6875 5.25 7.6875H7.5C7.8075 7.6875 8.0625 7.9425 8.0625 8.25C8.0625 8.5575 7.8075 8.8125 7.5 8.8125Z" fill="black"/>
</svg>
