<svg width="559" height="330" viewBox="0 0 559 330" fill="none" xmlns="http://www.w3.org/2000/svg">
<path d="M97.8031 263.192C97.8031 263.192 87.3109 250.977 97.1569 243.192C97.1569 243.192 104.326 238.854 110.203 239.192C110.203 239.192 101.895 253.1 104.603 254.484C107.28 255.869 112.726 238.3 112.726 238.3C112.726 238.3 129.064 236.7 134.326 239.254C134.326 239.254 120.357 250.7 123.28 251.377C126.233 252.054 141.31 240.823 141.31 240.823C141.31 240.823 156.541 243.408 155.71 252.7C154.91 261.992 149.649 264.854 147.341 264.607C145.033 264.361 131.556 259.223 131.249 261.1C130.941 262.977 139.064 269.161 144.756 269.438C144.756 269.438 134.018 281.253 126.91 277.869C119.772 274.453 119.187 269.038 114.726 267.007C110.295 264.977 106.48 264.977 108.326 267.038C110.172 269.1 118.203 271.13 120.757 275.623C123.31 280.115 125.587 283.161 118.203 282.053C110.818 280.946 98.8492 275.561 98.3262 269.377C97.8031 263.192 97.8031 263.192 97.8031 263.192Z" fill="#327F6B"/>
<path d="M148.233 252.946C148.233 252.946 106.911 251.346 97.7726 263.161C97.7726 263.161 95.7419 269.192 89.5574 274.7L88.6035 277.346C88.6035 277.346 95.7727 269.807 98.3265 269.346C98.3265 269.377 94.3265 254.731 148.233 252.946Z" fill="#327F6B"/>
<path d="M89.5569 274.73C89.5569 274.73 80.6955 281.284 80.0801 293.007L81.68 293.161C81.68 293.161 84.5108 281.038 89.6184 276.299C94.7568 271.561 89.5569 274.73 89.5569 274.73Z" fill="#327F6B"/>
<path d="M61.1575 247.807C61.1575 247.807 77.8342 238.484 70.0497 225.808C70.0497 225.808 63.8344 218.023 57.1576 216.023C57.1576 216.023 60.7268 234.915 57.1576 235.377C53.5884 235.807 54.7268 214.023 54.7268 214.023C54.7268 214.023 37.1578 205.562 30.2656 206.239C30.2656 206.239 41.1578 224.7 37.5886 224.238C34.0194 223.808 21.8042 205.131 21.8042 205.131C21.8042 205.131 3.80444 201.808 0.912175 212.454C-1.98009 223.131 2.69677 228.454 5.34289 229.131C8.01978 229.808 25.1272 229.561 24.6965 231.808C24.2657 234.023 12.6966 237.592 6.23519 235.592C6.23519 235.592 13.3428 253.161 22.6965 252.269C32.0502 251.377 34.9117 245.592 40.6963 245.161C46.4808 244.73 50.6961 246.269 47.8038 247.838C44.9116 249.407 35.1271 248.361 30.4502 252.33C25.7734 256.3 21.9888 258.73 30.6656 260.515C39.3424 262.299 54.9115 261.192 58.0191 254.515C61.1575 247.807 61.1575 247.807 61.1575 247.807Z" fill="#50BFA5"/>
<path d="M9.12793 215.808C9.12793 215.808 55.8042 230.915 61.158 247.807C61.158 247.807 60.9426 255.376 65.5887 264.022V267.345C65.5887 267.345 60.6965 256.022 58.0196 254.453C58.0503 254.484 68.481 239.807 9.12793 215.808Z" fill="#50BFA5"/>
<path d="M65.5883 264.023C65.5883 264.023 72.7882 274.946 68.6959 288.268L66.8498 287.776C66.8498 287.776 68.6344 273.13 64.8806 265.746C61.096 258.392 65.5883 264.023 65.5883 264.023Z" fill="#50BFA5"/>
<path d="M87.6803 234.946C87.6803 234.946 65.7114 222.639 75.9574 205.931C75.9574 205.931 84.1727 195.685 92.9418 193.039C92.9418 193.039 88.265 217.962 92.9418 218.546C97.6187 219.131 96.1726 190.424 96.1726 190.424C96.1726 190.424 119.311 179.285 128.418 180.178C128.418 180.178 114.049 204.485 118.757 203.9C123.434 203.316 139.557 178.701 139.557 178.701C139.557 178.701 163.279 174.301 167.095 188.362C170.91 202.424 164.756 209.47 161.249 210.331C157.741 211.223 135.157 210.916 135.741 213.839C136.326 216.762 151.556 221.469 160.049 218.823C160.049 218.823 150.664 241.961 138.357 240.792C126.049 239.623 122.234 231.992 114.634 231.408C107.003 230.823 101.434 232.885 105.249 234.915C109.065 236.977 121.957 235.592 128.111 240.823C134.264 246.054 139.249 249.284 127.803 251.623C116.388 253.961 95.8649 252.515 91.7726 243.715C87.6803 234.946 87.6803 234.946 87.6803 234.946Z" fill="#3C8F7C"/>
<path d="M156.233 192.731C156.233 192.731 94.6958 212.67 87.6498 234.915C87.6498 234.915 87.9575 244.885 81.8037 256.3V260.7C81.8037 260.7 88.2652 245.746 91.7728 243.715C91.7728 243.715 78.0192 224.393 156.233 192.731Z" fill="#327F6B"/>
<path d="M81.804 256.331C81.804 256.331 72.3272 270.73 77.7118 288.299L80.1425 287.653C80.1425 287.653 77.7733 268.33 82.7271 258.607C87.7424 248.854 81.804 256.331 81.804 256.331Z" fill="#327F6B"/>
<path d="M86.9421 326.33C110.726 326.33 129.988 307.068 129.988 283.284H43.8965C43.8965 307.038 63.1578 326.33 86.9421 326.33Z" fill="#FA7269"/>
<path d="M97.5263 325.991C95.7724 326.207 93.9879 326.33 92.1725 326.33C68.3882 326.33 49.127 307.068 49.127 283.284H59.8345C59.8345 305.222 76.265 323.345 97.5263 325.991Z" fill="#FC9290"/>
<path d="M130.572 328.514H43.2812C43.2812 325.591 45.6504 323.191 48.6042 323.191H125.28C128.203 323.191 130.572 325.591 130.572 328.514Z" fill="#FA7269"/>
<path d="M130.972 283.253H42.4805V284.576H130.972V283.253Z" fill="#E75755"/>
<path d="M512.812 313.93C512.812 313.93 513.705 328.33 516.474 328.514C516.843 328.545 530.597 328.545 530.597 328.545L548.135 328.453C548.135 328.453 548.012 324.238 542.904 323.314C537.766 322.422 529.182 318.822 526.074 312.022C522.812 304.915 512.812 313.93 512.812 313.93Z" fill="#FA7269"/>
<path d="M503.427 143.748C503.427 143.748 511.704 148.456 514.043 148.456C516.35 148.456 525.458 146.702 528.012 147.994C530.535 149.286 535.15 154.517 536.012 156.209C537.55 159.286 529.766 157.932 526.104 155.317C525.581 154.948 524.904 154.794 524.258 154.948C522.35 155.379 518.381 156.086 516.473 155.379C513.889 154.425 500.351 153.379 500.351 153.379L503.427 143.748Z" fill="#FC9290"/>
<path d="M440.383 79.5639C440.383 79.5639 448.967 140.609 463.183 146.086C470.198 148.794 501.213 154.886 510.382 155.501C510.382 155.501 512.628 153.686 512.074 146.271C512.074 146.271 479.582 134.332 474.967 127.84C468.105 118.179 479.244 88.3946 470.598 79.3178C462.013 70.2718 447.49 66.3641 440.383 79.5639Z" fill="#ED6966"/>
<path d="M443.275 208.208C445.767 212.454 448.69 216.454 451.674 220.208C460.905 231.869 470.967 241.469 472.72 250.546C473.059 252.361 473.613 254.3 474.351 256.361C475.09 258.454 475.982 260.638 477.028 262.884C480.936 271.407 486.812 280.946 492.658 289.592C502.781 304.576 512.289 317.068 512.289 317.068L529.735 316.33C529.027 314.576 521.427 293.899 511.243 268.607C507.12 258.331 502.72 247.438 498.474 236.885C497.92 235.469 497.335 234.085 496.782 232.7C495.489 229.469 494.197 226.3 492.966 223.223C483.428 199.47 475.797 180.578 475.797 180.578C475.797 180.578 437.613 166.116 433.644 175.501C430.382 183.255 433.029 190.824 443.275 208.208Z" fill="#355389"/>
<path d="M472.413 272.823C472.413 272.823 460.29 280.607 461.459 283.161C461.613 283.5 468.321 295.499 468.321 295.499L476.967 310.761C476.967 310.761 480.598 308.607 478.875 303.684C477.151 298.761 476.105 289.499 480.536 283.5C485.182 277.161 472.413 272.823 472.413 272.823Z" fill="#060632"/>
<path d="M478.352 286.515C478.352 286.515 470.783 279.838 469.429 274.915C469.429 274.915 500.659 237.5 507.428 229.101C507.736 228.731 507.675 228.301 507.244 227.839C502.136 222.085 445.306 210.332 437.86 198.793C435.306 194.824 433.86 191.04 433.06 187.716C431.368 180.67 432.722 175.809 432.722 175.809L489.49 174.178C489.49 174.178 536.751 203.593 542.105 223.654C547.459 243.716 478.352 286.515 478.352 286.515Z" fill="#466EB6"/>
<path d="M507.274 227.839C502.167 222.085 445.337 210.331 437.891 198.793C435.337 194.824 433.891 191.039 433.091 187.716V180.547L457.214 176.763C457.214 176.763 464.044 197.809 484.321 205.716C503.305 213.101 506.905 226.208 507.274 227.839Z" fill="#355389"/>
<path d="M473.983 75.718C462.506 78.6718 443.46 68.0566 443.46 68.0566C443.46 68.0566 450.844 63.1028 453.583 52.1799C453.737 51.626 453.86 51.0722 453.952 50.4876C455.152 50.2414 457.429 49.7491 459.86 49.2261L468.629 57.0721C468.629 57.0721 468.413 60.3336 467.337 65.9335C467.152 66.9181 466.937 67.9643 466.69 69.072C471.367 72.0258 473.983 75.718 473.983 75.718Z" fill="#FC9290"/>
<path d="M431.306 123.317C432.937 145.44 430.783 179.07 432.66 184.916C434.26 189.931 452.629 186.947 459.952 185.285C462.659 184.67 465.952 183.778 469.336 182.732C478.782 179.809 489.09 175.624 490.197 172.516C490.228 172.393 490.29 172.27 490.29 172.147C490.382 171.686 490.382 171.286 490.259 170.855C489.89 169.286 488.474 167.563 488.29 163.655C488.105 159.286 488.136 154.117 487.951 148.578C487.951 147.963 487.92 147.286 487.859 146.64V146.424C487.859 146.301 487.859 146.178 487.859 146.055C487.705 139.871 487.367 133.378 486.997 126.948C486.751 122.917 486.474 118.886 486.167 115.071C485.336 105.163 484.228 96.3636 482.751 90.7636C480.351 81.6868 475.059 75.7484 470.228 71.41L466.752 68.4255C462.844 69.287 458.259 68.7024 454.075 66.7332C449.552 64.5794 448.013 63.0717 447.213 63.6255C436.844 71.6562 429.367 96.2712 431.306 123.317Z" fill="#FA7269"/>
<path d="M469.305 182.732C478.751 179.809 489.059 175.624 490.166 172.516C490.197 172.393 490.259 172.27 490.259 172.147C490.259 171.716 490.259 171.286 490.228 170.855C489.859 169.286 488.443 167.563 488.259 163.655C488.074 159.286 488.105 154.117 487.92 148.578C487.92 147.963 487.889 147.286 487.828 146.64V146.424C487.828 146.301 487.828 146.178 487.828 146.055L449.582 97.3481C449.644 97.3481 423.952 150.855 469.305 182.732Z" fill="#ED6966"/>
<path d="M468.628 57.1029C468.628 57.1029 468.413 60.3644 467.336 65.9643C458.782 63.1951 454.874 55.4721 453.582 52.1799C453.736 51.626 453.859 51.0722 453.951 50.4876C455.151 50.2414 457.428 49.7491 459.859 49.2261L468.628 57.1029Z" fill="#EA8888"/>
<path d="M469.798 62.0259C469.798 62.0259 451.121 58.9182 453.244 47.3184C455.367 35.7185 454.383 27.5033 466.383 29.0109C478.382 30.5186 479.89 35.3493 480.136 39.4108C480.352 43.4415 474.69 62.5489 469.798 62.0259Z" fill="#FC9290"/>
<path d="M543.347 161.371L544.985 161.903L558.999 118.772L557.361 118.24L543.347 161.371Z" fill="#3A49CD"/>
<path d="M497.335 160.809L544.925 161.825L544.986 158.964L497.396 157.948L497.335 160.809Z" fill="#3A49CD"/>
<path d="M498.32 163.101C498.32 163.101 513.612 167.132 519.335 166.701C525.058 166.27 529.828 163.563 530.566 162.117C531.274 160.701 532.812 158.178 528.904 158.64C524.997 159.101 519.674 159.932 519.52 159.193C519.366 158.455 522.689 158.517 522.689 158.517C522.689 158.517 523.705 157.04 522.412 156.978C521.151 156.917 517.428 155.901 516.043 156.609C514.659 157.286 513.397 159.84 512.382 159.747C511.366 159.655 499.582 154.424 499.582 154.424L498.32 163.101Z" fill="#FC9290"/>
<path d="M444.167 82.0868C444.167 82.0868 445.982 143.717 459.521 150.732C466.197 154.178 496.351 163.686 505.397 165.316C505.397 165.316 507.828 163.747 508.105 156.301C508.105 156.301 477.12 140.855 473.244 133.901C467.49 123.532 481.828 95.1635 474.259 85.1944C466.721 75.2253 452.721 69.7485 444.167 82.0868Z" fill="#FA7269"/>
<path d="M453.582 52.1796C453.582 52.1796 453.367 48.2105 455.828 45.9336C455.828 45.9336 454.967 41.9336 456.567 41.2875C458.136 40.6413 458.474 43.9951 459.213 43.4721C459.951 42.949 463.151 40.4567 464.536 36.7645C465.921 33.0722 478.566 37.5337 480.043 38.2106C481.52 38.8875 486.259 36.426 487.182 34.4568C487.182 34.4568 484.536 32.3645 483.366 30.7646C482.197 29.1953 473.89 18.5186 462.321 21.5647C450.752 24.58 449.151 30.1184 449.828 34.8568C450.444 39.5644 448.844 50.5797 453.582 52.1796Z" fill="#184655"/>
<path d="M102.48 75.8405L112.449 74.8867C113.249 74.8251 114.019 75.2559 114.326 75.9944L121.865 94.1172C122.326 95.2556 121.588 96.5171 120.357 96.6402L109.988 97.6248C109.188 97.7171 108.419 97.2248 108.111 96.4864L101.003 78.3328C100.511 77.1943 101.28 75.9636 102.48 75.8405Z" fill="#0D0D38"/>
<path d="M228.847 315.13L223.555 317.93C223.555 317.93 194.971 287.622 188.079 258.515C186.848 253.315 186.356 248.208 186.879 243.346C186.879 243.346 186.448 242.023 185.74 239.685C185.71 239.592 185.679 239.469 185.648 239.377C185.34 238.362 184.94 237.162 184.51 235.777C183.125 231.377 181.248 225.377 179.063 218.516C174.079 202.762 162.694 167.193 157.833 152.424L192.786 139.778C192.786 139.778 196.756 148.824 202.448 173.439C203.34 176.639 204.202 180.209 205.032 184.085C205.955 188.455 206.848 193.254 207.555 198.454C208.786 207.224 209.586 217.1 209.648 227.931C209.678 232.331 209.555 236.915 209.309 241.623C209.125 245.069 209.617 249.684 210.602 254.915C215.032 278.823 228.847 315.13 228.847 315.13Z" fill="#13375B"/>
<path d="M247.986 328.514H219.709C219.709 328.514 218.663 323.991 220.509 320.945C222.14 318.237 221.525 316.699 220.294 314.453C221.586 314.976 223.217 315.468 225.063 315.345C226.478 315.253 227.955 314.637 229.278 313.868C230.509 315.253 235.709 321.16 237.34 322.33C239.186 323.622 247.401 323.16 247.986 328.514Z" fill="#0D0D38"/>
<path d="M207.617 198.454L185.648 239.377C185.34 238.362 184.94 237.162 184.51 235.777C183.125 231.377 181.248 225.377 179.063 218.516C174.079 202.762 162.694 167.193 157.833 152.424L192.786 139.778C192.786 139.778 196.756 148.824 202.448 173.439C203.34 176.639 204.202 180.209 205.032 184.085C206.017 188.485 206.879 193.254 207.617 198.454Z" fill="#13375B"/>
<path d="M112.449 108.178C112.264 108.332 103.895 99.7786 99.4336 95.0094L103.926 92.271L128.387 107.625L112.449 108.178Z" fill="#8E5349"/>
<path d="M157.31 319.653C157.31 319.653 156.664 324.453 158.479 328.514H170.202C170.202 328.514 170.294 325.006 167.31 320.637C164.325 316.237 157.31 319.653 157.31 319.653Z" fill="#13375B"/>
<path d="M180.387 7.28772C180.54 6.54927 182.54 -1.4814 194.971 0.241655C194.971 0.241655 188.756 -0.0968022 187.248 2.39547C187.248 2.39547 191.956 -0.189109 195.156 1.47241C198.356 3.13392 199.309 9.37999 198.971 11.3184C198.663 13.2569 195.679 19.1952 193.463 19.3491C192.633 19.4106 191.679 19.1952 190.879 18.8875C191.279 19.8721 191.679 20.9491 192.017 22.149C195.186 33.1335 188.386 42.1488 184.386 40.3334C181.833 39.1642 180.263 43.5949 180.263 43.5949L157.895 17.9953C157.925 18.026 170.91 -0.0967946 180.387 7.28772Z" fill="#13375B"/>
<path d="M157.495 75.9328C160.418 77.9636 164.08 79.6251 168.664 80.6712C185.864 84.6404 192.479 70.0868 194.941 60.1177C192.602 58.7638 190.387 58.4869 189.125 58.3331C187.895 58.1792 186.572 58.0869 185.495 58.0254C183.556 56.5485 180.695 50.487 180.049 41.0718L179.249 41.2872L165.68 45.0102C165.68 45.0102 166.295 49.3178 166.603 53.4101C166.849 56.61 166.88 59.6561 166.264 60.3946C165.218 60.61 164.572 60.7638 164.572 60.7638C164.357 61.0715 160.418 67.5637 157.495 75.9328Z" fill="#8E5349"/>
<path d="M165.648 45.0101C165.648 45.0101 166.264 49.3178 166.572 53.41C174.264 52.6408 177.833 45.3178 179.217 41.3179L165.648 45.0101Z" fill="#7C4942"/>
<path d="M163.371 49.0715C163.371 49.0715 181.617 48.0561 180.817 36.7024C180.017 25.3487 181.833 17.595 170.141 17.7488C158.448 17.9027 156.51 22.3949 155.864 26.241C155.187 30.1179 158.602 49.0407 163.371 49.0715Z" fill="#8E5349"/>
<path d="M155.925 19.9025C158.51 16.2717 160.664 16.8871 161.956 17.8102C171.525 11.6256 178.51 19.2563 178.51 19.2563C180.325 27.3177 186.51 31.5638 186.51 31.5638C186.51 31.5638 183.34 33.8407 175.525 32.4253C173.156 31.9946 170.941 30.4869 169.033 28.5792C172.51 33.5638 177.002 36.9791 177.002 36.9791C167.556 33.41 162.971 20.9486 162.51 19.6255C161.464 20.7024 159.433 23.0409 158.91 25.1947C158.202 28.1485 158.233 34.1176 156.479 34.0561C156.479 34.1176 152.079 25.3178 155.925 19.9025Z" fill="#13375B"/>
<path d="M160.418 59.8409C160.418 59.8409 190.141 52.641 203.064 63.287L197.341 120.394L196.571 153.347L138.449 139.317C138.449 139.317 140.08 133.624 151.218 118.455C162.387 103.317 157.557 81.0714 160.418 59.8409Z" fill="#8E5349"/>
<path d="M177.74 143.316C177.74 143.316 177.71 143.624 177.648 144.209C177.617 144.455 177.587 144.762 177.556 145.101C177.31 147.439 176.817 151.901 176.233 157.747C174.633 173.008 172.141 197.562 170.417 216.915C169.094 232.054 168.233 244.023 168.694 245.961C170.079 251.746 168.694 320.945 168.694 320.945C163.741 323.314 156.264 320.945 156.264 320.945C156.264 320.945 143.095 258.576 144.941 249.899C146.787 241.223 143.71 233.838 143.71 233.838C133.495 186.27 134.603 159.901 136.633 147.285C137.218 143.624 137.895 141.101 138.387 139.593C138.787 138.301 139.095 137.686 139.095 137.686C161.618 131.624 177.74 143.316 177.74 143.316Z" fill="#355389"/>
<path d="M196.571 153.347C189.648 156.27 182.725 157.532 176.202 157.747C170.233 157.963 164.541 157.255 159.433 156.147C148.295 153.716 139.803 149.224 136.634 147.286C137.218 143.624 137.895 141.101 138.388 139.594C145.249 134.701 162.203 139.378 176.079 144.578C176.572 144.763 177.064 144.947 177.556 145.132C188.141 149.163 196.571 153.347 196.571 153.347Z" fill="#13375B"/>
<path d="M207.033 88.9788C205.586 99.8094 199.863 113.071 197.802 120.209C197.802 120.209 201.217 144.978 197.956 151.778C197.587 152.547 197.125 153.101 196.571 153.347C184.448 158.639 137.249 153.501 135.28 138.27C134.541 132.732 153.249 113.286 154.356 110.917C154.818 109.932 155.279 106.763 153.095 100.209C149.987 109.779 144.233 120.855 138.48 122.732C132.141 124.794 107.065 106.117 107.065 106.117C107.065 106.117 106.911 103.84 110.08 101.686C112.111 100.302 116.788 99.8402 116.788 99.8402L132.818 107.009C134.818 103.563 139.833 79.7482 145.433 68.9791C149.649 60.8869 160.879 59.7177 160.879 59.7177C160.879 59.7177 165.556 67.1329 176.879 66.0868C188.202 65.0407 190.264 58.1177 190.264 58.1177C190.264 58.1177 200.294 59.4407 203.402 61.933C203.956 62.4253 208.94 74.7944 207.033 88.9788Z" fill="#50BFA5"/>
<path d="M197.833 120.209C197.833 120.209 201.248 144.978 197.986 151.778C189.156 147.347 177.648 137.778 181.156 122.824C186.233 101.101 207.063 88.9785 207.063 88.9785C205.617 99.8091 199.863 113.07 197.833 120.209Z" fill="#3C8F7C"/>
<path d="M190.294 103.563C190.294 103.563 177.74 105.379 176.725 106.333C175.71 107.256 172.264 112.733 172.694 114.609C173.125 116.517 173.063 118.456 173.833 118.333C174.602 118.209 177.125 113.379 178.048 113.163C179.002 112.948 179.771 112.302 179.894 112.702C180.017 113.133 177.956 115.163 178.079 115.717C178.171 116.302 179.802 115.625 180.51 114.486C181.217 113.379 183.033 112.825 183.31 112.117C183.586 111.41 184.817 109.102 186.509 109.225C188.202 109.348 190.294 103.563 190.294 103.563Z" fill="#8E5349"/>
<path d="M202.509 103.071L190.294 103.563L186.109 109.255L202.725 109.809L202.509 103.071Z" fill="#FDB3B1"/>
<path d="M190.294 58.1484C190.294 58.1484 204.879 59.8715 208.879 66.1175C213.956 74.0251 231.863 100.209 231.494 108.148C231.494 108.148 220.325 112.609 190.294 110.209C190.294 110.209 189.741 105.655 196.079 102.025C196.079 102.025 212.202 99.8094 213.986 98.2402L202.017 85.5327L190.294 58.1484Z" fill="#50BFA5"/>
<path d="M100.326 76.0251L110.295 75.0712C111.095 75.0097 111.865 75.4405 112.172 76.1789L119.711 94.3017C120.172 95.4402 119.434 96.7017 118.203 96.8248L107.834 97.8094C107.034 97.9017 106.265 97.4094 105.957 96.6709L98.8495 78.5174C98.3572 77.3789 99.0957 76.1481 100.326 76.0251Z" fill="#120E59"/>
<path d="M99.4032 95.0096C99.4032 95.0096 96.757 90.4558 96.9724 89.3481C97.157 88.2404 99.8955 83.0405 101.28 82.5174C103.772 81.5944 107.28 81.0405 106.326 83.6559C105.68 85.3789 103.157 87.902 103.618 88.702C104.049 89.502 103.895 92.2711 103.895 92.2711L99.4032 95.0096Z" fill="#8E5349"/>
<path d="M496.567 290.761C492.998 313.653 469.644 328.207 445.706 328.207H398.261L401.984 194.824C401.984 194.824 447.245 180.301 458.598 194.116C468.567 206.208 495.552 254.146 496.998 282.515C497.121 285.376 496.998 288.115 496.567 290.761Z" fill="#DDE8FD"/>
<path d="M370.63 208.947C370.63 208.947 434.629 176.27 446.752 197.624C453.183 208.947 470.905 254.146 472.198 282.515C473.459 310.084 449.583 328.207 425.029 328.207H381.399L370.63 208.947Z" fill="#3662C1"/>
<path d="M382.66 227.07C382.106 229.839 376.937 232.424 369.245 234.701C367.891 235.101 366.445 235.501 364.968 235.87C338.815 242.547 292.446 246.27 288.046 244.3C281.954 241.562 244.478 108.456 244.478 108.456C244.478 108.456 280.231 107.102 308.661 106.456C318.384 106.241 327.246 106.087 333.492 106.118C334.261 106.118 334.969 106.179 335.646 106.272C338.353 106.672 340.384 107.779 341.953 109.502C346.538 114.425 347.645 124.117 351.891 134.856C356.076 145.471 361.214 158.702 366.076 171.84C367.337 175.224 368.568 178.609 369.768 181.932C370.107 182.886 370.445 183.809 370.783 184.732C378.014 204.916 383.552 222.578 382.66 227.07Z" fill="#BED2FA"/>
<path d="M496.566 290.761C492.997 313.653 469.644 328.207 445.706 328.207H422.444C437.952 317.684 451.982 285.284 496.566 290.761Z" fill="#BED2FA"/>
<path d="M370.783 184.763C369.583 184.578 368.045 184.301 366.322 184.024C365.953 183.655 365.676 183.286 365.491 182.917C364.784 181.378 365.276 176.947 366.076 171.871C361.214 158.732 356.076 145.502 351.891 134.886C347.645 124.148 346.538 114.456 341.953 109.533C340.353 107.81 338.353 106.671 335.646 106.302C331.861 106.364 327.892 106.425 323.769 106.487C322.323 109.379 319.8 112.118 315.43 114.394C296.015 124.61 310.415 145.656 310.415 145.656C310.569 145.748 318.107 160.794 318.107 160.794C318.077 159.748 319.092 157.871 320.846 155.471C322.138 164.455 324.23 173.624 326.723 180.209C325.338 187.163 321.83 197.47 319.953 205.378C318.446 211.685 317.984 216.424 320.476 216.67C320.753 216.701 321.061 216.701 321.4 216.67C321.246 218.855 321.676 221.193 322.907 223.593C327.769 233.008 351.153 234.7 369.245 234.731C376.937 232.454 382.106 229.87 382.66 227.101C383.552 222.578 378.014 204.916 370.783 184.763Z" fill="#93B3F4"/>
<path d="M459.213 307.715C450.044 320.422 436.014 328.607 420.352 328.33L353.092 328.361L320.877 328.392L357.123 208.978C357.123 208.978 448.906 199.839 460.198 212.024C465.46 217.685 468.413 243.285 470.044 269.069C470.998 283.623 466.783 297.223 459.213 307.715Z" fill="#5076C9"/>
<path d="M459.213 307.715C450.044 320.422 436.014 328.607 420.352 328.33L353.092 328.361C360.999 321.714 385.891 302.853 412.537 303.745C432.783 304.453 448.814 304.145 459.213 307.715Z" fill="#3662C1"/>
<path d="M376.538 125.409C376.538 125.409 382.138 133.686 385.307 151.07C388.107 166.301 390.538 171.932 394.569 175.039C398.599 178.147 421.06 187.378 421.06 187.378L419.368 191.316C419.368 191.316 386.446 186.824 382.753 181.316C379.061 175.808 364.969 143.317 366.046 135.809C367.154 128.332 376.538 125.409 376.538 125.409Z" fill="#FCA09E"/>
<path d="M457.152 307.007C456.845 310.207 461.337 311.007 466.506 311.253C471.675 311.499 470.106 312.576 477.213 313.869C484.321 315.161 487.152 313.222 487.675 312.269C488.136 311.407 484.844 310.084 481.306 308.576C480.875 308.392 480.413 308.207 479.983 307.992C476.014 306.238 473.798 302.7 470.721 299.407C467.798 296.3 465.029 286.3 465.029 286.3L455.398 284.238C455.398 284.238 458.106 293.223 459.06 297.038C459.614 299.284 458.783 301.807 458.075 303.746C457.645 304.823 457.245 305.869 457.152 307.007Z" fill="#FDB3B1"/>
<path d="M466.506 311.253C471.676 311.499 470.106 312.576 477.214 313.869C484.322 315.161 487.152 313.222 487.675 312.269C488.137 311.407 484.845 310.084 481.306 308.576L481.245 308.638C481.245 308.638 476.26 310.33 470.506 308.761C465.799 307.499 461.276 304.669 458.045 303.776C457.645 304.823 457.276 305.899 457.153 307.007C456.845 310.207 461.306 311.007 466.506 311.253Z" fill="#B15252"/>
<path d="M361.122 192.67C361.122 192.67 425.183 187.839 437.244 195.47C449.306 203.07 468.659 291.746 468.659 291.746C468.659 291.746 467.459 292.7 464.813 292.976C462.321 293.253 456.875 291.776 456.875 291.776C456.875 291.776 429.06 252.115 427.121 242.116C425.183 232.116 425.644 223.193 421.183 222.977C416.721 222.762 361.153 229.747 352.722 214.916C344.322 200.116 351.276 185.439 351.276 185.439L361.122 192.67Z" fill="#3C8F7C"/>
<path d="M432.629 317.315C432.321 320.515 436.813 321.315 441.982 321.561C447.152 321.807 445.582 322.884 452.69 324.176C459.798 325.469 462.628 323.53 463.151 322.576C463.613 321.715 460.321 320.392 456.782 318.884C456.352 318.699 455.89 318.515 455.459 318.299C451.49 316.546 449.275 313.007 446.198 309.715C443.275 306.607 440.506 296.607 440.506 296.607L430.875 294.546C430.875 294.546 433.583 303.53 434.536 307.346C435.09 309.592 434.26 312.115 433.552 314.053C433.121 315.099 432.721 316.176 432.629 317.315Z" fill="#FDB3B1"/>
<path d="M441.983 321.561C447.152 321.807 445.583 322.884 452.69 324.176C459.798 325.468 462.629 323.53 463.152 322.576C463.613 321.715 460.321 320.392 456.783 318.884L456.721 318.945C456.721 318.945 451.737 320.638 445.983 319.069C441.275 317.807 436.752 314.976 433.521 314.084C433.121 315.13 432.752 316.207 432.629 317.315C432.322 320.515 436.814 321.284 441.983 321.561Z" fill="#B15252"/>
<path d="M348.6 196.639C348.6 196.639 405.522 199.347 417.276 207.408C429.03 215.47 444.906 304.822 444.906 304.822C444.906 304.822 443.675 305.745 440.999 305.93C438.506 306.115 433.122 304.422 433.122 304.422C433.122 304.422 406.876 263.684 405.307 253.623C403.738 243.562 404.568 234.669 400.107 234.269C395.645 233.869 339.831 238.7 332.015 223.562C324.2 208.454 348.6 196.639 348.6 196.639Z" fill="#50BFA5"/>
<path d="M368.876 71.4102C366.353 69.7487 363.215 69.3794 360.999 69.3487C361.615 68.7948 362.722 68.6718 362.722 68.6718C361.369 68.3641 358.23 69.5333 358.23 69.5333C339.738 60.9488 334.877 88.7023 334.846 95.2252C334.815 101.748 334.354 109.225 324.508 114.425C305.092 124.64 319.492 145.686 319.492 145.686C319.646 145.778 327.184 160.824 327.184 160.824C327.061 155.532 353.123 129.471 366.292 122.025C369.676 117.717 371.307 109.779 371.43 109.164C370.476 115.471 369.153 118.948 368.045 120.886C379.43 111.717 375.553 75.8101 368.876 71.4102Z" fill="#A83F3F"/>
<path d="M346.199 115.871C346.199 115.871 351.215 116.086 356.538 116.579C360.138 116.917 363.984 117.317 366.014 118.179C371.03 120.271 370.507 129.163 359.984 127.502C349.43 125.871 345.461 118.517 346.199 115.871Z" fill="#FDB3B1"/>
<path d="M365.554 122.333C365.615 122.363 367.061 129.963 360.169 129.656C355.646 129.471 345.892 123.994 346.754 120.117C347.154 118.271 350.569 113.502 351.277 102.579L352.108 102.794L365.954 106.518C365.954 106.518 365.338 110.917 365.061 115.071C364.784 118.579 364.784 121.933 365.554 122.333Z" fill="#FDB3B1"/>
<path d="M365.922 106.548C365.922 106.548 365.307 110.948 365.03 115.102C357.184 114.363 353.522 106.917 352.076 102.825L365.922 106.548Z" fill="#FCA09E"/>
<path d="M350.722 101.194C350.722 101.194 347.03 94.4253 346.415 88.7946C345.984 84.7639 348.969 70.2102 363.615 73.3179C363.615 73.3179 367.891 74.0256 371.738 77.0102C374.814 79.3794 379.122 84.3947 373.091 96.8868L371.461 101.133L350.722 101.194Z" fill="#A83F3F"/>
<path d="M368.291 110.671C368.291 110.671 349.707 109.748 350.445 98.1791C351.214 86.61 349.307 78.7024 361.214 78.7947C373.122 78.8871 375.122 83.4716 375.83 87.3792C376.506 91.2869 373.153 110.61 368.291 110.671Z" fill="#FDB3B1"/>
<path d="M369.707 79.0411C369.707 79.0411 363.708 92.2717 355.769 93.7794C347.831 95.2563 344.569 92.9486 344.569 92.9486C344.569 92.9486 350.877 88.5795 352.661 80.3642C352.692 80.3642 366.292 72.3335 369.707 79.0411Z" fill="#A83F3F"/>
<path d="M368.354 80.0561C368.354 80.0561 371.953 83.3483 372.692 86.3637C373.43 89.379 373.43 95.4712 375.215 95.3789C375.215 95.3789 379.676 86.3944 375.707 80.8868C371.523 75.0407 368.354 80.0561 368.354 80.0561Z" fill="#A83F3F"/>
<path d="M386.906 193.655C385.398 195.439 380.691 195.993 375.676 196.824C371.737 197.47 367.583 198.301 364.63 200.024C357.922 203.962 336.015 217.254 329.584 216.67C327.092 216.424 327.553 211.685 329.061 205.378C331.43 195.408 336.415 181.593 336.415 175.593C336.415 172.301 337.491 164.547 338.968 155.655C339.091 154.947 339.215 154.209 339.338 153.501C342.23 136.24 346.23 115.902 346.23 115.902C346.23 115.902 350.691 125.625 359.368 125.625C368.045 125.625 366.045 118.21 366.045 118.21C366.045 118.21 373.952 119.133 375.829 121.163C377.706 123.194 382.445 131.902 383.399 134.271C383.399 134.271 383.583 137.286 376.106 138.732C376.106 138.732 377.922 146.948 378.137 152.424C378.291 156.455 375.368 169.101 374.537 176.978C374.229 179.778 374.199 181.962 374.66 182.947C375.245 184.209 377.122 185.47 379.245 186.732C383.429 189.132 388.691 191.501 386.906 193.655Z" fill="#F7CC7F"/>
<path d="M379.183 186.67C383.983 194.855 366.168 197.316 363.214 199.07C356.507 203.009 336.015 217.285 329.584 216.67C327.092 216.424 327.553 211.685 329.061 205.378C331.43 195.409 336.415 181.594 336.415 175.594C336.415 172.301 337.491 164.548 338.968 155.656L346.691 148.24C346.691 148.24 354.968 169.655 362.876 173.163C366.999 175.009 371.337 176.209 374.506 176.948C374.199 179.748 374.168 181.932 374.629 182.917C375.183 184.178 377.06 185.44 379.183 186.67Z" fill="#EAB765"/>
<path d="M343.83 122.271C343.83 122.271 337.215 118.271 330.845 125.871C324.446 133.471 335.399 187.901 344.845 190.701C355.368 193.809 385.737 190.209 385.737 190.209L385.152 185.47C385.152 185.47 352.814 179.255 351.461 177.532C350.107 175.809 347.184 123.163 343.83 122.271Z" fill="#FDB3B1"/>
<path d="M346.199 115.871C346.199 115.871 332.63 117.102 328.692 121.563C324.753 126.025 323.584 138.117 323.584 138.117C323.584 138.117 335.522 147.778 349.922 144.025L346.199 115.871Z" fill="#F7CC7F"/>
<path d="M406.844 192.732H388.906V194.855H406.844V192.732Z" fill="#9E332E"/>
<path d="M402.998 194.578C403.183 193.87 419.49 168.271 419.49 168.271H455.767L437.582 193.87L402.998 194.578Z" fill="#9E332E"/>
<path d="M404.537 194.855C404.722 194.147 421.06 168.271 421.06 168.271H455.767L438.444 194.855H404.537Z" fill="#A83F3F"/>
<path d="M435.121 181.655C434.752 182.701 433.644 183.532 432.598 183.532C431.552 183.532 430.998 182.701 431.367 181.655C431.737 180.609 432.844 179.778 433.89 179.778C434.937 179.778 435.49 180.609 435.121 181.655Z" fill="#9E332E"/>
<path d="M382.507 185.163C382.507 185.163 393.03 183.132 394.23 183.624C395.43 184.147 402.045 190.086 401.368 191.255C400.691 192.455 397.984 193.286 394.907 192.27C391.861 191.255 385.214 190.732 384.045 189.224C382.845 187.717 382.507 185.163 382.507 185.163Z" fill="#FDB3B1"/>
<path d="M403.491 291.961C399.644 314.145 378.537 328.207 356.907 328.207H313.276L316.692 194.824C316.692 194.824 358.322 180.301 368.783 194.116C377.952 206.208 402.783 254.146 404.075 282.515C404.198 285.807 404.014 288.946 403.491 291.961Z" fill="#DDE8FD"/>
<path d="M403.491 291.961C399.645 314.145 378.537 328.207 356.907 328.207H321.984C338.323 317.13 360.322 286.515 403.491 291.961Z" fill="#BED2FA"/>
<path d="M335.861 328.115C335.523 328.145 335.215 328.145 334.877 328.176C334.2 328.207 333.492 328.238 332.815 328.238C332.6 328.238 332.354 328.238 332.138 328.238H288.508V328.207C287.677 328.207 286.846 328.238 285.985 328.238C281.493 328.299 276.816 328.361 272.447 328.392C271.708 328.392 271.001 328.392 270.293 328.422C270.016 328.422 269.77 328.422 269.524 328.422C265.216 328.453 261.431 328.453 258.724 328.453C254.908 328.422 251.309 328.145 247.924 327.622C243.555 326.945 239.555 325.807 235.893 324.176C234.57 323.592 233.309 322.946 232.078 322.238C230.416 321.284 228.847 320.207 227.34 319.007C223.463 315.93 220.109 311.992 217.278 307.192C215.309 303.838 213.555 300.054 212.048 295.807C210.14 290.454 208.632 284.392 207.463 277.531C205.801 267.716 204.817 256.3 204.54 243.101C204.417 237.778 204.417 232.178 204.509 226.27C204.663 216.824 205.094 206.639 205.771 195.624C206.725 180.148 208.201 163.102 210.14 144.333C211.894 127.194 213.955 115.195 216.909 112.456C221.278 108.425 230.386 106.795 236.724 106.149C240.662 105.749 243.524 105.718 243.524 105.718C251.278 105.718 258.17 111.287 260.631 119.533C265.708 136.364 274.724 166.455 284.139 197.932C284.2 198.086 284.231 198.24 284.293 198.393C284.846 200.209 285.37 202.024 285.923 203.839C286.016 204.116 286.077 204.393 286.17 204.67C286.693 204.424 287.246 204.178 287.831 203.932C287.862 203.932 287.862 203.901 287.893 203.901C290.139 202.916 292.693 201.809 295.462 200.701C296.877 200.116 298.385 199.532 299.892 198.947C304.2 197.286 308.846 195.655 313.554 194.27C315.646 193.655 317.738 193.07 319.831 192.547C322.508 191.87 325.184 191.317 327.769 190.886C327.861 190.855 327.923 190.855 327.984 190.855C328.292 190.794 328.6 190.763 328.907 190.701C340.107 189.07 349.83 190.209 353.861 197.286C360.292 208.639 378.014 253.993 379.307 282.423C380.476 308.669 359.03 326.361 335.861 328.115Z" fill="#5076C9"/>
<path d="M265.862 209.993C265.862 209.993 243.463 118.763 241.863 111.102C241.155 107.686 238.909 106.456 236.693 106.117C240.632 105.717 243.493 105.687 243.493 105.687C251.247 105.687 258.139 111.225 260.601 119.471C266.016 137.44 276.016 170.578 286.139 204.362C285.616 204.362 265.862 209.993 265.862 209.993Z" fill="#DDE8FD"/>
<path d="M348.353 253.838C342.353 243.931 347.399 242.085 346.476 219.9C345.553 197.716 335.215 199.562 330.938 195.254C330.169 194.454 329.492 192.855 328.846 190.701C328.538 190.731 328.23 190.793 327.923 190.855C327.861 190.855 327.8 190.885 327.707 190.885C325.123 191.316 322.446 191.87 319.769 192.547C317.677 193.07 315.584 193.654 313.492 194.27C308.785 195.685 304.138 197.316 299.831 198.947C298.292 199.531 296.815 200.116 295.4 200.701C291.708 223.962 285.954 328.268 285.954 328.268C286.016 328.33 286.046 328.36 286.108 328.422C290.785 328.391 295.862 328.33 300.662 328.268C301.338 328.268 302.015 328.237 302.692 328.237V328.268H335.615C335.646 328.237 335.707 328.206 335.738 328.176C335.769 328.145 335.8 328.145 335.83 328.114C344.661 322.637 342.692 311.622 340.63 304.73C339.8 297.345 336.538 288.73 333.861 280.699C334.692 278.269 335.861 276.853 340.815 275.007C346.353 272.976 347.799 264.269 347.799 264.269C349.276 268.177 345.892 273.53 345.799 273.684C346.015 273.438 354.292 263.623 348.353 253.838Z" fill="#3662C1"/>
<path d="M274.816 208.885C274.816 208.885 241.616 223.346 235.586 223.1C229.555 222.823 192.417 211.777 192.417 211.777L193.371 218.177C193.371 218.177 222.047 234.669 232.047 235.592C241.924 236.515 275.647 226.731 278.908 224.669C282.17 222.608 284.293 210.977 274.816 208.885Z" fill="#FC9492"/>
<path d="M279.801 155.655C279.801 155.655 292.047 153.317 298.17 157.778C309.216 165.839 309.831 193.685 313.954 197.839C318.108 201.993 328.077 200.208 328.969 221.654C329.862 243.1 325 244.885 330.785 254.484C336.569 264.053 328.323 273.653 328.323 273.653C328.323 273.653 331.708 268.361 330.262 264.546C330.262 264.546 328.846 272.976 323.493 274.946C318.139 276.915 317.339 278.361 316.508 281.253C316.508 281.253 270.878 257.869 270.816 241.285C270.755 224.7 261.832 208.27 266.232 201.07C266.232 201.07 264.293 204.147 264.047 207.562C264.047 207.562 261.401 202.516 265.986 197.839C270.539 193.131 260.632 183.439 262.109 172.178C263.093 164.455 268.509 155.993 279.801 155.655Z" fill="#0D0D38"/>
<path d="M270.785 224.7C273.708 226.731 277.37 228.393 281.954 229.439C299.154 233.408 305.769 218.854 308.231 208.885C305.892 207.531 303.677 207.255 302.385 207.101C301.154 206.947 299.831 206.855 298.754 206.793C296.816 205.316 293.954 199.255 293.308 189.839L292.508 190.055L278.939 193.778C278.939 193.778 279.554 198.085 279.862 202.178C280.108 205.378 280.139 208.424 279.523 209.162C278.477 209.378 277.831 209.531 277.831 209.531C277.647 209.839 273.739 216.301 270.785 224.7Z" fill="#FDB3B1"/>
<path d="M278.939 193.777C278.939 193.777 279.555 198.085 279.863 202.177C287.555 201.408 291.124 194.085 292.508 190.085L278.939 193.777Z" fill="#FC9492"/>
<path d="M276.662 197.839C276.662 197.839 294.908 196.824 294.108 185.47C293.308 174.116 295.124 166.363 283.432 166.516C271.739 166.67 269.801 171.162 269.155 175.009C268.478 178.885 271.893 197.808 276.662 197.839Z" fill="#FDB3B1"/>
<path d="M269.216 168.67C271.801 165.039 273.955 165.655 275.247 166.578C284.816 160.393 291.801 168.024 291.801 168.024C293.616 176.085 299.801 180.331 299.801 180.331C299.801 180.331 296.631 182.608 288.816 181.193C286.447 180.762 284.232 179.254 282.324 177.347C285.801 182.331 290.293 185.747 290.293 185.747C280.847 182.178 276.263 169.716 275.801 168.393C274.755 169.47 272.724 171.808 272.201 173.962C271.493 176.916 268.478 181.531 266.724 181.47C266.724 181.531 265.37 174.085 269.216 168.67Z" fill="#0D0D38"/>
<path d="M313.431 261.776C315.093 253.346 320.447 219.715 315.093 208.885C313.154 205.008 305.585 204.639 297.278 204.977C294.693 206.639 284.847 212.946 280.816 212.177C280.786 212.177 280.693 212.146 280.601 212.115C278.693 211.654 277.986 210.3 279.555 209.162C279.555 209.162 275.432 208.762 270.324 209.715C267.432 210.269 259.647 214.269 259.647 214.269C259.647 214.269 263.555 221.346 269.34 223.777C268.355 232.577 269.832 236.454 278.94 256.73C286.632 273.899 277.893 289.345 277.893 289.345C277.893 289.345 323.247 325.806 323.493 307.253C323.708 293.314 311.339 272.545 313.431 261.776Z" fill="#A83F3F"/>
<path d="M275.647 329.037C273.185 328.76 270.97 327.406 269.585 325.345C269.37 325.006 269.124 324.668 268.877 324.299C263.708 316.483 261.708 292.545 250.108 267.038C247.278 260.823 237.124 259.715 234.355 252.7C234.355 252.7 227.555 229.962 247.401 229.285C267.247 228.608 300.569 292.576 301.092 299.284C301.615 305.776 314.231 333.375 275.647 329.037Z" fill="#E75755"/>
<path d="M196.725 328.514H225.001C225.001 328.514 226.047 323.991 224.201 320.945C222.57 318.237 223.186 316.699 224.417 314.453C223.124 314.976 221.493 315.468 219.647 315.345C218.232 315.253 216.755 314.637 215.432 313.868C214.201 315.253 209.001 321.16 207.371 322.33C205.555 323.622 197.309 323.16 196.725 328.514Z" fill="#9E332E"/>
<path d="M310.446 217.715C310.446 217.715 314.139 251.192 290.262 258.207C266.416 265.222 259.647 227.407 278.908 224.7C298.17 221.961 310.446 217.715 310.446 217.715Z" fill="#9E332E"/>
<path d="M233.709 235.869C232.017 248.638 225.371 288.884 213.648 308.545C209.863 314.883 223.155 318.422 223.247 318.422C225.032 317.96 228.017 315.099 229.37 313.868C238.878 305.284 258.201 281.007 258.201 261.53C258.201 252.023 258.355 233.9 251.462 229.285C247.216 226.423 234.386 230.792 233.709 235.869Z" fill="#E75755"/>
<path d="M292.508 328.514C292.508 328.514 291.462 327.068 289.647 324.299C287.462 321.007 285.062 314.514 282.139 306.238C279.062 297.53 275.432 286.792 270.878 275.623C269.463 272.177 267.986 268.7 266.416 265.223C263.586 259.007 255.801 259.869 253.032 252.854C253.032 252.854 242.232 228.516 262.078 227.869C281.924 227.193 319.677 292.945 321.831 299.315C324.231 306.238 335.8 335.191 292.508 328.514Z" fill="#FA7269"/>
<path d="M217.494 328.514H245.771C245.771 328.514 246.817 323.991 244.971 320.945C243.34 318.237 243.955 316.699 245.186 314.453C243.894 314.976 242.263 315.468 240.417 315.345C239.002 315.253 237.525 314.637 236.202 313.868C234.971 315.253 229.771 321.16 228.14 322.33C226.294 323.622 218.048 323.16 217.494 328.514Z" fill="#A83F3F"/>
<path d="M282.139 306.207C279.062 297.499 275.432 286.761 270.878 275.592C272.078 267.13 274.632 259.746 278.939 256.761C278.939 256.761 289.401 289.13 282.139 306.207Z" fill="#ED6966"/>
<path d="M250.201 234.946C248.509 247.715 246.109 288.884 234.386 308.514C230.601 314.853 243.893 318.391 243.986 318.391C245.77 317.93 248.755 315.068 250.109 313.837C259.616 305.253 278.939 280.976 278.939 261.5C278.939 251.992 267.801 234.639 260.878 230.023C256.663 227.192 250.878 229.869 250.201 234.946Z" fill="#FA7269"/>
<path d="M189.033 195.347L217.986 192.27C218.817 192.178 219.617 192.67 219.925 193.47L230.294 220.669C230.755 221.869 229.894 223.162 228.632 223.193L199.925 224.362C199.156 224.393 198.417 223.931 198.141 223.223L187.556 197.931C187.033 196.762 187.802 195.47 189.033 195.347Z" fill="#9E332E"/>
<path d="M186.51 195.593L215.463 192.516C216.294 192.424 217.094 192.916 217.401 193.716L227.771 220.916C228.232 222.116 227.371 223.408 226.109 223.439L197.402 224.608C196.633 224.639 195.894 224.178 195.617 223.47L185.033 198.178C184.51 197.039 185.279 195.747 186.51 195.593Z" fill="#A83F3F"/>
<path d="M202.571 208.3C202.202 207.316 202.725 206.546 203.679 206.546C204.663 206.546 205.71 207.346 206.079 208.3C206.417 209.285 205.925 210.054 204.971 210.054C204.017 210.054 202.91 209.285 202.571 208.3Z" fill="#9E332E"/>
<path d="M187.371 198.177C187.186 197.716 187.432 197.316 187.925 197.316C188.417 197.316 188.94 197.716 189.094 198.177C189.279 198.67 189.032 199.039 188.54 199.039C188.048 199.039 187.555 198.639 187.371 198.177Z" fill="#9E332E"/>
<path d="M308.231 208.885C308.231 208.885 268.109 223.654 262.078 223.346C258.17 223.161 225.801 211.777 225.801 211.777L222.909 217.285C222.909 217.285 254.416 237.531 263.093 237.438C280.201 237.254 309.062 226.731 312.323 224.669C315.585 222.608 317.708 210.977 308.231 208.885Z" fill="#FDB3B1"/>
<path d="M225.832 211.777C225.832 211.777 222.94 207.316 220.017 207.162C217.125 207.039 212.109 209.131 210.417 209.47C208.694 209.808 203.833 211.377 205.279 213.746C206.725 216.116 213.433 216.639 216.325 216.116C219.217 215.593 222.909 217.285 222.909 217.285L225.832 211.777Z" fill="#FDB3B1"/>
<path d="M220.817 207.316C220.817 207.316 216.202 205.193 214.909 204.823C213.586 204.423 213.863 204.823 214.263 206.085C214.663 207.346 217.033 208.516 217.033 208.916C217.002 209.285 220.817 207.316 220.817 207.316Z" fill="#FDB3B1"/>
<path d="M189.495 209.408C189.495 209.408 192.387 204.823 193.341 204.639C196.233 204.054 196.233 207.869 195.618 210.331C194.971 212.977 192.725 215.469 192.11 215.254C191.525 215.039 188.818 211.839 189.495 209.408Z" fill="#FDB3B1"/>
<path d="M189.402 210.331C189.402 210.331 188.479 215.469 193.371 218.177L189.402 210.331Z" fill="#FDB3B1"/>
<path d="M287.555 216.177C287.555 216.177 291.155 227.531 303.462 230.115C303.462 230.115 323.8 223.839 313.677 209.993C313.708 209.993 303.678 202.547 287.555 216.177Z" fill="#A83F3F"/>
</svg>
