<svg width="772" height="391" viewBox="0 0 772 391" fill="none" xmlns="http://www.w3.org/2000/svg">
<path d="M682.5 284.352C693.678 267.718 696.371 247.266 696.653 233.002C696.975 217.573 694.643 205.881 694.602 205.76L695.366 205.519C695.406 205.64 697.738 217.412 697.417 232.962C697.095 247.346 694.361 267.999 683.103 284.834L682.5 284.352Z" fill="#3C8F7C"/>
<path d="M692.109 202.867C692.23 206.362 693.637 209.376 695.728 211.224C697.658 208.853 698.824 205.559 698.663 202.063C698.542 198.567 697.135 195.554 695.044 193.706C693.114 196.076 691.948 199.371 692.109 202.867Z" fill="#3C8F7C"/>
<path d="M698.944 211.184C697.054 214.157 696.371 217.572 696.813 220.586C699.587 220.023 702.281 218.135 704.211 215.161C706.101 212.188 706.784 208.773 706.342 205.759C703.568 206.322 700.834 208.21 698.944 211.184Z" fill="#3C8F7C"/>
<path d="M702.643 220.828C699.788 222.596 697.818 225.408 696.974 228.422C699.587 229.306 702.723 228.944 705.538 227.176C708.393 225.408 710.363 222.596 711.207 219.582C708.594 218.698 705.498 219.06 702.643 220.828Z" fill="#3C8F7C"/>
<path d="M700.955 234.008C698.703 235.414 697.256 237.905 696.773 240.678C699.025 241.763 701.638 241.763 703.89 240.316C706.141 238.91 707.589 236.419 708.071 233.646C705.78 232.561 703.206 232.602 700.955 234.008Z" fill="#3C8F7C"/>
<path d="M692.39 218.013C689.978 216.567 687.204 216.406 684.791 217.29C685.314 219.942 686.922 222.353 689.335 223.839C691.787 225.286 694.521 225.447 696.934 224.563C696.411 221.911 694.803 219.46 692.39 218.013Z" fill="#3C8F7C"/>
<path d="M692.35 227.138C689.938 225.691 687.164 225.531 684.751 226.415C685.274 229.066 686.882 231.477 689.295 232.964C691.707 234.41 694.481 234.571 696.894 233.687C696.331 231.035 694.763 228.624 692.35 227.138Z" fill="#3C8F7C"/>
<path d="M693.998 366C717.399 357.482 733.763 337.191 743.372 321.641C753.785 304.766 758.731 289.738 758.771 289.578L759.816 289.979C759.776 290.14 754.791 305.288 744.297 322.284C734.607 337.954 718.082 358.486 694.36 367.085L693.998 366Z" fill="#96D9C9"/>
<path d="M757.848 284.153C755.717 288.171 755.355 292.712 756.481 296.69C760.18 295.765 763.637 293.154 765.768 289.136C767.899 285.118 768.261 280.577 767.135 276.6C763.436 277.484 759.979 280.135 757.848 284.153Z" fill="#96D9C9"/>
<path d="M760.139 299.461C756.078 301.068 753.103 304.282 751.655 308.019C755.153 309.867 759.415 310.189 763.516 308.582C767.577 306.974 770.553 303.76 772 300.023C768.502 298.215 764.2 297.854 760.139 299.461Z" fill="#96D9C9"/>
<path d="M756.962 323.085C750.939 322.227 746.361 319.394 746.737 316.758C747.113 314.122 752.301 312.68 758.324 313.538C764.347 314.396 768.926 317.228 768.55 319.865C768.174 322.501 762.986 323.943 756.962 323.085Z" fill="#96D9C9"/>
<path d="M749.807 326.864C745.425 326.302 741.364 327.627 738.469 330.239C740.841 333.534 744.58 335.905 748.923 336.467C753.305 337.03 757.366 335.704 760.261 333.092C757.889 329.837 754.149 327.427 749.807 326.864Z" fill="#96D9C9"/>
<path d="M750.449 305.97C750.208 301.711 748.439 297.934 745.866 295.282C743.534 297.813 742.207 301.55 742.448 305.809C742.69 310.068 744.459 313.845 747.032 316.497C749.364 314.006 750.691 310.229 750.449 305.97Z" fill="#96D9C9"/>
<path d="M741.846 319.873C741.645 315.614 739.956 311.796 737.383 309.145C735.051 311.636 733.603 315.372 733.804 319.591C734.005 323.85 735.694 327.668 738.267 330.319C740.599 327.828 742.047 324.092 741.846 319.873Z" fill="#96D9C9"/>
<path d="M735.734 340.726C734.045 339.842 732.236 339.802 730.708 340.485C731.19 342.213 732.316 343.74 733.964 344.624C735.653 345.508 737.462 345.548 738.99 344.865C738.548 343.137 737.382 341.61 735.734 340.726Z" fill="#96D9C9"/>
<path d="M637.871 343.458C637.871 343.458 619.658 303.318 625.769 294.358C634.172 281.982 644.626 319.952 645.109 316.618C649.933 285.076 648.928 245.378 671.444 239.311C684.229 235.896 670.599 269.004 672.168 277.522C673.736 286.041 695.045 255.584 708.152 239.472C721.26 223.36 729.301 232.239 721.702 251.807C714.344 270.692 687.727 292.871 693.678 294.76C699.629 296.648 733.04 270.33 738.066 280.013C744.258 291.907 692.793 312.921 697.94 315.292C703.086 317.662 727.612 306.532 727.612 316.015C727.612 325.497 693.718 327.868 694.603 331.966C696.01 338.596 717.319 321.64 718.968 330.841C720.657 340.243 690.059 340.967 691.145 348.32C691.748 352.579 699.468 348.119 700.835 353.945C704.011 367.204 655.803 385.808 655.803 385.808L637.871 343.458Z" fill="#3C8F7C"/>
<path d="M604.299 352.581C596.981 355.996 598.952 364.514 598.952 364.514C598.952 364.514 579.09 349.045 571.692 358.086C564.253 367.126 568.153 384.845 576.878 387.698C579.974 388.703 591.353 389.145 604.902 389.265C629.589 389.466 661.231 388.582 661.231 388.582C661.231 388.582 610.893 349.527 604.299 352.581Z" fill="#96D9C9"/>
<path d="M656.849 374.155L656.165 373.552C672.047 354.226 678.842 329.957 681.737 313.001C684.873 294.598 684.23 280.656 684.23 280.495L685.195 280.334C685.195 280.455 685.838 294.558 682.702 313.041C679.767 330.117 672.932 354.587 656.849 374.155Z" fill="#50BFA5"/>
<path d="M682.138 277.402C681.656 281.58 682.741 285.196 684.832 287.527C687.486 284.795 689.416 280.897 689.898 276.759C690.381 272.58 689.295 268.964 687.204 266.633C684.511 269.366 682.581 273.223 682.138 277.402Z" fill="#50BFA5"/>
<path d="M688.33 287.127C685.596 290.582 684.189 294.6 684.189 298.216C687.486 297.654 690.984 295.484 693.718 292.069C696.452 288.613 697.859 284.595 697.859 280.979C694.522 281.582 691.024 283.711 688.33 287.127Z" fill="#50BFA5"/>
<path d="M690.863 298.74C687.285 300.749 684.47 304.003 682.942 307.539C685.837 308.664 689.496 308.383 693.074 306.414C696.653 304.405 699.467 301.191 700.995 297.615C698.14 296.49 694.482 296.771 690.863 298.74Z" fill="#50BFA5"/>
<path d="M684.43 317.905C682.861 318.628 681.615 319.914 680.891 321.36C682.057 321.923 683.585 321.923 685.153 321.24C686.721 320.516 687.968 319.231 688.691 317.784C687.485 317.181 685.957 317.181 684.43 317.905Z" fill="#50BFA5"/>
<path d="M682.46 325.017C680.892 325.74 679.645 327.026 678.922 328.473C680.088 329.035 681.615 329.035 683.184 328.352C684.752 327.629 685.998 326.343 686.722 324.896C685.556 324.294 684.028 324.334 682.46 325.017Z" fill="#50BFA5"/>
<path d="M679.525 295.001C676.952 293.153 673.816 292.831 670.88 293.836C671.001 297.01 672.408 299.983 674.982 301.791C677.555 303.64 680.691 303.961 683.626 302.957C683.425 299.782 682.058 296.809 679.525 295.001Z" fill="#50BFA5"/>
<path d="M677.835 305.891C675.262 304.042 672.126 303.721 669.191 304.725C669.312 307.9 670.719 310.873 673.292 312.681C675.865 314.489 679.001 314.851 681.937 313.846C681.735 310.672 680.368 307.699 677.835 305.891Z" fill="#50BFA5"/>
<path d="M676.711 321.559C675.062 320.394 673.012 320.153 671.082 320.796C671.162 322.845 672.087 324.774 673.735 325.979C675.384 327.144 677.434 327.386 679.364 326.743C679.284 324.693 678.359 322.765 676.711 321.559Z" fill="#50BFA5"/>
<path d="M644.867 388.7C644.867 388.7 668.106 358.887 677.836 354.306C688.169 349.445 679.203 366.28 679.203 366.28C679.203 366.28 701.357 344.543 706.544 349.967C711.73 355.391 706.182 360.494 706.182 360.494C706.182 360.494 724.717 357.079 727.411 363.99C731.552 374.678 701.076 379.941 701.076 379.941C701.076 379.941 715.671 376.727 712.736 383.356C708.353 393.281 644.867 388.7 644.867 388.7Z" fill="#50BFA5"/>
<path d="M727.411 363.991C724.717 357.04 706.182 360.495 706.182 360.495C706.182 360.495 711.731 355.433 706.544 349.968C701.357 344.544 684.028 357.361 684.028 357.361C684.028 357.361 686.722 345.589 673.695 354.87C664.407 361.5 646.435 386.17 646.435 386.17L727.411 363.991Z" fill="#96D9C9"/>
<path d="M661.955 388.217C661.955 388.217 624.925 390.829 617.728 384.199C610.491 377.57 617.688 365.556 617.688 365.556C617.688 365.556 604.982 355.511 605.183 348.961C605.384 342.412 613.667 345.747 613.667 345.747C613.667 345.747 599.635 327.706 602.972 324.251C609.164 317.862 625.407 336.626 625.407 336.626C625.407 336.626 620.583 327.706 625.649 326.3C633.328 324.17 638.957 346.189 638.957 346.189C638.957 346.189 637.51 337.51 642.817 338.635C652.225 340.725 661.955 388.217 661.955 388.217Z" fill="#50BFA5"/>
<path d="M130.923 276.731L127.654 268.866C125.112 263.059 118.655 260.316 113.247 262.696C99.5254 268.705 93.5929 285.402 99.929 300.002L104.57 310.689C106.628 315.368 105.902 320.489 103.158 324.119C100.655 327.426 100.252 331.984 101.987 335.976L104.449 341.582C107.113 347.672 112.278 352.189 118.372 354.045C121.964 355.133 125.112 357.836 126.766 361.667L130.237 369.653C134.071 378.445 143.878 382.679 152.151 379.05L156.873 376.993C165.146 373.363 168.738 363.28 164.904 354.488C158.689 343.962 159.214 336.097 161.393 330.774C164.621 322.95 164.581 313.916 161.07 305.89L160.586 304.761C156.913 296.291 149.77 289.959 141.295 287.257C137.582 285.966 133.668 283.063 130.923 276.731Z" fill="#50BFA5"/>
<path d="M189.967 387.357C183.308 378.685 146.341 332.789 122.57 325.046C96.3381 316.536 121.037 350.373 121.037 350.373C121.037 350.373 74.4645 299.315 57.3934 303.912C41.7348 308.107 57.3934 339.766 57.3934 339.766C57.3934 339.766 39.7573 322.223 18.368 322.223C-2.45634 322.223 34.0266 385.34 35.9234 388.647L137.381 388.445L189.967 387.357Z" fill="#96D9C9"/>
<path d="M49.0391 288.789C68.0877 318.594 81.9302 353.157 89.8806 388.325L91.7773 388.285C83.8673 353.843 69.5002 318.997 50.5323 289.233C46.1333 282.336 41.3309 274.109 33.098 271.407C32.9366 271.367 32.8558 271.609 33.0172 271.649C40.564 274.512 44.9226 282.296 49.0391 288.789Z" fill="#3C8F7C"/>
<path d="M85.5625 388.405C64.2943 359.408 38.2235 332.305 7.47137 308.994C7.14851 308.752 6.74493 309.317 7.06779 309.519C36.2057 331.983 61.9132 358.399 83.6253 388.405H85.5625Z" fill="#3C8F7C"/>
<path d="M47.3444 270.316C46.8601 271.042 44.9634 272.897 44.3984 275.398C43.6719 277.737 44.2369 280.681 44.2773 280.6C44.4387 280.641 42.098 278.705 41.3716 275.599C40.4433 272.615 41.089 268.461 42.2594 267.089C44.2773 263.984 47.7883 263.661 48.4744 265.154C49.2412 266.605 48.3129 268.662 47.3444 270.316Z" fill="#3C8F7C"/>
<path d="M42.7833 296.894C43.5098 296.37 45.3258 294.474 47.7876 293.869C50.1284 293.103 53.0745 293.627 52.9534 293.668C52.9938 293.829 51.0163 291.53 47.9087 290.885C44.9223 289.998 40.8058 290.724 39.4336 291.934C36.3664 293.99 36.1242 297.539 37.6578 298.185C39.1511 298.87 41.169 297.943 42.7833 296.894Z" fill="#3C8F7C"/>
<path d="M49.6447 308.551C50.3711 308.027 52.1871 306.131 54.649 305.526C56.9897 304.76 59.9358 305.284 59.8147 305.324C59.8551 305.486 57.8776 303.187 54.77 302.542C51.7836 301.654 47.6671 302.38 46.2949 303.59C43.2278 305.647 42.9856 309.196 44.5192 309.842C46.0124 310.527 48.0303 309.6 49.6447 308.551Z" fill="#3C8F7C"/>
<path d="M25.1466 335.569C25.873 335.045 27.6892 333.149 30.151 332.544C32.4917 331.778 35.4378 332.302 35.3167 332.343C35.3571 332.504 33.3796 330.205 30.272 329.56C27.2856 328.672 23.1692 329.398 21.797 330.608C18.7299 332.665 18.4877 336.214 20.0213 336.86C21.5145 337.586 23.5323 336.618 25.1466 335.569Z" fill="#3C8F7C"/>
<path d="M12.596 324.522C13.3224 323.997 15.1385 322.102 17.6002 321.497C19.9409 320.73 22.887 321.255 22.7659 321.295C22.8063 321.456 20.8288 319.158 17.7213 318.512C14.7349 317.625 10.6185 318.351 9.24639 319.561C6.17927 321.618 5.93717 325.167 7.47073 325.812C9.00428 326.498 10.9817 325.53 12.596 324.522Z" fill="#3C8F7C"/>
<path d="M56.9489 283.505C56.3435 284.15 54.2046 285.683 53.2764 288.062C52.1464 290.24 52.3078 293.265 52.3482 293.144C52.4693 293.224 50.4917 290.926 50.29 287.74C49.846 284.634 51.1375 280.641 52.5096 279.472C54.9714 276.729 58.4825 276.971 58.9264 278.544C59.4107 280.157 58.1596 282.013 56.9489 283.505Z" fill="#3C8F7C"/>
<path d="M67.038 296.733C66.1905 297.176 63.2445 297.983 61.7109 300.241C60.0159 302.218 59.8141 305.605 59.9352 305.525C60.0966 305.686 57.7963 302.258 57.9173 298.588C57.7155 294.918 59.8544 291.046 61.7916 290.32C65.343 288.344 69.8631 290.078 70.2263 292.054C70.6299 294.031 68.8138 295.604 67.038 296.733Z" fill="#3C8F7C"/>
<path d="M77.6938 316.737C76.7656 317.06 73.6983 317.342 71.8823 319.278C69.9047 320.931 69.0977 324.239 69.2187 324.198C69.3398 324.36 67.6851 320.609 68.3712 317.019C68.7748 313.39 71.5594 309.921 73.5772 309.518C77.3708 308.147 81.568 310.647 81.568 312.664C81.6487 314.721 79.5906 315.931 77.6938 316.737Z" fill="#3C8F7C"/>
<path d="M46.2139 330.692C45.5682 331.135 43.187 331.942 42.0974 333.838C40.8463 335.572 40.8463 338.314 40.927 338.234C41.0481 338.355 38.9898 335.693 38.8688 332.708C38.5055 329.764 40.0392 326.457 41.5324 325.771C44.2767 323.916 48.0703 325.126 48.4739 326.699C48.9985 328.312 47.5861 329.684 46.2139 330.692Z" fill="#3C8F7C"/>
<path d="M29.8295 274.994C30.233 274.672 31.242 273.462 32.6545 272.978C33.9863 272.413 35.7621 272.615 35.7217 272.615C35.7621 272.695 34.4706 271.445 32.6141 271.163C30.798 270.8 28.417 271.405 27.6502 272.131C25.9148 273.502 25.9147 275.599 26.8833 275.922C27.7712 276.325 28.9012 275.639 29.8295 274.994Z" fill="#3C8F7C"/>
<path d="M33.6643 266.485C33.6239 267.009 33.301 268.542 33.8257 269.953C34.1889 271.365 35.3997 272.655 35.3997 272.575C35.4804 272.534 33.7046 272.333 32.3728 271.002C30.9603 269.792 29.9916 267.533 30.1127 266.444C30.1531 264.267 31.8077 262.976 32.6149 263.5C33.4221 264.025 33.6239 265.356 33.6643 266.485Z" fill="#3C8F7C"/>
<path d="M3.59714 313.269C4.00071 312.947 5.00964 311.737 6.42213 311.253C7.75392 310.688 9.52967 310.89 9.48931 310.89C9.52967 310.971 8.23817 309.72 6.38174 309.438C4.56567 309.075 2.18468 309.68 1.41789 310.406C-0.317463 311.777 -0.317522 313.874 0.651049 314.197C1.5389 314.6 2.70928 313.955 3.59714 313.269Z" fill="#3C8F7C"/>
<path d="M8.23773 304.678C8.19737 305.203 7.71312 306.695 8.07634 308.147C8.31848 309.599 9.44846 310.97 9.44846 310.889C9.52917 310.889 7.79381 310.486 6.54273 309.034C5.21093 307.703 4.4441 305.364 4.68624 304.315C4.88803 302.138 6.66378 301.008 7.43058 301.573C8.19737 302.259 8.27809 303.549 8.23773 304.678Z" fill="#3C8F7C"/>
<path d="M29.3033 354.045C29.1823 354.852 28.3348 357.191 28.8595 359.449C29.1823 361.708 30.7966 363.926 30.8369 363.845C30.9984 363.845 28.2541 363.12 26.438 360.78C24.4605 358.643 23.3708 354.892 23.8551 353.279C24.299 349.891 27.124 348.238 28.2944 349.206C29.4648 350.214 29.5051 352.271 29.3033 354.045Z" fill="#3C8F7C"/>
<path d="M46.4167 360.215C46.2957 361.021 45.4481 363.36 45.9728 365.619C46.2956 367.877 47.9099 370.096 47.9502 370.015C48.1116 370.015 45.3674 369.289 43.5513 366.95C41.5738 364.812 40.4842 361.062 40.9685 359.448C41.4124 356.061 44.2374 354.407 45.4078 355.375C46.5782 356.383 46.6185 358.44 46.4167 360.215Z" fill="#3C8F7C"/>
<path d="M63.8092 367.958C63.6881 368.765 62.8407 371.104 63.3653 373.363C63.6882 375.621 65.3024 377.839 65.3428 377.759C65.5042 377.759 62.76 377.033 60.9439 374.694C58.9663 372.556 57.8766 368.805 58.3609 367.192C58.8049 363.804 61.6299 362.151 62.8003 363.119C63.9706 364.127 64.011 366.224 63.8092 367.958Z" fill="#3C8F7C"/>
<path d="M24.2195 370.097C24.5828 369.452 25.2688 367.274 26.883 365.863C28.3763 364.37 30.8381 363.644 30.7574 363.725C30.8784 363.806 28.457 362.838 25.7934 363.523C23.1702 364.007 20.3048 366.145 19.6995 367.597C18.1659 370.339 19.2959 373.162 20.7084 373.082C22.1613 373.001 23.372 371.509 24.2195 370.097Z" fill="#3C8F7C"/>
<path d="M42.0184 376.429C42.3816 375.783 43.0677 373.606 44.682 372.194C46.1752 370.702 48.6369 369.976 48.5562 370.057C48.6773 370.137 46.2559 369.169 43.5923 369.855C40.9691 370.339 38.1037 372.476 37.4984 373.928C35.9648 376.671 37.0948 379.494 38.5073 379.413C40.0005 379.333 41.1709 377.8 42.0184 376.429Z" fill="#3C8F7C"/>
<path d="M10.6589 363.604C10.9818 363.241 11.6679 361.951 12.919 361.305C14.049 360.579 15.7036 360.418 15.6632 360.458C15.7036 360.539 14.3315 359.611 12.5961 359.692C10.8608 359.652 8.80252 360.62 8.23751 361.426C6.90573 362.959 7.26896 364.854 8.15682 365.016C9.04468 365.177 9.93252 364.37 10.6589 363.604Z" fill="#3C8F7C"/>
<path d="M12.7177 355.215C12.7984 355.699 12.758 357.15 13.4441 358.36C14.0091 359.611 15.3409 360.538 15.3409 360.498C15.4216 360.458 13.767 360.538 12.3142 359.53C10.821 358.683 9.56986 356.747 9.5295 355.779C9.16629 353.803 10.4981 352.351 11.3052 352.714C12.1124 352.996 12.4756 354.166 12.7177 355.215Z" fill="#3C8F7C"/>
<path d="M11.83 359.936C17.3185 360.46 22.7265 361.468 28.0536 362.839C37.7797 365.38 47.1022 369.171 56.3037 373.164C60.8237 375.14 65.3841 377.076 69.8234 379.254C71.8816 380.262 73.9802 381.27 75.8769 382.561C78.4598 384.295 82.4552 387.804 82.9395 388.328L80.8005 388.369C79.3476 387.199 74.0608 382.722 66.7158 379.173C49.2815 370.784 31.2015 362.194 11.7897 360.057C11.7089 360.097 11.7089 359.936 11.83 359.936Z" fill="#3C8F7C"/>
<path d="M339.17 359.998C339.17 359.998 338.416 373.207 338.416 373.24C338.154 374.911 337.072 379.074 337.072 380.582C337.072 386.318 362.54 375.731 356.837 373.174C356.312 372.945 353.625 371.207 353.428 369.274C353.166 366.258 352.51 360.194 352.51 360.194L339.17 359.998Z" fill="#F7A491"/>
<path d="M356.772 373.142C356.772 373.142 350.807 374.879 347.726 375.338C344.677 375.764 340.613 372.093 338.45 373.076C336.057 374.158 336.319 384.974 336.319 384.974C336.319 384.974 368.244 386.843 377.258 383.958C380.831 382.778 368.998 377.206 356.772 373.142Z" fill="#355389"/>
<path d="M283.057 361.276C283.057 361.276 282.303 374.485 282.303 374.518C282.041 376.19 280.959 380.352 280.959 381.86C280.959 387.596 306.427 377.009 300.724 374.452C300.199 374.223 296.692 371.175 296.528 369.241C296.266 366.225 296.397 361.473 296.397 361.473L283.057 361.276Z" fill="#F7A491"/>
<path d="M300.657 374.387C300.657 374.387 294.692 376.124 291.611 376.583C288.562 377.009 284.498 373.338 282.335 374.321C279.942 375.403 279.844 385.269 279.844 385.269C279.844 385.269 313.965 387.727 321.995 385.433C325.634 384.417 312.883 378.484 300.657 374.387Z" fill="#355389"/>
<path d="M323.437 170.676L334.221 175.331L356.87 283.528L355.952 364.619L337.794 365.045C337.794 365.045 329.337 294.115 329.337 288.609C329.337 283.102 290.201 192.408 290.201 192.408L323.437 170.676Z" fill="#3C8F7C"/>
<path d="M315.112 176.609C315.112 176.609 307.18 259.961 307.18 274.023C307.18 288.084 300.756 366.717 300.756 366.717L282.564 366.619C282.564 366.619 281.253 342.658 279.286 307.39C278.991 301.884 279.68 290.739 279.286 285.003C276.468 243.868 270.863 205.158 273.518 189.818C273.944 187.36 274.763 180.903 276.337 179.264C288.267 166.94 315.112 176.609 315.112 176.609Z" fill="#50BFA5"/>
<path d="M351.167 142.227C351.167 142.227 393.614 138.949 395.155 139.572C396.662 140.194 387.517 152.125 387.354 156.616C387.321 158.058 348.676 170.218 341.334 167.105C333.337 163.728 307.344 129.214 305.214 122.495C302.854 114.989 299.806 96.8957 305.607 91.5858C308.262 89.1603 313.998 86.4397 317.243 87.9803C330.125 94.1424 339.564 121.348 351.167 142.227Z" fill="#A34C3E"/>
<path d="M343.431 188.376C343.431 187.131 339.333 166.088 339.333 164.056C339.432 137.211 326.419 95.1252 317.7 88.1764C316.291 87.0292 305.016 84.5054 305.016 84.5054L310.227 88.6681C315.57 96.2068 321.47 104.86 324.518 113.71C333.335 139.473 331.336 193.916 332.614 194.112C334.024 194.342 343.431 191.13 343.431 188.376Z" fill="#B75742"/>
<path d="M304.394 25.3752C304.394 25.3752 297.74 18.4264 292.463 26.9157C292.463 26.9157 288.365 24.6213 285.481 28.7513C285.481 28.7513 278.073 26.5552 276.303 37.6339C276.303 37.6339 272.501 36.9128 272.01 41.4688C271.518 45.9921 273.845 49.0076 273.845 49.0076C273.845 49.0076 271.715 50.6137 272.698 54.7764C273.55 58.3163 276.467 58.8408 276.467 58.8408C276.467 58.8408 277.287 64.8062 279.876 66.609C282.466 68.4117 286.005 67.5267 286.005 67.5267C286.005 67.5267 286.956 70.7717 289.972 70.4767C292.987 70.1817 296.724 67.2973 300.1 68.5756C303.476 69.8539 312.26 68.4773 312.26 68.4773C312.26 68.4773 322.093 64.0523 319.111 53.9897C319.111 53.9897 324.289 49.3026 319.733 43.6977C319.733 43.6977 323.011 34.9134 316.456 29.7346C309.867 24.5558 304.394 25.3752 304.394 25.3752Z" fill="#07345A"/>
<path d="M305.246 84.8C305.246 84.8 290.234 81.3584 288.562 81.3584C286.89 81.3584 276.467 143.012 273.484 166.219C270.502 189.425 272.894 193.522 272.894 193.522C272.894 193.522 294.331 198.275 310.162 196.833C326.616 195.325 332.615 194.145 332.615 194.145C332.615 194.145 329.14 134.228 326.288 120.331C324.486 111.448 319.307 100.763 313.702 91.7488C310.49 86.6355 305.246 84.8 305.246 84.8Z" fill="white"/>
<path d="M303.41 72.7698L304.623 81.6524C304.623 81.6524 307.344 94.4683 303.902 96.9266C300.46 99.4177 289.152 81.3247 289.152 81.3247L290.267 58.7739L303.41 72.7698Z" fill="#F7A491"/>
<path d="M289.939 66.1189C292.824 73.7888 299.642 78.5087 304.46 80.3114L303.411 72.7727L290.3 58.8096L289.939 66.1189Z" fill="#F47458"/>
<path d="M298.199 35.1104C305.213 32.6849 312.686 37.3065 313.768 44.5175C314.227 47.6641 314.686 51.5974 314.784 55.9239C315.014 66.3143 309.671 76.4425 304.951 76.4425C300.231 76.4425 287.186 69.7887 286.661 55.039C286.333 45.9597 290.857 37.667 298.199 35.1104Z" fill="#F7A491"/>
<path d="M290.134 56.2187C290.134 58.5132 288.627 60.3815 286.758 60.3815C284.89 60.3815 283.35 58.5459 283.35 56.2515C283.35 53.9571 284.857 52.0888 286.726 52.0888C288.627 52.056 290.134 53.9243 290.134 56.2187Z" fill="#F7A491"/>
<path d="M289.184 81.2932C289.184 81.2932 271.877 76.8027 267.092 79.6215C264.043 81.3915 264.076 105.876 264.076 105.876C264.076 105.876 272.402 136.228 270.992 152.649C268.665 179.887 268.272 196.833 269.419 198.013C276.663 202.536 303.769 202.831 305.507 199.98C324.812 168.71 289.184 81.2932 289.184 81.2932Z" fill="#B75742"/>
<path d="M385.615 161.04C385.615 161.073 385.615 161.139 385.615 161.171C385.615 163.466 383.91 165.334 381.845 165.334L323.469 165.137C321.404 165.137 319.732 163.269 319.732 160.975C319.732 160.876 319.732 160.778 319.732 160.68L385.615 161.04Z" fill="#184655"/>
<path d="M361.427 155.763L383.682 109.35C384.272 108.138 385.583 107.515 386.895 107.777L407.938 112.366C409.773 112.759 410.756 114.791 409.871 116.496L386.6 161.892C386.01 163.007 384.797 163.629 383.551 163.4L363.524 159.86C361.623 159.5 360.607 157.467 361.427 155.763Z" fill="#184655"/>
<path d="M380.895 158.681C379.977 158.648 378.436 158.648 377.322 158.812C376.142 158.976 374.995 158.746 373.979 158.746C371.947 158.713 370.472 158.746 370.537 158.648C370.603 158.55 370.209 158.255 371.291 158.091C372.602 157.894 375.486 158.091 377.42 157.632C378.502 157.37 380.796 157.009 380.796 157.009C380.796 157.009 384.172 155.796 384.172 155.6C384.14 154.452 381.616 154.649 380.174 155.141C379.092 155.01 376.666 155.501 376.666 155.501C376.666 155.501 371.586 155.403 371.586 154.682C371.586 154.387 374.733 154.092 377.748 153.338C380.567 152.65 383.287 151.47 383.222 150.912C383.124 149.962 379.944 150.421 379.944 150.421C379.944 150.421 377.715 150.847 376.961 150.945C376.076 151.044 373.422 151.175 373.422 151.175C373.422 151.175 364.146 151.175 364.244 150.519C364.309 149.864 365.194 148.225 365.752 148.028C366.342 147.831 367.554 148.028 368.144 147.831C368.734 147.635 369.292 146.914 369.128 146.193C368.931 145.504 365.817 145.406 365.817 145.406C365.817 145.406 363.261 145.34 361.687 146.16C356.279 149.011 356.967 149.765 356.279 150.093C355.46 150.486 343.103 149.208 343.103 149.208C343.103 149.208 306.654 145.603 304.688 145.34L303.344 157.435C305.409 158.123 348.019 159.893 352.411 159.959C352.411 159.959 357.59 161.926 360.901 163.073C364.211 164.22 367.882 163.859 368.865 164.023C368.997 164.056 372.307 164.449 376.535 163.925C380.174 163.466 376.503 162.286 376.503 162.286C376.503 162.286 369.619 161.991 369.75 161.467C369.849 161.073 373.585 161.434 377.617 160.975C378.666 160.844 379.682 160.713 380.6 160.615C383.025 160.287 383.517 158.746 380.895 158.681Z" fill="#F8A492"/>
<path d="M300.558 138.391C300.558 138.391 342.087 147.11 343.628 147.765C345.135 148.388 343.267 159.139 343.103 163.597C343.07 165.039 298.002 160.385 290.692 157.271C282.695 153.895 266.765 126.264 263.586 117.447C260.931 110.039 255.85 91.5525 259.587 84.7676C261.848 80.6705 269.715 77.1961 273.157 79.1299C286.989 86.9637 300.558 138.391 300.558 138.391Z" fill="#F47458"/>
<path d="M398.793 139.309C399.645 139.178 400.464 139.833 400.432 140.718C400.399 141.603 400.202 142.652 399.383 143.144C397.809 144.16 388.763 143.242 389.058 141.931C389.287 140.948 395.81 139.8 398.793 139.309Z" fill="#F7A491"/>
<path d="M399.905 143.57C399.905 143.57 400.2 147.044 399.447 146.946C398.66 146.848 388.958 146.094 388.728 144.914C388.499 143.668 398.791 142.685 399.905 143.57Z" fill="#F7A491"/>
<path d="M399.479 147.274C399.479 147.274 399.545 148.781 398.594 149.535C397.677 150.256 388.827 148.355 388.696 146.88C388.63 145.438 399.348 146.159 399.479 147.274Z" fill="#F7A491"/>
<path d="M396.76 150.158C396.76 150.158 396.694 151.306 396.235 151.764C395.743 152.223 389.122 151.142 388.565 149.7C387.942 148.225 396.071 148.651 396.76 150.158Z" fill="#F7A491"/>
<path d="M435.698 176.118C441.663 174.381 441.827 175.463 442.614 175.233C443.499 174.938 450.743 165.138 450.743 165.138C450.743 165.138 472.277 136.425 473.392 134.819L480.177 97.6497L500.564 97.4858C500.564 97.4858 492.042 137.638 491.223 139.605C490.403 141.604 456.249 176.676 453.365 179.855C453.365 179.855 451.497 185.034 450.218 188.246C448.94 191.458 446.187 193.785 445.662 194.638C445.597 194.769 443.696 197.424 440.418 200.046C437.599 202.275 439.074 198.8 439.074 198.8C439.074 198.8 443.466 193.654 442.942 193.359C442.548 193.13 440.352 196.08 437.238 198.604C436.452 199.259 435.665 199.882 434.911 200.472C432.977 201.98 431.371 201.193 433.076 199.259C433.666 198.571 434.715 197.489 435.6 196.801C436.517 196.08 437.107 195.096 437.796 194.343C439.14 192.868 440.156 191.819 440.057 191.819C439.926 191.786 439.959 191.294 439.107 191.95C438.058 192.737 436.255 194.933 434.616 195.981C433.699 196.571 431.83 197.915 431.83 197.915C431.83 197.915 428.585 199.423 428.389 199.259C427.438 198.374 429.306 196.703 430.716 196.08C431.339 195.228 433.338 193.851 433.338 193.851C433.338 193.851 436.648 190.147 436.091 189.623C435.829 189.393 433.502 191.425 430.847 192.999C428.389 194.474 425.603 195.555 425.176 195.096C424.455 194.31 426.979 192.376 426.979 192.376C426.979 192.376 428.848 191.13 429.405 190.639C430.093 190.082 431.961 188.279 431.961 188.279C431.961 188.279 438.189 181.658 437.599 181.232C437.009 180.773 435.075 180.183 434.518 180.445C433.961 180.707 433.272 181.723 432.748 181.986C432.191 182.248 431.207 182.117 430.749 181.461C430.29 180.806 432.322 178.478 432.322 178.478C432.322 178.478 433.961 176.643 435.698 176.118Z" fill="#F48C7F"/>
<path d="M469.558 362.587C469.558 362.587 470.279 375.403 470.279 375.436C470.541 377.074 471.59 381.073 471.59 382.581C471.59 388.153 446.843 377.861 452.383 375.403C452.874 375.173 455.529 373.502 455.693 371.601C455.955 368.683 456.578 362.784 456.578 362.784L469.558 362.587Z" fill="#F7A491"/>
<path d="M452.481 375.338C452.481 375.338 458.283 377.043 461.265 377.469C464.248 377.895 468.149 374.322 470.279 375.273C472.606 376.322 472.377 386.81 472.377 386.81C472.377 386.81 441.37 388.646 432.618 385.827C429.111 384.713 440.583 379.304 452.481 375.338Z" fill="#184655"/>
<path d="M524.066 363.832C524.066 363.832 524.787 376.648 524.787 376.681C525.049 378.32 526.098 382.318 526.098 383.826C526.098 389.398 501.351 379.106 506.89 376.648C507.382 376.419 510.791 373.469 510.955 371.6C511.217 368.683 511.086 364.029 511.086 364.029L524.066 363.832Z" fill="#F7A491"/>
<path d="M506.988 376.583C506.988 376.583 512.79 378.287 515.773 378.713C518.755 379.139 522.656 375.566 524.786 376.517C527.114 377.566 527.179 387.17 527.179 387.17C527.179 387.17 494.041 389.562 486.24 387.301C482.733 386.285 495.09 380.549 506.988 376.583Z" fill="#184655"/>
<path d="M484.864 178.706L474.408 183.229L452.414 288.313L453.299 367.076L470.933 367.502C470.933 367.502 479.128 298.605 479.128 293.262C479.128 287.919 517.116 199.814 517.116 199.814L484.864 178.706Z" fill="#355389"/>
<path d="M492.928 184.474C492.928 184.474 500.63 265.434 500.63 279.07C500.63 292.705 506.891 369.109 506.891 369.109L524.558 369.01C524.558 369.01 525.836 345.738 527.737 311.486C528.032 306.111 527.344 295.294 527.737 289.755C530.49 249.799 535.931 212.204 533.342 197.323C532.916 194.93 532.129 188.637 530.622 187.064C519.018 175.067 492.928 184.474 492.928 184.474Z" fill="#466EB6"/>
<path d="M471.361 120.593L492.765 119.151C492.765 119.151 493.814 100.042 493.814 90.8968C493.814 79.8181 497.19 63.5278 495.879 63.8228C492.175 64.675 485.783 68.0838 482.833 72.2138C472.541 86.5374 471.361 120.593 471.361 120.593Z" fill="#3C8F7C"/>
<path d="M522.066 63.4293C522.066 63.4293 534.259 65.1337 537.471 67.4937C541.077 70.1486 545.108 76.0813 545.108 76.0813C545.108 76.0813 530.129 146.88 530.097 158.811C530.064 168.021 533.341 190.671 533.341 190.671C533.341 190.671 488.076 193.522 470.934 186.77C470.934 186.77 476.342 159.86 476.342 152.78C476.342 145.7 482.832 81.424 484.307 76.9663C485.651 72.9019 488.076 65.5598 496.369 63.7571C504.596 61.9215 522.066 63.4293 522.066 63.4293Z" fill="#50BFA5"/>
<path d="M518.723 44.3529L521.738 64.1176C521.738 64.1176 510.725 87.6517 504.137 85.6195C498.598 83.9151 502.006 63.0687 502.006 63.0687C502.006 63.0687 505.022 51.8917 504.104 46.2868C503.219 40.6819 518.723 44.3529 518.723 44.3529Z" fill="#F7A491"/>
<path d="M504.105 46.2868C503.187 40.6819 518.723 44.3529 518.723 44.3529L518.986 45.9918C518.527 47.0734 517.969 48.024 517.314 48.7451C513.84 52.4489 508.431 54.6778 503.744 54.8416C504.203 51.8261 504.498 48.5812 504.105 46.2868Z" fill="#F47458"/>
<path d="M521.279 16.3936C521.705 16.2297 524.786 38.9115 518.952 45.1392C513.117 51.3669 501.744 53.4319 497.647 48.5153C493.123 43.0743 493.353 18.7208 502.432 12.2964C511.511 5.87209 521.279 16.3936 521.279 16.3936Z" fill="#F7A491"/>
<path d="M505.908 0.137132C512.922 1.54655 517.478 5.8076 519.15 7.64313C522.329 8.00368 526.656 9.77366 531.146 17.1158C536.653 26.1623 532.589 36.1593 526.197 41.0759C519.805 45.9925 519.871 51.6958 519.871 51.6958L518.888 48.7458C518.134 46.5169 517.839 44.157 518.101 41.8298C518.265 40.4204 518.56 38.9126 519.15 37.6671C520.69 34.3893 515.839 32.1933 514.495 29.4728C513.447 27.375 513.414 22.5568 511.742 19.0824L509.776 16.4274C509.776 16.4274 505.22 12.9203 500.795 13.9036C496.271 14.9197 496.894 -1.66562 505.908 0.137132Z" fill="#13375B"/>
<path d="M514.69 33.5049C514.657 36.2582 515.903 38.5526 517.509 38.5526C519.115 38.5854 520.459 36.3565 520.492 33.6032C520.524 30.8499 519.279 28.5555 517.673 28.5555C516.099 28.5228 514.756 30.7516 514.69 33.5049Z" fill="#F7A491"/>
<path d="M458.708 128.787L447.17 80.1457C446.875 78.9002 445.761 77.9824 444.45 77.9824H423.538C421.703 77.9824 420.359 79.7196 420.85 81.4896L433.568 129.377C433.896 130.557 434.945 131.409 436.157 131.442L455.889 132.229C457.725 132.294 459.134 130.59 458.708 128.787Z" fill="#355389"/>
<path d="M486.504 134.622C486.373 135.704 485.258 136.425 484.045 136.294L449.629 131.771C448.417 131.607 447.335 130.394 447.105 129.05L447.663 129.542C447.794 128.46 448.908 127.739 450.121 127.87L484.537 132.394C485.783 132.557 486.635 133.541 486.504 134.622Z" fill="#355389"/>
<path d="M540.552 72.54C536.455 72.4089 532.817 99.4829 535.406 102.171C537.995 104.826 538.52 138.193 538.52 138.193L499.81 137.242C499.056 136.751 490.927 131.277 489.78 130.097C488.567 128.851 482.635 129.474 481.094 131.179C479.521 132.883 484.568 131.506 485.978 132.424C487.354 133.375 484.929 135.702 484.929 135.702C484.929 135.702 475.129 137.111 473.195 135.112C471.294 133.08 466.18 129.638 465.459 131.67C465.099 132.719 467.721 135.898 469.229 137.21C467.36 135.833 465.164 134.358 464.41 134.62C463.034 135.079 463.591 136.849 464.345 137.373C465.099 137.898 472.9 143.831 474.112 144.257C475.292 144.65 493.418 145.109 496.565 145.797C496.565 145.797 547.632 157.433 550.549 156.712C553.106 156.089 555.629 139.733 555.629 127.212C555.564 114.692 553.368 72.9006 540.552 72.54Z" fill="#F7A491"/>
<path d="M535.211 66.3452C535.211 66.3452 542.356 67.9841 549.731 76.2767C556.45 83.8155 560.679 126.033 560.679 126.033L537.505 129.769L535.67 109.349L529.475 100.007L535.211 66.3452Z" fill="#50BFA5"/>
<path d="M262.831 171.922C258.406 170.119 258.209 170.905 257.652 170.676C256.996 170.381 252.276 162.318 252.276 162.318C252.276 162.318 238.248 138.653 237.527 137.374L235.429 108.498L219.893 106.695C219.893 106.695 223.072 137.964 223.564 139.538C224.055 141.111 247.13 170.643 249.064 173.331C249.064 173.331 250.048 177.428 250.769 179.985C251.49 182.541 253.391 184.541 253.719 185.229C253.751 185.327 254.964 187.523 257.259 189.752C259.225 191.686 258.373 188.9 258.373 188.9C258.373 188.9 255.456 184.639 255.882 184.442C256.21 184.311 257.652 186.737 259.782 188.9C260.34 189.457 260.897 190.015 261.389 190.506C262.732 191.817 264.044 191.326 262.896 189.72C262.503 189.162 261.782 188.245 261.192 187.655C260.536 187.032 260.176 186.212 259.717 185.622C258.799 184.41 258.144 183.525 258.209 183.492C258.308 183.492 258.307 183.099 258.93 183.656C259.651 184.344 260.831 186.18 262.011 187.097C262.667 187.622 263.978 188.802 263.978 188.802C263.978 188.802 266.338 190.211 266.469 190.113C267.256 189.523 265.977 188.081 264.961 187.491C264.568 186.77 263.126 185.59 263.126 185.59C263.126 185.59 260.897 182.476 261.389 182.148C261.585 181.984 263.224 183.721 265.092 185.164C266.862 186.475 268.862 187.523 269.222 187.228C269.845 186.704 268.075 185 268.075 185C268.075 185 266.764 183.885 266.371 183.492C265.912 183.033 264.601 181.492 264.601 181.492C264.601 181.492 260.405 175.953 260.897 175.658C261.389 175.363 262.896 175.068 263.29 175.298C263.683 175.56 264.109 176.379 264.502 176.641C264.896 176.904 265.65 176.871 266.076 176.412C266.469 175.953 265.125 174.019 265.125 174.019C265.125 174.019 264.109 172.446 262.831 171.922Z" fill="#F48C7F"/>
<path d="M233.594 47.1728C235.2 39.8963 236.773 32.5542 232.545 24.5566C229.136 18.0994 223.236 14.3628 216.386 13.5434C197.015 11.249 201.145 29.3092 174.103 33.2425C165.68 34.4553 157.879 35.6353 150.864 39.798C138.18 47.3367 133.394 59.4643 141.818 79.1962C162.402 127.543 212.944 86.5055 219.205 76.9674C223.794 69.953 232.545 51.86 233.594 47.1728Z" fill="#13375B"/>
<path d="M156.141 352.492C156.141 352.492 154.765 366.488 151.225 369.077C147.685 371.634 142.965 381.172 145.325 386.318C146.079 387.924 147.554 388.842 149.225 389.366C154.207 390.907 159.517 388.317 161.615 383.565C162.795 380.91 163.844 377.37 164.04 372.879C164.565 361.505 168.105 355.704 168.105 355.704L156.141 352.492Z" fill="#F7A491"/>
<path d="M210.618 358.229C210.618 358.229 211.733 372.355 210.815 376.944C210.323 379.403 207.635 384.45 208.881 386.777C210.126 389.105 211.536 389.662 211.536 389.662L243.69 390.186C245.428 390.219 244.28 389.105 242.871 388.056C240.544 386.351 238.708 385.237 231.301 381.664C230.809 381.435 229.072 380.32 228.449 379.927C226.843 378.944 225.237 377.403 223.86 375.863C221.566 373.306 221.336 360.851 221.336 360.851L210.618 358.229Z" fill="#F7A491"/>
<path d="M235.757 170.415C235.757 170.415 239.821 193.359 237.134 208.404C234.479 223.448 221.728 362.85 221.728 362.85L207.536 363.637C207.536 363.637 204.553 305.392 205.11 297.296C205.635 289.2 209.863 275.663 209.863 275.663L208.454 228.66L226.35 166.908L235.757 170.415Z" fill="#3C8F7C"/>
<path d="M194.066 165.596C194.066 165.596 182.889 182.378 180.234 196.243C177.579 210.14 182.201 252.783 177.088 270.975C174.334 280.808 163.813 296.016 162.24 308.767C160.633 321.484 154.373 354.819 154.373 354.819L168.533 357.638L201.474 274.384L227.302 199.127L233.923 160.384L194.066 165.596Z" fill="#50BFA5"/>
<path d="M203.111 70.1494C203.111 70.1494 193.343 71.2638 187.476 77.6226C181.642 83.9814 196.916 135.114 197.998 143.243C199.047 151.339 189.279 170.218 189.279 170.218C189.279 170.218 225.826 176.97 235.757 170.415C235.757 170.415 236.806 112.17 235.757 106.401C234.708 100.632 225.826 77.0982 223.695 74.771C221.565 72.4766 203.111 70.1494 203.111 70.1494Z" fill="#FAE0B2"/>
<path d="M242.739 130.625L254.276 81.9831C254.571 80.7376 255.686 79.8198 256.997 79.8198H277.909C279.744 79.8198 281.088 81.557 280.596 83.327L267.879 131.215C267.551 132.395 266.502 133.247 265.289 133.279L245.557 134.066C243.722 134.132 242.313 132.427 242.739 130.625Z" fill="#466EB6"/>
<path d="M214.943 136.458C215.074 137.54 216.189 138.261 217.401 138.13L244.279 134.066C245.491 133.902 246.344 133.377 246.245 131.902V131.837C246.114 130.755 245 130.034 243.787 130.165L216.91 134.23C215.664 134.394 214.812 135.41 214.943 136.458Z" fill="#355389"/>
<path d="M244.082 132.722C245.131 132.984 245.852 134.131 246.246 132.492L258.734 79.7864C256.8 79.7864 256.046 79.6881 255.227 80.3109C254.604 80.7698 254.44 80.8353 254.014 83.0641C253.489 85.1947 243.001 129.411 243.001 129.411C242.214 132.525 243.034 132.492 244.082 132.722Z" fill="#355389"/>
<path d="M189.214 76.9996C191.934 75.7213 195.147 77.098 196.195 79.9168C197.638 83.7845 199.014 89.6844 196.949 95.191C193.508 104.401 181.806 136.228 184.166 140.358C186.526 144.488 223.171 135.343 223.171 135.343C223.171 135.343 226.973 130.951 230.448 129.837C233.922 128.722 239.724 129.771 239.396 131.082C239.068 132.393 234.643 131.967 234.217 132.36C233.791 132.754 234.512 134.065 236.675 134.655C238.871 135.245 241.264 134.393 241.264 134.393C241.264 134.393 239.298 140.719 233.201 141.899C227.104 143.079 224.613 143.505 224.613 143.505C224.613 143.505 174.595 161.27 168.663 155.927C163.123 150.978 167.745 87.2589 189.214 76.9996Z" fill="#F7A491"/>
<path d="M208.027 50.4507C208.027 50.4507 207.961 50.8769 207.798 51.6307C207.142 55.1707 204.585 66.9377 202.881 70.1826C200.816 74.0831 209.961 86.5713 218.811 85.0307C221.433 84.5718 216.582 73.5587 216.811 72.4115C217.27 70.1826 217.86 67.1344 218.483 64.0205C218.843 62.2506 219.171 60.4806 219.532 58.8089C220.482 54.0562 221.236 50.1558 221.236 50.1558L208.027 50.4507Z" fill="#F7A491"/>
<path d="M207.8 51.6298C207.931 50.876 208.029 50.4498 208.029 50.4498L221.238 50.1221C221.238 50.1221 220.484 54.0226 219.534 58.7753C219.206 60.4469 218.846 62.2169 218.518 63.9541C216.486 63.6591 214.355 62.6758 212.192 60.8075C209.865 58.7753 208.324 56.317 207.406 53.6948C207.57 52.8754 207.701 52.1543 207.8 51.6298Z" fill="#F47458"/>
<path d="M215.992 19.0157C215.992 19.0157 210.584 19.7696 206.684 24.8173C202.783 29.865 198.555 45.4669 208.257 53.9235C217.959 62.4128 227.563 52.809 228.972 42.6153C230.414 32.4544 230.119 18.6552 215.992 19.0157Z" fill="#F7A491"/>
<path d="M232.087 39.1415C230.94 41.4031 228.973 42.6487 227.761 41.9276C226.515 41.2065 226.449 38.8137 227.597 36.5849C228.744 34.3233 230.711 33.0777 231.923 33.7988C233.169 34.5199 233.234 36.9127 232.087 39.1415Z" fill="#F7A491"/>
<path d="M217.631 18.7877C217.631 18.7877 209.305 33.603 203.34 34.2913C197.375 34.9796 196.588 42.8462 196.588 42.8462C196.588 42.8462 198.718 24.6876 204.618 21.1804C210.518 17.706 217.631 18.7877 217.631 18.7877Z" fill="#13375B"/>
<path d="M205.274 37.8302C205.766 40.4524 204.783 42.8779 203.111 43.2385C201.439 43.599 199.669 41.7307 199.178 39.1086C198.686 36.4864 199.669 34.0609 201.341 33.7003C203.045 33.3398 204.815 35.2081 205.274 37.8302Z" fill="#F7A491"/>
<path d="M162.566 381.042C154.831 382.452 149.685 377.928 147.03 374.552C145.063 378.387 143.851 383.14 145.293 386.286C146.571 389.04 150.013 389.826 152.963 389.925C156.044 390.023 158.961 388.417 160.501 385.729C161.223 384.484 161.944 382.91 162.566 381.042Z" fill="#3C8F7C"/>
<path d="M228.448 379.927C219.959 382.09 213.665 380.615 210.126 379.206C209.208 381.762 208.028 384.974 208.651 386.843C209.437 389.104 210.552 389.629 211.535 389.662C219.303 389.858 239.986 390.153 245.918 390.219C246.738 390.219 247.197 389.268 246.672 388.645C245.197 386.875 229.071 380.32 228.448 379.927Z" fill="#3C8F7C"/>
<path d="M628.231 78.3749C630.755 65.7229 624.954 53.1037 613.744 48.3838C613.809 41.1728 610.991 33.8962 606.205 28.9469C596.667 19.212 579.065 13.8693 572.051 26.2919C562.841 31.6346 555.564 43.205 558.317 53.7592C549.369 63.2974 552.778 80.4399 565.791 88.5687C565.561 99.2213 571.068 109.808 580.18 114.364C582.376 115.446 585.785 116.954 586.211 117.445C585.621 116.921 592.93 137.767 615.612 128.229C638.786 118.461 643.309 91.0925 628.231 78.3749Z" fill="#184655"/>
<path d="M590.668 78.1782C603.582 79.1615 610.859 109.743 610.859 109.743L594.863 118.855L590.668 78.1782Z" fill="#F7CC7F"/>
<path d="M539.766 355.867C539.766 355.867 536.324 361.538 535.767 372.715C535.537 377.14 534.587 380.582 533.407 383.204C531.375 387.891 526.13 390.415 521.246 388.907C519.575 388.382 518.165 387.465 517.411 385.891C515.084 380.844 519.739 371.404 523.246 368.913C526.753 366.422 528.097 352.655 528.097 352.655L539.766 355.867Z" fill="#634B4B"/>
<path d="M592.143 361.045C592.143 361.045 592.373 373.271 594.634 375.795C595.978 377.303 597.584 378.81 599.158 379.794C599.846 380.22 601.518 381.301 602.009 381.531C609.286 384.972 611.121 386.12 613.383 387.791C614.792 388.807 615.907 389.955 614.202 389.889L582.572 389.365C582.572 389.365 581.163 388.775 579.917 386.513C578.737 384.186 581.36 379.236 581.851 376.811C582.703 372.288 581.622 358.39 581.622 358.39L592.143 361.045Z" fill="#634B4B"/>
<path d="M597.191 170.217L579.59 230.92L580.999 277.136C580.999 277.136 576.836 290.444 576.312 298.409C575.787 306.373 578.672 363.635 578.672 363.635L592.635 362.816C592.635 362.816 605.123 225.709 607.778 210.893C610.433 196.144 606.434 173.56 606.434 173.56L597.191 170.217Z" fill="#B75742"/>
<path d="M604.697 163.726L598.24 201.878L572.87 275.889L540.453 357.767L526.49 355.014C526.49 355.014 532.62 322.204 534.193 309.715C535.766 297.227 546.058 282.248 548.779 272.546C553.794 254.715 549.205 212.695 551.86 199.059C554.449 185.391 565.43 168.904 565.43 168.904L604.697 163.726Z" fill="#F47458"/>
<path d="M591.587 78.4401C593.685 80.7018 605.419 98.2704 606.468 103.974C607.484 109.644 606.37 173.527 606.37 173.527C596.635 179.984 560.678 173.363 560.678 173.363C560.678 173.363 570.282 154.844 569.233 146.846C568.217 138.881 549.141 93.4521 561.137 81.7179C566.742 76.2113 574.281 74.9985 574.281 74.9985C574.281 74.9985 589.555 76.2113 591.587 78.4401Z" fill="#FAE0B2"/>
<path d="M601.518 149.273L611.58 105.188C611.908 103.844 613.088 102.894 614.465 102.894H636.753C638.72 102.894 640.129 104.729 639.638 106.63L628.33 149.863C628.002 151.109 626.887 152.027 625.576 152.059L604.566 152.879C602.534 153.01 601.059 151.174 601.518 149.273Z" fill="#3C8F7C"/>
<path d="M567.331 147.536C567.233 148.683 568.216 149.699 569.527 149.797L606.369 152.813C607.68 152.911 609.089 151.895 609.614 150.518L608.893 150.912C608.991 149.765 608.008 148.748 606.696 148.65L569.855 145.635C568.544 145.536 567.429 146.389 567.331 147.536Z" fill="#3C8F7C"/>
<path d="M595.879 143.898C596.371 143.505 596.895 142.292 600.664 139.211C601.779 138.326 603.745 138.031 603.745 138.031C603.745 138.031 606.204 137.703 606.433 138.26C606.663 138.817 606.335 139.473 605.942 139.768C605.483 139.997 604.532 140.063 604.106 140.26C603.647 140.489 603.221 141.997 603.254 142.554C603.319 143.111 610.465 141.899 610.465 141.899C610.465 141.899 612.53 141.44 613.185 141.243C613.743 141.079 615.414 140.391 615.414 140.391C615.414 140.391 617.807 139.604 618.036 140.325C618.135 140.784 616.201 142.095 614.136 143.046C611.907 144.062 609.514 144.717 609.547 145.012C609.645 145.57 613.579 145.012 613.579 145.012C613.579 145.012 615.349 144.291 616.266 144.226C617.315 143.603 619.216 143.111 619.446 144.062C619.511 144.226 617.053 145.668 617.053 145.668C617.053 145.668 615.316 146.291 614.529 146.618C613.12 147.241 610.858 147.471 609.842 147.798C608.99 148.093 609.35 148.257 609.35 148.356C609.35 148.421 610.465 148.257 612.038 147.962C612.825 147.864 613.775 147.864 614.66 147.569C615.512 147.274 616.66 147.077 617.381 147.012C619.446 146.717 619.216 148.061 617.381 148.683C616.66 148.913 615.873 149.142 615.086 149.405C612.005 150.355 609.055 150.519 609.055 150.847C609.055 151.306 614.398 150.617 614.398 150.617C614.398 150.617 617.414 151.109 614.627 151.961C611.448 152.977 608.826 153.076 608.728 153.076C607.941 153.076 605.155 153.862 602.434 153.371C600.435 152.977 597.583 152.354 596.174 152.092L595.879 143.898Z" fill="#634B4B"/>
<path d="M549.927 114.759L563.66 117.709C563.66 117.709 562.153 129.476 562.218 130.82C562.218 130.82 586.047 140.849 595.848 143.832L596.307 152.092C594.34 151.6 592.832 150.978 591.849 150.748C589.948 150.289 560.12 143.996 560.12 143.996C560.12 143.996 548.288 140.915 547.731 138.817C547.173 136.752 549.927 114.759 549.927 114.759Z" fill="#634B4B"/>
<path d="M630.656 134.816L627.51 151.106C627.575 151.106 627.608 151.04 627.674 151.008C629.083 150.155 630.361 149.041 631.345 147.763L637.146 140.421C637.835 139.568 638.097 138.454 637.933 137.372L637.245 133.046C637.113 132.128 636.491 131.374 635.606 131.079C633.901 130.456 631.214 129.539 630.689 129.768C629.837 130.096 633.41 132.554 633.41 132.554C633.41 132.554 630.558 131.44 630.296 132.095C630.001 132.751 632.459 134.816 632.459 134.816H630.656Z" fill="#634B4B"/>
<path d="M632.165 134.653C631.51 137.21 627.314 149.928 627.314 149.928C627.314 149.928 622.365 143.667 622.168 143.274C621.939 142.881 628.461 133.539 628.461 133.539L632.165 134.653Z" fill="#3C8F7C"/>
<path d="M592.143 55.2666C592.143 55.2666 591.324 59.1343 590.406 63.8215C590.078 65.4276 589.718 67.2303 589.39 68.9347C588.734 72.0485 588.144 75.0641 587.718 77.2273C587.489 78.3746 592.242 89.191 589.652 89.6171C580.966 91.1249 571.985 78.8334 574.017 75.0313C575.755 71.8519 578.213 60.2815 578.868 56.7744C578.967 56.0205 579.098 55.5944 579.098 55.5944L592.143 55.2666Z" fill="#634B4B"/>
<path d="M578.41 58.9376C579.328 61.4614 580.77 63.8869 583.097 65.8864C585.261 67.7219 587.358 68.6396 589.358 68.9674C589.751 67.2302 590.046 65.5258 590.374 63.8542C591.357 59.1015 592.111 55.2993 592.111 55.2993L579.131 55.6271C579.131 55.6271 579.033 56.0532 578.902 56.8071C578.836 57.3315 578.672 58.0198 578.41 58.9376Z" fill="#513333"/>
<path d="M599.748 47.9583C598.404 57.9881 588.932 67.3624 579.394 59.0698C569.855 50.7771 574.018 35.4046 577.82 30.4552C581.655 25.5059 586.965 24.752 586.965 24.752C600.863 24.3587 601.125 37.9285 599.748 47.9583Z" fill="#634B4B"/>
<path d="M602.697 39.2052C601.517 38.5169 599.584 39.7297 598.436 41.9585C597.289 44.1546 597.289 46.5473 598.535 47.2356C599.715 47.924 601.649 46.7112 602.796 44.4824C603.943 42.2863 603.877 39.9263 602.697 39.2052Z" fill="#634B4B"/>
<path d="M572.542 39.1082C570.87 39.5015 569.887 41.8615 570.379 44.4509C570.87 47.1058 572.575 48.8758 574.247 48.548C575.918 48.1547 576.901 45.7948 576.41 43.2054C575.918 40.6159 574.247 38.7804 572.542 39.1082Z" fill="#634B4B"/>
<path d="M532.325 385.334C530.817 388.022 528.031 389.595 524.95 389.496C522.099 389.431 518.657 388.644 517.411 385.957C516.068 382.875 517.182 378.188 519.149 374.419C521.804 377.697 526.851 382.187 534.456 380.778C533.8 382.58 533.079 384.154 532.325 385.334Z" fill="#3C8F7C"/>
<path d="M617.186 388.25C617.677 388.84 617.251 389.823 616.432 389.823C610.565 389.725 590.243 389.43 582.606 389.233C581.622 389.233 580.573 388.709 579.754 386.48C579.098 384.71 580.344 381.531 581.196 379.007C584.638 380.416 590.833 381.858 599.191 379.695C599.846 380.056 615.678 386.513 617.186 388.25Z" fill="#3C8F7C"/>
<path d="M547.369 103.122C551.729 89.1264 558.153 80.1126 564.872 79.916C567.298 79.8504 571.657 81.0632 573.165 92.568C574.738 104.138 566.446 126.132 566.446 126.132L544.092 123.444C544.092 123.411 543.01 117.053 547.369 103.122Z" fill="#F7CC7F"/>
</svg>
