<svg width="878" height="501" viewBox="0 0 878 501" fill="none" xmlns="http://www.w3.org/2000/svg">
<path d="M727.662 431.428C718.723 436.435 702.209 442.414 688.536 429.072C674.47 415.357 664.391 415.617 659.7 416.939C658.98 416.795 658.233 416.884 657.566 417.192C656.9 417.501 656.349 418.013 655.993 418.655L626.418 472.439C625.27 474.526 623.582 476.267 621.53 477.48C619.479 478.692 617.14 479.332 614.757 479.331H518.352C517.438 479.331 516.561 479.695 515.915 480.341C515.269 480.987 514.906 481.864 514.906 482.778C514.906 483.692 515.269 484.568 515.915 485.215C516.561 485.861 517.438 486.224 518.352 486.224H614.757C618.375 486.225 621.926 485.254 625.04 483.413C628.154 481.572 630.717 478.928 632.46 475.758L649.783 444.256C656.232 445.079 665.031 448.005 673.288 456.065C689.148 471.539 707.821 462.789 714.665 458.661C716.34 457.655 717.725 456.232 718.688 454.532L730.272 434.037C730.479 433.673 730.561 433.25 730.506 432.835C730.45 432.419 730.259 432.034 729.962 431.737C729.666 431.441 729.28 431.25 728.865 431.194C728.449 431.138 728.027 431.22 727.662 431.428Z" fill="#474747"/>
<path d="M249.125 369.197C249.023 368.984 248.878 368.794 248.7 368.64C248.521 368.485 248.312 368.368 248.087 368.297C247.862 368.226 247.624 368.202 247.389 368.226C247.154 368.25 246.926 368.322 246.72 368.438C246.446 368.592 243.464 370.421 230.607 376.793L224.664 379.698C196.601 393.216 155.196 410.377 138.337 403.288C138.008 403.148 137.644 403.115 137.295 403.191C136.946 403.268 136.629 403.452 136.389 403.717C136.333 403.78 130.27 410.349 117.069 416.489C104.873 422.165 83.9139 428.628 53.3262 427.187C53.071 427.174 52.8162 427.219 52.5804 427.317C52.3445 427.415 52.1334 427.565 51.9625 427.754C51.7915 427.944 51.6648 428.17 51.5917 428.415C51.5186 428.659 51.5008 428.917 51.5397 429.17C51.6105 429.57 51.8169 429.934 52.1243 430.201C52.4316 430.467 52.8212 430.62 53.2277 430.633C55.9566 430.759 58.6011 430.823 61.1823 430.837L62.4202 439.15C62.4784 439.558 62.6623 439.937 62.9464 440.235C63.2305 440.533 63.6006 440.735 64.0049 440.812C64.4092 440.889 64.8276 440.839 65.2017 440.667C65.5758 440.495 65.8869 440.211 66.0916 439.853L71.4158 430.591C75.1715 430.38 78.7515 430.049 82.1485 429.627L84.0827 436.829C84.1887 437.22 84.4124 437.569 84.7235 437.829C85.0345 438.089 85.4179 438.247 85.8217 438.281C86.2255 438.316 86.6302 438.225 86.9808 438.022C87.3315 437.819 87.6113 437.513 87.7822 437.146L92.0021 428.045C94.8577 427.482 97.5584 426.856 100.104 426.188L101.715 432.18C101.821 432.571 102.045 432.92 102.356 433.18C102.667 433.44 103.05 433.598 103.454 433.632C103.858 433.667 104.263 433.576 104.613 433.373C104.964 433.17 105.244 432.864 105.415 432.497L109.747 423.206C112.947 422.059 115.803 420.878 118.307 419.689L119.432 423.867C119.537 424.258 119.76 424.608 120.071 424.869C120.381 425.129 120.765 425.288 121.168 425.323C121.572 425.358 121.977 425.269 122.328 425.066C122.68 424.863 122.96 424.558 123.131 424.19L127.506 414.794C131.296 412.54 134.833 409.885 138.056 406.874C141.573 408.112 145.983 408.499 150.92 408.225L153.853 415.511C154.002 415.879 154.259 416.193 154.59 416.413C154.92 416.633 155.309 416.748 155.706 416.743C156.103 416.739 156.49 416.615 156.815 416.388C157.141 416.16 157.39 415.84 157.531 415.469L160.738 406.98C163.805 406.41 166.991 405.686 170.261 404.814L171.591 410.504C171.683 410.898 171.895 411.254 172.197 411.524C172.499 411.794 172.876 411.965 173.279 412.013C173.681 412.061 174.088 411.985 174.445 411.794C174.802 411.604 175.093 411.308 175.276 410.947L179.82 401.979C182.9 400.981 186.009 399.869 189.132 398.751L190.306 403.899C190.395 404.289 190.6 404.642 190.893 404.912C191.187 405.183 191.555 405.359 191.95 405.416C192.345 405.473 192.749 405.409 193.107 405.232C193.465 405.056 193.761 404.775 193.956 404.427L199.407 394.763C202.171 393.645 204.914 392.491 207.608 391.324L208.93 396.247C209.035 396.639 209.258 396.988 209.569 397.249C209.88 397.509 210.263 397.668 210.667 397.703C211.071 397.739 211.476 397.649 211.827 397.446C212.178 397.244 212.458 396.938 212.63 396.571L217.019 387.146C219.958 385.796 222.814 384.452 225.543 383.137L226.612 387.118C226.718 387.509 226.942 387.858 227.253 388.118C227.564 388.378 227.947 388.536 228.351 388.57C228.755 388.605 229.159 388.514 229.51 388.311C229.861 388.108 230.141 387.802 230.311 387.434L234.32 378.826C245.25 373.34 247.241 372.081 248.296 371.483C248.697 371.277 249.006 370.927 249.159 370.503C249.313 370.079 249.301 369.613 249.125 369.197Z" fill="#474747"/>
<path d="M332.864 344.391C332.535 344.254 332.171 344.222 331.824 344.3C331.476 344.379 331.161 344.562 330.922 344.827C330.859 344.89 324.796 351.459 311.602 357.599C299.406 363.275 278.44 369.739 247.852 368.297C247.597 368.285 247.342 368.329 247.107 368.427C246.871 368.526 246.66 368.675 246.489 368.865C246.318 369.055 246.191 369.28 246.118 369.525C246.045 369.77 246.027 370.028 246.066 370.28C246.137 370.682 246.344 371.047 246.653 371.313C246.962 371.58 247.353 371.732 247.761 371.743C250.49 371.87 253.134 371.933 255.716 371.94L256.925 380.078C256.99 380.495 257.183 380.882 257.477 381.185C257.772 381.489 258.153 381.693 258.568 381.77C258.983 381.847 259.413 381.794 259.796 381.616C260.18 381.439 260.499 381.147 260.709 380.781L265.942 371.673C269.705 371.462 273.278 371.131 276.675 370.709L278.567 377.743C278.675 378.147 278.906 378.508 279.227 378.777C279.548 379.045 279.944 379.209 280.361 379.245C280.778 379.281 281.196 379.188 281.558 378.978C281.92 378.769 282.209 378.453 282.386 378.073L286.55 369.127C289.412 368.564 292.113 367.938 294.652 367.27L296.888 373.987C297.023 374.387 297.278 374.736 297.619 374.985C297.96 375.234 298.37 375.371 298.792 375.377C299.214 375.383 299.628 375.258 299.976 375.019C300.324 374.78 300.59 374.439 300.736 374.043L304.294 364.323C307.502 363.177 310.35 361.995 312.861 360.807L313.937 364.823C314.046 365.227 314.276 365.588 314.597 365.857C314.918 366.125 315.314 366.289 315.731 366.325C316.148 366.361 316.566 366.268 316.928 366.058C317.291 365.849 317.58 365.533 317.756 365.153L322.061 355.911C325.851 353.655 329.388 350.997 332.61 347.985" fill="#474747"/>
<path d="M780.975 383.742C780.896 383.522 780.774 383.32 780.615 383.148C780.456 382.977 780.263 382.839 780.049 382.745C779.836 382.65 779.605 382.6 779.371 382.597C779.137 382.594 778.905 382.639 778.689 382.729C751.597 394.032 723.126 388.356 694.079 365.913C672.233 349.033 658.286 328.461 658.146 328.257C657.891 327.877 657.496 327.614 657.048 327.526C656.599 327.437 656.134 327.531 655.754 327.785C655.375 328.04 655.112 328.435 655.023 328.884C654.935 329.332 655.029 329.797 655.283 330.177C658.809 335.189 662.613 340 666.677 344.588L670.151 361.095C670.235 361.495 670.438 361.861 670.733 362.145C671.028 362.428 671.402 362.616 671.805 362.684C672.208 362.751 672.623 362.695 672.994 362.524C673.366 362.352 673.676 362.072 673.886 361.721L677.361 355.883C680.286 358.732 683.451 361.637 686.848 364.492L690.527 377.208C690.636 377.583 690.851 377.919 691.145 378.175C691.44 378.431 691.802 378.597 692.189 378.653C692.576 378.708 692.97 378.652 693.325 378.489C693.68 378.326 693.981 378.065 694.191 377.736L697.426 372.658C700.324 374.688 703.224 376.564 706.127 378.284L711.226 392.583C711.357 392.949 711.59 393.269 711.897 393.507C712.205 393.744 712.574 393.889 712.961 393.923C713.348 393.957 713.737 393.879 714.082 393.699C714.426 393.519 714.711 393.244 714.904 392.907L719.391 384.994C722.177 386.162 724.959 387.179 727.74 388.047L734.323 399.616C734.52 399.96 734.813 400.239 735.167 400.418C735.52 400.597 735.919 400.669 736.313 400.625C736.706 400.581 737.079 400.423 737.384 400.17C737.689 399.917 737.913 399.58 738.03 399.201L740.526 390.986C744.094 391.509 747.695 391.774 751.301 391.781H752.173L759.298 401.044C759.53 401.34 759.839 401.566 760.191 401.697C760.543 401.829 760.925 401.859 761.294 401.786C761.663 401.714 762.004 401.54 762.28 401.285C762.556 401.029 762.756 400.703 762.857 400.341L765.748 390.318C770.605 389.331 775.354 387.87 779.927 385.958C780.351 385.792 780.696 385.47 780.891 385.058C781.085 384.646 781.116 384.175 780.975 383.742Z" fill="#474747"/>
<path d="M53.0027 498.265V428.741" stroke="#FE7624" stroke-width="4.21996" stroke-linecap="round" stroke-linejoin="round"/>
<path d="M137.669 404.87V497.14" stroke="#FE7624" stroke-width="4.21996" stroke-linecap="round" stroke-linejoin="round"/>
<path d="M247.803 369.823V496.999" stroke="#FE7624" stroke-width="4.21996" stroke-linecap="round" stroke-linejoin="round"/>
<path d="M779.547 384.052V498.265" stroke="#FE7624" stroke-width="4.21996" stroke-linecap="round" stroke-linejoin="round"/>
<path d="M650.128 319.381L395.523 321.034C393.612 321.003 391.727 321.484 390.064 322.426C388.401 323.368 387.02 324.738 386.063 326.393L303.964 475.871L95.2305 476.012C95.2305 476.012 91.6365 496.95 121.697 498.258L571.826 497.674L659.721 332.744C663.062 326.506 657.899 319.311 650.128 319.381Z" fill="#FE7624"/>
<path d="M330.114 475.28L545.078 474.359L611.585 344.75C614.166 339.784 610.755 333.701 605.424 333.757L410.054 336.127L330.114 475.28Z" fill="white"/>
<path d="M551.683 497.674L638.741 335.002C642.06 328.756 636.898 321.582 629.126 321.639" stroke="white" stroke-width="4.21996" stroke-linecap="round" stroke-linejoin="round"/>
<path d="M277.809 301.891L262.554 348.809C262.41 349.296 262.43 349.817 262.612 350.291C262.793 350.765 263.126 351.166 263.559 351.431C263.992 351.697 264.5 351.812 265.005 351.759C265.51 351.707 265.983 351.489 266.352 351.14L279.562 336.45C279.562 336.45 254.606 379.083 266.753 393.618C278.9 408.153 328.509 386.188 328.509 386.188L309.544 397.32C309.175 397.669 308.932 398.13 308.853 398.632C308.773 399.133 308.861 399.647 309.103 400.093C309.345 400.539 309.727 400.893 310.191 401.1C310.654 401.307 311.173 401.355 311.667 401.237L360.756 389.407" fill="#474747"/>
<path d="M379.131 165.271C379.131 165.271 285.254 176.844 240.805 228.918L326.093 318.914L431.89 218.654L379.131 165.271Z" fill="#474747"/>
<path d="M500.659 293.51C500.659 293.51 484.063 386.631 429.677 428.219L344.4 338.232L450.197 237.971L500.659 293.51Z" fill="#474747"/>
<path d="M370.045 365.294C464.931 340.973 510.686 290.471 534.906 248.361C559.127 206.251 574.36 146.845 553.015 124.322C531.67 101.798 471.557 113.805 428.182 135.744C384.807 157.683 331.458 200.13 302.077 293.573L272.111 303.628L358.453 394.738L370.064 365.324L370.045 365.294Z" fill="white" stroke="#3C36A0" stroke-width="4.21996" stroke-linecap="round" stroke-linejoin="round"/>
<path d="M425.21 245.439C438.69 259.663 463.331 258.198 480.247 242.166C497.164 226.135 499.95 201.608 486.47 187.384C472.991 173.16 448.35 174.625 431.433 190.657C414.516 206.688 411.73 231.215 425.21 245.439Z" fill="#474747"/>
<path d="M411.406 258.521C413.653 260.892 417.76 260.648 420.58 257.976C423.399 255.304 423.863 251.216 421.616 248.845C419.369 246.474 415.262 246.718 412.442 249.389C409.623 252.061 409.159 256.15 411.406 258.521Z" fill="#474747"/>
<path d="M427.057 275.036C429.304 277.407 433.411 277.163 436.23 274.491C439.05 271.819 439.514 267.731 437.267 265.36C435.02 262.989 430.912 263.232 428.093 265.904C425.274 268.576 424.81 272.664 427.057 275.036Z" fill="#474747"/>
<path d="M394.498 240.679C396.745 243.05 400.852 242.806 403.671 240.134C406.491 237.462 406.955 233.374 404.708 231.003C402.461 228.632 398.353 228.875 395.534 231.547C392.714 234.219 392.25 238.307 394.498 240.679Z" fill="#474747"/>
<path d="M435.721 235.478C445.891 246.209 464.479 245.104 477.24 233.011C490.001 220.918 492.101 202.416 481.932 191.685C471.763 180.954 453.174 182.059 440.414 194.152C427.653 206.245 425.552 224.747 435.721 235.478Z" fill="white" stroke="#3C36A0" stroke-width="4.21996" stroke-linecap="round" stroke-linejoin="round"/>
<path d="M558.209 128.023L594.388 93.7371C594.5 93.6306 594.613 93.5242 594.72 93.4226C596.138 93.2423 597.478 92.6728 598.592 91.7772C599.706 90.8816 600.55 89.695 601.03 88.3489C601.511 87.0029 601.609 85.55 601.314 84.1515C601.019 82.753 600.343 81.4635 599.36 80.4261C598.376 79.3887 597.125 78.6439 595.745 78.2743C594.364 77.9048 592.908 77.9249 591.538 78.3324C590.168 78.74 588.938 79.5191 587.984 80.5832C587.03 81.6474 586.389 82.955 586.133 84.3612C586.025 84.4628 585.913 84.5692 585.801 84.6756L549.678 118.909C538.793 111.298 521.925 109.357 503.155 110.778C516.304 119.586 528.133 130.219 538.286 142.359C547.704 153.404 556.107 165.275 563.393 177.829C566.337 158.072 565.435 139.964 558.209 128.023Z" fill="#474747"/>
<path d="M552.659 204.242C544.601 186.41 533.913 169.889 520.951 155.231C504.799 136.827 488.035 127.103 473.168 120.147C459.899 123.695 446.979 128.44 434.568 134.323C453.615 141.467 475.864 151.254 499.087 176.668C521.135 200.793 531.404 222.078 537.626 239.708C543.633 228.333 548.662 216.468 552.659 204.242Z" fill="#474747"/>
<path d="M368.984 363.693C373.496 362.538 377.9 361.323 382.196 360.048C377.965 349.203 369.95 335.501 350.855 315.729C331.899 295.389 318.501 286.701 307.877 281.953C306.402 286.122 304.968 290.404 303.577 294.798C303.577 294.798 323.815 309.242 339.705 326.295C355.641 342.763 368.984 363.693 368.984 363.693Z" fill="#474747"/>
<path d="M578.909 474.359H468.332C468.332 474.359 452.415 460.081 459.723 448.406C467.03 436.731 486.245 433.924 492.47 445.705C492.47 445.705 495.185 423.128 518.359 424.866C541.534 426.603 539.712 450.741 539.712 450.741C539.712 450.741 569.048 429.972 568.267 462.416C568.288 462.416 570.138 474.331 578.909 474.359Z" fill="white" stroke="#3C36A0" stroke-width="4.21996" stroke-linecap="round" stroke-linejoin="round"/>
<path d="M226.907 474.542H337.478C337.478 474.542 353.401 460.271 346.086 448.589C338.772 436.907 319.571 434.107 313.339 445.888C313.339 445.888 310.632 423.318 287.457 425.049C264.282 426.779 266.097 450.924 266.097 450.924C266.097 450.924 236.768 430.162 237.549 462.606C237.549 462.606 235.671 474.514 226.907 474.542Z" fill="white" stroke="#3C36A0" stroke-width="4.21996" stroke-linecap="round" stroke-linejoin="round"/>
<path d="M2.10999 498.265H874.939" stroke="#3C36A0" stroke-width="4.21996" stroke-linecap="round" stroke-linejoin="round"/>
</svg>
