<svg width="18" height="18" viewBox="0 0 18 18" fill="none" xmlns="http://www.w3.org/2000/svg">
<path fill-rule="evenodd" clip-rule="evenodd" d="M16.1999 17.3977L12.362 13.5598C9.36862 15.9191 5.05524 15.5366 2.52363 12.6875C-0.00788271 9.83837 0.119653 5.50988 2.81463 2.81481C5.50961 0.119744 9.83815 -0.00797361 12.6873 2.5235C15.5365 5.05498 15.9191 9.36841 13.56 12.3618L17.3978 16.2007C17.6466 16.4067 17.7573 16.7359 17.6835 17.0504C17.6098 17.3649 17.3641 17.6105 17.0497 17.6843C16.7351 17.7582 16.4058 17.6475 16.1999 17.3986V17.3977ZM2.39827 7.90457C2.39827 10.117 3.72338 12.1151 5.76219 12.9762C7.8009 13.8373 10.1571 13.3941 11.7437 11.8511C11.7604 11.8318 11.7774 11.8131 11.7944 11.7952C11.8114 11.7774 11.831 11.7604 11.8496 11.7451C13.5814 9.96571 13.908 7.24748 12.6472 5.10848C11.3863 2.96948 8.84996 1.93892 6.4545 2.59236C4.05904 3.24581 2.39734 5.42159 2.39723 7.90454L2.39827 7.90457Z" fill="#F27405"/>
</svg>
