<svg width="150" height="34" viewBox="0 0 150 34" fill="none" xmlns="http://www.w3.org/2000/svg">
<g clip-path="url(#clip0)">
<path d="M146 0H3.73C2.74074 0 1.792 0.392981 1.09249 1.09249C0.392981 1.792 0 2.74074 0 3.73L0 30.27C0 31.2593 0.392981 32.208 1.09249 32.9075C1.792 33.607 2.74074 34 3.73 34H146C147.061 34 148.078 33.5786 148.828 32.8284C149.579 32.0783 150 31.0609 150 30V4C150 2.93913 149.579 1.92172 148.828 1.17157C148.078 0.421427 147.061 0 146 0V0ZM149 30C149 30.7956 148.684 31.5587 148.121 32.1213C147.559 32.6839 146.796 33 146 33H3.73C3.00677 32.9974 2.31391 32.7089 1.80251 32.1975C1.2911 31.6861 1.00263 30.9932 1 30.27V3.73C1.00263 3.00677 1.2911 2.31391 1.80251 1.80251C2.31391 1.2911 3.00677 1.00263 3.73 1H146C146.796 1 147.559 1.31607 148.121 1.87868C148.684 2.44129 149 3.20435 149 4V30Z" fill="#50BFA5"/>
<path d="M17.07 11.2402H12.77V22.0002H14.69V17.8402H17.07C19.47 17.8402 20.97 16.6802 20.97 14.5402C20.97 12.4002 19.47 11.2402 17.07 11.2402ZM16.97 16.2402H14.69V12.9402H17C18.38 12.9402 19.11 13.5302 19.11 14.5902C19.11 15.6502 18.35 16.1902 17 16.1902L16.97 16.2402Z" fill="#50BFA5"/>
<path d="M25.0999 14.0003C24.5742 13.9942 24.053 14.0981 23.5699 14.3054C23.0867 14.5127 22.6522 14.8188 22.2944 15.2039C21.9365 15.5891 21.6632 16.0449 21.4919 16.5419C21.3207 17.039 21.2553 17.5664 21.2999 18.0903C21.253 18.617 21.3163 19.1477 21.4857 19.6486C21.6552 20.1496 21.927 20.6098 22.284 20.9999C22.6409 21.3901 23.0752 21.7016 23.5591 21.9148C24.0431 22.1279 24.5661 22.238 25.0949 22.238C25.6237 22.238 26.1467 22.1279 26.6307 21.9148C27.1146 21.7016 27.5489 21.3901 27.9059 20.9999C28.2628 20.6098 28.5347 20.1496 28.7041 19.6486C28.8735 19.1477 28.9368 18.617 28.8899 18.0903C28.9361 17.5669 28.872 17.0397 28.7019 16.5427C28.5318 16.0456 28.2595 15.5897 27.9024 15.2044C27.5453 14.819 27.1114 14.5128 26.6287 14.3054C26.146 14.098 25.6252 13.994 25.0999 14.0003ZM25.0999 20.6703C23.8799 20.6703 23.0999 19.6703 23.0999 18.0903C23.0999 16.5103 23.8599 15.5103 25.0999 15.5103C26.3399 15.5103 27.0999 16.5103 27.0999 18.0903C27.0999 19.6703 26.3099 20.6603 25.0999 20.6603V20.6703Z" fill="#50BFA5"/>
<path d="M36.78 19.3499L35.37 14.1299H33.89L32.49 19.3499L31.07 14.1299H29.22L31.59 22.0099H33.15L34.59 16.8499L36.03 22.0099H37.59L39.96 14.1299H38.18L36.78 19.3499Z" fill="#50BFA5"/>
<path d="M44 14C43.4811 14.0096 42.9696 14.1246 42.4966 14.3379C42.0235 14.5513 41.5988 14.8585 41.2481 15.241C40.8974 15.6235 40.6281 16.0733 40.4565 16.563C40.2849 17.0528 40.2146 17.5723 40.25 18.09C40.2082 18.6157 40.2766 19.1444 40.4508 19.6422C40.625 20.14 40.9011 20.596 41.2616 20.9809C41.6221 21.3659 42.059 21.6714 42.5443 21.8778C43.0296 22.0843 43.5526 22.1872 44.08 22.18C44.805 22.2191 45.524 22.0297 46.1357 21.6386C46.7474 21.2476 47.2211 20.6744 47.49 20L46 19.38C45.883 19.7664 45.6382 20.1016 45.3057 20.3306C44.9732 20.5595 44.5727 20.6686 44.17 20.64C43.8831 20.6468 43.5979 20.5954 43.3315 20.4888C43.0651 20.3821 42.8232 20.2226 42.6203 20.0197C42.4174 19.8168 42.2578 19.5748 42.1512 19.3085C42.0446 19.0421 41.9931 18.7568 42 18.47H47.52V17.87C47.54 15.71 46.32 14 44 14ZM42.07 17.13C42.1401 16.6708 42.3742 16.2526 42.7291 15.9529C43.084 15.6532 43.5355 15.4923 44 15.5C44.2206 15.4813 44.4427 15.5099 44.6515 15.5837C44.8603 15.6576 45.051 15.775 45.2109 15.9283C45.3707 16.0815 45.4961 16.2671 45.5787 16.4726C45.6614 16.678 45.6993 16.8987 45.69 17.12L42.07 17.13Z" fill="#50BFA5"/>
<path d="M50.6899 15.3005V14.1305H48.8899V22.0005H50.6899V17.8705C50.6739 17.6036 50.7146 17.3364 50.8094 17.0865C50.9043 16.8366 51.051 16.6096 51.2401 16.4206C51.4291 16.2316 51.656 16.0848 51.906 15.99C52.1559 15.8952 52.4231 15.8544 52.6899 15.8705C52.9096 15.8549 53.1302 15.8549 53.3499 15.8705V14.0705C53.2099 14.0705 53.0499 14.0705 52.8399 14.0705C52.4013 14.0477 51.9654 14.1516 51.5842 14.3697C51.203 14.5878 50.8926 14.9109 50.6899 15.3005Z" fill="#50BFA5"/>
<path d="M57.4799 14C56.9611 14.0096 56.4496 14.1246 55.9766 14.3379C55.5035 14.5513 55.0787 14.8585 54.728 15.241C54.3773 15.6235 54.108 16.0733 53.9365 16.563C53.7649 17.0528 53.6946 17.5723 53.7299 18.09C53.6881 18.6157 53.7565 19.1444 53.9307 19.6422C54.1049 20.14 54.3811 20.596 54.7416 20.9809C55.1021 21.3659 55.5389 21.6714 56.0242 21.8778C56.5095 22.0843 57.0326 22.1872 57.5599 22.18C58.2783 22.2106 58.9884 22.0172 59.5921 21.6267C60.1958 21.2361 60.6633 20.6677 60.9299 20L59.3899 19.41C59.273 19.7964 59.0282 20.1316 58.6957 20.3606C58.3631 20.5895 57.9627 20.6986 57.5599 20.67C57.279 20.6674 57.0013 20.609 56.7431 20.4982C56.4849 20.3874 56.2513 20.2263 56.0559 20.0244C55.8605 19.8225 55.7072 19.5837 55.6049 19.322C55.5026 19.0603 55.4533 18.7809 55.4599 18.5H60.9999V17.9C60.9999 15.71 59.7599 14 57.4799 14ZM55.5499 17.13C55.622 16.6744 55.8557 16.2599 56.2082 15.9624C56.5608 15.6649 57.0087 15.5043 57.4699 15.51C57.6906 15.4913 57.9127 15.5199 58.1215 15.5937C58.3303 15.6676 58.521 15.785 58.6808 15.9383C58.8407 16.0915 58.9661 16.2771 59.0487 16.4826C59.1313 16.688 59.1692 16.9087 59.1599 17.13H55.5499Z" fill="#50BFA5"/>
<path d="M67.5601 15.0002C67.2826 14.6746 66.9353 14.4156 66.5441 14.2425C66.1529 14.0694 65.7277 13.9866 65.3001 14.0002C63.0901 14.0002 61.8301 15.8502 61.8301 18.0902C61.8301 20.3302 63.0901 22.1802 65.3001 22.1802C65.728 22.1961 66.1539 22.1143 66.5455 21.941C66.937 21.7677 67.284 21.5076 67.5601 21.1802V22.0002H69.3601V11.2402H67.5601V15.0002ZM67.5601 18.3502C67.6004 18.6354 67.5787 18.9258 67.4964 19.2018C67.4141 19.4778 67.2732 19.7327 67.0833 19.9492C66.8934 20.1657 66.659 20.3386 66.3961 20.4562C66.1332 20.5737 65.848 20.6331 65.5601 20.6302C64.2501 20.6302 63.5601 19.6302 63.5601 18.1102C63.5601 16.5902 64.2601 15.5902 65.5601 15.5902C66.6701 15.5902 67.5601 16.4002 67.5601 17.8802V18.3502Z" fill="#50BFA5"/>
<path d="M79.31 14.0002C78.8743 13.9812 78.4401 14.0613 78.0399 14.2345C77.6398 14.4077 77.2842 14.6696 77 15.0002V11.2402H75.2V22.0002H77V21.1702C77.279 21.4966 77.6279 21.756 78.0209 21.9291C78.4139 22.1023 78.8408 22.1847 79.27 22.1702C81.47 22.1702 82.73 20.3102 82.73 18.0802C82.73 15.8502 81.51 14.0002 79.31 14.0002ZM79 20.6002C78.712 20.6031 78.4268 20.5437 78.1639 20.4262C77.901 20.3086 77.6666 20.1357 77.4767 19.9192C77.2868 19.7027 77.1459 19.4478 77.0636 19.1718C76.9813 18.8958 76.9596 18.6054 77 18.3202V17.8502C77 16.3702 77.84 15.5602 79 15.5602C80.3 15.5602 81 16.5602 81 18.0802C81 19.6002 80.25 20.6002 79 20.6002Z" fill="#50BFA5"/>
<path d="M86.9301 19.6599L85.0001 14.1299H83.1001L86.0001 21.7199L85.7001 22.4599C85.6491 22.7134 85.5019 22.9373 85.2893 23.0846C85.0768 23.2319 84.8154 23.2912 84.5601 23.2499C84.3604 23.2645 84.1598 23.2645 83.9601 23.2499V24.7599C84.2017 24.7958 84.4458 24.8125 84.6901 24.8099C85.3144 24.8553 85.9349 24.6799 86.443 24.3143C86.9511 23.9487 87.3147 23.4163 87.4701 22.8099L90.7101 14.1899H88.8201L86.9301 19.6599Z" fill="#50BFA5"/>
<path d="M125 12.4297C124.605 12.4275 124.214 12.5031 123.848 12.6524C123.483 12.8017 123.15 13.0217 122.87 13.2997L122.73 12.6097H120.34V25.5297L123.06 24.9397V21.8097C123.601 22.2628 124.284 22.5106 124.99 22.5097C126.93 22.5097 128.71 20.9197 128.71 17.3997C128.71 14.1797 126.91 12.4297 125 12.4297ZM124.35 20.0597C124.112 20.0735 123.873 20.034 123.651 19.944C123.43 19.8541 123.231 19.716 123.07 19.5397V15.4297C123.232 15.2471 123.433 15.1029 123.658 15.0077C123.883 14.9126 124.126 14.8688 124.37 14.8797C125.37 14.8797 126.05 16.0097 126.05 17.4597C126.05 18.9097 125.36 20.0597 124.35 20.0597Z" fill="#50BFA5"/>
<path d="M133.73 12.4297C131.11 12.4297 129.52 14.6897 129.52 17.5397C129.52 20.9097 131.4 22.6197 134.08 22.6197C135.126 22.6367 136.159 22.3854 137.08 21.8897V19.6397C136.243 20.0618 135.317 20.2745 134.38 20.2597C133.3 20.2597 132.38 19.8697 132.24 18.5597H137.62C137.62 18.4097 137.62 17.8197 137.62 17.5597C137.71 14.6897 136.35 12.4297 133.73 12.4297ZM132.26 16.4997C132.26 15.2397 133.03 14.7097 133.71 14.7097C134.39 14.7097 135.11 15.2397 135.11 16.4997H132.26Z" fill="#50BFA5"/>
<path d="M113 13.36L112.83 12.54H110.51V22.25H113.19V15.67C113.432 15.3762 113.758 15.1632 114.124 15.0595C114.491 14.9559 114.88 14.9665 115.24 15.09V12.54C114.831 12.3798 114.377 12.3747 113.965 12.5257C113.552 12.6768 113.209 12.9735 113 13.36Z" fill="#50BFA5"/>
<path d="M99.46 15.4601C99.46 15.0201 99.82 14.8501 100.39 14.8501C101.335 14.8704 102.261 15.1174 103.09 15.5701V12.9401C102.232 12.5934 101.315 12.4201 100.39 12.4301C98.18 12.4301 96.71 13.6101 96.71 15.5901C96.71 18.6901 100.85 18.1901 100.85 19.5201C100.85 20.0401 100.41 20.2101 99.85 20.2101C98.7934 20.1484 97.766 19.8401 96.85 19.3101V22.0001C97.7941 22.4212 98.8162 22.6392 99.85 22.6401C102.11 22.6401 103.67 21.4901 103.67 19.4801C103.62 16.1201 99.46 16.7201 99.46 15.4601Z" fill="#50BFA5"/>
<path d="M107.28 10.2402L104.63 10.8202V19.7502C104.616 20.1266 104.68 20.5017 104.816 20.8528C104.952 21.2039 105.158 21.5235 105.422 21.7921C105.686 22.0607 106.002 22.2727 106.351 22.4151C106.699 22.5575 107.073 22.6273 107.45 22.6202C108.107 22.6496 108.762 22.5228 109.36 22.2502V20.0002C109.01 20.1502 107.3 20.6602 107.3 19.0002V15.0002H109.36V12.6602H107.3L107.28 10.2402Z" fill="#50BFA5"/>
<path d="M116.25 11.6997L118.98 11.1297V8.96973L116.25 9.53973V11.6997Z" fill="#50BFA5"/>
<path d="M118.98 12.6104H116.25V22.2504H118.98V12.6104Z" fill="#50BFA5"/>
</g>
<defs>
<clipPath id="clip0">
<rect width="150" height="34" fill="white"/>
</clipPath>
</defs>
</svg>
