<svg width="463" height="280" viewBox="0 0 463 280" fill="none" xmlns="http://www.w3.org/2000/svg">
<path d="M177.946 1.68475C178.123 3.69665 178.831 5.4528 180.172 7.27715C183.335 11.5226 188.977 14.5405 196.288 15.8363C198.414 16.2114 199.274 16.2796 202.664 16.2796C205.978 16.2966 207.319 16.2114 211.241 15.751C219.716 14.7621 224.22 15.1543 228.925 17.3026C230.292 17.9164 230.494 18.0869 230.494 18.5472C230.494 19.0758 230.443 19.1099 228.672 19.4679C221.462 20.9172 217.616 23.577 217.591 27.1404C217.591 27.7713 217.49 27.9418 217.034 28.0782C216.351 28.2828 215.668 29.1694 215.44 30.1583C215.314 30.6357 215.112 30.8914 214.808 30.9426C214.226 31.0449 213.796 32.0338 213.796 33.2273C213.796 34.2332 213.973 34.6424 214.428 34.6424C214.631 34.6424 214.783 35.0005 214.884 35.6143C215.061 36.9953 215.491 37.5409 216.326 37.5409H217.009L217.591 40.303C218.502 44.7019 219.337 46.5774 221.285 48.5211L222.423 49.6805L222.474 51.4878C222.499 52.9712 222.373 53.6702 221.791 55.2388L221.082 57.1484L217.439 58.7852C214.859 59.9446 213.695 60.3709 213.467 60.2515C212.683 59.8253 208.888 59.7059 206.94 60.0469C204.283 60.5243 200.868 62.0418 198.869 63.6445C196.44 65.5882 193.531 69.2369 189.66 75.1873C187.686 78.2052 187.307 79.3134 188.091 79.6033C188.42 79.7226 188.42 79.9613 188.116 81.4447C187.914 82.3824 187.737 83.1667 187.737 83.1838C187.737 83.2008 187.206 83.1838 186.548 83.1326C185.865 83.0815 183.79 82.9792 181.918 82.928L178.502 82.8087L173.847 78.2052C167.649 72.0672 147.383 51.8459 126.713 31.2324C117.454 21.9913 107.536 12.1023 104.652 9.2379C98.7315 3.35565 98.352 3.0999 96.7328 4.0206C96.3027 4.2593 95.1136 4.5662 93.7474 4.8049C87.3718 5.87905 80.895 8.2831 71.9894 12.9037C61.92 18.121 57.8973 21.1047 47.8279 30.7891C39.8078 38.4957 35.1779 41.991 25.4374 47.6686C15.9499 53.1928 10.9911 55.1706 2.9457 56.6369C1.4277 56.9097 0.137398 57.1825 0.0614978 57.2337C-0.166202 57.3871 1.8072 58.6659 3.4011 59.399C5.2986 60.2856 7.4491 60.9506 12.6609 62.2634C19.669 64.0366 23.0845 65.4006 26.8289 67.8899C31.4841 70.993 35.0008 75.5624 35.9369 79.7226C36.114 80.4728 36.1899 82.1096 36.1393 83.3713C36.0887 85.1104 36.1393 85.6901 36.3923 85.7413C36.5441 85.7924 36.6959 85.7072 36.6959 85.5537C36.6959 84.8547 40.1114 83.5418 46.4364 81.8539C55.6709 79.3816 64.9054 75.9205 72.5207 72.1013C80.1866 68.265 85.9044 64.5311 93.0896 58.6829C100.553 52.5961 104.12 50.1238 109.155 47.5493C114.62 44.736 121.78 42.1103 128.586 40.4224C130.078 40.0473 130.508 39.9961 130.382 40.2007C130.281 40.4053 130.407 40.4394 130.888 40.4053C131.47 40.3542 132.431 41.2578 142.703 51.4367C160.843 69.3903 174.379 82.911 174.277 82.9792C174.252 82.9962 172.886 83.1156 171.292 83.2179C166.156 83.5589 156.795 84.4284 155.479 84.6842C154.796 84.8206 154.214 84.9058 154.164 84.8717C154.139 84.8547 154.72 84.2238 155.479 83.4907C156.238 82.7575 156.871 82.0755 156.871 81.9903C156.871 81.7175 152.949 81.9903 150.04 82.4677C144.069 83.4566 138.073 85.5708 133.671 88.2647C131.419 89.6287 130.534 89.5434 129.699 87.8384C128.054 84.5137 124.234 81.4788 119.655 79.842L117.681 79.1259L117.378 79.518C117.201 79.7397 116.998 80.6774 116.948 81.6322C116.821 83.5248 117.201 84.8376 118.314 86.4744C118.794 87.1735 118.87 87.4292 118.617 87.4804C118.44 87.5145 117.074 87.9578 115.581 88.4693L112.9 89.39L110.167 87.5827C106.777 85.315 105.31 84.4966 105.006 84.7012C104.879 84.7865 105.234 86.0482 105.891 87.8384C106.625 89.8674 106.853 90.6858 106.575 90.3959C105.132 88.9126 99.4146 85.7413 98.858 86.1164C98.3267 86.4744 99.8953 90.8733 101.515 93.6866C101.97 94.4538 102.299 95.1529 102.248 95.2552C102.223 95.3404 102.071 96.4146 101.945 97.6422C101.641 100.37 101.084 101.666 99.4652 103.439C96.4292 106.747 88.1561 113.141 83.5768 115.732C80.6673 117.369 78.2638 118.904 77.3783 119.688C77.1 119.927 76.6446 120.063 76.1892 120.063C75.1519 120.063 72.0653 120.523 70.9268 120.83C69.6365 121.188 68.3715 121.87 67.7896 122.518C67.2077 123.166 67.1571 124.325 67.7137 125.024C68.0932 125.536 69.7377 126.184 70.6738 126.201C71.0533 126.201 71.1292 126.303 71.0027 126.661C70.9521 126.934 70.8256 127.514 70.7244 127.991C70.4714 129.44 69.8389 130.651 68.8522 131.64C67.6378 132.85 67.5113 133.243 67.992 134.061C68.7763 135.408 71.5087 135.732 75.6832 135.016L77.859 134.641L86.5369 137.454C94.3799 140.011 95.2148 140.318 95.5184 140.813C95.9485 141.495 96.581 141.716 98.0484 141.716C98.9845 141.716 99.8194 141.495 102.375 140.608C106.271 139.227 107.612 138.988 111.154 138.988C113.127 138.988 114.089 138.92 114.645 138.733C115.505 138.426 116.745 137.198 117.833 135.578C118.87 134.044 119.073 133.959 120.591 134.419C123.146 135.186 126.081 134.777 127.953 133.396L128.763 132.816L133.013 133.515C135.341 133.89 138.68 134.368 140.426 134.555C144.094 134.948 143.74 134.743 145.941 137.624C148.471 140.898 148.901 142.211 149.154 146.917C149.23 148.502 149.458 150.582 149.686 151.52C149.888 152.458 150.141 153.498 150.217 153.839L150.344 154.436L147.156 155.015C145.056 155.391 143.968 155.663 143.968 155.8C143.968 155.936 143.816 156.038 143.614 156.038C143.31 156.038 143.285 157.3 143.361 164.512C143.437 169.184 143.538 173.191 143.614 173.395C143.69 173.617 144.702 174.487 145.865 175.322C147.055 176.157 148.016 176.942 148.016 177.078C148.016 177.197 147.333 178.203 146.498 179.295C145.663 180.403 144.752 181.75 144.474 182.295C143.462 184.307 143.968 186.456 145.891 188.399C146.371 188.894 148.522 190.531 150.672 192.014C156.567 196.089 157.175 196.873 158.895 202.5C159.907 205.807 161.045 208.092 162.943 210.564C165.498 213.957 167.725 216.14 174.91 222.261C184.701 230.581 185.46 231.57 185.46 235.713C185.46 238.629 185.764 239.464 187.357 240.982C191.355 244.835 192.67 246.403 194.037 249.012C195.504 251.842 195.909 253.616 195.934 257.315L195.959 260.64L195.125 262.26C194.315 263.829 191.658 267.733 190.824 268.568C190.596 268.807 190.393 269.063 190.343 269.165C190.318 269.25 189.66 270.393 188.875 271.689C188.091 272.967 187.357 274.434 187.256 274.928C186.927 276.616 187.661 277.724 189.584 278.389C190.571 278.747 195.732 279.054 200.26 279.037C205.801 279.02 206.763 278.611 208.761 275.44C209.571 274.127 209.596 274.076 209.546 271.808C209.419 267.085 211.013 263.01 214.277 259.583C215.769 257.997 216.073 257.503 216.073 256.616C216.073 255.849 215.618 255.15 214.428 254.161C213.695 253.547 213.088 252.712 213.366 252.712C213.416 252.712 214.201 252.934 215.112 253.206C217.869 254.059 220.349 254.298 225.156 254.212C230.19 254.11 232.265 254.246 235.225 254.86C238.413 255.525 240.538 255.525 242.385 254.826C244.839 253.888 246.433 251.911 246.079 250.257C245.345 246.983 240.513 244.818 232.948 244.357C230.469 244.221 224.726 244.357 222.12 244.63L221.234 244.716L219.235 242.789C218.148 241.732 216.098 239.788 214.707 238.475C213.315 237.162 211.772 235.56 211.291 234.912L210.38 233.735L210.33 229.967L210.279 226.199L212.733 225.688C217.414 224.716 223.663 222.38 228.419 219.771C230.848 218.441 237.603 214.008 239.779 212.303C242.132 210.462 242.992 209.166 244.662 204.784L244.966 203.983L250.962 203.966C260.474 203.932 261.056 203.864 266.673 202.227C269.557 201.391 271.278 201.374 275.933 202.125C278.007 202.466 280.259 202.79 280.917 202.858C282.005 202.96 282.106 202.994 281.954 203.335C281.651 204 279.601 207.564 279.5 207.649C279.424 207.683 277.628 207.905 275.503 208.143C271.303 208.587 269.152 208.945 268.267 209.337C267.533 209.644 267.533 209.78 268.343 210.411C268.849 210.82 269.582 211.059 271.682 211.519C276.54 212.576 278.235 212.73 284.889 212.713C288.76 212.713 291.695 212.61 293.314 212.44C294.655 212.303 295.793 212.218 295.844 212.235C295.869 212.269 295.768 213.378 295.616 214.725C295.439 216.071 295.06 219.771 294.756 222.96C294.478 226.148 294.073 229.285 293.87 229.916C293.643 230.632 293.036 231.655 292.302 232.559C289.569 235.952 289.367 236.293 289.367 237.333C289.367 239.021 290.506 240.129 294.073 241.834C297.944 243.71 299.006 244.852 301.207 249.507C302.928 253.155 303.687 253.718 306.267 253.138C306.698 253.053 307.381 253.479 310.315 255.73C315.603 259.754 315.628 259.754 316.438 259.634C317.627 259.447 320.613 257.946 321.827 256.923C322.915 256.02 323.674 255.15 324.382 253.991C324.686 253.496 324.686 253.496 324.914 254.587C325.242 256.088 324.838 257.793 323.699 259.754C323.218 260.623 322.712 261.39 322.561 261.493C322.434 261.578 322.333 261.748 322.333 261.885C322.333 262.004 322.055 262.362 321.7 262.669C321.346 262.976 321.068 263.317 321.068 263.419C321.068 263.522 320.79 263.965 320.461 264.425C319.525 265.687 318.74 268.705 319.221 269.199C319.373 269.353 320.005 269.302 321.7 268.978C328.43 267.699 333.566 267.153 338.98 267.153H343.104L343.484 266.642C343.787 266.284 343.863 265.789 343.787 264.886C343.711 263.829 343.585 263.539 342.927 262.891C341.181 261.22 340.043 258.321 340.043 255.542C340.043 253.684 340.498 251.382 341.536 247.699C342.624 243.965 343.003 241.647 343.307 237.196C343.762 230.632 344.344 229.132 348.645 223.301C352.819 217.64 353.3 216.071 352.718 210.343C352.44 207.751 351.023 197.743 350.897 197.368C350.846 197.282 351.251 196.362 351.757 195.305C353.047 192.645 353.756 189.832 353.781 187.24C353.806 185.535 353.604 184.222 352.769 180.676C351.301 174.367 351.15 173.088 350.922 164.137C350.72 155.783 350.644 155.288 349.455 152.969C349.176 152.458 348.594 151.537 348.139 150.94L347.329 149.849L350.973 149.952C361.27 150.258 369.34 151.912 388.695 157.675C402.939 161.921 409.238 163.387 417.334 164.376C429.782 165.876 440.712 164.802 448.681 161.273C451.363 160.096 455.107 157.607 457.233 155.595C458.826 154.078 462.242 150.327 462.242 150.071C462.242 149.781 461.635 149.883 457.587 150.821C455.411 151.316 453.64 151.708 453.64 151.691C453.64 151.674 453.918 151.213 454.272 150.668C456.347 147.513 459.56 139.841 458.902 139.568C458.776 139.5 458.118 139.807 457.486 140.233C456.474 140.881 454.601 141.716 454.146 141.716C454.07 141.716 454.019 140.625 453.994 139.278C453.969 137.164 453.893 136.67 453.311 135.357C452.173 132.867 450.376 130.736 447.872 128.895C447.113 128.349 446.354 127.906 446.176 127.906C445.797 127.906 445.62 129.287 445.392 134.163C445.291 136.073 445.139 137.624 445.038 137.624C444.633 137.624 444.077 136.499 444.203 135.936C444.431 135.05 443.798 135.34 443.166 136.431C441.774 138.835 439.902 140.54 436.74 142.245C430.01 145.894 418.599 147.991 407.467 147.599C400.839 147.377 396.082 146.934 382.8 145.314C370.226 143.779 363.294 143.302 356.716 143.49C351.2 143.643 345.027 144.359 342.016 145.178C341.207 145.399 341.131 145.382 339.082 144.496C330.429 140.676 318.74 139.346 303.484 140.421C301.815 140.54 300.423 140.625 300.398 140.608C300.373 140.608 300.752 139.636 301.233 138.477C302.827 134.675 305.306 127.923 306.748 123.558C307.988 119.739 310.442 111.163 310.442 110.583C310.442 110.447 308.975 109.032 307.204 107.412C303.586 104.138 297.412 98.2219 296.906 97.5569C296.426 96.909 295.768 95.0847 292.707 86.0482C290.531 79.6203 289.873 77.3868 289.848 76.3297C289.797 75.068 289.696 74.8293 288.38 72.9197C287.596 71.7944 286.736 70.5327 286.458 70.1064C282.587 64.3265 280.689 62.1611 277.678 60.1322C274.238 57.7963 271.429 56.9438 267.179 56.995C265.509 57.012 264.75 56.9268 263.789 56.654C260.803 55.7674 255.617 55.0172 251.265 54.7955L248.609 54.6762L248.406 54.1647C248.153 53.5338 248.381 52.5449 248.988 51.5731C249.393 50.9422 249.418 50.7035 249.165 50.0045C248.912 49.2543 248.938 49.1179 249.418 48.6575C250.456 47.6857 251.721 45.6908 252.227 44.2245C252.631 42.9969 253.77 37.899 253.77 37.217C253.77 37.0806 253.922 37.0635 254.225 37.1829C254.478 37.2681 254.833 37.2852 255.01 37.217C255.389 37.0635 256.047 35.6313 256.047 34.9493C256.047 34.6595 256.173 34.4719 256.401 34.4719C256.907 34.4719 257.059 34.0798 257.059 32.8863C257.059 31.6416 256.654 30.5504 256.199 30.5504C256.022 30.5504 255.769 30.1071 255.566 29.4422C255.237 28.3339 254.529 27.4814 253.922 27.4814C253.694 27.4814 253.542 27.0722 253.441 26.1515C253.365 25.4184 253.087 24.4977 252.809 24.0544C251.468 21.9743 247.951 20.4398 242.132 19.3997L239.981 19.0076L240.057 16.9786C240.159 14.6257 239.855 13.2617 238.818 11.4203C237.755 9.56185 235.959 7.82275 233.606 6.3394C230.342 4.27635 226.623 3.01465 222.271 2.50315C217.895 1.99165 213.897 2.23035 207.471 3.35565C199.274 4.8049 197.477 5.02655 193.682 5.0436C187.863 5.06065 185.106 4.31045 180.881 1.61655C179.514 0.747 178.249 0.0308997 178.098 0.0308997C177.87 0.0308997 177.845 0.4742 177.946 1.68475ZM183.056 3.6114C186.042 4.99245 189.306 5.6574 193.303 5.6574C196.44 5.6574 199.451 5.3164 205.32 4.2934C213.088 2.94645 213.998 2.84415 218.097 2.8612C221.335 2.87825 222.044 2.9294 224.042 3.3386C230.216 4.6003 234.82 7.07255 237.3 10.4826C238.615 12.3069 239.071 13.5345 239.273 15.751L239.425 17.5924H235.225H231L229.811 17.0127C224.776 14.6087 220.07 14.1483 210.886 15.2054C201.45 16.2966 195.428 15.751 189.508 13.2958C183.436 10.7724 179.616 6.7827 178.755 1.99165L178.578 0.9857L180.223 2.02575C181.134 2.60545 182.399 3.3045 183.056 3.6114ZM98.605 4.839C98.8833 5.06065 102.577 8.67525 106.828 12.9037C121.324 27.3109 132.128 38.1377 132.254 38.3252C132.381 38.5639 131.571 38.8026 131.293 38.6151C131.217 38.5469 125.499 32.9204 118.643 26.1174C105.006 12.5968 97.3653 4.82195 97.5677 4.6003C97.7701 4.37865 98.0484 4.44685 98.605 4.839ZM96.5051 5.5551C96.7075 5.87905 97.1123 6.3053 97.4159 6.5099C97.7195 6.7145 100.73 9.69825 104.12 13.1253C107.485 16.5694 114.772 23.8498 120.287 29.3058C125.803 34.7618 130.306 39.263 130.306 39.2971C130.306 39.3482 128.914 39.7404 127.219 40.1837C123.753 41.0873 117.732 43.0651 114.999 44.1904C107.03 47.464 101.919 50.6012 93.5703 57.336C87.8272 61.9736 84.437 64.4629 80.7179 66.7817C71.0786 72.8003 59.1117 77.8301 46.0569 81.3594C42.0089 82.4506 39.0994 83.3713 37.9103 83.934C37.5561 84.1215 37.2019 84.2579 37.1513 84.2579C37.126 84.2579 37.0501 83.3884 37.0501 82.3313C36.9236 74.3689 29.8649 67.1397 18.3787 63.2523C17.2402 62.8602 14.4572 62.0759 12.1549 61.4962C6.513 60.064 4.3878 59.3308 1.959 57.9498L1.2506 57.5576L3.6288 57.0973C8.8659 56.1084 14.6849 54.1135 19.5931 51.6242C22.6797 50.0556 29.2324 46.2705 32.7491 44.0029C38.4922 40.303 41.7559 37.6262 49.5989 30.1242C58.6816 21.4287 63.4886 17.9505 73.4568 12.8696C81.907 8.5559 87.2706 6.5781 93.6209 5.40165C94.81 5.18 95.8473 4.99245 95.9485 4.99245C96.0497 4.9754 96.3027 5.23115 96.5051 5.5551ZM241.424 19.8771C247.217 20.866 250.759 22.3153 252.075 24.2419C252.48 24.8046 252.631 25.4695 252.707 26.7312L252.809 28.4533L251.038 28.6408C248.836 28.8966 243.599 28.8966 241.373 28.6749C240.462 28.5726 238.742 28.2998 237.553 28.0611L235.402 27.6178L233.378 28.0441C230.266 28.709 227.635 28.8966 223.435 28.7943C221.411 28.7261 219.413 28.6408 219.008 28.5726L218.274 28.4533L218.426 27.0722C218.603 25.2479 219.16 24.259 220.576 23.1848C222.6 21.6674 225.636 20.5762 229.963 19.7919C232.644 19.3145 238.362 19.3486 241.424 19.8771ZM254.504 28.4533C255.313 29.8002 255.718 33.2784 255.313 35.2392C254.959 36.8589 254.681 37.1488 254.175 36.3304C253.264 34.8641 252.859 30.3117 253.492 28.709C253.846 27.8736 254.099 27.8054 254.504 28.4533ZM217.844 29.7661C218.223 31.3177 218.021 33.6194 217.313 35.4779C216.275 38.1888 215.466 37.5409 215.491 34.0457C215.491 32.6476 215.643 31.3688 215.921 30.5845C216.351 29.2376 216.984 28.2657 217.313 28.4021C217.414 28.4533 217.667 29.0671 217.844 29.7661ZM238.312 28.8454C242.031 29.5274 247.217 29.6809 251.442 29.2546L252.505 29.1353V31.1813C252.505 32.3066 252.581 33.6876 252.657 34.2503L252.809 35.2562L250.886 36.552C246.408 39.5699 241.601 41.0191 236.06 40.985C230.494 40.968 225.156 39.3653 220.172 36.2281L218.299 35.0687L218.603 33.1932C218.755 32.1702 218.805 30.8403 218.704 30.2435L218.552 29.1694L220.146 29.3058C224.523 29.6809 230.292 29.391 233.783 28.6067C235.073 28.3169 235.655 28.351 238.312 28.8454ZM219.817 36.876C223.081 38.8879 227.281 40.5076 231.152 41.2237C233.353 41.6329 237.806 41.7182 240.007 41.4113C243.954 40.8486 248.002 39.3312 251.265 37.1999C252.277 36.535 253.112 36.0235 253.137 36.0405C253.163 36.0746 253.062 36.7737 252.884 37.6262C252.707 38.4616 252.353 40.1155 252.125 41.2749C251.265 45.4862 249.975 47.5663 246.964 49.6464C245.168 50.857 244.713 51.0616 240.361 52.562L235.68 54.1647L233.909 53.5338C232.948 53.1928 231.177 52.6302 229.988 52.2721C225.434 50.9252 222.676 49.3225 221.006 47.0548C219.741 45.2987 219.21 43.8835 218.476 40.3542C218.122 38.6662 217.768 37.1658 217.692 36.9953C217.566 36.7055 217.793 35.8359 218.021 35.8359C218.097 35.8359 218.907 36.2963 219.817 36.876ZM145.79 51.7436C159.274 65.2301 173.62 79.501 175.745 81.564C177.06 82.8428 177.111 82.8939 176.504 82.8939C175.821 82.8939 176.605 83.6441 162.943 70.0212C159.274 66.3554 150.925 58.0862 144.423 51.6413C137.921 45.1793 132.583 39.8427 132.583 39.7574C132.583 39.6381 132.988 39.4505 133.342 39.4335C133.418 39.4335 139.009 44.9747 145.79 51.7436ZM248.33 50.8399C248.229 51.1639 247.445 51.7777 245.978 52.6643C242.157 55.0001 237.755 57.336 236.136 57.8986C235.377 58.1544 235.301 58.1544 234.618 57.7793C234.238 57.5576 232.67 56.7733 231.126 56.0402C225.864 53.4827 223.41 51.7777 223.41 50.7206C223.41 50.3455 223.486 50.3625 224.726 51.0275C225.434 51.4026 227.078 52.0334 228.318 52.4256C229.583 52.8177 231.81 53.5338 233.252 54.0283C235.883 54.9149 235.883 54.9149 236.541 54.608C236.895 54.4375 238.944 53.7043 241.095 52.9882C244.94 51.7095 245.826 51.3344 247.318 50.3796C248.179 49.8169 248.609 50.0045 248.33 50.8399ZM230.519 56.5176C232.391 57.4383 234.213 58.359 234.593 58.5465L235.301 58.9216L236.364 58.5124C237.755 58.0009 242.689 55.4605 245.294 53.926L247.318 52.7325L247.47 53.7043C247.723 55.307 248.836 56.6199 249.52 56.1595C249.722 56.0231 249.722 55.9038 249.469 55.6992C249.292 55.5628 249.216 55.3923 249.292 55.3411C249.494 55.1877 254.706 55.5628 257.059 55.8867C258.096 56.0402 260.095 56.3982 261.461 56.7051L263.966 57.2337L262.423 57.8816C258.653 59.4502 256.781 62.3998 257.135 66.1849C257.388 68.6572 259.311 74.0791 262.524 81.2912C263.283 82.9962 263.89 84.4455 263.89 84.5137C263.89 84.7012 240.159 84.4966 233.783 84.2579C230.924 84.1556 226.37 83.9681 223.663 83.8487C219.438 83.6612 218.679 83.6612 218.325 83.8658C218.097 84.0022 216.098 85.5878 213.897 87.4122C211.671 89.2365 209.799 90.7369 209.697 90.7369C209.621 90.7369 208.812 90.5153 207.926 90.2425L206.332 89.7651L205.649 86.8836C204.486 82.0585 204.334 81.0525 204.334 77.6937C204.283 72.1183 205.067 69.3903 207.673 65.9292C209.444 63.5933 213.088 61.2745 218.932 58.7852C220.273 58.2055 220.374 58.1885 220.374 58.5124C220.374 58.7682 220.5 58.8534 220.804 58.8193C221.31 58.7511 222.271 56.654 223.056 53.9771L223.486 52.4256L225.307 53.6361C226.319 54.3011 228.647 55.5969 230.519 56.5176ZM270.443 57.7452C272.897 58.1714 274.541 58.8534 276.818 60.3879C278.007 61.1893 279.449 62.3316 280.057 62.9454C281.043 63.9514 285.142 69.3562 285.142 69.629C285.142 69.6972 284.181 69.6972 283.017 69.6461C281.853 69.5949 279.804 69.6461 278.412 69.7654C272.239 70.2769 267.23 71.8455 262.954 74.6076C261.942 75.2555 261.107 75.7329 261.107 75.6818C261.107 75.6306 260.601 74.3007 259.994 72.7321C258.476 68.8277 258.071 67.2932 258.071 65.3495C258.071 62.7408 258.906 61.0699 260.93 59.5866C263.485 57.7281 266.774 57.0802 270.443 57.7452ZM212.683 60.6096C212.86 60.6778 212 61.3768 210.532 62.3828C206.914 64.8721 205.093 67.3443 204.055 71.2147C203.802 72.0501 203.6 72.8344 203.549 72.9367C203.499 73.0731 203.069 73.0561 202.107 72.8685C201.171 72.698 199.501 72.6128 196.567 72.5957L192.367 72.5787L193.227 71.2999C196.567 66.3384 200.159 63.0648 203.802 61.5985C206.231 60.6096 207.547 60.3709 210.127 60.4391C211.392 60.4561 212.531 60.5414 212.683 60.6096ZM285.193 70.4304C285.623 70.5327 286.23 71.1976 287.368 72.7662C288.229 73.9768 289.013 75.2385 289.089 75.5624L289.241 76.1592L285.623 76.091C281.6 76.0398 279.247 76.2274 276.16 76.8753C272.264 77.7107 268.874 79.0577 265.762 81.0525L263.915 82.229L263.409 81.0696C261.942 77.6766 261.588 76.7218 261.739 76.432C261.815 76.2444 262.65 75.6136 263.586 75.0168C268.469 71.9137 274.541 70.311 281.524 70.294C283.219 70.2769 284.864 70.3451 285.193 70.4304ZM202.158 73.4994L203.296 73.704V76.8923V80.0977L202.031 79.7738C199.704 79.177 197.149 78.9554 192.873 78.9554C188.192 78.9554 188.445 79.0577 189.154 77.4379C189.71 76.1421 191.456 73.6528 191.987 73.38C192.519 73.0902 200.336 73.1925 202.158 73.4994ZM288.684 76.9094C288.785 77.0287 289.013 77.5573 289.19 78.0858C289.342 78.6144 290.733 82.7405 292.251 87.2417C293.744 91.7258 294.958 95.4257 294.933 95.4598C294.882 95.4768 294.528 95.1358 294.098 94.6755C293.693 94.2151 292.631 93.0898 291.695 92.1691C290.784 91.2314 288.76 89.066 287.166 87.361C284.434 84.3773 284.256 84.2238 283.624 84.3261C283.244 84.3602 278.893 84.4625 273.959 84.5307L265.003 84.6501L264.7 83.9681C264.269 83.0133 264.269 83.0303 265.459 82.1267C268.925 79.4669 274.921 77.3697 280.714 76.7559C282.865 76.5343 288.431 76.6536 288.684 76.9094ZM197.477 79.6715C199.653 79.8761 202.31 80.3705 202.993 80.7115C203.296 80.865 203.499 81.3424 203.676 82.3824C203.828 83.1838 204.233 85.0763 204.587 86.6108C204.966 88.1283 205.219 89.4241 205.143 89.4582C205.093 89.4923 204.46 89.4241 203.727 89.2877C202.993 89.1683 201.348 88.9637 200.083 88.8444L197.781 88.6398L198.768 88.0601C199.299 87.7532 200.362 87.2587 201.095 86.9689C201.804 86.679 202.411 86.3551 202.411 86.2187C202.411 85.7242 197.503 85.6049 191.203 85.9629C189.255 86.0652 187.661 86.1334 187.61 86.0993C187.56 86.0652 188.825 85.656 190.419 85.1957C193.025 84.4625 193.885 84.0874 193.505 83.8146C193.429 83.7805 192.367 83.6271 191.127 83.4736C189.887 83.3202 188.825 83.1838 188.774 83.1497C188.724 83.1156 188.825 82.3142 189.002 81.3765C189.331 79.7397 189.356 79.6715 189.989 79.6033C191.405 79.4498 195.631 79.501 197.477 79.6715ZM119.655 80.4558C124.006 82.1437 127.346 84.957 129.016 88.2988C129.749 89.7992 129.699 90.1231 128.839 89.3729C127.169 87.9407 122.589 84.5989 122.286 84.5989C121.552 84.5989 122.109 85.1445 125.119 87.4122C128.434 89.9185 130.23 91.7599 129.37 91.7599C128.459 91.7429 125.55 90.9415 124.133 90.3107C119.933 88.4352 117.302 84.6842 117.782 81.2571C117.884 80.541 118.061 79.9954 118.213 79.9954C118.364 79.9954 119.022 80.2 119.655 80.4558ZM153.759 84.1727C151.836 86.0993 151.71 86.6449 153.354 85.8947C153.86 85.656 154.872 85.3491 155.631 85.2127C157.503 84.8376 170.28 83.7805 174.126 83.6612C175.846 83.61 177.819 83.5248 178.528 83.4736C180.096 83.3713 187.762 83.6953 190.014 83.9681L191.658 84.1727L189.483 84.8035C186.371 85.7072 182.879 86.4744 181.842 86.4744C180.198 86.4744 178.629 86.679 178.629 86.9177C178.629 87.1735 181.943 87.3099 183.259 87.1053C184.524 86.9177 195.453 86.3039 197.908 86.3039C199.982 86.3039 200.944 86.5085 199.906 86.7302C199.324 86.8495 196.339 88.725 196.339 88.9808C196.339 89.2195 197.199 89.3729 198.565 89.3729C201.045 89.3729 208.382 90.7199 208.862 91.2484C209.09 91.4871 196.212 101.257 193.025 103.303L192.164 103.831L187.737 103.337C183.006 102.825 181.412 102.74 181.412 103.013C181.412 103.115 182.475 103.524 183.765 103.934C185.03 104.326 186.851 104.923 187.813 105.229L189.508 105.809L188.572 106.457L187.636 107.105H184.827C178.73 107.105 172.177 106.474 164.334 105.144C158.262 104.104 157.478 103.917 156.112 103.081C154.569 102.126 154.594 102.689 156.213 104.991C156.972 106.099 157.579 107.02 157.529 107.054C157.503 107.088 156.618 106.951 155.581 106.764C151.988 106.133 148.471 104.957 145.106 103.252C142.248 101.802 142.096 101.666 141.59 99.5347C140.401 94.6243 137.947 91.3678 134.253 89.7821L133.165 89.3218L134.582 88.4693C138.453 86.1675 144.069 84.1386 149.281 83.1667C150.647 82.911 154.29 82.4336 155.151 82.3995C155.429 82.3824 155.024 82.911 153.759 84.1727ZM224.422 84.5989C237.376 85.2127 256.376 85.4855 271.227 85.2639C277.274 85.1786 282.258 85.1616 282.308 85.2468C282.511 85.656 288.684 92.2203 292.605 96.1929C297.033 100.694 300.018 103.61 303.839 107.105C306.495 109.56 307.583 110.72 307.76 111.316C308.064 112.203 304.901 122.842 302.194 130.208C301.511 132.083 298.349 140.011 297.918 140.983C297.665 141.529 279.93 150.088 269.709 154.589L266.293 156.09L253.137 155.987C240.589 155.902 234.213 155.697 223.283 155.101C217.009 154.743 216.377 154.657 215.036 154.009C214.428 153.703 211.772 152.407 209.115 151.128C202.133 147.718 195.884 144.393 189.381 140.642L186.092 138.75V130.719C186.067 123.081 185.814 118.375 185.106 112.646L184.777 110.089L189.356 106.934C199.628 99.8416 208.255 93.3115 216.781 86.1675C219.21 84.1556 218.476 84.3091 224.422 84.5989ZM112.545 90.072C114.089 91.2314 115.733 92.5101 116.138 92.9023L116.897 93.6184L116.113 94.2151C115.303 94.846 112.292 95.9372 110.901 96.1247C110.117 96.227 110.041 96.1929 109.661 95.5791C109.433 95.204 108.978 94.0617 108.674 93.0387C108.346 91.9986 107.637 89.9526 107.081 88.4693L106.069 85.7754L107.89 86.8666C108.877 87.4633 110.977 88.9126 112.545 90.072ZM102.198 88.1453C103.918 89.0831 105.234 90.0549 106.018 90.9927L106.752 91.8281L105.563 92.2714C104.93 92.5101 104.019 93.0216 103.564 93.4308C102.602 94.2833 102.678 94.3345 101.489 91.9304C100.831 90.5494 99.7182 87.5656 99.6929 87.0882C99.6929 86.9177 100.73 87.344 102.198 88.1453ZM122.261 90.1231C124.462 91.4189 127.295 92.2203 130.837 92.5272L132.001 92.6295L133.038 95.3063C135.796 102.484 137.01 107.616 137.668 114.948C137.997 118.597 137.871 119.807 136.985 121.035C136.074 122.314 133.468 123.882 129.673 125.417L126.435 126.729L125.297 126.457C123.779 126.116 122.741 126.133 120.97 126.542L119.503 126.866L117.125 126.167C105.563 122.808 90.6355 120.148 82.1853 119.944C80.1107 119.892 78.4409 119.807 78.4409 119.739C78.4662 119.5 79.9842 118.494 81.9829 117.42C83.172 116.772 84.8924 115.749 85.8285 115.153L87.4983 114.044L89.2693 114.13C92.1788 114.266 95.1136 115.425 96.3027 116.909C96.5557 117.25 96.9352 117.488 97.1376 117.471C97.34 117.437 97.6942 116.994 97.9219 116.465C99.0098 114.044 101.337 112.135 104.424 111.146C105.967 110.668 106.397 110.6 108.421 110.6C110.37 110.6 110.901 110.668 112.09 111.043C112.849 111.299 113.962 111.777 114.519 112.118C115.101 112.442 118.061 114.948 121.097 117.676C126.056 122.126 127.599 123.285 127.194 122.296C127.017 121.802 116.948 112.919 115.48 111.947C111.179 109.1 105.183 109.219 100.68 112.22C99.0857 113.294 97.1629 115.425 97.1629 116.124C97.1629 116.278 96.6569 116.056 95.8473 115.511C94.2028 114.436 92.5077 113.84 90.2813 113.584L88.5609 113.379L90.4584 111.998C91.4957 111.231 93.545 109.594 95.0377 108.384C101.262 103.252 102.476 101.615 102.855 97.8127C103.083 95.2893 103.614 94.0617 104.778 93.2774L105.31 92.9193L106.448 94.3004C107.081 95.0506 107.991 95.9542 108.447 96.2952C109.282 96.892 109.358 96.909 110.521 96.8067C112.292 96.6533 115.607 95.4939 116.846 94.5732C117.428 94.164 117.909 93.7036 117.909 93.5843C117.909 93.4479 116.922 92.5613 115.733 91.5894C114.544 90.6346 113.633 89.8162 113.684 89.7821C113.76 89.731 115.025 89.2877 116.517 88.7762L119.25 87.8555L120.085 88.5886C120.54 88.9978 121.527 89.6798 122.261 90.1231ZM132.507 90.0549C134.48 90.3959 136.631 91.794 138.022 93.6354C139.54 95.6644 140.097 97.1307 141.16 102.126C141.995 105.963 142.096 106.287 143.715 111.095C146.144 118.341 146.397 121.495 144.651 122.586C144.246 122.842 133.114 127.582 129.623 128.98C129.42 129.065 129.167 128.912 128.889 128.554C128.661 128.247 128.206 127.787 127.852 127.548L127.245 127.105L129.952 126.013C133.721 124.513 135.897 123.337 137.112 122.092C138.655 120.54 138.731 120.165 138.579 115.886C138.351 109.697 136.96 103.218 134.354 96.1929C132.912 92.3226 132.76 92.0498 131.748 91.4019C130.711 90.7369 130.179 89.6116 130.964 89.7651C131.242 89.8162 131.925 89.9526 132.507 90.0549ZM188.369 104.036C189.356 104.138 190.469 104.258 190.849 104.309L191.583 104.411L191.001 104.82C190.697 105.042 190.318 105.229 190.166 105.229C190.014 105.212 188.875 104.871 187.61 104.462C186.371 104.036 185.612 103.729 185.966 103.78C186.32 103.814 187.408 103.934 188.369 104.036ZM151.735 106.525C153.886 107.139 157.276 107.787 158.313 107.787C159.123 107.787 159.072 107.497 157.883 105.911C157.326 105.161 156.871 104.479 156.871 104.394C156.871 104.326 157.63 104.445 158.591 104.667C161.096 105.298 168.433 106.508 172.051 106.917C176.048 107.361 178.882 107.565 183.158 107.719L186.548 107.838L184.979 108.861C184.018 109.492 183.461 109.986 183.562 110.14C183.765 110.498 184.499 116.892 184.397 117.608C184.321 118.187 184.246 118.239 182.803 118.614C180.982 119.074 179.413 119.705 175.846 121.41C164.942 126.61 154.645 128.929 133.823 130.856L129.623 131.248L129.648 130.48L129.673 129.713L137.01 126.627C141.058 124.922 144.778 123.251 145.284 122.91C145.79 122.586 146.321 122.007 146.473 121.649C147.105 120.131 146.523 116.551 144.828 111.538C143.715 108.23 143.007 105.946 142.754 104.803L142.551 103.934L146.093 104.94C148.067 105.502 150.597 106.218 151.735 106.525ZM184.827 122.382C184.979 125.263 184.954 125.928 184.676 126.047C184.018 126.32 178.705 127.241 174.809 127.752C172.658 128.025 170.811 128.332 170.685 128.417C170.558 128.503 170.659 128.724 170.887 128.946C171.343 129.406 171.418 130.157 171.014 130.668C170.179 131.708 166.156 132.049 155.479 131.964L148.142 131.913L148.067 133.226L147.991 134.555H147.257C143.462 134.555 129.294 132.612 129.294 132.083C129.294 131.947 130.458 131.776 132.785 131.572C153.228 129.816 165.524 127.139 175.416 122.331C179.717 120.233 183.132 118.904 184.347 118.869C184.549 118.869 184.701 119.927 184.827 122.382ZM84.2093 120.591C89.4211 120.967 98.7062 122.416 105.613 123.916C108.953 124.649 117.605 126.883 118.39 127.224C118.693 127.343 118.643 127.48 118.061 128.059L117.352 128.741L116.062 128.383C108.877 126.44 102.223 125.263 94.2281 124.496C86.1321 123.729 80.8191 123.865 75.6832 124.956C73.6339 125.4 72.2677 125.587 71.1545 125.604C69.6618 125.604 69.4847 125.57 68.8016 125.042C67.3848 123.984 67.992 122.552 70.2437 121.734C73.305 120.626 78.6433 120.182 84.2093 120.591ZM93.8739 125.093C95.4678 125.229 97.1123 125.4 97.5171 125.451L98.2508 125.553L97.2641 126.133C90.7873 129.952 82.5901 133.123 75.9109 134.402C73.7604 134.828 70.775 134.828 69.5859 134.419C68.3968 134.027 68.245 133.208 69.1811 132.339C70.3449 131.265 71.0786 130.054 71.4834 128.52C71.6858 127.684 71.8629 126.832 71.8629 126.61C71.8629 126.337 72.0147 126.201 72.3183 126.201C72.546 126.201 72.9761 126.15 73.2797 126.099C73.7604 126.013 73.8363 126.116 74.0893 127.207C74.2664 127.855 74.3929 128.639 74.3929 128.929C74.3929 129.611 75.3796 130.293 76.341 130.293C76.7205 130.293 77.5048 130.122 78.0361 129.901C79.3264 129.423 80.1107 128.383 80.4902 126.712C80.642 126.013 80.8697 125.246 81.0215 125.024L81.2492 124.615L86.1068 124.718C88.7886 124.786 92.28 124.939 93.8739 125.093ZM79.8324 125.553C79.3011 127.923 78.618 128.963 77.3277 129.44C76.6699 129.679 76.6193 129.679 76.0374 129.202C75.6832 128.895 75.329 128.281 75.1772 127.65C74.6712 125.758 74.6712 125.792 76.6193 125.383C80.0348 124.683 80.0348 124.683 79.8324 125.553ZM102.501 126.133L105.31 126.576L104.677 126.951C104.323 127.139 103.108 128.076 101.97 129.014C100.831 129.952 99.6423 130.856 99.3134 131.026C98.7568 131.316 98.6809 131.299 97.1882 130.821C96.3533 130.566 94.9112 130.191 94.0004 130.02C93.0896 129.85 92.3559 129.662 92.3559 129.611C92.3559 129.56 92.9631 129.236 93.6968 128.878C94.4305 128.52 95.9991 127.667 97.1629 126.968C98.352 126.286 99.3893 125.706 99.4905 125.706C99.5917 125.689 100.958 125.894 102.501 126.133ZM184.929 132.867L184.903 139.023L187.914 140.745C189.559 141.699 191.254 142.671 191.658 142.91C192.417 143.336 195.226 145.945 195.049 146.047C194.998 146.064 185.156 147.906 173.189 150.122C157.503 153.038 151.406 154.095 151.28 153.958C150.622 153.242 149.812 148.23 149.787 144.768C149.787 141.785 148.775 139.585 145.865 136.243C145.385 135.681 144.98 135.186 144.98 135.135C144.98 135.084 145.891 135.101 147.029 135.169L149.079 135.289L148.977 133.908L148.901 132.526L157.377 132.544C166.283 132.578 168.458 132.458 170.28 131.827C171.798 131.316 172.355 130.702 172.253 129.747C172.203 129.202 172.279 128.929 172.481 128.929C172.633 128.929 172.81 128.861 172.861 128.793C172.911 128.707 174.429 128.434 176.276 128.179C178.098 127.94 180.653 127.514 181.969 127.241C183.259 126.968 184.473 126.747 184.65 126.729C184.903 126.712 184.979 127.923 184.929 132.867ZM109.029 127.326C110.243 127.565 111.23 127.787 111.28 127.821C111.331 127.855 111.027 128.332 110.597 128.895C109.712 130.071 107.662 131.623 105.36 132.85L103.766 133.72L102.324 132.936C101.54 132.492 100.604 132.049 100.3 131.964C99.6676 131.759 99.5411 131.572 99.9206 131.401C100.072 131.35 101.034 130.6 102.096 129.73C104.272 127.974 105.967 126.883 106.499 126.883C106.701 126.883 107.84 127.088 109.029 127.326ZM124.588 127.07C128.712 127.77 129.901 131.503 126.587 133.345C123.146 135.254 118.035 133.567 118.035 130.549C118.035 128.895 119.528 127.531 121.906 127.053C122.868 126.849 123.348 126.849 124.588 127.07ZM116.264 129.116C117.023 129.304 117.023 129.321 117.023 130.634C117.023 131.81 117.099 132.032 117.808 132.799C118.592 133.652 118.617 133.669 118.137 133.993C117.858 134.18 117.302 134.896 116.872 135.578C116.011 137.028 115.151 137.863 114.165 138.204C113.734 138.358 112.267 138.46 110.066 138.511C106.17 138.596 105.335 138.767 101.666 140.199C99.0604 141.205 97.8207 141.392 96.9352 140.915C95.1389 139.926 97.4918 137.727 103.918 134.351C108.219 132.083 110.344 130.634 111.533 129.151L112.368 128.093L113.937 128.503C114.797 128.724 115.86 128.997 116.264 129.116ZM450.149 131.947C450.806 132.68 451.717 134.01 452.173 134.896C452.982 136.482 453.007 136.567 453.007 139.466C453.007 142.279 453.033 142.398 453.513 142.398C454.197 142.381 456.094 141.802 457.081 141.29L457.89 140.864L457.536 141.938C456.6 144.632 454.905 148.144 453.286 150.753C452.704 151.64 452.476 152.253 452.628 152.356C452.754 152.441 454.298 152.168 456.676 151.622C458.801 151.128 460.572 150.753 460.623 150.804C460.8 150.906 457.359 154.538 455.74 155.97C454.045 157.454 450.908 159.551 448.959 160.506C445.949 161.972 440.585 163.404 436.006 163.984C433.071 164.359 424.646 164.495 421.205 164.239C415.462 163.796 408.96 162.654 402.028 160.864C400.004 160.352 394.033 158.63 388.745 157.061C378.119 153.907 374.527 152.918 370.049 151.929C363.041 150.361 356.969 149.576 350.998 149.44L346.874 149.338L345.837 148.417C345.255 147.923 344.142 147.121 343.383 146.644C342.624 146.184 342.042 145.757 342.092 145.723C342.143 145.689 343.509 145.433 345.103 145.143C349.935 144.291 352.921 144.052 359.144 144.052C366.608 144.052 370.023 144.342 385.836 146.235C402.357 148.212 410.023 148.571 418.473 147.752C429.352 146.695 438.637 143.166 442.609 138.596L443.596 137.454L444.456 137.982C444.937 138.255 445.468 138.46 445.62 138.426C445.923 138.358 446.101 136.925 446.455 131.572L446.607 128.844L447.796 129.73C448.428 130.208 449.491 131.214 450.149 131.947ZM96.075 131.162L97.9472 131.691L97.1123 132.185C96.6569 132.441 96.2015 132.663 96.1256 132.68C95.822 132.68 94.6835 134.01 94.3546 134.692L94.051 135.391L93.3932 135.084C92.2547 134.538 89.244 133.601 87.4224 133.208C86.461 132.987 85.4996 132.782 85.2972 132.748C85.0948 132.697 86.3092 132.117 88.0549 131.418L91.1668 130.157L92.6595 130.395C93.4944 130.532 95.0377 130.873 96.075 131.162ZM100.629 132.833C101.439 133.208 102.324 133.652 102.552 133.839C102.957 134.146 102.931 134.18 101.818 134.726C101.16 135.033 99.9459 135.732 99.0857 136.26L97.5424 137.249L96.2015 136.448L94.8606 135.647L95.3919 134.675C95.7714 133.993 96.2774 133.498 97.2135 132.936C97.8966 132.509 98.6303 132.168 98.8074 132.168C98.9845 132.168 99.7941 132.475 100.629 132.833ZM85.8285 133.515C87.9284 133.873 90.509 134.624 92.533 135.442L93.8233 135.971L93.4691 136.67C93.0643 137.42 91.9511 138.306 91.4198 138.306C91.0403 138.306 79.2252 134.504 79.1999 134.385C79.1999 134.266 83.0455 133.208 83.5262 133.208C83.7539 133.191 84.7912 133.345 85.8285 133.515ZM96.7834 137.624C96.9099 137.761 95.4678 139.67 95.2401 139.67C95.1895 139.67 94.5317 139.466 93.7727 139.21L92.3812 138.75L93.1655 138.153C93.5956 137.829 94.1016 137.3 94.304 136.994L94.6582 136.414L95.6449 136.942C96.2015 137.232 96.7075 137.539 96.7834 137.624ZM323.598 141.171C335.312 142.603 343.813 146.269 347.532 151.52C348.443 152.799 349.809 155.527 349.556 155.527C349.505 155.527 347.557 154.76 345.204 153.805C335.717 150.003 328.835 147.957 307.532 142.637C304.193 141.802 301.688 141.103 301.966 141.069C304.8 140.813 308.089 140.728 313.857 140.762C319.449 140.813 321.22 140.881 323.598 141.171ZM302.498 142.074C305.053 142.808 308.975 145.979 311.53 149.355C315.097 154.044 319.55 161.972 319.196 162.944C318.892 163.728 317.931 163.847 311.252 163.984L305.154 164.103L305.306 163.745C305.559 163.046 304.851 157.624 304.117 154.845C303.712 153.293 302.7 149.764 301.865 147.019C301.005 144.257 300.322 141.887 300.322 141.751C300.322 141.495 300.727 141.563 302.498 142.074ZM299.664 142.944C299.765 143.438 300.524 146.013 301.359 148.656C303.56 155.766 304.37 159.483 304.37 162.79C304.37 164.222 304.37 164.222 301.84 164.222H300.094L299.968 163.66C299.892 163.37 299.765 162.347 299.689 161.409C299.335 157.641 298.121 152.611 296.4 148.025C295.92 146.763 295.464 145.331 295.363 144.854L295.211 143.967L297.058 143.012C298.096 142.501 299.057 142.057 299.209 142.057C299.361 142.057 299.588 142.467 299.664 142.944ZM307.558 143.336C309.379 143.882 312.845 146.184 314.718 148.11C316.236 149.679 320.537 155.493 321.194 156.891C321.447 157.402 322.131 158.477 322.712 159.278C324.838 162.159 325.571 164.171 324.838 165.109C324.281 165.808 323.37 165.893 314.616 166.013C310.037 166.081 306.065 166.166 305.837 166.2C305.508 166.268 305.357 166.115 305.154 165.638C305.002 165.297 304.977 164.956 305.078 164.887C305.18 164.819 308.114 164.7 311.58 164.615C319.423 164.41 320.056 164.257 320.056 162.534C320.056 161.648 318.184 157.88 316.059 154.521C312.896 149.491 309.885 145.894 307.128 143.848C306.419 143.336 305.913 142.91 305.989 142.91C306.065 142.91 306.773 143.097 307.558 143.336ZM316.438 145.536C323.724 147.377 326.938 148.23 329.974 149.133L332.681 149.935L332.832 150.634C333.06 151.81 335.489 167.871 335.489 168.246C335.489 168.553 334.907 168.4 330.733 166.985L325.976 165.365L326.077 164.325C326.153 163.523 326.027 162.961 325.495 161.938L324.838 160.574L326.938 159.159C328.076 158.374 329.164 157.743 329.341 157.743C329.493 157.743 329.695 157.675 329.771 157.59C329.974 157.368 329.417 156.379 329.088 156.379C328.911 156.362 327.595 155.305 326.179 154.009C322.384 150.599 322.282 150.514 321.625 150.651C321.321 150.719 321.068 150.872 321.068 150.992C321.068 151.213 319.373 152.39 319.196 152.27C319.145 152.236 318.614 151.554 318.032 150.753C316.514 148.69 314.566 146.746 312.719 145.416C311.859 144.785 311.201 144.274 311.302 144.274C311.378 144.274 313.68 144.837 316.438 145.536ZM295.363 147.684C297.539 154.009 298.146 156.618 298.93 162.978L299.082 164.205L297.994 164.291C297.387 164.342 295.262 164.461 293.238 164.58C291.214 164.683 286.964 164.973 283.801 165.228C278.235 165.672 278.007 165.672 277.78 165.382C277.628 165.211 276.945 164.052 276.262 162.807C274.617 159.858 273.302 158.067 271.859 156.737C271.202 156.141 270.772 155.595 270.898 155.527C270.999 155.442 273.555 154.316 276.54 153.004C279.525 151.691 284.712 149.253 288.051 147.565C292.858 145.126 294.149 144.547 294.275 144.768C294.376 144.922 294.857 146.235 295.363 147.684ZM209.166 152.049L213.492 154.163L213.644 155.408C213.72 156.073 213.821 158.153 213.847 160.028L213.922 163.421L209.621 163.898C207.269 164.171 202.765 164.7 199.653 165.075C195.757 165.552 193.91 165.706 193.809 165.586C193.632 165.399 193.252 147.155 193.429 147.036C193.48 147.002 194.441 146.797 195.605 146.593L197.68 146.201L201.247 148.076C203.221 149.099 206.763 150.889 209.166 152.049ZM192.569 156.584C192.67 161.682 192.721 165.859 192.696 165.876C192.67 165.91 189.002 166.422 184.549 167.019C180.122 167.615 175.972 168.195 175.34 168.297C174.733 168.383 174.201 168.451 174.176 168.434C174.151 168.417 174.05 164.41 173.948 159.534L173.746 150.651L182.955 148.946C188.015 147.991 192.215 147.241 192.266 147.275C192.316 147.309 192.443 151.503 192.569 156.584ZM337.386 151.571C339.208 152.202 342.75 153.549 345.305 154.572L349.91 156.414L349.935 157.471C349.961 158.033 350.011 161.307 350.036 164.734C350.062 168.161 350.214 171.827 350.391 172.901C350.542 173.958 350.644 174.862 350.593 174.896C350.542 174.93 348.923 174.248 346.975 173.361C345.052 172.492 341.915 171.145 340.043 170.395L336.602 169.013L335.287 160.182C334.553 155.322 333.895 151.145 333.819 150.872C333.743 150.617 333.769 150.412 333.895 150.412C333.996 150.412 335.59 150.94 337.386 151.571ZM172.886 155.646C172.987 158.255 173.063 162.245 173.063 164.512V168.621L172.253 168.741C171.064 168.911 156.34 171.196 155.657 171.315L155.1 171.418L155.151 162.756L155.226 154.095L163.575 152.526C168.18 151.657 172.102 150.958 172.329 150.94C172.683 150.923 172.759 151.486 172.886 155.646ZM325.242 154.197C326.912 155.697 328.329 157.01 328.354 157.096C328.456 157.232 324.661 159.96 324.357 159.96C324.104 159.96 322.561 157.743 321.776 156.209C321.346 155.408 320.739 154.385 320.385 153.941C319.702 153.038 319.702 153.055 321.169 151.981C321.574 151.691 321.979 151.435 322.055 151.435C322.156 151.452 323.573 152.68 325.242 154.197ZM154.037 162.961L153.961 171.571L149.256 172.389L144.55 173.208L144.398 169.781C144.297 167.888 144.221 164.052 144.221 161.239V156.124L148.977 155.237C151.583 154.76 153.784 154.35 153.911 154.35C154.012 154.333 154.063 158.221 154.037 162.961ZM219.893 155.595C222.044 155.732 225.662 155.936 227.964 156.038C234.668 156.345 234.112 156.243 234.871 157.368C235.832 158.801 236.718 160.949 236.439 161.119C236.288 161.205 233.049 161.563 229.229 161.904C225.409 162.262 220.652 162.722 218.679 162.927L215.112 163.302L214.96 161.597C214.884 160.642 214.757 158.698 214.681 157.266L214.555 154.657L215.289 154.998C215.871 155.288 216.781 155.408 219.893 155.595ZM270.67 156.669C272.037 157.846 273.276 159.448 274.769 161.972L276.262 164.478L265.712 164.58C259.918 164.649 252.581 164.734 249.418 164.785L243.675 164.887L243.523 163.916C243.144 161.75 242.36 159.022 241.778 157.863C241.449 157.181 241.196 156.618 241.196 156.601C241.221 156.584 245.117 156.652 249.848 156.755C254.58 156.84 260.449 156.874 262.903 156.84C266.749 156.772 267.483 156.703 268.343 156.396C269.684 155.936 269.81 155.936 270.67 156.669ZM240.159 156.772C240.766 157.454 241.702 160.011 242.233 162.517C242.587 164.137 242.891 165.467 242.942 165.484C242.992 165.501 245.699 165.467 248.963 165.399C252.227 165.331 259.817 165.28 265.813 165.262L276.717 165.245L277.122 165.962C277.35 166.371 277.603 166.933 277.704 167.223L277.856 167.752L262.068 167.854C253.416 167.922 244.687 168.025 242.739 168.076L239.147 168.195L238.843 166.678C238.008 162.449 237.755 161.46 237.198 160.028C236.87 159.159 236.313 157.982 235.959 157.402L235.301 156.328L237.654 156.465C238.919 156.533 240.057 156.669 240.159 156.772ZM236.895 162.074C236.971 162.193 237.274 163.592 237.578 165.177C237.856 166.763 238.16 168.229 238.236 168.434C238.337 168.809 238.388 168.809 241.246 168.707C243.65 168.621 244.434 168.655 245.674 168.911L247.167 169.218L247.9 170.599C253.188 180.488 256.705 191.656 257.514 201.17L257.691 203.233L256.806 203.335C256.325 203.386 253.568 203.437 250.709 203.437H245.497L245.623 201.511C245.75 199.345 245.421 198.135 244.156 196.379C243.22 195.049 241.221 193.207 240.74 193.207C240.133 193.207 240.285 193.497 241.474 194.623C245.067 198.033 245.472 200.215 243.523 205.313C241.904 209.575 241.221 210.428 236.996 213.497C228.799 219.43 221.386 223.045 213.416 224.955C210.305 225.705 210.305 225.705 210.127 224.972C209.773 223.608 209.217 222.533 208.862 222.533C208.382 222.533 208.407 222.874 208.913 224.153C209.217 224.938 209.318 226.114 209.368 229.183C209.394 231.382 209.495 233.463 209.596 233.786C209.874 234.622 211.013 235.969 213.138 237.964C214.15 238.901 215.871 240.555 216.958 241.629C221.184 245.79 221.361 245.909 225.813 247.034C227.964 247.58 228.546 247.802 229.735 248.62C231.708 249.933 232.29 251.45 231.329 252.78C230.823 253.513 230.772 253.513 225.56 253.667C219.666 253.82 216.63 253.377 213.239 251.877C208.913 249.95 206.838 247.75 204.182 242.226C202.487 238.714 201.121 236.702 199.729 235.543C199.223 235.133 197.427 233.855 195.706 232.712C191.962 230.189 191.203 229.302 191.051 227.273C190.874 224.665 192.67 222.005 196.87 218.527C197.655 217.862 201.272 215.338 204.865 212.9C211.165 208.655 213.366 206.933 215.44 204.631C216.275 203.693 216.351 203.557 215.997 203.301C215.795 203.148 215.339 202.466 214.985 201.801C211.924 196.038 213.745 190.718 219.868 187.581C221.361 186.814 221.74 186.387 220.981 186.387C220.298 186.387 217.439 188.041 216.174 189.167C212.177 192.713 211.468 197.146 214.074 201.971C214.479 202.721 214.808 203.352 214.808 203.386C214.808 203.506 207.117 203.42 204.941 203.267C200.286 202.943 193.252 201.511 187.99 199.806C186.801 199.431 185.688 199.09 185.511 199.073C185.308 199.056 183.537 198.493 181.538 197.845C177.592 196.549 173.948 195.049 173.569 194.571C173.291 194.23 172.076 193.975 171.747 194.196C171.393 194.435 174.96 196.362 177.415 197.231C180.957 198.51 181.488 198.834 183.537 200.948C184.574 202.022 186.168 203.472 187.104 204.188C188.294 205.125 188.951 205.824 189.407 206.643C190.469 208.535 195.327 218.305 195.327 218.561C195.327 218.68 194.846 219.226 194.239 219.788C192.949 220.965 191.279 223.096 190.621 224.409C190.292 225.057 190.166 225.858 190.14 226.966C190.14 228.484 190.191 228.671 191.001 229.78C191.709 230.752 192.519 231.417 195.276 233.275C200.26 236.668 200.716 237.162 203.423 242.687C205.7 247.324 206.763 248.654 209.9 250.785C211.696 252.013 212.278 252.524 212.506 253.104C212.683 253.53 213.341 254.281 213.948 254.775C215.112 255.73 215.491 256.48 215.187 257.179C215.086 257.384 214.504 258.1 213.897 258.765C211.291 261.612 209.318 265.278 208.888 268.142C208.534 270.239 208.508 270.342 208.028 270.052C207.091 269.489 204.233 268.739 201.905 268.466C199.527 268.193 193.784 268.21 192.342 268.5C191.836 268.603 191.987 268.313 193.682 265.994C194.72 264.545 195.884 262.669 196.263 261.834C196.896 260.419 196.946 260.078 196.921 257.639C196.845 251.177 194.593 246.71 188.622 241.237C187.737 240.419 186.877 239.447 186.725 239.106C186.598 238.765 186.472 237.469 186.472 236.225C186.472 233.377 186.219 232.576 184.701 230.462C183.411 228.689 180.906 226.336 175.441 221.766C165.119 213.105 162.209 209.61 160.135 203.284C158.743 199.107 158.44 198.408 157.63 197.231C156.517 195.594 154.594 193.889 150.9 191.332C146.397 188.178 145.106 186.814 144.803 184.853C144.626 183.557 145.132 182.432 147.156 179.704C148.952 177.3 150.166 175.049 150.445 173.634C150.521 173.157 150.647 172.747 150.698 172.747C150.748 172.747 153.658 172.287 157.175 171.707C180.526 167.939 201.854 165.194 226.446 162.773C236.92 161.733 236.718 161.75 236.895 162.074ZM303.99 165.109C304.522 166.695 304.623 167.189 304.623 168.314C304.623 170.838 303.535 172.611 300.853 174.333C298.956 175.561 297.438 176.209 295.085 176.788C291.492 177.658 288.102 177.641 285.572 176.703C282.612 175.629 279.753 172.151 279.045 168.792C278.893 168.025 278.716 167.138 278.64 166.848C278.488 166.2 278.058 166.268 285.901 165.672C292.454 165.194 298.703 164.836 302.397 164.768C303.712 164.734 303.864 164.768 303.99 165.109ZM330.125 167.445C336.324 169.559 340.094 171.042 345.887 173.634L350.846 175.851L351.023 176.993C351.124 177.607 351.554 179.653 351.985 181.528C353.325 187.223 353.047 190.769 350.922 195.1C349.202 198.595 346.975 201.102 343.61 203.352C341.637 204.648 341.181 205.142 341.89 205.142C342.345 205.142 345.482 203.062 346.899 201.818C347.532 201.255 348.518 200.266 349.05 199.635C350.011 198.493 350.036 198.476 350.214 198.953C350.315 199.209 350.77 202.227 351.2 205.654C352.212 213.599 352.162 216.02 350.973 218.39C350.542 219.243 349.05 221.476 347.684 223.335C343.661 228.74 343.028 230.308 342.573 235.747C342.092 241.595 341.814 243.522 340.928 246.727C339.36 252.32 339.208 253.241 339.36 256.122C339.461 258.492 339.638 259.242 340.397 260.845L340.574 261.237L339.36 260.828C337.488 260.197 336.071 259.992 333.465 260.009C331.011 260.009 328.304 260.316 325.546 260.896C324.686 261.084 323.977 261.203 323.927 261.169C323.876 261.152 324.129 260.64 324.483 260.061C326.001 257.418 326.179 255.832 325.242 252.03C324.762 250.018 324.939 249.166 326.027 248.143C328.076 246.199 328.759 245.466 329.366 244.477L330.049 243.42V238.305C330.049 232.746 329.974 232.286 328.607 229.95C327.848 228.654 327.798 228.45 327.747 226.114C327.697 223.011 327.469 222.465 324.711 218.697C321.878 214.844 321.7 214.315 321.979 210.854C322.358 206.285 322.232 201.357 321.726 199.601C321.169 197.572 321.093 197.47 320.638 197.47C320.309 197.47 320.258 197.606 320.41 198.186C321.169 201.63 321.321 202.602 321.321 204.478C321.321 206.916 321.043 207.751 319.55 209.746C319.019 210.462 318.184 211.724 317.703 212.559C316.666 214.401 315.173 216.43 312.289 219.942C309.025 223.932 308.19 225.449 307.785 228.16C307.077 233.104 311.631 240.078 318.892 245.176L320.182 246.08L319.423 246.506C319.019 246.727 318.513 246.915 318.336 246.915C318.184 246.915 317.146 247.409 316.059 248.023C311.479 250.632 306.343 252.763 304.876 252.678C303.712 252.61 303.181 251.979 301.713 248.859C300.373 246.028 298.93 243.982 297.59 243.062C297.084 242.687 295.743 241.97 294.604 241.425C292.352 240.368 291.366 239.669 290.683 238.646C289.797 237.333 290.025 236.685 292.428 233.752C294.908 230.683 294.933 230.632 295.641 222.977C295.996 219.311 296.375 215.458 296.527 214.435C296.653 213.395 296.78 212.474 296.78 212.372C296.78 212.269 297.185 212.065 297.665 211.911C298.88 211.519 300.524 210.479 301.056 209.763C301.916 208.604 302.068 207.427 302.346 200.027C302.599 192.883 302.928 187.189 303.257 183.864C303.409 182.278 303.409 182.278 304.927 180.71C307.052 178.527 309.455 176.55 314.11 173.174C316.286 171.571 319.12 169.474 320.385 168.485C322.181 167.07 322.89 166.626 323.8 166.405C324.408 166.251 324.989 166.081 325.065 166.03C325.344 165.842 325.673 165.944 330.125 167.445ZM321.321 166.712C321.321 166.899 319.17 168.57 314.363 172.065C308.317 176.481 306.014 178.357 303.864 180.573C303.51 180.914 303.51 180.59 303.813 177.317C304.016 174.879 304.294 173.242 304.648 172.321C305.483 170.122 305.686 169.15 305.584 167.939L305.483 166.797L308.544 166.729C315.021 166.626 321.321 166.609 321.321 166.712ZM278.362 169.849C278.589 170.599 279.196 171.844 279.702 172.611C280.664 174.06 282.157 177.879 284.661 185.399L285.952 189.269L285.066 189.985C283.169 191.468 283.497 193.787 285.749 194.776C286.508 195.117 286.584 195.202 286.356 195.629C286.205 195.884 285.952 196.106 285.774 196.106C285.597 196.106 284.813 195.731 284.054 195.253C282.258 194.145 281.043 192.577 279.196 188.945C277.476 185.535 275.3 182.5 273.302 180.71C271.505 179.107 267.584 176.413 265.231 175.151C261.158 172.969 255.592 170.838 250.329 169.423L247.824 168.741L249.089 168.638C249.798 168.587 256.553 168.519 264.143 168.519L277.931 168.485L278.362 169.849ZM251.139 170.275C258.375 172.304 265.712 175.544 267.027 177.317C268.166 178.868 269.329 181.528 270.063 184.427C270.67 186.728 274.01 201.119 273.934 201.153C273.909 201.17 273.226 201.102 272.391 201.016C270.468 200.795 268.849 201.016 265.712 201.937C263.257 202.636 259.842 203.25 259.032 203.131C258.678 203.079 258.577 202.892 258.577 202.176C258.577 200.795 257.894 196.191 257.16 192.866C255.819 186.456 253.492 179.857 250.456 173.719C249.469 171.741 248.609 170.002 248.558 169.883C248.33 169.559 248.836 169.627 251.139 170.275ZM149.028 174.947L148.471 176.328L146.751 175.083C145.815 174.418 145.056 173.839 145.106 173.805C145.132 173.77 146.118 173.583 147.282 173.361C149.838 172.901 149.838 172.901 149.028 174.947ZM303.206 173.89C303.08 174.282 302.422 181.511 302.093 186.473C301.815 190.19 301.663 191.468 301.612 190.138C301.587 189.814 301.359 188.229 301.106 186.643C300.448 182.756 299.968 177.658 300.17 176.515C300.322 175.68 300.474 175.492 301.789 174.589C302.574 174.06 303.257 173.6 303.282 173.6C303.282 173.6 303.257 173.736 303.206 173.89ZM285.876 177.487C287.723 178.067 290.809 178.186 293.314 177.794C294.655 177.573 297.488 176.805 299.082 176.209C299.158 176.174 299.31 177.743 299.386 179.687C299.512 183.165 300.524 190.104 301.132 191.673C301.486 192.611 301.688 195.867 301.46 197.078L301.309 197.964L300.12 197.385C298.121 196.43 296.122 196.055 292.352 195.97L289.038 195.901L288.583 194.418C287.773 191.724 285.37 184.478 283.852 180.181C283.042 177.828 282.359 175.885 282.359 175.851C282.359 175.816 282.84 176.055 283.396 176.413C283.978 176.771 285.091 177.249 285.876 177.487ZM271.91 180.488C274.845 182.926 275.68 184.069 278.336 189.286C280.487 193.463 282.106 195.356 284.358 196.276C284.914 196.515 285.395 196.788 285.395 196.89C285.395 197.163 282.612 202.125 282.359 202.312C282.106 202.5 275.351 201.596 275.123 201.357C275.047 201.289 274.086 197.368 272.998 192.645C270.822 183.37 270.291 181.46 269.329 179.55C268.975 178.868 268.697 178.272 268.697 178.22C268.697 178.033 270.367 179.209 271.91 180.488ZM285.977 191.843C285.85 192.508 285.926 192.764 286.382 193.173C286.66 193.463 286.913 193.855 286.913 194.06C286.913 194.418 286.862 194.418 286.356 194.196C285.623 193.855 284.889 192.901 284.889 192.236C284.889 191.434 285.294 190.803 285.749 190.923C286.027 190.991 286.103 191.213 285.977 191.843ZM288.178 196.242C288.178 197.163 284.737 202.977 282.081 206.541L281.347 207.529L282.005 208.621C282.359 209.217 283.143 210.274 283.776 210.939C284.383 211.621 284.889 212.201 284.889 212.235C284.889 212.44 278.286 212.116 276.692 211.826L275.958 211.69L277.957 210.104C279.045 209.234 280.031 208.433 280.133 208.331C280.208 208.211 281.549 205.859 283.093 203.096C287.748 194.691 287.444 195.151 287.824 195.509C288.026 195.697 288.178 196.021 288.178 196.242ZM295.894 196.788C297.59 197.044 299.259 197.623 300.347 198.322L301.334 198.953V200.948V202.943L300.651 202.483C299.006 201.426 295.566 200.709 292.049 200.709H290.48L290.202 199.721C290.025 199.192 289.747 198.271 289.569 197.692C289.266 196.669 289.266 196.634 289.797 196.549C290.581 196.43 294.554 196.583 295.894 196.788ZM289.418 200.334C289.721 201.409 289.949 202.295 289.898 202.329C289.772 202.397 285.901 202.568 285.901 202.5C285.901 202.466 286.407 201.647 287.014 200.675C287.621 199.721 288.229 198.698 288.33 198.425C288.583 197.743 288.76 198.067 289.418 200.334ZM190.748 201.221C197.958 203.216 203.018 203.932 210.178 204C212.733 204.017 214.808 204.085 214.808 204.137C214.808 204.324 212.86 206.268 211.544 207.342C210.836 207.956 207.066 210.615 203.17 213.241L196.111 218.049L193.328 212.491C191.81 209.439 189.761 205.483 188.774 203.71C187.788 201.937 186.978 200.403 186.978 200.317C186.978 200.232 187.13 200.198 187.307 200.249C187.459 200.3 189.027 200.744 190.748 201.221ZM297.412 201.903C298.424 202.159 299.335 202.568 300.145 203.096L301.359 203.915L301.207 205.756C301.005 207.939 300.904 208.263 300.55 207.836C299.765 206.882 296.325 205.927 293.036 205.722C291.239 205.62 290.961 205.569 291.113 205.33C291.467 204.733 291.492 203.625 291.138 202.517L290.784 201.357L293.339 201.426C295.135 201.494 296.35 201.63 297.412 201.903ZM290.303 203.199C290.759 203.983 290.303 205.279 289.392 205.944C288.81 206.353 288.279 206.489 285.37 206.933C282.384 207.376 282.41 207.41 283.978 205.142L285.344 203.182L287.191 203.079C288.229 203.028 289.316 202.977 289.595 202.96C289.898 202.943 290.227 203.045 290.303 203.199ZM296.4 206.762C297.918 207.12 299.285 207.751 300.018 208.433C300.55 208.945 300.55 208.945 300.069 209.575C299.158 210.786 297.438 211.519 295.135 211.69C294.301 211.758 293.44 211.843 293.213 211.894C292.934 211.945 292.732 211.775 292.504 211.246C292.074 210.292 291.492 209.729 289.519 208.365L287.9 207.24L288.659 207.018C289.089 206.916 289.569 206.694 289.747 206.558C290.177 206.2 294.629 206.336 296.4 206.762ZM288.482 208.501C290.227 209.644 291.72 211.093 291.72 211.656C291.72 211.979 291.239 212.048 288.127 212.218L286.179 212.338L285.319 211.417C284.155 210.206 282.536 208.024 282.713 207.922C282.84 207.836 285.597 207.427 286.356 207.376C286.559 207.376 287.495 207.87 288.482 208.501ZM276.894 209.985L274.946 211.587L273.175 211.263C270.898 210.837 269.076 210.24 269.076 209.916C269.076 209.78 269.557 209.575 270.215 209.439C271.328 209.217 277.476 208.416 278.387 208.399C278.716 208.382 278.26 208.842 276.894 209.985ZM320.967 211.741C320.941 214.077 320.992 214.366 321.65 215.628C322.055 216.378 323.041 217.845 323.876 218.885C326.457 222.158 326.685 222.687 326.887 226.029C327.064 228.893 327.064 228.944 328.051 230.547L329.037 232.167V237.878V243.59L328.253 244.698C327.823 245.312 326.912 246.301 326.204 246.915C324.585 248.33 324.104 248.978 324.104 249.677L324.079 250.24L323.269 249.558C322.839 249.183 321.903 248.484 321.245 247.989L320.005 247.103L320.537 246.642C320.84 246.386 321.068 246.114 321.068 246.028C321.068 245.926 320.385 245.38 319.575 244.801C313.2 240.334 309.253 235.168 308.544 230.376C308.165 227.666 309.43 224.494 312.39 220.948C313.326 219.805 314.692 218.135 315.426 217.248C316.16 216.361 317.298 214.776 317.931 213.753C319.069 211.911 320.84 209.234 320.941 209.234C320.967 209.234 320.967 210.36 320.967 211.741ZM236.692 245.278C238.742 245.653 241.525 246.591 242.815 247.324C247.318 249.933 244.89 254.843 239.096 254.792C238.312 254.792 236.591 254.553 235.174 254.264C233.783 253.974 232.442 253.735 232.214 253.735C231.961 253.735 231.759 253.701 231.759 253.65C231.759 253.599 231.961 253.343 232.214 253.104C232.872 252.422 232.796 250.461 232.088 249.541C231.202 248.415 229.305 247.392 226.901 246.762C224.144 246.011 222.297 245.38 222.524 245.244C223.157 244.801 234.264 244.835 236.692 245.278ZM320.714 248.415C323.168 250.291 324.104 251.246 324.104 251.894C324.104 253.513 322.232 256.054 320.031 257.418C318.639 258.253 316.666 259.072 316.16 258.986C315.856 258.952 307.659 252.968 307.659 252.797C307.659 252.763 308.772 252.286 310.138 251.723C311.479 251.16 313.782 250.052 315.249 249.251C318.032 247.767 318.74 247.444 319.17 247.444C319.322 247.426 320.005 247.87 320.714 248.415ZM336.02 260.725C337.867 260.964 340.245 261.731 341.283 262.448C342.952 263.556 343.61 265.363 342.649 266.164C342.219 266.505 341.915 266.54 338.272 266.591C334.199 266.659 328.506 267.153 325.065 267.733C324.003 267.904 322.738 268.057 322.232 268.057C321.751 268.057 321.068 268.125 320.714 268.227C320.107 268.381 320.056 268.364 320.056 267.886C320.056 266.318 321.852 263.3 323.396 262.311C323.977 261.936 324.812 261.68 326.229 261.407C330.657 260.589 333.389 260.384 336.02 260.725ZM202.664 269.182C204.992 269.472 207.142 270.188 207.876 270.904C208.584 271.62 208.862 273.564 208.382 274.485C207.8 275.593 206.535 277.162 205.902 277.554C204.283 278.577 201.854 278.764 195.428 278.372C190.09 278.048 189.154 277.861 188.42 276.906C187.585 275.849 188.167 273.939 190.267 270.802C190.925 269.83 191.431 269.302 191.81 269.216C193.708 268.739 199.046 268.722 202.664 269.182Z" fill="#3C36A0"/>
<path d="M63.4885 30.6356C55.8732 31.6075 49.5482 34.864 46.2845 39.5016C44.893 41.4624 44.4123 42.6218 44.0328 44.8212C43.5521 47.6686 44.2858 50.3966 46.2339 53.2269C50.3072 59.1432 59.5923 62.826 69.2316 62.3657C74.4434 62.127 79.6299 60.6607 83.5514 58.3078C86.6127 56.4834 89.5222 53.278 90.5848 50.5841C91.2932 48.845 91.5209 45.6737 91.0908 43.9176C89.5728 37.5238 82.4635 32.3406 73.1025 30.8061C70.7749 30.414 65.8414 30.3287 63.4885 30.6356ZM71.4327 31.1471C74.1904 31.4711 77.2517 32.2213 79.554 33.1249C82.0587 34.1309 86.0814 36.8759 87.5235 38.615C92.5329 44.6337 91.3438 51.9652 84.5128 56.8585C81.5021 59.0239 78.8709 60.1833 75.0253 61.0528C62.2235 63.9343 48.7386 58.9898 45.399 50.209C44.5135 47.8561 44.5135 44.9576 45.3737 42.6388C48.0049 35.7336 56.784 31.0619 67.4606 30.9084C68.4473 30.9084 70.2436 31.0107 71.4327 31.1471Z" fill="#3C36A0"/>
<path d="M64.5765 31.403C56.6576 32.1532 49.6495 35.8701 46.7906 40.8658C45.728 42.7072 45.2979 44.3099 45.2979 46.4752C45.2979 53.4316 52.3566 59.5014 62.2994 61.07C66.8535 61.7691 70.4713 61.6668 74.8229 60.6949C77.9095 60.0129 80.566 58.9388 82.9189 57.4384C86.0814 55.4094 87.9536 53.3634 89.2439 50.5502C89.8511 49.2032 89.927 48.794 89.927 46.407C89.927 44.02 89.8511 43.6108 89.2439 42.2639C87.2452 37.865 82.8177 34.4209 76.7457 32.5624C73.4314 31.5565 68.2197 31.062 64.5765 31.403ZM70.3448 31.9316C77.7324 32.5454 84.108 35.6996 87.2705 40.3031C88.7885 42.4855 89.168 43.7302 89.168 46.407C89.1933 49.1862 88.7885 50.3626 87.0428 52.8008C81.2997 60.7972 66.3727 63.4741 55.4179 58.4614C53.7228 57.6771 51.1928 56.0062 49.9784 54.8468C47.4484 52.4598 46.3099 50.141 46.1328 47.072C45.8545 42.7924 47.6255 39.5188 51.8506 36.4839C55.3926 33.9435 59.8707 32.3578 64.8041 31.9316C67.157 31.727 67.9667 31.727 70.3448 31.9316Z" fill="#3C36A0"/>
<path d="M67.0053 35.9553C66.1957 36.0405 66.1451 36.1769 66.6764 36.876C66.98 37.2681 67.0053 37.3875 66.7523 37.4386C64.5512 37.899 63.7669 38.2059 62.2995 39.1777L60.7309 40.2348L59.7695 39.9279C56.4805 38.8538 51.8759 39.8427 49.6242 42.1274C48.764 42.9969 48.7134 43.1333 48.7134 44.4291C48.7134 46.8843 50.0543 48.0949 55.9239 50.8911C61.0851 53.3633 61.9453 54.3011 60.7309 56.1084C60.0478 57.0973 60.0984 57.1996 61.0092 56.8756C62.2742 56.4494 63.9187 55.2218 64.3994 54.3693C64.8042 53.6702 64.8042 53.4827 64.5259 52.7666C64.2223 52.0675 63.6657 51.6072 60.7056 49.5612C56.9106 46.9525 56.1769 46.2023 56.1769 44.7872C56.1769 43.4061 57.4925 42.1615 59.2382 41.9057C59.9213 41.8034 59.9213 41.8034 59.6683 42.5366C59.2129 43.9176 60.0731 46.1341 61.5658 47.4129C62.679 48.3506 64.197 49.0838 66.0186 49.5271C67.1065 49.7999 68.2703 50.3114 70.0413 51.3173L72.546 52.7325L72.6725 53.7896C72.7484 54.3693 73.0267 55.1365 73.2797 55.4946L73.7351 56.1254L75.0254 55.2729C76.0627 54.5739 76.8723 54.2499 79.0987 53.6361C80.6167 53.2099 82.3371 52.6813 82.8937 52.4597C84.9177 51.6583 87.8778 48.9815 87.0935 48.6575C86.9164 48.5723 86.0309 48.4188 85.1454 48.2995C84.2346 48.1801 83.5009 48.0267 83.5009 47.9585C83.5009 47.8903 83.9563 47.5834 84.5382 47.2765C85.0948 46.9525 85.4743 46.6456 85.3478 46.5945C85.2466 46.5263 84.6141 46.3217 83.9563 46.1682C83.2732 45.9977 82.7419 45.8102 82.7419 45.742C82.7419 45.6738 83.1467 45.4862 83.6274 45.3328C84.1081 45.1793 84.5129 44.9747 84.5129 44.8724C84.5129 44.5655 83.7539 43.6789 83.5009 43.6789C83.0708 43.6789 82.4889 43.1333 82.4889 42.7241C82.4889 42.0251 81.5275 40.4053 80.5408 39.4335C79.5035 38.4275 76.1133 36.3645 75.9615 36.6543C75.9109 36.7737 75.2531 36.6714 74.1905 36.3986C72.9002 36.0576 71.9388 35.9553 70.0919 35.9212C68.7763 35.8871 67.3848 35.9041 67.0053 35.9553ZM73.4821 36.7907C74.2917 36.9612 75.0254 37.1999 75.076 37.3363C75.329 37.7455 73.1026 41.9057 71.7364 43.6107C70.4967 45.1452 70.3196 45.2987 69.7124 45.2646C69.3329 45.2475 68.9787 45.2134 68.9534 45.1793C68.9028 45.1452 68.9787 44.7872 69.0799 44.3609C69.6365 42.4854 69.1811 39.8256 67.9414 37.6091C67.5113 36.8419 67.4354 36.5179 67.6378 36.4497C68.2703 36.2622 72.04 36.4668 73.4821 36.7907ZM79.5035 39.3653C80.5914 40.286 81.401 41.5306 81.7299 42.8605C81.9829 43.7983 82.1094 44.0029 82.5395 44.054C82.8431 44.0881 83.1973 44.2416 83.3491 44.395C83.5515 44.6337 83.5009 44.7531 83.1214 44.9406C81.6287 45.7079 76.8976 46.6968 73.2544 46.9866C71.9894 47.0889 71.9641 47.0889 71.5846 46.5092C71.2051 45.9636 71.2304 45.9125 72.1918 44.7701C73.4568 43.2697 74.6206 41.3431 75.6579 39.1095L76.4675 37.3704L77.5807 38.0354C78.2132 38.4105 79.0734 38.9902 79.5035 39.3653ZM67.4101 39.0243C68.3715 41.1896 68.1691 44.8895 67.0306 45.8613C65.9174 46.8332 66.3475 48.1972 67.9667 48.7087C69.0799 49.0667 70.2437 48.9133 71.1039 48.2824C71.6099 47.9244 72.04 47.805 73.305 47.7198L74.8483 47.6175L75.8856 48.7087C76.6699 49.5612 77.0494 49.8169 77.5048 49.8169C78.2385 49.8169 80.4902 49.3054 81.907 48.828C82.8684 48.487 82.9949 48.487 84.5382 48.7257C85.3984 48.8621 86.1827 49.0156 86.2333 49.0497C86.3092 49.0838 85.9803 49.51 85.4996 50.0045C84.4117 51.1639 82.7166 52.0505 80.2878 52.6984C76.8976 53.6361 75.2025 54.2499 74.5447 54.7614C73.9122 55.2729 73.9122 55.2729 73.7351 54.8808C73.6339 54.6762 73.4821 54.0453 73.4062 53.4827L73.2544 52.4767L70.4714 50.8911C68.6245 49.834 67.3342 49.2372 66.6764 49.1179C65.1837 48.8451 64.3235 48.5041 63.0079 47.6686C59.643 45.5544 59.4659 41.9569 62.6031 39.621C63.5392 38.939 65.7403 38.0524 66.5752 38.0524C66.8535 38.0524 67.1065 38.3423 67.4101 39.0243ZM58.125 40.0984C58.7828 40.2007 59.4912 40.3371 59.6936 40.4224C60.2249 40.644 59.5924 41.2408 58.5045 41.5477C56.5311 42.1103 55.4432 43.2868 55.4179 44.8724C55.4179 46.4581 56.2022 47.3106 60.0731 49.8681C62.7296 51.6242 63.5139 52.2551 63.7416 52.7836C64.0958 53.7043 63.8428 54.3181 62.7802 55.1365L61.8441 55.8356L61.9453 55.1365C62.0718 54.2329 61.2875 53.1246 60.0225 52.3403C59.5165 52.0334 57.5431 51.0275 55.6203 50.1238C50.8892 47.8391 49.3712 46.5092 49.3459 44.5655C49.3459 43.4061 49.8772 42.5877 51.1928 41.667C52.4072 40.8145 53.7481 40.303 55.2408 40.0984C56.7335 39.9109 56.7841 39.9109 58.125 40.0984ZM70.1425 46.3558C71.1292 46.9525 70.4208 48.1119 69.0546 48.1119C68.2956 48.1119 67.5619 47.5834 67.5619 47.0207C67.5619 46.2023 69.1811 45.7761 70.1425 46.3558ZM83.1467 46.5092L84.1334 46.782L83.2479 47.2935C82.0335 47.9755 79.4276 48.7939 78.2891 48.8451C77.4289 48.8792 77.2771 48.811 76.7711 48.1972L76.1892 47.5322L78.1879 47.1401C79.3011 46.9355 80.5661 46.6456 81.0215 46.5092C82.1094 46.1853 82.0082 46.1853 83.1467 46.5092Z" fill="#3C36A0"/>
<path d="M245.193 61.1552C242.84 62.8772 241.449 64.9232 241.196 67.0715C241.044 68.1797 241.069 68.2309 241.601 68.2309C242.056 68.2309 242.132 68.1286 242.132 67.4125C242.132 65.4859 243.625 63.15 245.876 61.6155C246.585 61.104 247.192 60.6266 247.192 60.5414C247.192 60.1492 246.155 60.4561 245.193 61.1552Z" fill="#FE7624"/>
<path d="M224.928 62.2806C224.928 62.3829 225.282 62.7921 225.687 63.2013C226.8 64.2925 227.913 65.9293 228.217 66.9864C228.369 67.4809 228.622 67.9242 228.773 67.9924C230.266 68.6232 228.52 64.7188 226.446 62.8092C225.687 62.1442 224.928 61.8714 224.928 62.2806Z" fill="#FE7624"/>
<path d="M222.145 90.6858C221.082 91.6747 214.858 96.7897 211.67 99.262C207.825 102.263 202.006 106.525 197.654 109.509L193.53 112.356L193.783 113.789C194.542 118.034 195.301 127.633 195.327 133.106V135.664L199.096 137.761C204.106 140.557 209.368 143.285 215.061 146.013C217.641 147.241 220.019 148.434 220.374 148.639C220.93 148.963 221.74 149.065 226.446 149.457C237.097 150.31 246.129 150.804 256.477 151.094L262.878 151.265L268.899 148.554C277.678 144.615 286.989 140.08 291.947 137.284C293.617 136.346 293.212 137.147 295.515 130.293C297.184 125.314 298.88 119.586 300.094 114.829L301.081 110.89L300.296 110.31C295.515 106.849 285.243 98.0003 278.336 91.3849L277.501 90.6006L263.308 90.6858C247.951 90.7881 233.15 90.5153 224.548 89.9697L223.005 89.8674L222.145 90.6858ZM241.879 91.095C247.09 91.2144 254.959 91.2655 263.333 91.2144C275.578 91.1291 276.54 91.1291 276.236 91.4019C275.199 92.3226 270.923 95.3916 266.445 98.4436L261.258 101.99H256.957C252.783 101.973 244.105 101.785 237.122 101.547L233.757 101.427L232.593 100.217C230.114 97.6593 224.169 90.8222 224.169 90.5494C224.169 90.5153 226.294 90.5665 228.9 90.6858C231.531 90.7881 237.35 90.9757 241.879 91.095ZM226.015 94.3175C227.078 95.5792 228.9 97.6593 230.089 98.921C231.253 100.183 232.138 101.24 232.012 101.274C231.885 101.308 230.62 101.257 229.178 101.172C227.761 101.069 226.547 101.018 226.521 101.035C226.294 101.172 225.636 108.52 225.383 113.618C225.231 116.977 225.003 119.722 224.902 119.722C224.826 119.722 222.372 119.159 219.463 118.46C211.291 116.517 204.51 114.743 196.01 112.305L195.023 112.032L199.299 109.1C206.155 104.377 214.428 98.0685 220.576 92.8512L223.03 90.7881L223.561 91.4019C223.84 91.7429 224.953 93.0558 226.015 94.3175ZM278.817 92.7489C282.182 96.1248 291.492 104.189 297.134 108.639C298.601 109.799 299.74 110.805 299.613 110.873C299.208 111.129 271.151 119.04 270.645 119.04C270.189 119.04 270.948 105.605 271.631 102.348C271.758 101.632 271.758 101.598 271.176 101.7C270.847 101.768 268.823 101.871 266.673 101.922L262.751 102.041L268.064 98.3924C270.999 96.3805 274.288 94.0276 275.401 93.1581C276.514 92.3056 277.476 91.5895 277.552 91.5895C277.628 91.6065 278.184 92.118 278.817 92.7489ZM233.934 101.905C236.743 102.041 241.271 102.195 244.004 102.263L249.013 102.382L248.861 102.911C248.76 103.371 248.532 105.144 247.748 112.425L247.571 114.095L242.385 110.89C235.326 106.508 228.014 101.666 228.47 101.666C228.672 101.666 231.151 101.768 233.934 101.905ZM242.258 111.521C244.915 113.158 247.09 114.539 247.141 114.607C247.166 114.675 244.965 116.022 242.207 117.608C239.45 119.193 235.149 121.717 232.669 123.217C227.23 126.491 226.446 126.934 226.344 126.866C226.294 126.832 226.193 124.871 226.091 122.535C225.889 116.875 226.42 106.27 227.103 102.621L227.255 101.802L232.366 105.178C235.149 107.037 239.627 109.884 242.258 111.521ZM269.38 102.604C269.203 102.723 265.559 104.701 261.233 107.02C256.932 109.356 252.429 111.794 251.24 112.476C248.153 114.232 248.381 114.232 248.558 112.373C249.089 107.599 249.494 104.019 249.62 103.269L249.772 102.416H259.715C267.153 102.416 269.607 102.467 269.38 102.604ZM270.619 103.9C270.063 108.23 269.886 110.992 269.734 118.324L269.582 126.559L265.155 124.155C260.348 121.546 249.899 115.562 249.114 114.965C248.659 114.641 248.659 114.573 249.013 114.385C249.241 114.283 251.796 112.868 254.706 111.248C259.993 108.298 270.468 102.672 270.67 102.672C270.721 102.672 270.695 103.235 270.619 103.9ZM299.31 114.709C298.121 119.313 296.4 125.093 294.73 130.123C292.934 135.544 292.883 135.681 292.504 135.613C291.568 135.476 277.248 129.884 272.593 127.855C270.872 127.105 270.797 127.036 270.619 126.269C270.544 125.826 270.468 124.223 270.468 122.706V119.927L272.441 119.381C279.247 117.488 290.809 114.232 295.009 113.004C297.716 112.22 299.967 111.606 300.018 111.623C300.069 111.657 299.74 113.038 299.31 114.709ZM200.437 114.317C206.787 116.09 212.151 117.471 219.488 119.21L225.054 120.54L225.206 122.228C225.307 123.149 225.383 124.598 225.408 125.434C225.434 126.968 225.434 126.985 224.75 127.173C224.346 127.275 221.866 128.008 219.21 128.81C213.517 130.515 206.509 132.407 200.564 133.856C198.211 134.436 196.263 134.897 196.237 134.897C196.187 134.897 196.086 132.544 196.01 129.679C195.833 124.087 195.529 120.302 194.947 116.227C194.492 113.055 194.466 112.663 194.896 112.783C195.048 112.834 197.553 113.516 200.437 114.317ZM247.166 121.546C246.989 125.366 246.939 130.157 247.04 134.368L247.192 141.086L244.864 139.653C241.803 137.795 230.848 130.429 228.596 128.707L226.85 127.377L227.508 127.002C227.862 126.798 230.494 125.229 233.327 123.541C239.652 119.739 247.293 115.306 247.394 115.374C247.445 115.408 247.343 118.17 247.166 121.546ZM252.58 117.71C256.527 120.029 263.105 123.729 267.507 126.099C268.874 126.849 269.886 127.497 269.785 127.565C269.683 127.633 267.938 128.639 265.914 129.799C260.904 132.68 257.463 134.811 252.353 138.187L248.001 141.052L247.824 134.862C247.723 131.231 247.773 126.286 247.925 122.876C248.077 119.688 248.204 116.721 248.204 116.261C248.204 115.818 248.33 115.459 248.457 115.459C248.608 115.459 250.455 116.482 252.58 117.71ZM227.609 128.707C228.419 129.355 231.303 131.384 233.985 133.226C236.692 135.067 238.843 136.636 238.817 136.721C238.514 137.181 221.689 147.769 220.955 147.974C220.07 148.213 196.136 135.937 196.769 135.579C196.87 135.51 198.514 135.101 200.387 134.658C205.548 133.43 215.87 130.634 221.133 129.014C223.713 128.23 225.889 127.582 225.965 127.582C226.041 127.565 226.774 128.077 227.609 128.707ZM273.074 128.895C278.336 131.146 289.266 135.408 291.517 136.09L292.428 136.363L290.961 137.164C287.773 138.869 281.802 141.921 278.311 143.592C274.187 145.587 263.89 150.242 263.611 150.242C263.156 150.242 259.057 143.081 257.084 138.835L256.021 136.567L256.73 136.056C258.602 134.726 270.139 127.923 270.544 127.906C270.645 127.906 271.783 128.349 273.074 128.895ZM258.804 144.513C259.538 145.826 260.702 147.769 261.36 148.826L262.574 150.77L259.639 150.685C249.469 150.344 245.395 150.19 240.108 149.883C233.631 149.525 223.384 148.758 222.448 148.571C221.942 148.468 222.347 148.178 226.117 145.877C228.47 144.462 232.467 141.938 234.997 140.284C237.552 138.63 239.753 137.284 239.855 137.318C239.981 137.352 241.676 138.358 243.65 139.585C245.623 140.796 247.369 141.836 247.495 141.87C247.622 141.904 249.393 140.83 251.417 139.483L255.085 137.028L256.274 139.585C256.932 140.983 258.071 143.217 258.804 144.513Z" fill="#3C36A0"/>
<path d="M113.481 99.1085C109.585 100.609 106.119 101.939 105.765 102.041C104.728 102.382 104.829 102.791 106.22 103.695C109.358 105.741 113.81 105.485 117.15 103.081C120.085 100.967 121.476 99.3302 121.502 97.915C121.502 97.1137 121.122 96.3464 120.743 96.3805C120.641 96.3805 117.378 97.6081 113.481 99.1085ZM120.439 98.5459C119.857 100.2 116.29 103.183 114.063 103.934C111.66 104.752 108.32 104.377 106.549 103.115L105.993 102.723L106.903 102.348C107.409 102.16 107.865 101.99 107.915 101.99C107.966 101.99 108.447 102.178 108.953 102.416C110.951 103.337 113.127 103.371 114.418 102.501C115.227 101.939 115.379 101.018 114.772 100.046L114.418 99.4836L117.352 98.3583C120.667 97.0796 120.97 97.0966 120.439 98.5459ZM114.038 100.677C114.316 101.888 113.583 102.501 111.888 102.501C111.002 102.484 108.978 101.871 109.105 101.649C109.231 101.376 113.456 99.7905 113.684 99.9269C113.785 99.9951 113.937 100.336 114.038 100.677Z" fill="#3C36A0"/>
<path d="M126.511 98.1878C126.486 102.911 124.31 105.366 119.25 106.355C118.617 106.474 118.946 106.849 119.984 107.258C121.426 107.804 123.349 109.049 123.829 109.731C124.032 110.021 124.462 111.044 124.74 111.964C125.398 113.993 126.132 115.136 127.675 116.585C128.839 117.71 131.571 119.381 132.204 119.381C133.013 119.381 132.735 119.04 131.369 118.307C128.662 116.875 126.688 114.726 125.853 112.305C124.791 109.202 124.183 108.435 122.008 107.446C121.299 107.122 120.692 106.815 120.692 106.764C120.692 106.696 121.122 106.559 121.628 106.44C122.767 106.15 124.841 104.871 125.626 103.951C126.764 102.638 127.295 101.035 127.447 98.6141C127.599 96.3976 127.599 96.3635 127.042 96.3635C126.536 96.3635 126.511 96.4317 126.511 98.1878Z" fill="#3C36A0"/>
<path d="M121.476 128.281C118.718 129.253 118.718 131.913 121.476 132.85C123.804 133.669 126.258 132.902 127.042 131.128C127.295 130.583 127.27 130.344 126.916 129.696C126.03 128.145 123.627 127.514 121.476 128.281ZM124.335 128.827C125.473 129.151 126.005 129.713 126.005 130.6C126.005 132.271 123.07 133.089 121.324 131.913C120.009 131.043 120.337 129.492 121.957 128.912C123.019 128.52 123.247 128.52 124.335 128.827Z" fill="#FE7624"/>
<path d="M201.348 150.685C200.817 150.906 200.387 151.179 200.387 151.281C200.387 151.64 196.718 154.487 196.238 154.487C195.934 154.504 195.807 154.606 195.883 154.811C196.01 155.118 202.132 160.983 202.942 161.58C203.423 161.904 203.448 161.887 205.118 160.642C206.054 159.943 207.521 158.869 208.407 158.289C210.127 157.13 210.254 156.772 209.216 156.209C208.963 156.072 207.395 154.691 205.776 153.157C204.131 151.605 202.689 150.327 202.537 150.31C202.411 150.276 201.854 150.446 201.348 150.685ZM205.244 153.737C206.838 155.237 208.204 156.55 208.306 156.669C208.584 156.976 208.078 157.488 205.75 159.227L203.65 160.795L202.841 160.25C202.006 159.704 197.3 155.305 197.3 155.101C197.3 154.964 202.234 150.906 202.31 150.975C202.335 150.992 203.65 152.236 205.244 153.737Z" fill="#FE7624"/>
<path d="M161.425 156.84C159.957 159.107 158.364 161.222 158.111 161.29C157.63 161.409 157.933 161.801 159.3 162.773C160.084 163.336 161.349 164.393 162.108 165.126C162.892 165.859 163.575 166.439 163.677 166.405C164.056 166.285 166.991 164.052 168.357 162.824L169.824 161.494L168.484 160.028C166.687 158.119 163.424 155.288 162.918 155.22C162.639 155.186 162.209 155.629 161.425 156.84ZM166.89 159.568C168.079 160.778 168.484 161.307 168.357 161.563C168.079 162.193 164.208 165.416 163.752 165.416C163.651 165.416 163.246 165.092 162.842 164.717C162.437 164.325 161.475 163.506 160.691 162.893C159.831 162.193 159.3 161.631 159.35 161.443C159.401 161.256 160.033 160.301 160.767 159.295C161.475 158.306 162.285 157.164 162.513 156.755L162.943 156.021L164.107 156.976C164.739 157.505 166.004 158.664 166.89 159.568Z" fill="#FE7624"/>
</svg>
