<svg width="50" height="50" viewBox="0 0 50 50" fill="none" xmlns="http://www.w3.org/2000/svg">
<path d="M25 0C11.2155 0 0 11.2155 0 25C0 38.7845 11.2155 50 25 50C38.7845 50 50 38.7845 50 25C50 11.2155 38.7845 0 25 0ZM38.9724 18.4211L22.995 34.2732C22.0551 35.213 20.5514 35.2757 19.5489 34.3358L11.0902 26.6291C10.0877 25.6892 10.0251 24.1228 10.9023 23.1203C11.8421 22.1178 13.4085 22.0551 14.411 22.995L21.1153 29.1353L35.401 14.8496C36.4035 13.8471 37.9699 13.8471 38.9724 14.8496C39.9749 15.8521 39.9749 17.4185 38.9724 18.4211Z" fill="#50BFA5"/>
</svg>
