<svg width="22" height="22" viewBox="0 0 22 22" fill="none" xmlns="http://www.w3.org/2000/svg">
<g clip-path="url(#clip0)">
<path d="M20.7109 12.5576V1.97656C20.7109 1.62056 20.4224 1.33203 20.0664 1.33203H16.8008V0.644531C16.8008 0.288528 16.5123 0 16.1562 0C15.8002 0 15.5117 0.288528 15.5117 0.644531V1.33203H12.9336V0.644531C12.9336 0.288528 12.6451 0 12.2891 0C11.9331 0 11.6445 0.288528 11.6445 0.644531V1.33203H9.06641V0.644531C9.06641 0.288528 8.77788 0 8.42188 0C8.06587 0 7.77734 0.288528 7.77734 0.644531V1.33203H5.19922V0.644531C5.19922 0.288528 4.91069 0 4.55469 0C4.19868 0 3.91016 0.288528 3.91016 0.644531V1.33203H0.644531C0.288528 1.33203 0 1.62056 0 1.97656V18.7773C0 19.1333 0.288528 19.4219 0.644531 19.4219H11.3783C12.4203 20.9753 14.1923 22 16.1992 22C19.3977 22 22 19.3977 22 16.1992C22 14.8212 21.5166 13.554 20.7109 12.5576ZM3.91016 2.62109V3.26562C3.91016 3.62163 4.19868 3.91016 4.55469 3.91016C4.91069 3.91016 5.19922 3.62163 5.19922 3.26562V2.62109H7.77734V3.26562C7.77734 3.62163 8.06587 3.91016 8.42188 3.91016C8.77788 3.91016 9.06641 3.62163 9.06641 3.26562V2.62109H11.6445V3.26562C11.6445 3.62163 11.9331 3.91016 12.2891 3.91016C12.6451 3.91016 12.9336 3.62163 12.9336 3.26562V2.62109H15.5117V3.26562C15.5117 3.62163 15.8002 3.91016 16.1562 3.91016C16.5123 3.91016 16.8008 3.62163 16.8008 3.26562V2.62109H19.4219V5.19922H1.28906V2.62109H3.91016ZM1.28906 18.1328V6.48828H19.4219V11.3783C18.4996 10.7598 17.3908 10.3984 16.1992 10.3984C14.1626 10.3984 12.368 11.4537 11.3327 13.0459C11.2456 13.0019 11.1474 12.9766 11.043 12.9766H9.75391C9.3979 12.9766 9.10938 13.2651 9.10938 13.6211C9.10938 13.9771 9.3979 14.2656 9.75391 14.2656H10.7303C10.5847 14.6762 10.484 15.1079 10.4345 15.5547H9.75391C9.3979 15.5547 9.10938 15.8432 9.10938 16.1992C9.10938 16.5552 9.3979 16.8438 9.75391 16.8438H10.4345C10.484 17.2906 10.5846 17.7223 10.7303 18.1328H1.28906ZM16.1992 20.7109C13.7114 20.7109 11.6875 18.687 11.6875 16.1992C11.6875 13.7114 13.7114 11.6875 16.1992 11.6875C18.687 11.6875 20.7109 13.7114 20.7109 16.1992C20.7109 18.687 18.687 20.7109 16.1992 20.7109Z" fill="#5E5E5E" stroke="#5E5E5E"/>
<path d="M16.3438 15.5547V16.0547H16.8438H18.7773C18.8572 16.0547 18.9219 16.1194 18.9219 16.1992C18.9219 16.2791 18.8572 16.3438 18.7773 16.3438H16.1992C16.1194 16.3438 16.0547 16.2791 16.0547 16.1992V13.6211C16.0547 13.5412 16.1194 13.4766 16.1992 13.4766C16.2791 13.4766 16.3438 13.5412 16.3438 13.6211V15.5547Z" fill="#474747" stroke="#5E5E5E"/>
<path d="M4.55469 8.32031H5.84375C5.92361 8.32031 5.98828 8.38498 5.98828 8.46484C5.98828 8.5447 5.92361 8.60938 5.84375 8.60938H4.55469C4.47483 8.60938 4.41016 8.5447 4.41016 8.46484C4.41016 8.38498 4.47483 8.32031 4.55469 8.32031Z" fill="#474747" stroke="#5E5E5E"/>
<path d="M4.55469 10.8984H5.84375C5.92361 10.8984 5.98828 10.9631 5.98828 11.043C5.98828 11.1228 5.92361 11.1875 5.84375 11.1875H4.55469C4.47483 11.1875 4.41016 11.1228 4.41016 11.043C4.41016 10.9631 4.47483 10.8984 4.55469 10.8984Z" fill="#474747" stroke="#5E5E5E"/>
<path d="M4.55469 13.4766H5.84375C5.92361 13.4766 5.98828 13.5412 5.98828 13.6211C5.98828 13.701 5.92361 13.7656 5.84375 13.7656H4.55469C4.47483 13.7656 4.41016 13.701 4.41016 13.6211C4.41016 13.5412 4.47483 13.4766 4.55469 13.4766Z" fill="#474747" stroke="#5E5E5E"/>
<path d="M11.043 8.60938H9.75391C9.67405 8.60938 9.60938 8.5447 9.60938 8.46484C9.60938 8.38498 9.67405 8.32031 9.75391 8.32031H11.043C11.1228 8.32031 11.1875 8.38498 11.1875 8.46484C11.1875 8.5447 11.1228 8.60938 11.043 8.60938Z" fill="#474747" stroke="#5E5E5E"/>
<path d="M11.043 11.1875H9.75391C9.67405 11.1875 9.60938 11.1228 9.60938 11.043C9.60938 10.9631 9.67405 10.8984 9.75391 10.8984H11.043C11.1228 10.8984 11.1875 10.9631 11.1875 11.043C11.1875 11.1228 11.1228 11.1875 11.043 11.1875Z" fill="#474747" stroke="#5E5E5E"/>
<path d="M4.55469 16.0547H5.84375C5.92361 16.0547 5.98828 16.1194 5.98828 16.1992C5.98828 16.2791 5.92361 16.3438 5.84375 16.3438H4.55469C4.47483 16.3438 4.41016 16.2791 4.41016 16.1992C4.41016 16.1194 4.47483 16.0547 4.55469 16.0547Z" fill="#474747" stroke="#5E5E5E"/>
<path d="M16.1992 8.60938H14.9102C14.8303 8.60938 14.7656 8.5447 14.7656 8.46484C14.7656 8.38498 14.8303 8.32031 14.9102 8.32031H16.1992C16.2791 8.32031 16.3438 8.38498 16.3438 8.46484C16.3438 8.5447 16.2791 8.60938 16.1992 8.60938Z" fill="#474747" stroke="#5E5E5E"/>
</g>
<defs>
<clipPath id="clip0">
<rect width="22" height="22" fill="white"/>
</clipPath>
</defs>
</svg>
