<svg width="19" height="19" viewBox="0 0 19 19" fill="none" xmlns="http://www.w3.org/2000/svg">
<path d="M16.6249 5.32794H16.5616C12.3737 4.90835 8.19365 4.75002 4.05324 5.16961L2.43824 5.32794C2.35967 5.33613 2.28027 5.32868 2.2046 5.306C2.12894 5.28332 2.05852 5.24587 1.99742 5.19581C1.93632 5.14575 1.88575 5.08408 1.84863 5.01436C1.81151 4.94463 1.78857 4.86824 1.78115 4.78961C1.74949 4.45711 1.98699 4.17211 2.31157 4.14044L3.92657 3.98211C8.13824 3.55461 12.4053 3.72086 16.6803 4.14044C17.0049 4.17211 17.2424 4.46502 17.2107 4.78961C17.1988 4.9366 17.1318 5.07368 17.0232 5.17347C16.9146 5.27326 16.7724 5.32842 16.6249 5.32794Z" fill="black"/>
<path d="M6.72931 4.52831C6.69764 4.52831 6.66598 4.52831 6.62639 4.5204C6.4728 4.49272 6.33618 4.4059 6.24589 4.27861C6.15559 4.15131 6.11883 3.99367 6.14348 3.83956L6.31764 2.80248C6.44431 2.04248 6.61848 0.989563 8.46306 0.989563H10.5372C12.3897 0.989563 12.5639 2.08206 12.6826 2.8104L12.8568 3.83956C12.9122 4.16415 12.6906 4.4729 12.3739 4.5204C12.0493 4.57581 11.7406 4.35415 11.6931 4.03748L11.5189 3.00831C11.4081 2.31956 11.3843 2.18498 10.5451 2.18498H8.47098C7.63181 2.18498 7.61598 2.29581 7.49723 3.0004L7.31514 4.02956C7.29259 4.16871 7.22127 4.29529 7.11394 4.38666C7.00661 4.47804 6.87027 4.52825 6.72931 4.52831ZM12.0414 18.012H6.95889C4.19598 18.012 4.08514 16.4841 3.99806 15.2491L3.48348 7.27698C3.45973 6.9524 3.71306 6.6674 4.03764 6.64365C4.37014 6.62781 4.64723 6.87323 4.67098 7.19781L5.18556 15.1699C5.27264 16.3732 5.30431 16.8245 6.95889 16.8245H12.0414C13.7039 16.8245 13.7356 16.3732 13.8147 15.1699L14.3293 7.19781C14.3531 6.87323 14.6381 6.62781 14.9626 6.64365C15.2872 6.6674 15.5406 6.94448 15.5168 7.27698L15.0022 15.2491C14.9151 16.4841 14.8043 18.012 12.0414 18.012Z" fill="black"/>
<path d="M10.8143 13.6562H8.17808C7.8535 13.6562 7.58433 13.3871 7.58433 13.0625C7.58433 12.7379 7.8535 12.4687 8.17808 12.4687H10.8143C11.1389 12.4687 11.4081 12.7379 11.4081 13.0625C11.4081 13.3871 11.1389 13.6562 10.8143 13.6562ZM11.4793 10.4896H7.521C7.19641 10.4896 6.92725 10.2204 6.92725 9.89581C6.92725 9.57123 7.19641 9.30206 7.521 9.30206H11.4793C11.8039 9.30206 12.0731 9.57123 12.0731 9.89581C12.0731 10.2204 11.8039 10.4896 11.4793 10.4896Z" fill="black"/>
</svg>
