<svg width="932" height="194" viewBox="0 0 932 194" fill="none" xmlns="http://www.w3.org/2000/svg">
<path d="M927.974 178.931V188.058C927.974 188.81 927.729 189.481 927.386 189.988C926.96 190.577 926.388 190.986 925.717 191.329C925.553 191.411 925.292 191.493 925.046 191.493C924.883 191.493 924.621 191.575 924.458 191.575H779.452C777.604 191.575 776.017 190.07 775.936 188.222C775.936 188.14 775.936 188.058 775.936 188.058V178.931C775.936 178.849 775.936 178.767 775.936 178.767C776.017 176.919 777.604 175.414 779.452 175.414H924.458C924.621 175.414 924.883 175.414 925.046 175.496C925.292 175.578 925.472 175.578 925.717 175.659C926.388 175.905 926.977 176.412 927.386 177.001C927.811 177.59 927.974 178.178 927.974 178.931Z" fill="#FFC222"/>
<path d="M856.771 191.575H779.108C777.439 191.575 776.098 190.07 775.918 188.222C775.918 188.14 775.918 188.058 775.918 188.058V178.931C775.918 178.849 775.918 178.767 775.918 178.767C776 176.919 777.341 175.414 779.108 175.414H847.3C848.396 180.19 850.899 186.717 856.771 191.575Z" fill="#E5A621"/>
<path d="M910.389 175.414H908.721V191.493H910.389V175.414Z" fill="#FBAA26"/>
<path d="M904.762 175.414H903.094V191.493H904.762V175.414Z" fill="#FBAA26"/>
<path d="M898.073 175.414H896.404V191.493H898.073V175.414Z" fill="#FBAA26"/>
<path d="M887.85 175.414H886.182V191.493H887.85V175.414Z" fill="#FBAA26"/>
<path d="M877.038 175.414H875.369V191.493H877.038V175.414Z" fill="#FBAA26"/>
<path d="M860.371 175.414H858.702V191.493H860.371V175.414Z" fill="#FBAA26"/>
<path d="M844.797 175.414H843.129V191.493H844.797V175.414Z" fill="#FBAA26"/>
<path d="M830.878 175.414H829.21V191.493H830.878V175.414Z" fill="#FBAA26"/>
<path d="M915.739 175.414H914.07V191.493H915.739V175.414Z" fill="#FBAA26"/>
<path d="M919.173 175.414H917.505V191.493H919.173V175.414Z" fill="#FBAA26"/>
<path d="M922.609 175.414H920.94V191.493H922.609V175.414Z" fill="#FBAA26"/>
<path d="M925.127 175.496V191.493C924.963 191.493 924.701 191.575 924.538 191.575H923.54V175.496H924.538C924.701 175.414 924.963 175.414 925.127 175.496Z" fill="#FBAA26"/>
<path d="M927.384 177V189.988C926.959 190.577 926.386 191.084 925.716 191.329V175.659C926.468 175.921 927.057 176.412 927.384 177Z" fill="#FBAA26"/>
<path d="M890.107 3.51677V12.644C890.107 13.3964 889.862 14.0671 889.518 14.5741C889.093 15.163 888.52 15.5719 887.85 15.9154C887.686 15.9972 887.424 16.079 887.179 16.079C887.015 16.079 886.754 16.1608 886.59 16.1608H741.503C739.655 16.1608 738.068 14.6559 737.986 12.8076C737.986 12.7258 737.986 12.644 737.986 12.644V3.51677C737.986 3.43498 737.986 3.3532 737.986 3.3532C738.068 1.50485 739.655 0 741.503 0H886.508C886.672 0 886.934 0 887.097 0.0817853C887.343 0.163571 887.522 0.163571 887.768 0.245356C888.438 0.490712 889.027 0.997782 889.436 1.58664C889.862 2.09371 890.107 2.76434 890.107 3.51677Z" fill="#FFC222"/>
<path d="M818.823 16.1608H741.16C739.491 16.1608 738.15 14.6559 738.068 12.8076C738.068 12.7258 738.068 12.644 738.068 12.644V3.51677C738.068 3.43498 738.068 3.3532 738.068 3.3532C738.15 1.50485 739.491 0 741.16 0H809.352C810.367 4.77626 812.951 11.3027 818.823 16.1608Z" fill="#E5A621"/>
<path d="M872.442 0H870.773V16.079H872.442V0Z" fill="#FBAA26"/>
<path d="M866.913 0H865.245V16.079H866.913V0Z" fill="#FBAA26"/>
<path d="M860.206 0H858.538V16.079H860.206V0Z" fill="#FBAA26"/>
<path d="M849.901 0H848.232V16.079H849.901V0Z" fill="#FBAA26"/>
<path d="M839.089 0H837.421V16.079H839.089V0Z" fill="#FBAA26"/>
<path d="M822.421 0H820.753V16.079H822.421V0Z" fill="#FBAA26"/>
<path d="M806.849 0H805.181V16.079H806.849V0Z" fill="#FBAA26"/>
<path d="M793.028 0H791.359V16.079H793.028V0Z" fill="#FBAA26"/>
<path d="M877.708 0H876.04V16.079H877.708V0Z" fill="#FBAA26"/>
<path d="M881.307 0H879.639V16.079H881.307V0Z" fill="#FBAA26"/>
<path d="M884.66 0H882.991V16.079H884.66V0Z" fill="#FBAA26"/>
<path d="M887.178 0.0812709V16.0785C887.015 16.0785 886.753 16.1603 886.59 16.1603H885.592V0.0812709H886.59C886.753 -0.000514384 887.015 0.0812709 887.178 0.0812709Z" fill="#FBAA26"/>
<path d="M889.436 1.58737V14.5749C889.011 15.1637 888.438 15.5727 887.768 15.9162V0.246094C888.52 0.49145 889.109 0.99852 889.436 1.58737Z" fill="#FBAA26"/>
<path d="M912.483 162.851V171.978C912.483 172.73 912.238 173.401 911.894 173.908C911.469 174.497 910.897 174.906 910.226 175.249C910.062 175.331 909.801 175.413 909.555 175.413C909.392 175.413 909.13 175.495 908.966 175.495H763.961C762.113 175.495 760.526 173.99 760.444 172.142C760.444 172.06 760.444 171.978 760.444 171.978V162.851C760.444 162.769 760.444 162.687 760.444 162.687C760.526 160.839 762.113 159.334 763.961 159.334H908.966C909.048 159.334 909.13 159.334 909.212 159.334C909.294 159.334 909.294 159.334 909.375 159.334C909.457 159.334 909.457 159.334 909.539 159.334H909.621C909.866 159.416 910.046 159.416 910.291 159.498H910.373C910.373 159.498 910.455 159.498 910.455 159.579C910.537 159.579 910.618 159.661 910.618 159.661C910.618 159.661 910.7 159.661 910.7 159.743C910.7 159.743 910.782 159.743 910.782 159.825C910.864 159.825 910.864 159.906 910.946 159.906C911.027 159.988 911.109 159.988 911.109 160.07C911.191 160.07 911.191 160.152 911.273 160.152L911.355 160.234C911.436 160.315 911.518 160.397 911.6 160.479L911.682 160.561L911.763 160.643C911.845 160.724 911.845 160.806 911.927 160.806C912.303 161.428 912.483 162.098 912.483 162.851Z" fill="#FFC222"/>
<path d="M841.265 175.413H763.602C761.933 175.413 760.592 173.908 760.412 172.06C760.412 171.978 760.412 171.896 760.412 171.896V162.769C760.412 162.687 760.412 162.605 760.412 162.605C760.494 160.757 761.835 159.252 763.602 159.252H831.794C831.794 159.416 831.876 159.497 831.876 159.677C832.972 164.437 835.491 170.718 841.265 175.413Z" fill="#E5A621"/>
<path d="M894.884 159.334H893.216V175.413H894.884V159.334Z" fill="#FBAA26"/>
<path d="M889.272 159.334H887.604V175.413H889.272V159.334Z" fill="#FBAA26"/>
<path d="M882.567 159.334H880.898V175.413H882.567V159.334Z" fill="#FBAA26"/>
<path d="M872.344 159.334H870.676V175.413H872.344V159.334Z" fill="#FBAA26"/>
<path d="M861.547 159.334H859.879V175.413H861.547V159.334Z" fill="#FBAA26"/>
<path d="M844.879 159.334H843.211V175.413H844.879V159.334Z" fill="#FBAA26"/>
<path d="M829.291 159.334H827.623V175.413H829.291V159.334Z" fill="#FBAA26"/>
<path d="M815.388 159.334H813.72V175.413H815.388V159.334Z" fill="#FBAA26"/>
<path d="M900.166 159.334H898.498V175.413H900.166V159.334Z" fill="#FBAA26"/>
<path d="M903.683 159.334H902.015V175.413H903.683V159.334Z" fill="#FBAA26"/>
<path d="M907.119 159.334H905.45V175.413H907.119V159.334Z" fill="#FBAA26"/>
<path d="M909.636 159.334V175.331C909.473 175.331 909.211 175.413 909.048 175.413H908.05V159.334H909.048C909.211 159.334 909.457 159.334 909.636 159.334Z" fill="#FBAA26"/>
<path d="M911.894 160.839V173.827C911.469 174.416 910.896 174.825 910.226 175.168V159.498C910.962 159.825 911.55 160.25 911.894 160.839Z" fill="#FBAA26"/>
<path d="M920.024 147.099V156.226C920.024 156.978 919.779 157.649 919.436 158.156C919.01 158.745 918.438 159.154 917.767 159.497C917.604 159.579 917.342 159.661 917.097 159.661C916.933 159.661 916.671 159.743 916.508 159.743H771.502C770.914 159.743 770.406 159.579 769.916 159.318C768.918 158.81 768.149 157.731 768.067 156.553C768.067 156.471 768.067 156.471 768.067 156.39C768.067 156.308 768.067 156.226 768.067 156.226V147.099C768.067 147.017 768.067 146.935 768.067 146.935C768.149 145.087 769.736 143.582 771.584 143.582H916.589C916.753 143.582 917.015 143.582 917.178 143.664C917.424 143.746 917.604 143.746 917.849 143.827C918.52 144.073 919.108 144.58 919.517 145.169C919.763 145.676 920.024 146.346 920.024 147.099Z" fill="#FFC222"/>
<path d="M848.806 159.743H771.142C770.635 159.743 770.145 159.579 769.719 159.318C768.803 158.81 768.133 157.731 768.051 156.553C768.051 156.471 768.051 156.471 768.051 156.39C768.051 156.308 768.051 156.226 768.051 156.226V147.099C768.051 147.017 768.051 146.935 768.051 146.935C768.133 145.087 769.474 143.582 771.24 143.582H839.433C840.431 148.195 842.95 154.558 848.478 159.334C848.478 159.416 848.642 159.579 848.806 159.743Z" fill="#E5A621"/>
<path d="M902.342 143.582H900.674V159.661H902.342V143.582Z" fill="#FBAA26"/>
<path d="M896.813 143.582H895.145V159.661H896.813V143.582Z" fill="#FBAA26"/>
<path d="M890.107 143.582H888.438V159.661H890.107V143.582Z" fill="#FBAA26"/>
<path d="M879.802 143.582H878.134V159.661H879.802V143.582Z" fill="#FBAA26"/>
<path d="M869.007 143.582H867.339V159.661H869.007V143.582Z" fill="#FBAA26"/>
<path d="M852.42 143.582H850.735V159.661H852.404L852.42 143.582Z" fill="#FBAA26"/>
<path d="M836.832 143.582H835.163V159.661H836.832V143.582Z" fill="#FBAA26"/>
<path d="M822.928 143.582H821.26V159.661H822.928V143.582Z" fill="#FBAA26"/>
<path d="M907.707 143.582H906.022V159.661H907.691L907.707 143.582Z" fill="#FBAA26"/>
<path d="M911.223 143.582H909.555V159.661H911.223V143.582Z" fill="#FBAA26"/>
<path d="M914.577 143.582H912.893V159.661H914.561L914.577 143.582Z" fill="#FBAA26"/>
<path d="M917.161 143.664V159.661C916.997 159.661 916.736 159.743 916.572 159.743H915.574V143.664H916.572C916.752 143.582 916.916 143.582 917.161 143.664Z" fill="#FBAA26"/>
<path d="M919.434 145.169V158.157C919.009 158.746 918.436 159.155 917.766 159.498V143.828C918.42 144.09 919.009 144.581 919.434 145.169Z" fill="#FBAA26"/>
<path d="M923.541 130.922V140.05C923.541 140.802 923.295 141.473 922.952 141.98C922.526 142.569 921.954 142.977 921.283 143.321C921.12 143.403 920.858 143.485 920.613 143.485C920.449 143.485 920.187 143.566 920.024 143.566H774.937C773.088 143.566 771.502 142.061 771.42 140.213C771.42 140.131 771.42 140.05 771.42 140.05V130.922C771.42 130.841 771.42 130.759 771.42 130.759C771.502 129.09 772.843 127.667 774.511 127.487C774.675 127.487 774.757 127.487 774.937 127.487H919.926C920.089 127.487 920.351 127.487 920.514 127.569C920.76 127.651 920.94 127.651 921.185 127.733C921.856 127.978 922.445 128.485 922.854 129.074C923.279 129.597 923.541 130.268 923.541 130.922Z" fill="#FFC222"/>
<path d="M852.24 143.583H774.576C772.908 143.583 771.567 142.078 771.387 140.23C771.387 140.148 771.387 140.066 771.387 140.066V130.939C771.387 130.857 771.387 130.775 771.387 130.775C771.469 129.107 772.646 127.684 774.151 127.504C774.315 127.504 774.396 127.504 774.576 127.504H842.687C843.865 132.264 846.384 138.807 852.24 143.583Z" fill="#E5A621"/>
<path d="M905.859 127.487H904.19V143.566H905.859V127.487Z" fill="#FBAA26"/>
<path d="M900.249 127.487H898.58V143.566H900.249V127.487Z" fill="#FBAA26"/>
<path d="M893.542 127.487H891.874V143.566H893.542V127.487Z" fill="#FBAA26"/>
<path d="M883.318 127.487H881.649V143.566H883.318V127.487Z" fill="#FBAA26"/>
<path d="M872.524 127.487H870.855V143.566H872.524V127.487Z" fill="#FBAA26"/>
<path d="M855.856 127.487H854.171V143.566H855.839L855.856 127.487Z" fill="#FBAA26"/>
<path d="M840.267 127.487H838.599V143.566H840.267V127.487Z" fill="#FBAA26"/>
<path d="M826.363 127.487H824.694V143.566H826.363V127.487Z" fill="#FBAA26"/>
<path d="M911.142 127.487H909.457V143.566H911.125L911.142 127.487Z" fill="#FBAA26"/>
<path d="M914.66 127.487H912.991V143.566H914.66V127.487Z" fill="#FBAA26"/>
<path d="M918.094 127.487H916.426V143.566H918.094V127.487Z" fill="#FBAA26"/>
<path d="M920.597 127.487V143.485C920.434 143.485 920.172 143.566 920.009 143.566H919.011V127.487H920.009C920.188 127.487 920.434 127.487 920.597 127.487Z" fill="#FBAA26"/>
<path d="M922.87 129.009V142.079C922.444 142.668 921.872 143.077 921.201 143.42V127.75C921.937 127.914 922.526 128.421 922.87 129.009Z" fill="#FBAA26"/>
<path d="M912.811 114.843V123.97C912.811 124.723 912.565 125.393 912.222 125.901C911.796 126.489 911.224 126.898 910.553 127.242C910.39 127.324 910.128 127.405 909.883 127.405C909.801 127.405 909.719 127.405 909.719 127.405H909.637H909.556C909.474 127.405 909.392 127.405 909.392 127.405H764.305C762.457 127.405 760.87 125.901 760.788 124.052C760.788 123.97 760.788 123.889 760.788 123.889V114.843C760.788 114.761 760.788 114.68 760.788 114.68C760.788 114.68 760.788 114.598 760.788 114.516C760.952 113.011 762.048 111.833 763.389 111.425H763.471C763.716 111.343 763.978 111.343 764.223 111.343H909.228C909.31 111.343 909.392 111.343 909.556 111.343C909.637 111.343 909.637 111.343 909.719 111.343C909.801 111.343 909.801 111.343 909.883 111.343C910.128 111.425 910.308 111.425 910.553 111.506C911.224 111.752 911.813 112.259 912.222 112.848C912.647 113.502 912.811 114.173 912.811 114.843Z" fill="#FFC222"/>
<path d="M841.609 127.487H763.945C762.277 127.487 760.936 125.982 760.756 124.134C760.756 124.052 760.756 123.97 760.756 123.97V114.843C760.756 114.761 760.756 114.68 760.756 114.68C760.756 114.68 760.756 114.598 760.756 114.516C760.919 113.011 761.852 111.752 763.193 111.425C763.275 111.425 763.275 111.425 763.357 111.425C763.52 111.425 763.684 111.343 763.945 111.343H832.138C832.138 111.425 832.138 111.425 832.138 111.425C833.152 116.184 835.737 122.727 841.609 127.487Z" fill="#E5A621"/>
<path d="M895.227 111.408H893.559V127.487H895.227V111.408Z" fill="#FBAA26"/>
<path d="M889.616 111.408H887.947V127.487H889.616V111.408Z" fill="#FBAA26"/>
<path d="M882.911 111.408H881.242V127.487H882.911V111.408Z" fill="#FBAA26"/>
<path d="M872.687 111.408H871.019V127.487H872.687V111.408Z" fill="#FBAA26"/>
<path d="M861.793 111.408H860.125V127.487H861.793V111.408Z" fill="#FBAA26"/>
<path d="M845.207 111.408H843.538V127.487H845.207V111.408Z" fill="#FBAA26"/>
<path d="M829.635 111.408H827.967V127.487H829.635V111.408Z" fill="#FBAA26"/>
<path d="M815.715 111.408H814.047V127.487H815.715V111.408Z" fill="#FBAA26"/>
<path d="M900.495 111.408H898.826V127.487H900.495V111.408Z" fill="#FBAA26"/>
<path d="M904.011 111.408H902.343V127.487H904.011V111.408Z" fill="#FBAA26"/>
<path d="M907.364 111.408H905.695V127.487H907.364V111.408Z" fill="#FBAA26"/>
<path d="M909.965 111.408V127.405C909.801 127.405 909.539 127.487 909.376 127.487H908.378V111.408H909.376C909.539 111.408 909.719 111.408 909.965 111.408Z" fill="#FBAA26"/>
<path d="M912.222 112.914V125.901C911.797 126.49 911.224 126.899 910.554 127.242V111.572C911.224 111.834 911.813 112.341 912.222 112.914Z" fill="#FBAA26"/>
<path d="M912.483 98.8451V107.972C912.483 108.725 912.238 109.395 911.895 109.903C911.469 110.491 910.897 110.998 910.226 111.244C910.063 111.326 909.899 111.326 909.719 111.407C909.637 111.407 909.637 111.407 909.556 111.407C909.392 111.407 909.13 111.489 908.967 111.489H763.961C763.798 111.489 763.634 111.489 763.536 111.489C763.438 111.489 763.372 111.489 763.372 111.489C761.786 111.244 760.608 109.821 760.526 108.218C760.526 108.136 760.526 108.054 760.526 108.054V98.9269C760.526 98.8451 760.526 98.7634 760.526 98.7634C760.608 96.915 762.195 95.4102 764.043 95.4102H909.048C909.13 95.4102 909.212 95.4102 909.294 95.4102C909.376 95.4102 909.376 95.4102 909.457 95.4102C909.539 95.4102 909.539 95.4102 909.621 95.4102H909.703C909.948 95.4919 910.128 95.4919 910.373 95.5737H910.455C910.455 95.5737 910.537 95.5737 910.537 95.6555C910.619 95.6555 910.701 95.7373 910.701 95.7373C910.782 95.7373 910.864 95.8191 910.864 95.8191C910.946 95.8191 910.946 95.9009 911.028 95.9009C911.109 95.9827 911.191 95.9827 911.191 96.0644C911.273 96.0644 911.273 96.1462 911.355 96.1462L911.437 96.228C911.518 96.3098 911.6 96.3916 911.682 96.4734L911.764 96.5552L911.846 96.6369C911.927 96.7187 911.927 96.8005 912.009 96.8005C912.303 97.5039 912.483 98.1745 912.483 98.8451Z" fill="#FFC222"/>
<path d="M841.265 111.489H763.601C763.519 111.489 763.438 111.489 763.438 111.489C763.356 111.489 763.274 111.489 763.274 111.489C761.769 111.326 760.592 109.903 760.51 108.218C760.51 108.136 760.51 108.054 760.51 108.054V98.9269C760.51 98.8451 760.51 98.7634 760.51 98.7634C760.592 96.915 761.933 95.4102 763.699 95.4102H831.81C831.81 95.5737 831.892 95.6555 831.892 95.8354C832.988 100.53 835.572 106.729 841.183 111.424C841.183 111.407 841.265 111.407 841.265 111.489Z" fill="#E5A621"/>
<path d="M894.884 95.3301H893.216V111.491H894.884V95.3301Z" fill="#FBAA26"/>
<path d="M889.272 95.3301H887.604V111.491H889.272V95.3301Z" fill="#FBAA26"/>
<path d="M882.567 95.3301H880.898V111.491H882.567V95.3301Z" fill="#FBAA26"/>
<path d="M872.344 95.3301H870.676V111.491H872.344V95.3301Z" fill="#FBAA26"/>
<path d="M861.547 95.3301H859.879V111.491H861.547V95.3301Z" fill="#FBAA26"/>
<path d="M844.879 95.3301H843.211V111.491H844.879V95.3301Z" fill="#FBAA26"/>
<path d="M829.291 95.3301H827.623V111.491H829.291V95.3301Z" fill="#FBAA26"/>
<path d="M815.388 95.3301H813.72V111.491H815.388V95.3301Z" fill="#FBAA26"/>
<path d="M900.166 95.3301H898.498V111.491H900.166V95.3301Z" fill="#FBAA26"/>
<path d="M903.683 95.3301H902.015V111.491H903.683V95.3301Z" fill="#FBAA26"/>
<path d="M907.119 95.3301H905.45V111.491H907.119V95.3301Z" fill="#FBAA26"/>
<path d="M909.636 95.4113V111.409C909.473 111.409 909.211 111.49 909.048 111.49H908.05V95.4113H909.048C909.211 95.3296 909.457 95.4113 909.636 95.4113Z" fill="#FBAA26"/>
<path d="M911.894 96.9145V109.902C911.469 110.491 910.896 110.998 910.226 111.243V95.5732C910.962 95.835 911.55 96.3257 911.894 96.9145Z" fill="#FBAA26"/>
<path d="M920.024 83.1767V92.2221C920.024 92.9746 919.779 93.6452 919.436 94.1523C919.01 94.7411 918.438 95.15 917.767 95.4935C917.604 95.5753 917.342 95.6571 917.097 95.6571C916.933 95.6571 916.671 95.7389 916.508 95.7389H771.502C770.914 95.7389 770.406 95.5753 769.916 95.3136C768.918 94.8065 768.149 93.727 768.067 92.5493C768.067 92.4675 768.067 92.4675 768.067 92.3857C768.067 92.3039 768.067 92.2221 768.067 92.2221V83.0949C768.067 83.0131 768.067 82.9313 768.067 82.9313C768.149 81.083 769.736 79.5781 771.584 79.5781H916.589C916.753 79.5781 917.015 79.5781 917.178 79.6599C917.424 79.7417 917.604 79.7417 917.849 79.8235C918.52 80.0688 919.108 80.5759 919.517 81.1648C919.763 81.7536 920.024 82.4243 920.024 83.1767Z" fill="#FFC222"/>
<path d="M848.806 95.7389H771.142C770.635 95.7389 770.145 95.5753 769.719 95.3136C768.803 94.8065 768.133 93.727 768.051 92.5493C768.051 92.4675 768.051 92.4675 768.051 92.3857C768.051 92.3039 768.051 92.2221 768.051 92.2221V83.0949C768.051 83.0131 768.051 82.9313 768.051 82.9313C768.133 81.083 769.474 79.5781 771.24 79.5781H839.433C840.431 84.1908 842.95 90.5537 848.478 95.33C848.478 95.4935 848.642 95.5753 848.806 95.7389Z" fill="#E5A621"/>
<path d="M902.342 79.6592H900.674V95.7382H902.342V79.6592Z" fill="#FBAA26"/>
<path d="M896.813 79.6592H895.145V95.7382H896.813V79.6592Z" fill="#FBAA26"/>
<path d="M890.107 79.6592H888.438V95.7382H890.107V79.6592Z" fill="#FBAA26"/>
<path d="M879.802 79.6592H878.134V95.7382H879.802V79.6592Z" fill="#FBAA26"/>
<path d="M869.007 79.6592H867.339V95.7382H869.007V79.6592Z" fill="#FBAA26"/>
<path d="M852.42 79.6592H850.735V95.7382H852.404L852.42 79.6592Z" fill="#FBAA26"/>
<path d="M836.832 79.6592H835.163V95.7382H836.832V79.6592Z" fill="#FBAA26"/>
<path d="M822.928 79.6592H821.26V95.7382H822.928V79.6592Z" fill="#FBAA26"/>
<path d="M907.707 79.6592H906.022V95.7382H907.691L907.707 79.6592Z" fill="#FBAA26"/>
<path d="M911.223 79.6592H909.555V95.7382H911.223V79.6592Z" fill="#FBAA26"/>
<path d="M914.577 79.6592H912.893V95.7382H914.561L914.577 79.6592Z" fill="#FBAA26"/>
<path d="M917.161 79.6592V95.6564C916.997 95.6564 916.736 95.7382 916.572 95.7382H915.574V79.6592H916.572C916.752 79.6592 916.916 79.6592 917.161 79.6592Z" fill="#FBAA26"/>
<path d="M919.434 81.1635V94.1511C919.009 94.7399 918.436 95.1488 917.766 95.4923V79.8223C918.42 80.1658 919.009 80.5747 919.434 81.1635Z" fill="#FBAA26"/>
<path d="M931.916 67.016V76.1433C931.916 76.8957 931.67 77.5663 931.327 78.0734C930.901 78.6623 930.329 79.0712 929.658 79.4147C929.495 79.4965 929.233 79.5783 928.988 79.5783C928.824 79.5783 928.562 79.66 928.399 79.66H783.312C781.463 79.66 779.877 78.1552 779.795 76.3068C779.795 76.2251 779.795 76.1433 779.795 76.1433V67.016C779.795 66.9343 779.795 66.8525 779.795 66.8525C779.877 65.184 781.218 63.761 782.886 63.5811C783.05 63.5811 783.132 63.5811 783.312 63.5811H928.317C928.481 63.5811 928.742 63.5811 928.906 63.6628C929.151 63.7446 929.331 63.7446 929.577 63.8264C930.247 64.0718 930.836 64.5788 931.245 65.1677C931.654 65.593 931.916 66.2636 931.916 67.016Z" fill="#FFC222"/>
<path d="M860.616 79.66H782.952C781.284 79.66 779.943 78.1552 779.763 76.3068C779.763 76.2251 779.763 76.1433 779.763 76.1433V67.016C779.763 66.9343 779.763 66.8525 779.763 66.8525C779.844 65.184 781.022 63.761 782.527 63.5811C782.691 63.5811 782.772 63.5811 782.952 63.5811H851.063C852.241 68.2755 854.76 74.802 860.616 79.66Z" fill="#E5A621"/>
<path d="M914.234 63.499H912.565V79.6598H914.234V63.499Z" fill="#FBAA26"/>
<path d="M908.623 63.499H906.955V79.6598H908.623V63.499Z" fill="#FBAA26"/>
<path d="M901.917 63.499H900.249V79.6598H901.917V63.499Z" fill="#FBAA26"/>
<path d="M891.709 63.499H890.041V79.6598H891.709V63.499Z" fill="#FBAA26"/>
<path d="M880.899 63.499H879.23V79.6598H880.899V63.499Z" fill="#FBAA26"/>
<path d="M864.231 63.499H862.562V79.6598H864.231V63.499Z" fill="#FBAA26"/>
<path d="M848.642 63.499H846.974V79.6598H848.642V63.499Z" fill="#FBAA26"/>
<path d="M834.738 63.499H833.069V79.6598H834.738V63.499Z" fill="#FBAA26"/>
<path d="M919.517 63.499H917.849V79.6598H919.517V63.499Z" fill="#FBAA26"/>
<path d="M923.035 63.499H921.366V79.6598H923.035V63.499Z" fill="#FBAA26"/>
<path d="M926.468 63.499H924.8V79.6598H926.468V63.499Z" fill="#FBAA26"/>
<path d="M928.987 63.5799V79.5771C928.823 79.5771 928.562 79.6589 928.398 79.6589H927.4V63.5799H928.398C928.562 63.4981 928.807 63.4981 928.987 63.5799Z" fill="#FBAA26"/>
<path d="M931.246 65.0844V78.0719C930.82 78.6608 930.248 79.0697 929.577 79.4132V63.7432C930.33 63.9885 930.902 64.4956 931.246 65.0844Z" fill="#FBAA26"/>
<path d="M912.811 50.9364V60.0637C912.811 60.8161 912.565 61.4867 912.222 61.9938C911.796 62.5827 911.224 62.9916 910.553 63.3351C910.39 63.4169 910.128 63.4987 909.883 63.4987C909.801 63.4987 909.719 63.4987 909.719 63.4987C909.637 63.4987 909.637 63.4987 909.556 63.4987H909.474C909.392 63.4987 909.392 63.4987 909.31 63.4987H764.305C762.457 63.4987 760.87 61.9938 760.788 60.1455C760.788 60.0637 760.788 59.9819 760.788 59.9819V50.8547C760.788 50.7729 760.788 50.6911 760.788 50.6911C760.87 48.8427 762.457 47.3379 764.305 47.3379H909.294C909.376 47.3379 909.457 47.3379 909.457 47.3379C909.621 47.3379 909.703 47.3379 909.883 47.4197C910.128 47.5015 910.308 47.5015 910.553 47.5832C910.635 47.665 910.717 47.665 910.88 47.7468C910.962 47.7468 911.044 47.8286 911.044 47.8286C911.126 47.8286 911.208 47.9104 911.208 47.9104C911.289 47.9104 911.289 47.9922 911.371 47.9922C911.535 48.074 911.617 48.1557 911.698 48.3193L911.78 48.4011L911.862 48.4829C911.862 48.5647 911.944 48.5647 911.944 48.6465C912.025 48.7282 912.025 48.81 912.107 48.81C912.647 49.497 912.811 50.1677 912.811 50.9364Z" fill="#FFC222"/>
<path d="M841.609 63.4987H763.945C762.277 63.4987 760.936 61.9938 760.756 60.1455C760.756 60.0637 760.756 59.9819 760.756 59.9819V50.8547C760.756 50.7729 760.756 50.6911 760.756 50.6911C760.838 48.8427 762.179 47.3379 763.945 47.3379H832.138C832.138 47.5015 832.22 47.5832 832.22 47.7632C833.316 52.5231 835.835 58.8042 841.609 63.4987Z" fill="#E5A621"/>
<path d="M895.227 47.4033H893.559V63.4987H895.227V47.4033Z" fill="#FBAA26"/>
<path d="M889.616 47.4033H887.947V63.4987H889.616V47.4033Z" fill="#FBAA26"/>
<path d="M882.911 47.4033H881.242V63.4987H882.911V47.4033Z" fill="#FBAA26"/>
<path d="M872.687 47.4033H871.019V63.4987H872.687V47.4033Z" fill="#FBAA26"/>
<path d="M861.793 47.4033H860.125V63.4987H861.793V47.4033Z" fill="#FBAA26"/>
<path d="M845.207 47.4033H843.538V63.4987H845.207V47.4033Z" fill="#FBAA26"/>
<path d="M829.635 47.4033H827.967V63.4987H829.635V47.4033Z" fill="#FBAA26"/>
<path d="M815.715 47.4033H814.047V63.4987H815.715V47.4033Z" fill="#FBAA26"/>
<path d="M900.495 47.4033H898.826V63.4987H900.495V47.4033Z" fill="#FBAA26"/>
<path d="M904.011 47.4033H902.343V63.4987H904.011V47.4033Z" fill="#FBAA26"/>
<path d="M907.364 47.4033H905.695V63.4987H907.364V47.4033Z" fill="#FBAA26"/>
<path d="M909.965 47.5013V63.4985C909.801 63.4985 909.539 63.5803 909.376 63.5803H908.378V47.5013H909.376C909.539 47.4032 909.719 47.4032 909.965 47.5013Z" fill="#FBAA26"/>
<path d="M912.222 48.9236V61.9928C911.797 62.5817 911.224 62.9906 910.554 63.3341V47.6641C911.224 47.9094 911.813 48.3347 912.222 48.9236Z" fill="#FBAA26"/>
<path d="M923.541 35.1847V44.312C923.541 45.0644 923.295 45.735 922.952 46.2421C922.526 46.831 921.954 47.2399 921.283 47.5834C921.12 47.6652 920.858 47.747 920.613 47.747C920.449 47.747 920.187 47.8287 920.024 47.8287H774.937C774.348 47.8287 773.841 47.6652 773.35 47.4034C772.352 46.8964 771.502 45.8168 771.42 44.5573C771.42 44.4755 771.42 44.4755 771.42 44.3938C771.42 44.312 771.42 44.2302 771.42 44.2302V35.103C771.42 35.0212 771.42 34.9394 771.42 34.9394C771.502 33.271 772.843 31.8479 774.511 31.668C774.675 31.668 774.757 31.668 774.937 31.668H919.926C920.089 31.668 920.351 31.668 920.514 31.7498C920.76 31.8315 920.94 31.8315 921.185 31.9133C921.856 32.1587 922.445 32.6657 922.854 33.2546C923.279 33.7617 923.541 34.4323 923.541 35.1847Z" fill="#FFC222"/>
<path d="M852.239 47.7457H774.576C774.069 47.7457 773.578 47.5822 773.153 47.3204C772.237 46.8134 771.566 45.7338 771.484 44.4743C771.484 44.3925 771.484 44.3925 771.484 44.3107C771.484 44.229 771.484 44.1472 771.484 44.1472V35.0199C771.484 34.9382 771.484 34.8564 771.484 34.8564C771.566 33.188 772.744 31.7649 774.249 31.585C774.412 31.585 774.494 31.585 774.674 31.585H842.867C843.962 36.1977 846.383 42.5605 851.994 47.3368C851.994 47.5822 852.076 47.6639 852.239 47.7457Z" fill="#E5A621"/>
<path d="M905.859 31.668H904.19V47.747H905.859V31.668Z" fill="#FBAA26"/>
<path d="M900.249 31.668H898.58V47.747H900.249V31.668Z" fill="#FBAA26"/>
<path d="M893.542 31.668H891.874V47.747H893.542V31.668Z" fill="#FBAA26"/>
<path d="M883.318 31.668H881.649V47.747H883.318V31.668Z" fill="#FBAA26"/>
<path d="M872.524 31.668H870.855V47.747H872.524V31.668Z" fill="#FBAA26"/>
<path d="M855.856 31.668H854.171V47.747H855.839L855.856 31.668Z" fill="#FBAA26"/>
<path d="M840.267 31.668H838.599V47.747H840.267V31.668Z" fill="#FBAA26"/>
<path d="M826.363 31.668H824.694V47.747H826.363V31.668Z" fill="#FBAA26"/>
<path d="M911.142 31.668H909.457V47.747H911.125L911.142 31.668Z" fill="#FBAA26"/>
<path d="M914.66 31.668H912.991V47.747H914.66V31.668Z" fill="#FBAA26"/>
<path d="M918.094 31.668H916.426V47.747H918.094V31.668Z" fill="#FBAA26"/>
<path d="M920.597 31.7498V47.747C920.434 47.747 920.172 47.8288 920.009 47.8288H919.011V31.7498H920.009C920.188 31.668 920.434 31.668 920.597 31.7498Z" fill="#FBAA26"/>
<path d="M922.87 33.2534V46.2409C922.444 46.8297 921.872 47.2387 921.201 47.5822V31.9121C921.937 32.1575 922.526 32.5827 922.87 33.2534Z" fill="#FBAA26"/>
<path d="M912.811 19.0888V28.216C912.811 28.9684 912.565 29.6391 912.222 30.1462C911.796 30.735 911.224 31.1439 910.553 31.4874C910.39 31.5692 910.128 31.651 909.883 31.651C909.801 31.651 909.719 31.651 909.719 31.651H909.637H909.556C909.474 31.651 909.392 31.651 909.392 31.651H764.305C762.457 31.651 760.87 30.1462 760.788 28.2978C760.788 28.216 760.788 28.1342 760.788 28.1342V19.007C760.788 18.9252 760.788 18.8434 760.788 18.8434C760.87 16.9951 762.457 15.4902 764.305 15.4902H909.294C909.457 15.4902 909.719 15.4902 909.883 15.572C910.128 15.6538 910.308 15.6538 910.553 15.7356C911.224 15.9809 911.813 16.488 912.222 17.0769C912.647 17.6657 912.811 18.3364 912.811 19.0888Z" fill="#FFC222"/>
<path d="M841.609 31.6674H763.945C762.277 31.6674 760.936 30.1625 760.756 28.3142C760.756 28.2324 760.756 28.1506 760.756 28.1506V19.007C760.756 18.9252 760.756 18.8434 760.756 18.8434C760.838 16.9951 762.179 15.4902 763.945 15.4902H832.138C833.152 20.3483 835.737 26.8911 841.609 31.6674Z" fill="#E5A621"/>
<path d="M895.227 15.5713H893.559V31.6503H895.227V15.5713Z" fill="#FBAA26"/>
<path d="M889.616 15.5713H887.947V31.6503H889.616V15.5713Z" fill="#FBAA26"/>
<path d="M882.911 15.5713H881.242V31.6503H882.911V15.5713Z" fill="#FBAA26"/>
<path d="M872.687 15.5713H871.019V31.6503H872.687V15.5713Z" fill="#FBAA26"/>
<path d="M861.793 15.5713H860.125V31.6503H861.793V15.5713Z" fill="#FBAA26"/>
<path d="M845.207 15.5713H843.538V31.6503H845.207V15.5713Z" fill="#FBAA26"/>
<path d="M829.635 15.5713H827.967V31.6503H829.635V15.5713Z" fill="#FBAA26"/>
<path d="M815.715 15.5713H814.047V31.6503H815.715V15.5713Z" fill="#FBAA26"/>
<path d="M900.495 15.5713H898.826V31.6503H900.495V15.5713Z" fill="#FBAA26"/>
<path d="M904.011 15.5713H902.343V31.6503H904.011V15.5713Z" fill="#FBAA26"/>
<path d="M907.364 15.5713H905.695V31.6503H907.364V15.5713Z" fill="#FBAA26"/>
<path d="M909.965 15.5713V31.5685C909.801 31.5685 909.539 31.6503 909.376 31.6503H908.378V15.5713H909.376C909.539 15.5713 909.719 15.5713 909.965 15.5713Z" fill="#FBAA26"/>
<path d="M912.222 17.0766V30.0641C911.797 30.653 911.224 31.0619 910.554 31.4054V15.7354C911.224 16.0788 911.813 16.5041 912.222 17.0766Z" fill="#FBAA26"/>
<g opacity="0.59">
<path opacity="0.59" d="M856.444 150.924C856.101 150.989 847.791 152.396 842.557 148.061C839.924 145.886 838.566 142.68 838.517 138.574C838.353 124.295 856.82 109.884 840.218 96.2914C831.451 89.1107 819.346 87.2623 810.726 86.9842C800.323 86.6407 793.519 88.1456 783.23 90.0757C782.379 90.2229 781.562 89.6668 781.414 88.8162C781.267 87.982 781.791 87.1969 782.608 87.0006C782.625 87.0006 782.641 86.9842 782.674 86.9842C792.194 85.2013 809.205 81.2593 826.74 86.15C832.808 87.8348 838.01 90.4356 842.197 93.8706C860.844 109.148 841.494 125.538 841.641 138.542C841.674 141.699 842.655 144.087 844.553 145.657C848.675 149.076 855.823 147.849 855.904 147.849C856.755 147.702 857.573 148.258 857.72 149.108C857.851 149.975 857.278 150.777 856.444 150.924Z" fill="#C27A1D"/>
</g>
<g opacity="0.59">
<path opacity="0.59" d="M829.439 71.9531C822.079 94.9021 847.219 98.1735 854.155 109.165C855.84 111.832 856.314 114.367 855.578 116.722C853.975 121.842 847.301 124.688 847.236 124.721C846.434 125.064 846.058 125.98 846.402 126.766C846.745 127.567 847.661 127.943 848.446 127.6C848.773 127.469 856.527 124.132 858.555 117.655C859.585 114.383 858.997 110.965 856.805 107.497C849.199 95.4255 825.874 93.3318 832.433 72.9018" fill="#C27A1D"/>
</g>
<path d="M860.925 150.927C860.581 150.992 852.272 152.399 847.038 148.064C844.404 145.889 843.046 142.683 842.997 138.577C842.834 124.298 861.301 109.887 844.698 96.2943C835.931 89.1136 823.827 87.2652 815.207 86.9872C804.804 86.6437 797.999 88.1485 787.711 90.0787C786.86 90.2259 786.042 89.6697 785.895 88.8192C785.748 87.9849 786.271 87.1998 787.089 87.0035C787.105 87.0035 787.122 86.9872 787.154 86.9872C796.674 85.2042 813.686 81.2622 831.22 86.153C837.289 87.8377 842.49 90.4385 846.678 93.8735C865.325 109.151 845.974 125.541 846.122 138.545C846.154 141.702 847.136 144.09 849.033 145.66C853.155 149.079 860.303 147.852 860.385 147.852C861.235 147.705 862.053 148.261 862.201 149.111C862.331 149.978 861.759 150.78 860.925 150.927Z" fill="#355389"/>
<path d="M833.92 71.9531C826.559 94.9021 851.7 98.1735 858.635 109.165C860.32 111.832 860.794 114.367 860.058 116.722C858.455 121.842 851.782 124.688 851.716 124.721C850.915 125.064 850.539 125.98 850.882 126.766C851.226 127.567 852.142 127.943 852.927 127.6C853.254 127.469 861.007 124.132 863.035 117.655C864.066 114.383 863.477 110.965 861.285 107.497C853.679 95.4255 830.354 93.3318 836.913 72.9018" fill="#355389"/>
<path d="M753.852 191.459C804.706 191.459 846.008 150.141 846.008 99.3031C846.008 48.4654 804.69 7.14746 753.852 7.14746C703.014 7.14746 661.696 48.4654 661.696 99.3031C661.696 150.141 702.998 191.459 753.852 191.459Z" fill="#A57213"/>
<path d="M745.903 191.459C796.757 191.459 838.058 150.141 838.058 99.3031C838.058 48.4654 796.757 7.14746 745.903 7.14746C695.049 7.14746 653.747 48.4654 653.747 99.3031C653.747 150.141 695.065 191.459 745.903 191.459Z" fill="#FFCF1D"/>
<path d="M746.442 180.468C790.541 180.468 826.281 144.711 826.281 100.629C826.281 56.5466 790.525 20.9209 746.442 20.9209C702.344 20.9209 666.604 56.6774 666.604 100.629C666.718 144.727 702.344 180.468 746.442 180.468Z" fill="#FDBB24"/>
<path d="M745.902 184.312C734.649 184.312 723.526 182.186 713.188 177.688C703.259 173.451 694.247 167.497 686.444 159.678C678.756 151.991 672.672 142.994 668.435 132.935C664.068 122.613 661.811 111.621 661.811 100.221C661.811 88.9669 663.937 77.9749 668.435 67.5064C672.672 57.5777 678.626 48.565 686.444 40.7626C694.132 33.0748 703.128 26.99 713.188 22.7535C723.509 18.3862 734.501 16.1289 745.902 16.1289C757.303 16.1289 768.279 18.2553 778.616 22.7535C788.545 26.99 797.558 32.944 805.36 40.7626C813.179 48.5813 819.133 57.4468 823.369 67.5064C827.737 77.8277 829.994 88.8197 829.994 100.221C829.994 111.474 827.867 122.597 823.369 132.935C819.133 142.863 813.179 151.876 805.36 159.678C797.541 167.497 788.676 173.451 778.616 177.688C768.148 182.071 757.287 184.312 745.902 184.312ZM745.902 21.5758C724.851 21.5758 704.993 29.7871 690.026 44.7538C675.06 59.7205 666.848 79.5779 666.848 100.629C666.848 121.681 675.06 141.538 690.026 156.505C704.993 171.472 724.851 179.683 745.902 179.683C766.954 179.683 786.811 171.472 801.778 156.505C816.745 141.538 824.956 121.681 824.956 100.629C824.956 79.5779 816.745 59.7205 801.778 44.7538C786.811 29.7871 766.954 21.5758 745.902 21.5758Z" fill="#C27A1D"/>
<path d="M776.228 127.652L769.473 126.458L772.253 111.753L779.401 113.078C782.836 113.732 786.288 111.36 786.811 107.909C787.465 104.327 785.224 101.022 781.773 100.368L774.625 99.0433L775.427 94.4142C775.688 92.6967 775.296 90.9792 774.363 89.6543C773.431 88.3294 771.975 87.2662 770.258 87.0045C766.823 86.3502 763.502 88.5911 762.848 92.0425L762.046 96.8024L734.632 91.7644C723.378 89.638 715.691 78.6624 717.948 66.9998C720.074 55.4844 731.05 47.7966 742.451 49.923L769.865 54.961L767.084 69.9277L739.67 64.8897C736.235 64.2355 732.784 66.6072 732.26 70.0586C731.606 73.6408 733.847 76.9449 737.298 77.5992L771.059 83.8149C774.494 84.4691 777.684 82.2282 778.338 78.7769L778.469 78.2535L783.638 50.5773C784.292 47.1423 782.051 43.9527 778.6 43.2984L744.839 36.9355C726.568 33.5005 708.821 45.8011 705.386 64.4808C701.803 83.5531 714.382 101.022 732.26 104.343L759.675 109.381L756.894 123.939L729.48 118.901C726.045 118.246 722.855 120.487 722.201 123.939L722.07 124.462L716.901 152.138C716.247 155.573 718.488 158.763 721.939 159.417L755.7 165.78C759.135 166.434 762.455 164.193 763.11 160.742C763.633 158.223 764.304 154.788 765.236 149.881L767.215 139.412L773.971 140.607C777.406 141.261 780.857 138.889 781.381 135.438C781.92 131.61 779.663 128.306 776.228 127.652ZM751.856 151.615L730.804 147.64L733.585 132.673L754.637 136.648L751.856 151.615Z" fill="#C88A1D"/>
<path opacity="0.59" d="M653.829 95.3297L837.993 95.755L837.731 91.3877H654.091L653.829 95.3297Z" fill="#C27A1D"/>
<path d="M230.491 122.924C230.491 122.924 243.593 135.421 244.019 137.826C244.444 140.23 246.897 154.346 250.856 159.008C254.814 163.67 266.64 184.459 266.215 186.291C265.79 188.123 266.738 189.628 266.738 189.628L268.325 191.15C268.325 191.15 282.572 185.457 282.572 184.476C282.572 183.494 273.543 185.768 271.629 182.742C268.979 178.587 254.683 139.51 254.683 139.51L243.969 119.489L230.491 122.924Z" fill="#F7A491"/>
<path d="M265.823 185.244C264.825 185.375 266.314 190.233 266.674 191.231C267.083 192.36 268.244 192.131 268.424 192.147C268.882 192.196 282.606 185.931 284.879 183.658C285.092 183.445 285.239 182.905 285.223 182.742C285.043 181.09 275.163 181.908 272.824 183.396C271.286 184.345 270.289 184.672 265.823 185.244Z" fill="#B75742"/>
<path d="M226.075 86.8896L215.182 90.5863L228.758 113.617L225.487 118.312C225.487 118.312 244.444 143.321 244.902 146.135C245.9 152.4 261.783 179.274 261.783 179.274C261.783 179.274 264.662 179.062 266.265 178.358C268.98 177.164 269.144 176.346 269.144 176.346C269.144 176.346 259.673 148.196 254.749 137.924C251.363 130.841 241.729 115.056 234.712 102.87C229.527 93.9232 226.075 86.8896 226.075 86.8896Z" fill="#3C8F7C"/>
<path d="M219.287 123.938C219.287 123.938 228.365 137.188 228.774 139.592C229.199 141.997 231.653 156.113 235.611 160.774C239.57 165.436 251.396 186.226 250.971 188.058C250.545 189.89 251.494 191.395 251.494 191.395C251.494 191.395 266.51 192.671 266.51 191.673C266.51 190.692 258.037 188.32 256.107 185.294C253.457 181.139 239.423 141.277 239.423 141.277L231.931 120.929L219.287 123.938Z" fill="#F7A491"/>
<path d="M250.35 185.883C249.401 185.572 248.633 190.594 248.518 191.657C248.387 192.851 249.549 193.145 249.696 193.244C250.088 193.489 265.17 193.783 268.196 192.704C268.49 192.606 268.834 192.18 268.899 192.017C269.439 190.447 260.181 186.913 257.433 187.241C255.666 187.437 254.636 187.306 250.35 185.883Z" fill="#F47458"/>
<path d="M228.89 89.8838L228.382 112.915L241.01 144.533L254.112 178.85C254.112 178.85 251.855 180.175 249.974 180.878C248.6 181.385 245.983 182.056 246.163 181.958C246.163 181.958 232.046 158.632 230.1 152.221C229.282 149.505 208.901 121.387 206.709 113.193C205.204 107.549 209.866 90.7834 209.866 90.7834L228.89 89.8838Z" fill="#50BFA5"/>
<path d="M228.168 60.0488L243.429 69.6341L264.857 86.4982C264.857 86.4982 265.74 86.5145 266.231 86.5636C266.967 86.629 269.372 87.0543 269.731 87.316C270.435 87.7904 271.776 91.8142 271.776 91.8142L265.037 93.9079L261.177 91.4217L260.768 89.0008L238.064 76.1932L223.997 67.6221L228.168 60.0488Z" fill="#F7A491"/>
<path d="M260.866 89.6372L261.128 90.0952L269.094 90.5041L269.208 89.1792C265.708 89.1301 266.035 88.2959 266.035 88.2959C264.955 88.7703 262.387 89.3591 260.866 89.6372Z" fill="#F47458"/>
<path d="M205.302 28.1033C201.949 28.7249 199.855 26.5167 196.927 24.7338C194.964 23.5397 191.333 24.8483 189.468 26.6966C184.741 31.3911 183.334 25.9278 178.1 24.652C162.953 20.9716 163.461 43.2827 169.676 50.398C172.899 54.0783 177.724 56.5646 182.778 57.3007C192.985 58.7891 189.746 53.375 193.41 52.0337C196.502 50.9051 198.857 54.2746 204.239 50.9541C210.062 47.3556 214.069 44.902 214.789 40.9763C216.016 34.4498 210.52 27.1546 205.302 28.1033Z" fill="#F47458"/>
<path d="M208.818 51.6909C208.818 51.6909 210.438 51.3965 210.994 51.3965C212.351 51.4128 215.099 52.0017 216.326 52.5088C220.514 54.259 230.704 60.491 230.704 60.491C230.704 60.491 228.938 63.2717 227.662 65.0546C226.059 67.2955 224.897 69.8145 224.897 69.8145C224.897 69.8145 219.908 65.987 215.459 62.2739C209.947 57.6612 208.818 51.6909 208.818 51.6909Z" fill="#F7CC7F"/>
<path d="M225.388 79.0235C223.343 71.5647 221.871 62.1594 221.495 61.0471C220.873 59.2642 213.12 51.102 210.683 51.3964C207.902 51.7399 202.701 53.2611 202.701 53.2611C202.701 53.2611 199.904 54.1608 196.796 57.056L200.378 74.0182C200.378 74.0182 208.524 84.2414 208.704 87.2675C208.884 90.2935 207.592 97.5233 207.592 97.5233C207.592 97.5233 214.282 101.236 224.816 97.4416C229.052 95.9203 230.524 94.5463 230.524 94.5463C230.524 94.5463 226.648 83.5871 225.388 79.0235Z" fill="#FAE0B2"/>
<path d="M204.239 44.9511C204.239 44.9511 204.353 46.0307 204.419 47.4047C204.517 49.0567 204.353 51.772 204.124 52.8843C203.732 54.9126 207.052 60.9483 211.403 61.3736C215.771 61.7989 210.291 53.0642 210.062 51.0196C209.833 48.975 210.324 42.792 210.324 42.792L204.239 44.9511Z" fill="#F7A491"/>
<path d="M210.143 45.9164C210.241 44.2153 210.339 42.8086 210.339 42.8086L204.238 44.9677C204.238 44.9677 204.353 46.0473 204.418 47.4049C206.937 48.141 208.884 47.3722 210.143 45.9164Z" fill="#F47458"/>
<path d="M203.453 30.4906C203.453 30.4906 201.081 31.5211 200.002 34.1218C198.922 36.7226 199.2 43.7398 204.876 45.948C207.804 47.093 210.029 46.2424 211.386 44.5576C212.662 42.971 212.302 40.223 211.926 38.0802C211.125 33.6802 209.898 28.4459 203.453 30.4906Z" fill="#F7A491"/>
<path d="M201.115 40.223C201.704 41.2862 201.589 42.4802 200.853 42.8728C200.117 43.2654 199.054 42.7256 198.465 41.646C197.876 40.5828 197.99 39.3887 198.727 38.9962C199.463 38.6036 200.526 39.1597 201.115 40.223Z" fill="#F7A491"/>
<path d="M210.749 37.0164C210.52 35.8714 210.88 34.8409 211.55 34.71C212.221 34.5792 212.957 35.397 213.186 36.5257C213.415 37.6707 213.055 38.7012 212.384 38.832C211.697 38.9792 210.978 38.1614 210.749 37.0164Z" fill="#F7A491"/>
<path d="M265.872 88.1499L269.16 89.6057C269.16 89.6057 270.19 91.912 271.237 91.7975C272.284 91.683 271.139 89.5402 271.139 89.5402L269.749 87.3975L265.872 88.1499Z" fill="#F7A491"/>
<path d="M268.914 92.8776C268.914 92.8776 267.851 89.2136 266.853 89.2463C265.856 89.2954 267.59 92.3051 267.181 92.5831C266.772 92.8612 266.592 89.3445 265.856 89.2954C265.12 89.2463 266.036 92.8121 265.905 92.8612C265.774 92.9103 264.94 89.9824 264.22 89.8515C263.484 89.7207 264.498 92.0434 264.4 92.3705C264.302 92.6976 263.075 89.9987 262.748 90.4567C262.421 90.9147 263.157 92.8449 263.157 92.8449C263.157 92.8449 263.419 93.3683 263.664 93.63C263.844 93.8099 264.514 93.9735 265.169 94.0389C265.839 94.1044 268.669 93.63 268.914 92.8776Z" fill="#F7A491"/>
<path d="M175.041 89.1796C175.074 89.425 172.162 90.7335 172.08 90.3246C171.999 89.9157 172.015 89.2614 172.489 89.1305C172.964 88.9997 173.078 88.8034 173.078 88.8034C173.078 88.8034 171.001 88.9997 170.298 88.6071C169.594 88.2145 168.973 88.1982 168.973 88.1982L165.57 86.1208C165.57 86.1208 166.944 85.3848 167.975 85.3848C168.744 85.3848 171.573 86.1208 172.08 86.3662C172.293 86.4643 173.356 87.1023 173.978 87.5766C174.812 88.1982 175.025 89.0324 175.041 89.1796Z" fill="#F8A492"/>
<path d="M4.37195 133.754C3.4396 133.754 2.47453 133.721 1.44403 133.639C0.577109 133.574 -0.0608146 132.822 0.00461366 131.955C0.0700419 131.088 0.822464 130.45 1.68939 130.515C13.9899 131.464 17.1959 126.622 21.5632 115.336C25.5216 105.047 18.2427 80.0211 18.1609 79.7757C17.9483 79.056 18.2918 78.2709 18.9624 77.9274L53.4267 60.7034C53.9011 60.458 54.4736 60.4907 54.9316 60.7688L100.061 88.1505L139.449 88.9684L227.368 89.6063L834.034 89.5409C834.051 89.5409 834.051 89.5409 834.067 89.5409L847.611 89.8353C848.478 89.8516 849.165 90.5714 849.148 91.4383C849.132 92.2888 848.429 92.9758 847.578 92.9758C847.562 92.9758 847.562 92.9758 847.545 92.9758L834.018 92.6814L227.368 92.7305L139.416 92.0926H139.399L99.57 91.2747C99.2919 91.2747 99.0302 91.1929 98.7849 91.0457L54.032 63.893L21.4978 80.1519C22.9863 85.5661 28.3023 106.487 24.4421 116.465C20.4673 126.802 16.787 133.754 4.37195 133.754Z" fill="#355389"/>
<path d="M653.747 98.5355L845.877 92.6143C845.893 92.6143 845.893 92.6143 845.926 92.6143L845.959 95.7548L653.862 101.66" fill="#355389"/>
<path d="M102.58 31.5866C101.517 31.5539 100.682 30.6706 100.732 29.6074C100.764 28.5605 101.664 27.7426 102.727 27.7754C103.79 27.8081 104.625 28.6914 104.575 29.7546C104.526 30.8014 103.643 31.6193 102.58 31.5866Z" fill="#07345A"/>
<path d="M117.71 91.634C113.539 91.0451 92.2257 88.886 91.3425 87.1685C90.3447 85.2057 94.6139 64.6612 94.6793 64.8084L104.902 69.6337C104.902 69.6337 100.666 80.822 101.549 82.016C101.893 82.4904 118.168 86.3343 120.294 87.1031C120.294 87.1031 124.645 86.0235 126.019 86.5633C127.377 87.1031 127.181 87.9864 127.181 87.9864L125.954 88.0354C125.234 88.0681 124.793 88.7878 125.103 89.3931C125.578 90.309 126.641 91.3559 129.045 91.2578C129.045 91.2578 128.26 92.7953 127.59 92.9262C126.935 93.057 127.197 93.1715 126.445 93.466C125.692 93.7604 124.073 93.7604 124.073 93.7604C124.073 93.7604 122.666 94.2675 122.094 94.3002C121.521 94.3492 118.315 91.9611 118.315 91.9611L117.71 91.634Z" fill="#F8A492"/>
<path d="M92.21 70.2708C92.21 70.2708 94.7453 72.43 98.0167 74.033C100.388 75.1943 103.742 75.7177 103.742 75.7177C103.742 75.7177 108.207 67.9645 110.35 64.5132C113.032 60.1785 101.762 49.023 101.697 49.0557C96.5119 51.7219 92.21 70.2708 92.21 70.2708Z" fill="#355389"/>
<path d="M112.444 169.593C112.444 169.593 109.058 179.832 107.291 185.999C106.67 188.174 106.261 189.843 106.261 190.366C106.31 193.261 120.475 188.06 117.58 186.817C116.909 186.539 114.799 185.459 114.636 185.328C113.769 184.576 118.43 173.698 118.43 173.698L112.444 169.593Z" fill="#F7A491"/>
<path d="M123.468 188.123L115.028 185.408C115.028 185.408 112.116 186.978 107.291 185.997C107.291 185.997 105.933 187.78 105.622 190.217C105.541 190.904 105.917 192.262 106.604 192.36C108.452 192.638 112.443 192.393 117.22 192.507C117.22 192.507 122.11 193.031 126.445 191.591C130.78 190.184 123.468 188.123 123.468 188.123Z" fill="#07345A"/>
<path d="M181.388 169.659C181.388 169.659 192.707 183.497 192.739 185.509C192.789 188.404 206.169 187.602 203.257 186.376C202.586 186.097 200.476 185.018 200.313 184.887C199.446 184.135 190.531 166.682 190.531 166.682L181.388 169.659Z" fill="#F7A491"/>
<path d="M209.163 187.698L200.559 185.016C200.559 185.016 197.582 186.537 192.756 185.539C192.756 185.539 191.497 187.567 191.284 190.217C191.252 190.675 191.023 192.033 191.481 192.098C193.133 192.344 197.68 192.245 202.816 192.36C202.816 192.36 209.735 192.442 214.07 191.019C218.388 189.596 209.163 187.698 209.163 187.698Z" fill="#07345A"/>
<path d="M118.838 98.4558L116.99 105.407L117.628 108.483C117.628 108.483 124.76 137.271 124.269 139.267C123.647 141.818 108.092 178.36 108.092 178.36C108.092 178.36 109.302 180.11 112.426 180.585C115.142 180.993 117.235 180.699 117.235 180.699C117.235 180.699 138.941 145.237 139.824 141.377C140.397 138.874 138.205 95.8223 138.205 95.8223L118.838 98.4558Z" fill="#F7CC7F"/>
<path d="M140.07 90.8984C140.07 90.8984 172.048 127.424 174.076 130.237C175.336 131.987 196.093 176.511 196.093 176.511C193.966 177.885 189.746 179.864 187.031 180.551C181.699 173.78 167.991 152.973 167.01 150.683C165.849 147.952 164.376 143.977 162.921 142.08C161.448 140.15 117.562 108.4 117.562 108.4L116.974 105.391L118.397 94.3171L140.07 90.8984Z" fill="#FAE0B2"/>
<path d="M110.857 18.8619C110.857 18.8619 106.931 16.212 105.263 20.8574C105.263 20.8574 103.038 20.1868 102.089 22.4604C102.089 22.4604 98.278 22.1824 98.6052 27.6947C98.6052 27.6947 96.6914 27.7601 96.9368 29.9847C97.1821 32.2256 98.6052 33.436 98.6052 33.436C98.6052 33.436 97.7383 34.4338 98.6543 36.3312C99.423 37.9506 100.895 37.9015 100.895 37.9015C100.895 37.9015 101.909 40.6985 103.349 41.2874C104.788 41.8763 106.391 41.0911 106.391 41.0911C106.391 41.0911 107.193 42.5469 108.616 42.0889C110.039 41.6309 111.527 39.848 113.294 40.1097C115.06 40.3714 119.133 38.7848 119.133 38.7848C119.133 38.7848 123.419 35.6279 120.916 31.097C120.916 31.097 122.912 28.2999 120.131 26.0753C120.131 26.0753 120.785 21.4954 117.089 19.6961C113.408 17.9132 110.857 18.8619 110.857 18.8619Z" fill="#07345A"/>
<path d="M115.584 41.8768L117.203 46.2932C117.203 46.2932 120.016 52.5416 118.528 54.1937C117.039 55.8458 109.253 47.8472 109.253 47.8472L107.323 36.1846L115.584 41.8768Z" fill="#F7A491"/>
<path d="M107.945 39.963C110.268 43.578 114.275 45.2137 116.958 45.6062L115.584 41.8605L107.323 36.1846L107.945 39.963Z" fill="#F47458"/>
<path d="M101.516 22.7389C101.745 23.753 103.135 24.2928 104.64 23.9657C106.145 23.6385 107.176 22.5426 106.947 21.5448C106.718 20.5307 105.327 19.9909 103.822 20.3181C102.334 20.6452 101.303 21.7248 101.516 22.7389Z" fill="#07345A"/>
<path d="M108.91 24.2105C112.035 22.2967 116.124 23.7525 117.4 27.122C117.956 28.5778 118.577 30.4425 119.068 32.5035C120.262 37.476 118.757 42.9229 116.484 43.4136C114.21 43.9207 107.226 42.0724 105.443 35.0225C104.33 30.6715 105.639 26.206 108.91 24.2105Z" fill="#F7A491"/>
<path d="M107.242 35.2026C107.487 36.2985 106.947 37.3617 106.048 37.558C105.148 37.7543 104.216 37.0182 103.97 35.9223C103.725 34.8263 104.265 33.7631 105.164 33.5669C106.064 33.3706 106.996 34.1066 107.242 35.2026Z" fill="#F7A491"/>
<path d="M110.497 31.5234C108.502 33.8461 105.59 34.5821 103.987 33.1591C102.368 31.736 102.678 28.6936 104.674 26.3709C106.67 24.0482 109.581 23.3121 111.184 24.7352C112.804 26.1419 112.493 29.1843 110.497 31.5234Z" fill="#07345A"/>
<path d="M107.878 27.2036C106.733 26.3367 106.864 24.243 108.173 22.5419C109.481 20.8407 111.461 20.1701 112.589 21.037C113.734 21.904 113.603 23.9977 112.295 25.6988C111.003 27.4163 109.023 28.0706 107.878 27.2036Z" fill="#07345A"/>
<path d="M101.239 49.3348C97.3134 53.1624 101.026 60.8829 102.253 63.9417C107.995 78.3032 115.339 86.0401 116.418 91.5197C117.514 96.9993 116.222 105.521 116.222 105.521C116.222 105.521 138.059 101.955 145.452 96.8357C145.452 96.8357 140.807 84.3062 139.891 81.1166C138.975 77.927 132.645 57.0063 129.079 51.6412C128.081 50.12 126.135 46.6523 122.176 44.853C121.865 44.7058 121.489 44.5259 121.08 44.4931C118.954 44.2805 102.629 47.9936 101.239 49.3348Z" fill="#466EB6"/>
<path d="M169.774 87.6753C168.58 86.9229 150.734 76.0946 149.965 75.4239L136.373 57.5947L126.019 59.2468C126.019 59.2468 141.623 81.1325 142.294 81.9994C142.948 82.85 159.845 88.1824 162.609 89.8181C162.609 89.8181 165.881 92.9423 166.306 93.3676C167.467 94.5289 170.919 93.7765 172.865 93.6457C174.337 93.5475 176.12 92.3535 176.12 92.3535C176.12 92.3535 174.108 91.6501 173.503 90.7995L172.947 88.575L169.774 87.6753Z" fill="#F8A492"/>
<path d="M142.131 63.2547C142.131 63.2547 138.287 65.6755 136.848 66.3298C135.098 67.1477 129.373 69.1759 129.373 69.1759C129.373 69.1759 125.349 60.9811 123.582 57.0881C121.423 52.3445 120.442 44.4931 121.129 44.4768C123.026 44.4277 126.478 45.8835 128.489 47.3393C135.785 52.7044 142.131 63.2547 142.131 63.2547Z" fill="#355389"/>
<path d="M33.9125 80.1992L31.8516 83.1926L34.3705 89.9317L40.8807 81.3769L33.9125 80.1992Z" fill="#F7A491"/>
<path d="M32.6201 81.1978C32.6201 81.1978 35.319 77.1576 36.7257 74.2788C37.9198 71.8579 39.0975 69.0445 42.4834 66.9344C44.8716 65.446 45.2151 77.861 45.2151 77.861L40.2425 87.0046C39.1957 84.6328 34.9428 82.5391 32.6201 81.1978Z" fill="#3C8F7C"/>
<path d="M31.2626 74.049L32.1949 72.3479C32.1949 72.3479 28.4655 71.9716 27.6313 71.9553C26.2737 71.9226 27.9748 75.652 27.9748 75.652L26.8789 77.2386C26.8789 77.2386 27.4514 91.044 31.05 93.7592C34.6485 96.4909 36.2188 94.4299 37.1839 92.238C38.0835 90.1771 32.2604 82.8982 31.2626 74.049Z" fill="#F48C7F"/>
<path d="M82.2803 25.3548C80.1702 15.328 65.1381 17.1763 63.028 24.8314C60.918 32.4865 60.6563 30.6382 47.2108 34.0568C33.7653 37.4918 34.1742 49.8741 34.1742 49.8741L35.8426 53.3581L48.6829 57.8727C48.6829 57.8727 77.6676 58.2162 78.2237 41.352C78.4364 34.5148 84.3904 35.3817 82.2803 25.3548Z" fill="#355389"/>
<path d="M33.4878 152.007L38.1168 184.721L38.5748 186.439L26.945 187.42C26.945 187.42 31.6231 184.591 31.574 184.067C31.1815 179.798 22.9375 149.815 22.9375 149.815L33.4878 152.007Z" fill="#F7A491"/>
<path d="M53.0823 57.3644C56.6972 52.8335 54.2273 43.9844 48.9603 42.1033C45.787 40.9747 43.2844 40.6802 39.2769 42.7412C36.1527 44.3442 34.2062 47.0758 34.1735 50.5763C34.1245 54.8945 36.7252 57.8551 39.326 60.7831C39.9149 61.4537 42.4011 61.5682 46.3268 61.1593C50.4652 60.0306 50.089 60.5868 53.0823 57.3644Z" fill="#355389"/>
<path d="M53.3123 107.286L69.9638 122.433C69.9638 122.433 60.6893 129.123 57.2216 131.609C53.7539 134.095 35.6467 149.635 35.2541 150.256C34.9597 150.73 35.9574 166.237 36.9062 174.988C34.9106 176.526 30.3961 176.82 27.7299 176.853C24.6874 165.141 21.8086 146.87 21.8086 144.842C21.8086 140.655 53.3123 107.286 53.3123 107.286Z" fill="#B75742"/>
<path d="M95.3176 180.779C94.7615 180.157 87.1391 175.888 83.0498 174.22C84.5219 172.044 86.2394 170.768 87.2699 168.331C90.0343 170.392 96.7079 174.465 98.3109 174.825C102.122 175.708 102.662 176.608 102.662 176.608C102.662 176.608 97.8202 189.334 96.5771 190.151C95.3176 190.953 97.5912 183.265 95.3176 180.779Z" fill="#F7A491"/>
<path d="M97.4603 174.63C97.493 173.632 101.975 174.875 103.005 175.153C104.167 175.447 104.886 176.461 104.935 176.641C105.034 177.099 99.2595 190.937 97.4275 193.293C97.2967 193.456 96.9205 193.735 96.8387 193.767C94.3197 195.01 94.287 183.168 95.432 181.516C96.4298 180.044 97.3131 179.128 97.4603 174.63Z" fill="#3C8F7C"/>
<path d="M92.52 169.034C84.8813 161.739 75.4923 156.063 74.3146 155.032C74.5109 152.202 75.067 124.87 74.1183 117.771C72.6789 107.171 66.4469 106.026 66.0216 100.007C66.0216 99.958 65.9725 99.3201 66.038 99.3037L49.1084 102.804C49.1084 102.804 51.1203 108.971 52.02 111.915C52.0036 111.915 57.7122 157.028 60.4111 160.316C61.4416 161.444 73.7912 169.394 87.7928 176.869C87.7928 176.869 89.0033 175.92 89.9193 174.595C91.4241 172.452 92.9126 169.41 92.52 169.034Z" fill="#F47458"/>
<path d="M42.2059 68.276C41.7316 68.6849 40.6029 69.8299 39.7851 69.9935C39.7687 69.9935 37.8549 75.9475 36.2029 82.6048C35.9412 83.0955 40.652 91.3722 41.6171 93.2696C44.6595 99.2726 50.5971 109.627 50.7116 109.643C53.7704 110.215 66.9541 102.397 67.3304 100.647C67.3467 100.581 64.5987 96.1648 62.9794 91.225C61.0329 85.2873 58.1704 67.7362 58.2685 67.1964L55.6678 63.0254C53.754 63.2217 44.316 66.4277 42.2059 68.276Z" fill="#50BFA5"/>
<path d="M46.0174 60.6858C46.0174 60.6858 47.0643 65.9364 48.0293 67.7847C48.9944 69.6331 47.9312 74.3766 43.8747 76.0614C39.8181 77.7462 42.5824 70.3201 42.2062 68.2755C41.8137 66.2308 39.54 60.375 39.54 60.375L46.0174 60.6858Z" fill="#F7A491"/>
<path d="M40.6347 63.3356C40.0459 61.7163 39.5225 60.375 39.5225 60.375L46.0162 60.6858C46.0162 60.6858 46.2289 61.7653 46.556 63.1066C44.3642 64.5624 42.2705 64.3825 40.6347 63.3356Z" fill="#F47458"/>
<path d="M42.5164 46.4387C42.5164 46.4387 45.1008 46.7494 46.9001 48.9576C48.6994 51.1659 50.4823 58.0522 45.706 61.8307C40.9298 65.6255 36.4643 61.4217 35.9409 56.9235C35.3847 52.4417 35.7446 46.3405 42.5164 46.4387Z" fill="#F7A491"/>
<path d="M34.5996 55.6471C35.1557 56.6939 36.0881 57.2664 36.6933 56.9556C37.2985 56.6285 37.3476 55.5326 36.7915 54.4857C36.2353 53.4389 35.303 52.8664 34.6977 53.1772C34.1089 53.5043 34.0598 54.6002 34.5996 55.6471Z" fill="#F7A491"/>
<path d="M38.0348 184.72C38.9835 184.426 39.6542 189.464 39.736 190.527C39.8341 191.721 38.6728 191.999 38.5255 192.081C38.133 192.31 23.428 192.572 20.0911 192.163C19.7967 192.13 18.9789 191.738 18.9298 191.574C18.4227 190.004 27.8771 184.769 30.6251 185.162C32.408 185.424 33.7493 186.045 38.0348 184.72Z" fill="#3C8F7C"/>
<path d="M41.748 46.3725C41.748 46.3725 45.7065 53.2425 48.5853 53.586C51.4641 53.9458 51.8076 57.5607 51.8076 57.5607C51.8076 57.5607 50.8753 49.2023 48.0455 47.5502C45.1994 45.9145 41.748 46.3725 41.748 46.3725Z" fill="#355389"/>
<path d="M47.6199 55.2049C47.3745 56.4153 47.8325 57.5276 48.6504 57.6912C49.4682 57.8547 50.3351 57.0205 50.5805 55.8101C50.8258 54.5997 50.3678 53.4874 49.55 53.3238C48.7321 53.1439 47.8652 53.9945 47.6199 55.2049Z" fill="#F7A491"/>
<path d="M4.37195 133.752C3.4396 133.752 2.47453 133.72 1.44403 133.638C0.577109 133.573 -0.0608146 132.82 0.00461366 131.953C0.0700419 131.086 0.822464 130.448 1.68939 130.514C13.9899 131.463 17.1959 126.621 21.5632 115.334C25.5216 105.046 18.2427 80.0196 18.1609 79.7742L17.7847 78.5147L53.4104 60.7019C54.1792 60.3093 55.1279 60.6365 55.5041 61.4052C55.8967 62.174 55.5695 63.1227 54.8007 63.4989L21.5305 80.1504C23.019 85.5646 28.335 106.485 24.4748 116.463C20.4673 126.801 16.787 133.752 4.37195 133.752Z" fill="#355389"/>
<path d="M42.4012 77.8118C40.5038 81.4594 35.9566 86.8409 33.9937 89.2617C30.8532 86.0394 27.271 84.9598 24.7683 82.539C23.3616 81.1813 24.1795 79.3493 23.9505 78.7278L22.462 79.0386C20.6463 79.3493 20.3683 77.2229 20.3683 77.2229C16.7697 76.9939 15.6902 81.7048 16.6062 82.2936C17.5385 82.8825 17.8002 82.6207 20.5973 84.5182C21.5787 85.1888 32.3744 99.0596 34.9588 99.2559C36.3655 99.3704 45.0184 90.4231 47.0957 85.8594C45.7544 82.4245 45.4437 80.1018 42.4012 77.8118Z" fill="#F7A491"/>
<path d="M56.6322 63.7462C58.1534 65.3655 58.546 68.0808 58.4315 70.1745C58.2515 73.4132 56.1251 76.3411 54.195 78.9583C51.6106 82.4587 49.6477 84.8795 46.0982 88.5435C43.4975 86.1717 41.2565 84.2416 38.0996 82.1315C38.0833 82.1152 45.5748 68.8169 46.6053 67.4102C49.4024 63.5826 53.3771 60.2949 56.6322 63.7462Z" fill="#96D9C9"/>
<path d="M31.3132 71.7584C31.3132 71.7584 30.8715 75.7496 29.8574 75.7659C29.3667 75.7659 29.9882 72.7726 29.8247 72.7072C29.3503 72.5599 29.6775 75.5696 28.9741 75.7986C28.2707 76.0276 28.6142 73.067 28.467 73.067C28.3198 73.0507 28.2871 75.7823 27.6165 76.0931C26.9458 76.4038 27.3384 74.1956 27.1748 73.9012C27.0113 73.6068 26.4878 76.2403 26.0625 75.8804C25.6373 75.5206 25.8663 73.4596 25.8663 73.4596C25.8663 73.4596 25.9808 72.8871 26.1607 72.5763C26.2752 72.3637 26.9295 71.7421 27.551 71.4967C28.189 71.2841 30.8879 71.1042 31.3132 71.7584Z" fill="#F7A491"/>
<path d="M203.47 77.8282L211.828 72.2832L221.675 85.0581L244.002 88.7875C244.002 88.7875 247.536 87.8224 249.629 88.3131C250.382 88.493 251.167 89.6053 251.167 89.6053C251.167 89.6053 249.384 89.9815 249.417 90.9302C249.449 91.879 251.527 92.7622 251.527 92.7622C251.527 92.7622 250.905 93.9399 250.218 94.2344C249.531 94.5288 249.727 94.7251 249.139 94.9541C248.55 95.1994 247.863 95.4284 247.388 95.6411C246.914 95.8537 245.229 94.5942 244.215 93.76C243.201 92.9258 221.004 93.3347 219.483 92.6805C216.146 91.2737 203.47 77.8282 203.47 77.8282Z" fill="#F7A491"/>
<path d="M212.875 71.4974C210.356 66.9174 205.89 59.7694 203.306 57.6593C202.112 56.6942 198.726 56.1381 197.286 56.6779C196.812 56.8578 195.814 57.7901 195.814 57.7901C194.342 59.9166 194.113 62.8772 194.849 65.3471C194.849 65.3635 194.866 65.3798 194.866 65.3962C196.174 69.7472 200.46 75.5866 203.322 79.1525C206.397 76.4536 210.47 74.7524 212.875 71.4974Z" fill="#F7CC7F"/>
</svg>
