<svg width="26" height="25" viewBox="0 0 26 25" fill="none" xmlns="http://www.w3.org/2000/svg">
<path d="M13 0C5.8214 0 0 5.5975 0 12.5C0 19.4025 5.8214 25 13 25C20.1786 25 26 19.4025 26 12.5C26 5.5975 20.1786 0 13 0ZM18.9357 9.74617C18.9414 9.86919 18.9442 9.99279 18.9442 10.117C18.9442 13.9082 15.9429 18.28 10.4544 18.2802H10.4546H10.4544C8.76929 18.2802 7.20122 17.8053 5.88071 16.9914C6.11418 17.0179 6.35182 17.0311 6.59244 17.0311C7.99051 17.0311 9.2771 16.5726 10.2985 15.803C8.99225 15.7797 7.89093 14.9502 7.51086 13.8102C7.69276 13.8437 7.87982 13.862 8.07164 13.862C8.34399 13.862 8.60782 13.8268 8.85855 13.7609C7.49321 13.4981 6.46469 12.3379 6.46469 10.9486C6.46469 10.9356 6.46469 10.924 6.46509 10.9119C6.86717 11.1269 7.32698 11.2562 7.81654 11.2707C7.01535 10.7567 6.48869 9.87797 6.48869 8.88252C6.48869 8.35686 6.63647 7.86438 6.89276 7.44038C8.36423 9.17645 10.5633 10.3182 13.0432 10.4382C12.9921 10.228 12.9657 10.009 12.9657 9.78394C12.9657 8.20007 14.3021 6.91509 15.9499 6.91509C16.8082 6.91509 17.5834 7.26395 18.1279 7.82166C18.8077 7.69272 19.446 7.45392 20.0227 7.12528C19.7995 7.79495 19.3266 8.35686 18.7105 8.7122C19.3141 8.64277 19.8894 8.48885 20.424 8.26035C20.0247 8.83579 19.5182 9.34124 18.9357 9.74617Z" fill="#FBAA26"/>
</svg>
