<svg width="41" height="41" viewBox="0 0 41 41" fill="none" xmlns="http://www.w3.org/2000/svg">
<circle cx="20.5" cy="20.5" r="20.5" fill="#EB7C28"/>
<path fill-rule="evenodd" clip-rule="evenodd" d="M14.7663 29.8731C12.2294 29.96 10.0991 27.9805 10 25.4439V20.834C10.0991 18.2974 12.2292 16.3175 14.7663 16.4039H15.7135C16.0519 16.4039 16.3646 16.5844 16.5338 16.8775C16.703 17.1706 16.703 17.5316 16.5338 17.8247C16.3646 18.1178 16.0519 18.2983 15.7135 18.2983H14.7663C13.3122 18.2481 12.0911 19.383 12.0346 20.8369V25.4468C12.0916 26.9006 13.3124 28.0351 14.7663 27.9855L26.0873 27.9854C27.541 28.035 28.7616 26.9004 28.8181 25.4468V20.8263C28.7615 19.3791 27.5463 18.2493 26.0986 18.2983H25.1401C24.8017 18.2983 24.489 18.1178 24.3198 17.8247C24.1506 17.5316 24.1506 17.1706 24.3198 16.8775C24.489 16.5844 24.8017 16.4039 25.1401 16.4039H26.0986C28.6296 16.3186 30.754 18.2939 30.8527 20.8245L30.8526 25.445C30.7535 27.9811 28.6238 29.9605 26.0873 29.8741L14.7663 29.8731ZM19.4082 23.2559V13.2155L18.1768 14.3616C17.7644 14.7195 17.1514 14.7195 16.739 14.3616C16.5495 14.1912 16.4413 13.9483 16.4413 13.6934C16.4413 13.4386 16.5495 13.1956 16.739 13.0252L19.7047 10.2574C20.1236 9.91421 20.7264 9.91421 21.1454 10.2574L24.111 13.0251C24.3 13.196 24.4078 13.4387 24.4078 13.6934C24.4078 13.9481 24.3 14.1908 24.111 14.3617C23.7023 14.7305 23.081 14.7305 22.6722 14.3617L21.4409 13.2155V23.2559H19.4082Z" fill="white"/>
</svg>
