<svg width="28" height="20" viewBox="0 0 28 20" fill="none" xmlns="http://www.w3.org/2000/svg">
<path d="M24.7666 20C26.1124 20 27.2512 18.913 27.2512 17.5154V2.60785C27.2512 1.26202 26.1124 0.123252 24.7666 0.123252H3.23343C1.83584 0.123252 0.748835 1.26202 0.748835 2.60785V17.5154C0.748835 18.913 1.83584 20 3.23343 20H24.7666ZM6.54622 3.02194C8.09909 3.02194 9.44491 4.36777 9.44491 5.92064C9.44491 7.52527 8.09909 8.81933 6.54622 8.81933C4.94159 8.81933 3.64753 7.52527 3.64753 5.92064C3.64753 4.36777 4.94159 3.02194 6.54622 3.02194ZM4.06163 16.6872V14.2026L7.73675 10.5275C7.99557 10.2687 8.3579 10.2687 8.61671 10.5275L11.5154 13.3744L18.5033 6.3865C18.7621 6.12769 19.1245 6.12769 19.3833 6.3865L23.9384 10.8898V16.6872H4.06163Z" fill="#7671BC"/>
</svg>
