<svg width="19" height="19" viewBox="0 0 19 19" fill="none" xmlns="http://www.w3.org/2000/svg">
<path d="M18.7891 17.6469L17.1149 15.9808C17.4676 15.4448 17.6839 14.8313 17.7452 14.1934C17.8064 13.5555 17.7108 12.9124 17.4665 12.3195C17.2223 11.7266 16.8367 11.2019 16.3431 10.7905C15.8496 10.3792 15.2629 10.0937 14.6337 9.95866L14.6074 9.9539V6.72713C14.6075 6.54003 14.5419 6.35878 14.4218 6.21485L14.4226 6.21643V6.21247C14.4075 6.19428 14.3916 6.17681 14.3748 6.16013L14.3685 6.15299L14.3469 6.13158L8.42083 0.23156C8.40433 0.215144 8.38706 0.19953 8.36905 0.184772L8.34834 0.170498C8.33541 0.160013 8.32212 0.149963 8.30852 0.140363L8.2886 0.126089L8.24559 0.0991267L8.22727 0.0896105C8.20922 0.079037 8.1893 0.0692565 8.16753 0.060269L8.14204 0.0499598L8.10142 0.0356856L8.07275 0.0269625L8.02655 0.0150673L8.00424 0.0103092C7.98161 0.00565385 7.95875 0.0022125 7.93574 0H0.808469C0.59472 0.000830357 0.389928 0.0855739 0.238559 0.23583C0.0871909 0.386086 0.00146673 0.589725 0 0.80253L0 16.9618C0.000207862 17.1755 0.0853513 17.3804 0.236833 17.5318C0.388314 17.6832 0.593822 17.7688 0.808469 17.7698H13.7997C14.5764 17.7712 15.336 17.5429 15.9822 17.114L15.9679 17.1227L17.6422 18.7897C17.7965 18.9295 17.999 19.0047 18.2077 18.9998C18.4163 18.9948 18.615 18.9101 18.7625 18.7631C18.91 18.6162 18.995 18.4183 18.9998 18.2106C19.0046 18.0029 18.9289 17.8013 18.7883 17.6477L18.7891 17.6485V17.6469ZM16.1407 13.8191C16.1408 14.1256 16.0802 14.4291 15.9624 14.7124C15.8446 14.9956 15.672 15.2529 15.4543 15.4697C15.2366 15.6865 14.9782 15.8585 14.6937 15.9758C14.4093 16.0932 14.1044 16.1536 13.7965 16.1537C13.4887 16.1537 13.1838 16.0934 12.8993 15.9762C12.6148 15.8589 12.3563 15.687 12.1386 15.4703C11.9208 15.2536 11.7481 14.9963 11.6302 14.7131C11.5123 14.4299 11.4516 14.1264 11.4516 13.8198C11.4514 13.2008 11.6982 12.607 12.1377 12.1691C12.5773 11.7312 13.1735 11.485 13.7954 11.4848C14.4172 11.4846 15.0136 11.7303 15.4534 12.1679C15.8933 12.6055 16.1405 13.2 16.1407 13.8191ZM8.6566 2.75176L11.8371 5.91905H8.6566V2.75176ZM1.62331 1.60982H7.03408V6.72713C7.03408 7.1736 7.3973 7.53521 7.84574 7.53521H12.9857V9.9539C11.1712 10.3401 9.82987 11.923 9.82987 13.8183C9.82987 14.6977 10.1182 15.5098 10.6065 16.1656L10.5985 16.1553H1.62251L1.62331 1.60982Z" fill="black"/>
</svg>
