<svg width="17" height="17" viewBox="0 0 17 17" fill="none" xmlns="http://www.w3.org/2000/svg">
<path d="M10.8314 15.6109C9.33648 16.114 7.72049 16.13 6.21595 15.6564C4.71141 15.1829 3.39587 14.2442 2.45862 12.9756C1.52137 11.707 1.01073 10.1737 1.00017 8.59641C0.989609 7.01914 1.47968 5.47918 2.39986 4.1981C3.32004 2.91702 4.6229 1.96087 6.12097 1.46722C7.61904 0.973575 9.23509 0.967883 10.7366 1.45096C12.2381 1.93405 13.5477 2.88099 14.4768 4.15556C15.406 5.43013 15.9069 6.9666 15.9075 8.54391C15.8834 9.14851 15.8102 9.75015 15.6886 10.3429" stroke="#989898"/>
<path d="M10.2111 14.2256C9.67488 14.8348 9.08703 15.3966 8.4541 15.9046" stroke="#989898"/>
<path d="M8.4541 1.00293C10.4661 2.7608 11.7111 5.23567 11.9231 7.89899C11.9667 8.38246 11.9757 8.86841 11.9501 9.35316" stroke="#989898"/>
<path d="M8.45373 1.00293C7.36208 1.95443 6.48508 3.12704 5.88083 4.44306C5.27657 5.75909 4.95886 7.18849 4.94873 8.63657C4.94873 13.4938 7.13148 14.933 8.44473 15.9044" stroke="#989898"/>
<path d="M1.96875 4.87109H14.9753" stroke="#989898"/>
<path d="M8.4541 1V15.9045" stroke="#989898"/>
<path d="M2.17188 12.5405H9.96443" stroke="#989898"/>
<path d="M1 8.637L15.9075 8.4541" stroke="#989898"/>
<path d="M14.9214 15.994L16.2496 14.6627L13.851 12.2641L15.2152 11.3916C15.2351 11.3798 15.2509 11.3623 15.2606 11.3414C15.2704 11.3204 15.2735 11.297 15.2696 11.2742C15.2657 11.2515 15.2549 11.2304 15.2388 11.2139C15.2227 11.1974 15.2019 11.1862 15.1792 11.1817L10.5949 10.1083C10.5759 10.1045 10.5563 10.1053 10.5378 10.1109C10.5193 10.1165 10.5025 10.1265 10.4888 10.1402C10.4752 10.1539 10.4651 10.1707 10.4595 10.1892C10.454 10.2077 10.4531 10.2273 10.4569 10.2462L11.4524 14.9176C11.4572 14.9403 11.4686 14.961 11.4852 14.9772C11.5018 14.9934 11.5229 15.0043 11.5457 15.0085C11.5686 15.0127 11.5921 15.01 11.6134 15.0007C11.6347 14.9915 11.6527 14.9761 11.6653 14.9565L12.5228 13.5953L14.9214 15.994Z" stroke="#989898"/>
</svg>
